M48
; DRILL file {KiCad 9.0.2} date 2025-06-08T15:41:02-0500
; FORMAT={-:-/ absolute / metric / decimal}
; #@! TF.CreationDate,2025-06-08T15:41:02-05:00
; #@! TF.GenerationSoftware,Kicad,Pcbnew,9.0.2
; #@! TF.FileFunction,Plated,1,4,PTH
FMAT,2
METRIC
; #@! TA.AperFunction,Plated,PTH,ViaDrill
T1C0.250
; #@! TA.AperFunction,Plated,PTH,ViaDrill
T2C0.300
; #@! TA.AperFunction,Plated,PTH,ViaDrill
T3C0.400
; #@! TA.AperFunction,Plated,PTH,ComponentDrill
T4C0.400
; #@! TA.AperFunction,Plated,PTH,ComponentDrill
T5C0.600
; #@! TA.AperFunction,Plated,PTH,ComponentDrill
T6C2.200
%
G90
G05
T1
X16.346Y8.723
X16.621Y9.898
X33.921Y8.648
T2
X5.171Y10.973
X8.171Y24.473
X9.017Y14.478
X13.021Y14.723
X13.071Y18.773
X13.871Y7.623
X18.821Y4.023
X22.646Y22.173
X23.596Y16.373
X26.521Y13.123
X26.621Y13.923
X27.221Y8.223
X28.021Y19.873
X28.371Y28.523
X28.771Y16.773
X29.591Y13.787
X29.821Y16.823
X29.846Y20.423
X30.171Y11.023
X30.821Y24.473
X31.396Y0.723
X31.571Y26.623
X31.846Y27.898
X32.121Y28.698
X32.571Y26.573
X32.571Y23.773
X32.771Y20.423
X32.821Y18.823
X32.821Y16.673
X34.371Y11.123
X34.521Y20.223
X34.621Y9.273
X34.821Y18.773
X34.821Y18.773
X34.921Y16.473
X34.971Y21.023
X34.996Y13.623
X35.771Y26.673
X36.421Y18.523
X36.621Y11.223
X36.721Y21.073
X36.771Y19.873
X37.071Y16.473
X37.771Y13.773
X37.871Y11.323
X39.721Y6.173
X39.871Y23.473
X40.521Y21.623
X40.521Y20.673
X40.571Y18.973
X40.621Y17.973
X41.871Y25.823
X43.271Y18.223
X44.571Y13.623
X46.371Y18.223
X50.171Y21.273
X50.171Y18.873
X56.771Y22.523
X56.821Y17.373
T3
X5.821Y6.773
X6.821Y0.773
X8.821Y30.773
X9.017Y21.717
X9.821Y27.773
X9.821Y8.773
X9.821Y0.773
X10.821Y3.773
X10.922Y24.384
X11.821Y30.773
X12.821Y27.773
X12.821Y1.773
X13.821Y24.773
X15.821Y28.773
X15.821Y0.773
X17.821Y30.773
X17.821Y26.773
X18.821Y28.773
X18.821Y25.773
X18.821Y0.773
X20.821Y10.773
X21.821Y28.773
X21.821Y25.773
X22.821Y30.773
X22.821Y12.773
X23.821Y26.773
X24.821Y28.773
X26.821Y5.773
X28.821Y30.773
X33.821Y30.773
X43.821Y0.773
X44.821Y29.773
X44.821Y23.773
X45.821Y27.773
X45.821Y10.773
X46.821Y5.773
X46.821Y0.773
X47.821Y25.773
X47.821Y23.773
X47.821Y11.773
X50.821Y25.773
X51.821Y15.773
X51.821Y12.773
X51.821Y9.773
X52.821Y22.773
X52.821Y17.773
X54.821Y12.773
X55.821Y16.773
X55.821Y7.773
X56.821Y23.773
X56.821Y15.773
X57.821Y23.773
X57.821Y16.773
X57.821Y13.773
X58.821Y22.773
X58.821Y10.773
X62.821Y-1.227
T4
X2.254Y3.44
X2.338Y27.94
X2.738Y4.606
X2.738Y2.273
X2.821Y29.106
X2.821Y26.773
X3.904Y5.09
X3.904Y1.79
X3.988Y29.59
X3.988Y26.29
X5.071Y4.606
X5.071Y2.273
X5.154Y29.106
X5.154Y26.773
X5.554Y3.44
X5.638Y27.94
X55.171Y27.773
X55.421Y3.523
X55.654Y28.94
X55.654Y26.606
X55.904Y4.69
X55.904Y2.356
X56.821Y29.423
X56.821Y26.123
X57.071Y5.173
X57.071Y1.873
X57.988Y28.94
X57.988Y26.606
X58.238Y4.69
X58.238Y2.356
X58.471Y27.773
X58.721Y3.523
T6
X3.904Y3.44
X3.988Y27.94
X56.821Y27.773
X57.071Y3.523
T5
G00X3.421Y22.413
M15
G01X2.621Y22.413
M16
G05
G00X3.421Y13.773
M15
G01X2.621Y13.773
M16
G05
G00X7.751Y22.413
M15
G01X6.651Y22.413
M16
G05
G00X7.751Y13.773
M15
G01X6.651Y13.773
M16
G05
M30
