%TF.GenerationSoftware,KiCad,Pcbnew,9.0.2*%
%TF.CreationDate,2025-06-08T15:41:30-05:00*%
%TF.ProjectId,STM32,53544d33-322e-46b6-9963-61645f706362,rev?*%
%TF.SameCoordinates,PX218c9f8PY54a9188*%
%TF.FileFunction,Copper,L4,Bot*%
%TF.FilePolarity,Positive*%
%FSLAX46Y46*%
G04 Gerber Fmt 4.6, Leading zero omitted, Abs format (unit mm)*
G04 Created by KiCad (PCBNEW 9.0.2) date 2025-06-08 15:41:30*
%MOMM*%
%LPD*%
G01*
G04 APERTURE LIST*
%TA.AperFunction,HeatsinkPad*%
%ADD10O,1.800000X1.000000*%
%TD*%
%TA.AperFunction,HeatsinkPad*%
%ADD11O,2.100000X1.000000*%
%TD*%
%TA.AperFunction,ComponentPad*%
%ADD12C,0.700000*%
%TD*%
%TA.AperFunction,ComponentPad*%
%ADD13C,4.400000*%
%TD*%
%TA.AperFunction,ViaPad*%
%ADD14C,0.900000*%
%TD*%
%TA.AperFunction,ViaPad*%
%ADD15C,0.700000*%
%TD*%
%TA.AperFunction,ViaPad*%
%ADD16C,0.650000*%
%TD*%
%TA.AperFunction,Conductor*%
%ADD17C,0.500000*%
%TD*%
%TA.AperFunction,Conductor*%
%ADD18C,0.200000*%
%TD*%
G04 APERTURE END LIST*
D10*
%TO.P,J1,S1,SHIELD*%
%TO.N,GND*%
X3021000Y13773000D03*
D11*
X7201000Y13773000D03*
D10*
X3021000Y22413000D03*
D11*
X7201000Y22413000D03*
%TD*%
D12*
%TO.P,H1,1,1*%
%TO.N,GND*%
X2337726Y27939726D03*
X2821000Y29106452D03*
X2821000Y26773000D03*
X3987726Y29589726D03*
D13*
X3987726Y27939726D03*
D12*
X3987726Y26289726D03*
X5154452Y29106452D03*
X5154452Y26773000D03*
X5637726Y27939726D03*
%TD*%
%TO.P,H3,1,1*%
%TO.N,GND*%
X55171000Y27773000D03*
X55654274Y28939726D03*
X55654274Y26606274D03*
X56821000Y29423000D03*
D13*
X56821000Y27773000D03*
D12*
X56821000Y26123000D03*
X57987726Y28939726D03*
X57987726Y26606274D03*
X58471000Y27773000D03*
%TD*%
%TO.P,H2,1,1*%
%TO.N,GND*%
X2254274Y3439726D03*
X2737548Y4606452D03*
X2737548Y2273000D03*
X3904274Y5089726D03*
D13*
X3904274Y3439726D03*
D12*
X3904274Y1789726D03*
X5071000Y4606452D03*
X5071000Y2273000D03*
X5554274Y3439726D03*
%TD*%
%TO.P,H4,1,1*%
%TO.N,GND*%
X55421000Y3523000D03*
X55904274Y4689726D03*
X55904274Y2356274D03*
X57071000Y5173000D03*
D13*
X57071000Y3523000D03*
D12*
X57071000Y1873000D03*
X58237726Y4689726D03*
X58237726Y2356274D03*
X58721000Y3523000D03*
%TD*%
D14*
%TO.N,GND*%
X10922000Y24384000D03*
D15*
X29591000Y13787000D03*
D14*
X46821000Y773000D03*
X43821000Y773000D03*
X18821000Y773000D03*
X15821000Y773000D03*
X9821000Y773000D03*
X6821000Y773000D03*
X54821000Y12773000D03*
X51821000Y12773000D03*
X50821000Y25773000D03*
X47821000Y25773000D03*
X47821000Y23773000D03*
X44821000Y23773000D03*
X24821000Y28773000D03*
X21821000Y28773000D03*
X21821000Y25773000D03*
X18821000Y25773000D03*
X13821000Y24773000D03*
X18821000Y28773000D03*
X15821000Y28773000D03*
X12821000Y27773000D03*
X9821000Y27773000D03*
%TO.N,*%
X62821000Y-1227000D03*
%TO.N,GND*%
X22821000Y12773000D03*
X20821000Y10773000D03*
X52821000Y17773000D03*
X55821000Y16773000D03*
X56821000Y15773000D03*
X57821000Y16773000D03*
X58821000Y22773000D03*
X57821000Y23773000D03*
X56821000Y23773000D03*
X52821000Y22773000D03*
X45821000Y27773000D03*
X47821000Y11773000D03*
X57821000Y13773000D03*
X55821000Y7773000D03*
X26821000Y5773000D03*
X5821000Y6773000D03*
X9821000Y8773000D03*
X12821000Y1773000D03*
X10821000Y3773000D03*
X45821000Y10773000D03*
X58821000Y10773000D03*
X46821000Y5773000D03*
X51821000Y9773000D03*
X51821000Y15773000D03*
X44821000Y29773000D03*
X23821000Y26773000D03*
X17821000Y26773000D03*
X33821000Y30773000D03*
X28821000Y30773000D03*
X22821000Y30773000D03*
X17821000Y30773000D03*
X11821000Y30773000D03*
X8821000Y30773000D03*
D15*
X34821000Y18773000D03*
X50171000Y18873000D03*
X13021000Y14723000D03*
X32821000Y18823000D03*
X32771000Y20423000D03*
D16*
X33920998Y8648000D03*
D15*
X28021000Y19873000D03*
X8171000Y24473000D03*
X56771000Y22523000D03*
X41871000Y25823000D03*
X5171000Y10973000D03*
X31571000Y26623000D03*
X36721000Y21073000D03*
X40621000Y17973000D03*
X50171000Y21273000D03*
X34521000Y20223000D03*
X34821000Y18773000D03*
X9017000Y14478000D03*
X44571000Y13623000D03*
X34971000Y21023000D03*
X13071000Y18773000D03*
X36621000Y11223000D03*
X28771000Y16773000D03*
X46371000Y18223000D03*
X30171000Y11023000D03*
X34371000Y11123000D03*
X34921000Y16473000D03*
X32821000Y16673000D03*
X39871000Y23473000D03*
X40521000Y20673000D03*
X18821000Y4023000D03*
X37071000Y16473000D03*
X23596000Y16373000D03*
X35771000Y26673000D03*
X36771000Y19873000D03*
X13871000Y7623000D03*
X37871000Y11323000D03*
X28371000Y28523000D03*
X43271000Y18223000D03*
X56821000Y17373000D03*
X27221000Y8223000D03*
X36421000Y18523000D03*
X30821000Y24473000D03*
%TO.N,+3V3*%
X40571000Y18973000D03*
X26621000Y13923000D03*
X32121000Y28698000D03*
X32571000Y26573000D03*
X31846000Y27898000D03*
X31396000Y723000D03*
X32571000Y23773000D03*
X40521000Y21623000D03*
X29846000Y20423000D03*
D16*
X16621000Y9898000D03*
D15*
X39721000Y6173000D03*
X29821000Y16823000D03*
X26521000Y13123000D03*
D16*
X16346000Y8723000D03*
D15*
X22646000Y22173000D03*
X37771000Y13773000D03*
%TO.N,/BOOT0*%
X34996000Y13623000D03*
X34621000Y9273000D03*
D14*
%TO.N,GND*%
X9017000Y21717000D03*
%TD*%
D17*
%TO.N,+3V3*%
X27346000Y13923000D02*
X27521000Y13748000D01*
X26621000Y13923000D02*
X27346000Y13923000D01*
D18*
%TO.N,/BOOT0*%
X35221000Y13773000D02*
X35221000Y9873000D01*
X35221000Y9873000D02*
X34621000Y9273000D01*
%TD*%
%TA.AperFunction,Conductor*%
%TO.N,+3V3*%
G36*
X8280168Y31472177D02*
G01*
X8332490Y31450496D01*
X8354157Y31398167D01*
X8332483Y31345851D01*
X8238048Y31251416D01*
X8155915Y31128495D01*
X8099343Y30991918D01*
X8099340Y30991908D01*
X8070500Y30846917D01*
X8070500Y30699084D01*
X8099340Y30554093D01*
X8099343Y30554083D01*
X8155915Y30417506D01*
X8197046Y30355950D01*
X8238049Y30294584D01*
X8342584Y30190049D01*
X8465505Y30107916D01*
X8602087Y30051342D01*
X8747082Y30022500D01*
X8747084Y30022500D01*
X8894916Y30022500D01*
X8894918Y30022500D01*
X9039913Y30051342D01*
X9176495Y30107916D01*
X9299416Y30190049D01*
X9403951Y30294584D01*
X9486084Y30417505D01*
X9542658Y30554087D01*
X9571500Y30699082D01*
X9571500Y30846918D01*
X9542658Y30991913D01*
X9525343Y31033714D01*
X9486084Y31128495D01*
X9403951Y31251416D01*
X9309659Y31345708D01*
X9287985Y31398034D01*
X9309659Y31450360D01*
X9361984Y31472034D01*
X11279775Y31471783D01*
X11332096Y31450102D01*
X11353763Y31397773D01*
X11332089Y31345457D01*
X11238048Y31251416D01*
X11155915Y31128495D01*
X11099343Y30991918D01*
X11099340Y30991908D01*
X11070500Y30846917D01*
X11070500Y30699084D01*
X11099340Y30554093D01*
X11099343Y30554083D01*
X11155915Y30417506D01*
X11197046Y30355950D01*
X11238049Y30294584D01*
X11342584Y30190049D01*
X11465505Y30107916D01*
X11602087Y30051342D01*
X11747082Y30022500D01*
X11747084Y30022500D01*
X11894916Y30022500D01*
X11894918Y30022500D01*
X12039913Y30051342D01*
X12176495Y30107916D01*
X12299416Y30190049D01*
X12403951Y30294584D01*
X12486084Y30417505D01*
X12542658Y30554087D01*
X12571500Y30699082D01*
X12571500Y30846918D01*
X12542658Y30991913D01*
X12525343Y31033714D01*
X12486084Y31128495D01*
X12403951Y31251416D01*
X12310054Y31345313D01*
X12288380Y31397639D01*
X12310054Y31449965D01*
X12362379Y31471639D01*
X17278982Y31470992D01*
X17331305Y31449311D01*
X17352972Y31396982D01*
X17331298Y31344666D01*
X17238048Y31251416D01*
X17155915Y31128495D01*
X17099343Y30991918D01*
X17099340Y30991908D01*
X17070500Y30846917D01*
X17070500Y30699084D01*
X17099340Y30554093D01*
X17099343Y30554083D01*
X17155915Y30417506D01*
X17197046Y30355950D01*
X17238049Y30294584D01*
X17342584Y30190049D01*
X17465505Y30107916D01*
X17602087Y30051342D01*
X17747082Y30022500D01*
X17747084Y30022500D01*
X17894916Y30022500D01*
X17894918Y30022500D01*
X18039913Y30051342D01*
X18176495Y30107916D01*
X18299416Y30190049D01*
X18403951Y30294584D01*
X18486084Y30417505D01*
X18542658Y30554087D01*
X18571500Y30699082D01*
X18571500Y30846918D01*
X18542658Y30991913D01*
X18525343Y31033714D01*
X18486084Y31128495D01*
X18403951Y31251416D01*
X18310843Y31344524D01*
X18289169Y31396850D01*
X18310843Y31449176D01*
X18363166Y31470850D01*
X22278324Y31470334D01*
X22330647Y31448653D01*
X22352314Y31396324D01*
X22330640Y31344008D01*
X22238048Y31251416D01*
X22155915Y31128495D01*
X22099343Y30991918D01*
X22099340Y30991908D01*
X22070500Y30846917D01*
X22070500Y30699084D01*
X22099340Y30554093D01*
X22099343Y30554083D01*
X22155915Y30417506D01*
X22197046Y30355950D01*
X22238049Y30294584D01*
X22342584Y30190049D01*
X22465505Y30107916D01*
X22602087Y30051342D01*
X22747082Y30022500D01*
X22747084Y30022500D01*
X22894916Y30022500D01*
X22894918Y30022500D01*
X23039913Y30051342D01*
X23176495Y30107916D01*
X23299416Y30190049D01*
X23403951Y30294584D01*
X23486084Y30417505D01*
X23542658Y30554087D01*
X23571500Y30699082D01*
X23571500Y30846918D01*
X23542658Y30991913D01*
X23525343Y31033714D01*
X23486084Y31128495D01*
X23403951Y31251416D01*
X23311501Y31343866D01*
X23289827Y31396192D01*
X23311501Y31448518D01*
X23363824Y31470192D01*
X28277535Y31469545D01*
X28329858Y31447864D01*
X28351525Y31395535D01*
X28329851Y31343219D01*
X28238048Y31251416D01*
X28155915Y31128495D01*
X28099343Y30991918D01*
X28099340Y30991908D01*
X28070500Y30846917D01*
X28070500Y30699084D01*
X28099340Y30554093D01*
X28099343Y30554083D01*
X28155915Y30417506D01*
X28197046Y30355950D01*
X28238049Y30294584D01*
X28342584Y30190049D01*
X28465505Y30107916D01*
X28602087Y30051342D01*
X28747082Y30022500D01*
X28747084Y30022500D01*
X28894916Y30022500D01*
X28894918Y30022500D01*
X29039913Y30051342D01*
X29176495Y30107916D01*
X29299416Y30190049D01*
X29403951Y30294584D01*
X29486084Y30417505D01*
X29542658Y30554087D01*
X29571500Y30699082D01*
X29571500Y30846918D01*
X29542658Y30991913D01*
X29525343Y31033714D01*
X29486084Y31128495D01*
X29403951Y31251416D01*
X29312291Y31343076D01*
X29290617Y31395402D01*
X29312291Y31447728D01*
X29364615Y31469402D01*
X33276877Y31468887D01*
X33329200Y31447206D01*
X33350867Y31394877D01*
X33329193Y31342561D01*
X33238048Y31251416D01*
X33155915Y31128495D01*
X33099343Y30991918D01*
X33099340Y30991908D01*
X33070500Y30846917D01*
X33070500Y30699084D01*
X33099340Y30554093D01*
X33099343Y30554083D01*
X33155915Y30417506D01*
X33197046Y30355950D01*
X33238049Y30294584D01*
X33342584Y30190049D01*
X33465505Y30107916D01*
X33602087Y30051342D01*
X33747082Y30022500D01*
X33747084Y30022500D01*
X33894916Y30022500D01*
X33894918Y30022500D01*
X34039913Y30051342D01*
X34176495Y30107916D01*
X34299416Y30190049D01*
X34403951Y30294584D01*
X34486084Y30417505D01*
X34542658Y30554087D01*
X34571500Y30699082D01*
X34571500Y30846918D01*
X34542658Y30991913D01*
X34525343Y31033714D01*
X34486084Y31128495D01*
X34403951Y31251416D01*
X34312949Y31342418D01*
X34291275Y31394744D01*
X34312949Y31447070D01*
X34365273Y31468744D01*
X59766278Y31465400D01*
X59766301Y31465392D01*
X59810271Y31465393D01*
X59817509Y31465038D01*
X59943112Y31452667D01*
X59957330Y31449839D01*
X60074610Y31414263D01*
X60088013Y31408711D01*
X60189223Y31354613D01*
X60196086Y31350945D01*
X60208148Y31342886D01*
X60302881Y31265140D01*
X60313139Y31254882D01*
X60390885Y31160149D01*
X60398944Y31148087D01*
X60456710Y31040013D01*
X60462262Y31026611D01*
X60497837Y30909336D01*
X60500667Y30895108D01*
X60513036Y30769511D01*
X60513392Y30762277D01*
X60513392Y30759007D01*
X60513392Y30718301D01*
X60513403Y30718265D01*
X60513405Y30712565D01*
X60513405Y30712563D01*
X60520460Y836160D01*
X60519991Y829768D01*
X60520449Y783972D01*
X60520117Y776193D01*
X60507103Y640008D01*
X60504004Y624764D01*
X60463988Y498044D01*
X60457772Y483786D01*
X60392150Y368224D01*
X60383089Y355580D01*
X60294761Y256292D01*
X60283259Y245821D01*
X60176128Y167189D01*
X60162691Y159355D01*
X60041487Y104853D01*
X60026708Y100000D01*
X59911293Y75160D01*
X59895714Y73503D01*
X47363021Y75012D01*
X47310698Y96692D01*
X47289030Y149021D01*
X47310703Y201337D01*
X47403951Y294584D01*
X47486084Y417505D01*
X47542658Y554087D01*
X47571500Y699082D01*
X47571500Y846918D01*
X47542658Y991913D01*
X47529988Y1022500D01*
X47486084Y1128495D01*
X47403951Y1251416D01*
X47299415Y1355952D01*
X47176494Y1438085D01*
X47039917Y1494657D01*
X47039907Y1494660D01*
X46942811Y1513974D01*
X46894918Y1523500D01*
X46747082Y1523500D01*
X46705977Y1515324D01*
X46602092Y1494660D01*
X46602082Y1494657D01*
X46465505Y1438085D01*
X46342584Y1355952D01*
X46342583Y1355950D01*
X46238050Y1251417D01*
X46238048Y1251416D01*
X46155915Y1128495D01*
X46099343Y991918D01*
X46099340Y991908D01*
X46070500Y846917D01*
X46070500Y699084D01*
X46099340Y554093D01*
X46099343Y554083D01*
X46155915Y417506D01*
X46238048Y294585D01*
X46331166Y201467D01*
X46352840Y149141D01*
X46331166Y96815D01*
X46278840Y75141D01*
X46278831Y75141D01*
X44363381Y75372D01*
X44311058Y97052D01*
X44289390Y149381D01*
X44311063Y201697D01*
X44403951Y294584D01*
X44486084Y417505D01*
X44542658Y554087D01*
X44571500Y699082D01*
X44571500Y846918D01*
X44542658Y991913D01*
X44529988Y1022500D01*
X44486084Y1128495D01*
X44403951Y1251416D01*
X44299415Y1355952D01*
X44176494Y1438085D01*
X44039917Y1494657D01*
X44039907Y1494660D01*
X43942811Y1513974D01*
X43894918Y1523500D01*
X43747082Y1523500D01*
X43705977Y1515324D01*
X43602092Y1494660D01*
X43602082Y1494657D01*
X43465505Y1438085D01*
X43342584Y1355952D01*
X43342583Y1355950D01*
X43238050Y1251417D01*
X43238048Y1251416D01*
X43155915Y1128495D01*
X43099343Y991918D01*
X43099340Y991908D01*
X43070500Y846917D01*
X43070500Y699084D01*
X43099340Y554093D01*
X43099343Y554083D01*
X43155915Y417506D01*
X43238048Y294585D01*
X43330805Y201828D01*
X43352479Y149502D01*
X43330805Y97176D01*
X43278479Y75502D01*
X43278470Y75502D01*
X19366387Y78378D01*
X19314064Y100058D01*
X19292396Y152387D01*
X19314069Y204703D01*
X19403951Y294584D01*
X19486084Y417505D01*
X19542658Y554087D01*
X19571500Y699082D01*
X19571500Y846918D01*
X19542658Y991913D01*
X19529988Y1022500D01*
X19486084Y1128495D01*
X19403951Y1251416D01*
X19299415Y1355952D01*
X19176494Y1438085D01*
X19039917Y1494657D01*
X19039907Y1494660D01*
X18942811Y1513974D01*
X18894918Y1523500D01*
X18747082Y1523500D01*
X18705977Y1515324D01*
X18602092Y1494660D01*
X18602082Y1494657D01*
X18465505Y1438085D01*
X18342584Y1355952D01*
X18342583Y1355950D01*
X18238050Y1251417D01*
X18238048Y1251416D01*
X18155915Y1128495D01*
X18099343Y991918D01*
X18099340Y991908D01*
X18070500Y846917D01*
X18070500Y699084D01*
X18099340Y554093D01*
X18099343Y554083D01*
X18155915Y417506D01*
X18238048Y294585D01*
X18327797Y204836D01*
X18349471Y152510D01*
X18327797Y100184D01*
X18275471Y78510D01*
X18275462Y78510D01*
X16366748Y78739D01*
X16314425Y100419D01*
X16292757Y152748D01*
X16314430Y205064D01*
X16403951Y294584D01*
X16486084Y417505D01*
X16542658Y554087D01*
X16571500Y699082D01*
X16571500Y846918D01*
X16542658Y991913D01*
X16529988Y1022500D01*
X16486084Y1128495D01*
X16403951Y1251416D01*
X16299415Y1355952D01*
X16176494Y1438085D01*
X16039917Y1494657D01*
X16039907Y1494660D01*
X15942811Y1513974D01*
X15894918Y1523500D01*
X15747082Y1523500D01*
X15705977Y1515324D01*
X15602092Y1494660D01*
X15602082Y1494657D01*
X15465505Y1438085D01*
X15342584Y1355952D01*
X15342583Y1355950D01*
X15238050Y1251417D01*
X15238048Y1251416D01*
X15155915Y1128495D01*
X15099343Y991918D01*
X15099340Y991908D01*
X15070500Y846917D01*
X15070500Y699084D01*
X15099340Y554093D01*
X15099343Y554083D01*
X15155915Y417506D01*
X15238048Y294585D01*
X15327436Y205197D01*
X15349110Y152871D01*
X15327436Y100545D01*
X15275110Y78871D01*
X15275101Y78871D01*
X10367470Y79461D01*
X10315147Y101141D01*
X10293479Y153470D01*
X10315152Y205786D01*
X10403951Y294584D01*
X10486084Y417505D01*
X10542658Y554087D01*
X10571500Y699082D01*
X10571500Y846918D01*
X10542658Y991913D01*
X10529988Y1022500D01*
X10486084Y1128495D01*
X10403951Y1251416D01*
X10299415Y1355952D01*
X10176494Y1438085D01*
X10039917Y1494657D01*
X10039907Y1494660D01*
X9942811Y1513974D01*
X9894918Y1523500D01*
X9747082Y1523500D01*
X9705977Y1515324D01*
X9602092Y1494660D01*
X9602082Y1494657D01*
X9465505Y1438085D01*
X9342584Y1355952D01*
X9342583Y1355950D01*
X9238050Y1251417D01*
X9238048Y1251416D01*
X9155915Y1128495D01*
X9099343Y991918D01*
X9099340Y991908D01*
X9070500Y846917D01*
X9070500Y699084D01*
X9099340Y554093D01*
X9099343Y554083D01*
X9155915Y417506D01*
X9238048Y294585D01*
X9326714Y205919D01*
X9348388Y153593D01*
X9326714Y101267D01*
X9274388Y79593D01*
X9274379Y79593D01*
X7367830Y79821D01*
X7315507Y101501D01*
X7293839Y153830D01*
X7315512Y206146D01*
X7403951Y294584D01*
X7486084Y417505D01*
X7542658Y554087D01*
X7571500Y699082D01*
X7571500Y846918D01*
X7542658Y991913D01*
X7529988Y1022500D01*
X7486084Y1128495D01*
X7403951Y1251416D01*
X7299415Y1355952D01*
X7176494Y1438085D01*
X7039917Y1494657D01*
X7039907Y1494660D01*
X6942811Y1513974D01*
X6894918Y1523500D01*
X6747082Y1523500D01*
X6705977Y1515324D01*
X6602092Y1494660D01*
X6602082Y1494657D01*
X6465505Y1438085D01*
X6342584Y1355952D01*
X6342583Y1355950D01*
X6238050Y1251417D01*
X6238048Y1251416D01*
X6155915Y1128495D01*
X6099343Y991918D01*
X6099340Y991908D01*
X6070500Y846917D01*
X6070500Y699084D01*
X6099340Y554093D01*
X6099343Y554083D01*
X6155915Y417506D01*
X6238048Y294585D01*
X6326353Y206280D01*
X6348027Y153954D01*
X6326353Y101628D01*
X6274027Y79954D01*
X6274018Y79954D01*
X881403Y80602D01*
X875715Y80603D01*
X875699Y80608D01*
X831731Y80608D01*
X831729Y80609D01*
X824487Y80964D01*
X698892Y93333D01*
X684664Y96163D01*
X567389Y131738D01*
X553987Y137290D01*
X445913Y195056D01*
X433851Y203115D01*
X339118Y280861D01*
X328860Y291119D01*
X251114Y385852D01*
X243055Y397914D01*
X185289Y505988D01*
X179737Y519390D01*
X169210Y554093D01*
X144161Y636670D01*
X141333Y650888D01*
X128962Y776491D01*
X128607Y783744D01*
X128607Y784687D01*
X128608Y827699D01*
X128607Y827702D01*
X128607Y833556D01*
X128593Y833727D01*
X127942Y3580151D01*
X1403774Y3580151D01*
X1403774Y3299301D01*
X1404306Y3294583D01*
X1435219Y3020214D01*
X1435219Y3020213D01*
X1497711Y2746417D01*
X1497716Y2746401D01*
X1590472Y2481319D01*
X1712326Y2228286D01*
X1712328Y2228282D01*
X1712329Y2228281D01*
X1861751Y1990478D01*
X2036858Y1770901D01*
X2235449Y1572310D01*
X2455026Y1397203D01*
X2692829Y1247781D01*
X2945866Y1125925D01*
X3210956Y1033166D01*
X3210961Y1033165D01*
X3210964Y1033164D01*
X3484760Y970672D01*
X3484761Y970672D01*
X3484765Y970671D01*
X3763849Y939226D01*
X3763853Y939226D01*
X4044695Y939226D01*
X4044699Y939226D01*
X4323783Y970671D01*
X4597592Y1033166D01*
X4862682Y1125925D01*
X5115719Y1247781D01*
X5353522Y1397203D01*
X5573099Y1572310D01*
X5771690Y1770901D01*
X5832311Y1846917D01*
X12070500Y1846917D01*
X12070500Y1699084D01*
X12099340Y1554093D01*
X12099343Y1554083D01*
X12155915Y1417506D01*
X12197046Y1355950D01*
X12238049Y1294584D01*
X12342584Y1190049D01*
X12465505Y1107916D01*
X12602087Y1051342D01*
X12747082Y1022500D01*
X12747084Y1022500D01*
X12894916Y1022500D01*
X12894918Y1022500D01*
X13039913Y1051342D01*
X13176495Y1107916D01*
X13299416Y1190049D01*
X13403951Y1294584D01*
X13486084Y1417505D01*
X13542658Y1554087D01*
X13571500Y1699082D01*
X13571500Y1846918D01*
X13542658Y1991913D01*
X13486084Y2128495D01*
X13403951Y2251416D01*
X13299416Y2355951D01*
X13176495Y2438084D01*
X13176496Y2438084D01*
X13176494Y2438085D01*
X13039917Y2494657D01*
X13039907Y2494660D01*
X12942811Y2513974D01*
X12894918Y2523500D01*
X12747082Y2523500D01*
X12705977Y2515324D01*
X12602092Y2494660D01*
X12602082Y2494657D01*
X12465505Y2438085D01*
X12342584Y2355952D01*
X12342583Y2355950D01*
X12238050Y2251417D01*
X12238048Y2251416D01*
X12155915Y2128495D01*
X12099343Y1991918D01*
X12099340Y1991908D01*
X12070500Y1846917D01*
X5832311Y1846917D01*
X5946797Y1990478D01*
X6096219Y2228281D01*
X6218075Y2481318D01*
X6310834Y2746408D01*
X6373329Y3020217D01*
X6404774Y3299301D01*
X6404774Y3580151D01*
X6374717Y3846917D01*
X10070500Y3846917D01*
X10070500Y3699084D01*
X10099340Y3554093D01*
X10099343Y3554083D01*
X10155915Y3417506D01*
X10234895Y3299305D01*
X10238049Y3294584D01*
X10342584Y3190049D01*
X10465505Y3107916D01*
X10602087Y3051342D01*
X10747082Y3022500D01*
X10747084Y3022500D01*
X10894916Y3022500D01*
X10894918Y3022500D01*
X11039913Y3051342D01*
X11176495Y3107916D01*
X11299416Y3190049D01*
X11403951Y3294584D01*
X11486084Y3417505D01*
X11542658Y3554087D01*
X11571500Y3699082D01*
X11571500Y3846918D01*
X11542658Y3991913D01*
X11503244Y4087068D01*
X18170500Y4087068D01*
X18170500Y3958933D01*
X18195497Y3833261D01*
X18195498Y3833258D01*
X18195499Y3833256D01*
X18244535Y3714873D01*
X18315724Y3608331D01*
X18406331Y3517724D01*
X18512873Y3446535D01*
X18631256Y3397499D01*
X18631258Y3397499D01*
X18631260Y3397498D01*
X18673903Y3389016D01*
X18756931Y3372500D01*
X18756933Y3372500D01*
X18885067Y3372500D01*
X18885069Y3372500D01*
X19010744Y3397499D01*
X19129127Y3446535D01*
X19235669Y3517724D01*
X19326276Y3608331D01*
X19363089Y3663425D01*
X54570500Y3663425D01*
X54570500Y3382575D01*
X54579882Y3299305D01*
X54601945Y3103488D01*
X54601945Y3103487D01*
X54664437Y2829691D01*
X54664442Y2829675D01*
X54757198Y2564593D01*
X54879052Y2311560D01*
X55028477Y2073752D01*
X55169678Y1896691D01*
X55203584Y1854175D01*
X55402175Y1655584D01*
X55621752Y1480477D01*
X55859555Y1331055D01*
X55859558Y1331054D01*
X55859559Y1331053D01*
X56032480Y1247779D01*
X56112592Y1209199D01*
X56377682Y1116440D01*
X56377687Y1116439D01*
X56377690Y1116438D01*
X56651486Y1053946D01*
X56651487Y1053946D01*
X56651491Y1053945D01*
X56930575Y1022500D01*
X56930579Y1022500D01*
X57211421Y1022500D01*
X57211425Y1022500D01*
X57490509Y1053945D01*
X57764318Y1116440D01*
X58029408Y1209199D01*
X58282445Y1331055D01*
X58520248Y1480477D01*
X58739825Y1655584D01*
X58938416Y1854175D01*
X59113523Y2073752D01*
X59262945Y2311555D01*
X59384801Y2564592D01*
X59477560Y2829682D01*
X59540055Y3103491D01*
X59571500Y3382575D01*
X59571500Y3663425D01*
X59540055Y3942509D01*
X59512694Y4062386D01*
X59477562Y4216310D01*
X59477557Y4216326D01*
X59437386Y4331127D01*
X59384801Y4481408D01*
X59262945Y4734445D01*
X59113523Y4972248D01*
X58938416Y5191825D01*
X58739825Y5390416D01*
X58520248Y5565523D01*
X58282445Y5714945D01*
X58282444Y5714946D01*
X58282440Y5714948D01*
X58029407Y5836802D01*
X57764325Y5929558D01*
X57764309Y5929563D01*
X57490513Y5992055D01*
X57350967Y6007778D01*
X57211425Y6023500D01*
X56930575Y6023500D01*
X56791033Y6007778D01*
X56651487Y5992055D01*
X56651486Y5992055D01*
X56377690Y5929563D01*
X56377674Y5929558D01*
X56112592Y5836802D01*
X55859559Y5714948D01*
X55621751Y5565523D01*
X55402175Y5390417D01*
X55203583Y5191825D01*
X55028477Y4972249D01*
X54879052Y4734441D01*
X54757198Y4481408D01*
X54664442Y4216326D01*
X54664437Y4216310D01*
X54601945Y3942514D01*
X54601945Y3942513D01*
X54589636Y3833261D01*
X54570500Y3663425D01*
X19363089Y3663425D01*
X19397465Y3714873D01*
X19446501Y3833256D01*
X19471500Y3958931D01*
X19471500Y4087069D01*
X19446501Y4212744D01*
X19397465Y4331127D01*
X19326276Y4437669D01*
X19235669Y4528276D01*
X19129127Y4599465D01*
X19129124Y4599467D01*
X19129123Y4599467D01*
X19010742Y4648502D01*
X19010739Y4648503D01*
X18920696Y4666414D01*
X18885069Y4673500D01*
X18756931Y4673500D01*
X18725726Y4667293D01*
X18631260Y4648503D01*
X18631257Y4648502D01*
X18512876Y4599467D01*
X18406331Y4528277D01*
X18406330Y4528275D01*
X18315725Y4437670D01*
X18315723Y4437669D01*
X18244533Y4331124D01*
X18195498Y4212743D01*
X18195497Y4212740D01*
X18170500Y4087068D01*
X11503244Y4087068D01*
X11486084Y4128495D01*
X11403951Y4251416D01*
X11299416Y4355951D01*
X11177117Y4437669D01*
X11176494Y4438085D01*
X11039917Y4494657D01*
X11039907Y4494660D01*
X10942811Y4513974D01*
X10894918Y4523500D01*
X10747082Y4523500D01*
X10705977Y4515324D01*
X10602092Y4494660D01*
X10602082Y4494657D01*
X10465505Y4438085D01*
X10342584Y4355952D01*
X10342583Y4355950D01*
X10238050Y4251417D01*
X10238048Y4251416D01*
X10155915Y4128495D01*
X10099343Y3991918D01*
X10099340Y3991908D01*
X10070500Y3846917D01*
X6374717Y3846917D01*
X6373329Y3859235D01*
X6354322Y3942509D01*
X6310836Y4133036D01*
X6310831Y4133052D01*
X6218075Y4398134D01*
X6096221Y4651167D01*
X6096220Y4651168D01*
X6096219Y4651171D01*
X5946797Y4888974D01*
X5771690Y5108551D01*
X5573099Y5307142D01*
X5353522Y5482249D01*
X5115719Y5631671D01*
X5115718Y5631672D01*
X5115714Y5631674D01*
X4862681Y5753528D01*
X4785010Y5780706D01*
X4597599Y5846284D01*
X4597583Y5846289D01*
X4594832Y5846917D01*
X26070500Y5846917D01*
X26070500Y5699084D01*
X26099340Y5554093D01*
X26099343Y5554083D01*
X26155915Y5417506D01*
X26174016Y5390417D01*
X26238049Y5294584D01*
X26342584Y5190049D01*
X26465505Y5107916D01*
X26602087Y5051342D01*
X26747082Y5022500D01*
X26747084Y5022500D01*
X26894916Y5022500D01*
X26894918Y5022500D01*
X27039913Y5051342D01*
X27176495Y5107916D01*
X27299416Y5190049D01*
X27403951Y5294584D01*
X27486084Y5417505D01*
X27542658Y5554087D01*
X27571500Y5699082D01*
X27571500Y5846917D01*
X46070500Y5846917D01*
X46070500Y5699084D01*
X46099340Y5554093D01*
X46099343Y5554083D01*
X46155915Y5417506D01*
X46174016Y5390417D01*
X46238049Y5294584D01*
X46342584Y5190049D01*
X46465505Y5107916D01*
X46602087Y5051342D01*
X46747082Y5022500D01*
X46747084Y5022500D01*
X46894916Y5022500D01*
X46894918Y5022500D01*
X47039913Y5051342D01*
X47176495Y5107916D01*
X47299416Y5190049D01*
X47403951Y5294584D01*
X47486084Y5417505D01*
X47542658Y5554087D01*
X47571500Y5699082D01*
X47571500Y5846918D01*
X47542658Y5991913D01*
X47529988Y6022500D01*
X47486084Y6128495D01*
X47403951Y6251416D01*
X47299415Y6355952D01*
X47176494Y6438085D01*
X47039917Y6494657D01*
X47039907Y6494660D01*
X46942811Y6513974D01*
X46894918Y6523500D01*
X46747082Y6523500D01*
X46705977Y6515324D01*
X46602092Y6494660D01*
X46602082Y6494657D01*
X46465505Y6438085D01*
X46342584Y6355952D01*
X46342583Y6355950D01*
X46238050Y6251417D01*
X46238048Y6251416D01*
X46155915Y6128495D01*
X46099343Y5991918D01*
X46099340Y5991908D01*
X46070500Y5846917D01*
X27571500Y5846917D01*
X27571500Y5846918D01*
X27542658Y5991913D01*
X27529988Y6022500D01*
X27486084Y6128495D01*
X27403951Y6251416D01*
X27299415Y6355952D01*
X27176494Y6438085D01*
X27039917Y6494657D01*
X27039907Y6494660D01*
X26942811Y6513974D01*
X26894918Y6523500D01*
X26747082Y6523500D01*
X26705977Y6515324D01*
X26602092Y6494660D01*
X26602082Y6494657D01*
X26465505Y6438085D01*
X26342584Y6355952D01*
X26342583Y6355950D01*
X26238050Y6251417D01*
X26238048Y6251416D01*
X26155915Y6128495D01*
X26099343Y5991918D01*
X26099340Y5991908D01*
X26070500Y5846917D01*
X4594832Y5846917D01*
X4323787Y5908781D01*
X4184241Y5924504D01*
X4044699Y5940226D01*
X3763849Y5940226D01*
X3624307Y5924504D01*
X3484761Y5908781D01*
X3484760Y5908781D01*
X3210964Y5846289D01*
X3210948Y5846284D01*
X2945866Y5753528D01*
X2692833Y5631674D01*
X2455025Y5482249D01*
X2235449Y5307143D01*
X2036857Y5108551D01*
X1861751Y4888975D01*
X1712326Y4651167D01*
X1590472Y4398134D01*
X1497716Y4133052D01*
X1497711Y4133036D01*
X1435219Y3859240D01*
X1435219Y3859239D01*
X1435219Y3859235D01*
X1403774Y3580151D01*
X127942Y3580151D01*
X127168Y6846917D01*
X5070500Y6846917D01*
X5070500Y6699084D01*
X5099340Y6554093D01*
X5099343Y6554083D01*
X5155915Y6417506D01*
X5197046Y6355950D01*
X5238049Y6294584D01*
X5342584Y6190049D01*
X5465505Y6107916D01*
X5602087Y6051342D01*
X5747082Y6022500D01*
X5747084Y6022500D01*
X5894916Y6022500D01*
X5894918Y6022500D01*
X6039913Y6051342D01*
X6176495Y6107916D01*
X6299416Y6190049D01*
X6403951Y6294584D01*
X6486084Y6417505D01*
X6542658Y6554087D01*
X6571500Y6699082D01*
X6571500Y6846918D01*
X6542658Y6991913D01*
X6529988Y7022500D01*
X6486084Y7128495D01*
X6403951Y7251416D01*
X6299415Y7355952D01*
X6176494Y7438085D01*
X6039917Y7494657D01*
X6039907Y7494660D01*
X5942811Y7513974D01*
X5894918Y7523500D01*
X5747082Y7523500D01*
X5705977Y7515324D01*
X5602092Y7494660D01*
X5602082Y7494657D01*
X5465505Y7438085D01*
X5342584Y7355952D01*
X5342583Y7355950D01*
X5238050Y7251417D01*
X5238048Y7251416D01*
X5155915Y7128495D01*
X5099343Y6991918D01*
X5099340Y6991908D01*
X5095480Y6972500D01*
X5071220Y6850535D01*
X5070500Y6846917D01*
X127168Y6846917D01*
X126969Y7687069D01*
X13220500Y7687069D01*
X13220500Y7558931D01*
X13227548Y7523500D01*
X13245497Y7433261D01*
X13245498Y7433258D01*
X13245499Y7433256D01*
X13294535Y7314873D01*
X13365724Y7208331D01*
X13456331Y7117724D01*
X13562873Y7046535D01*
X13681256Y6997499D01*
X13681258Y6997499D01*
X13681260Y6997498D01*
X13709338Y6991913D01*
X13806931Y6972500D01*
X13806933Y6972500D01*
X13935067Y6972500D01*
X13935069Y6972500D01*
X14060744Y6997499D01*
X14179127Y7046535D01*
X14285669Y7117724D01*
X14376276Y7208331D01*
X14447465Y7314873D01*
X14496501Y7433256D01*
X14521500Y7558931D01*
X14521500Y7687069D01*
X14496501Y7812744D01*
X14447465Y7931127D01*
X14376276Y8037669D01*
X14285669Y8128276D01*
X14285341Y8128495D01*
X14239790Y8158931D01*
X14179127Y8199465D01*
X14179124Y8199467D01*
X14179123Y8199467D01*
X14123909Y8222337D01*
X14123908Y8222338D01*
X14060746Y8248501D01*
X14060739Y8248503D01*
X13970696Y8266414D01*
X13935069Y8273500D01*
X13806931Y8273500D01*
X13775726Y8267293D01*
X13681260Y8248503D01*
X13681257Y8248502D01*
X13562876Y8199467D01*
X13456331Y8128277D01*
X13456330Y8128275D01*
X13365725Y8037670D01*
X13365723Y8037669D01*
X13294533Y7931124D01*
X13245498Y7812743D01*
X13245497Y7812740D01*
X13226598Y7717725D01*
X13220500Y7687069D01*
X126969Y7687069D01*
X126694Y8846917D01*
X9070500Y8846917D01*
X9070500Y8699084D01*
X9099340Y8554093D01*
X9099343Y8554083D01*
X9155915Y8417506D01*
X9197046Y8355950D01*
X9238049Y8294584D01*
X9342584Y8190049D01*
X9465505Y8107916D01*
X9602087Y8051342D01*
X9747082Y8022500D01*
X9747084Y8022500D01*
X9894916Y8022500D01*
X9894918Y8022500D01*
X10039913Y8051342D01*
X10176495Y8107916D01*
X10299416Y8190049D01*
X10396435Y8287068D01*
X26570500Y8287068D01*
X26570500Y8158933D01*
X26595497Y8033261D01*
X26595498Y8033258D01*
X26637803Y7931124D01*
X26644535Y7914873D01*
X26715724Y7808331D01*
X26806331Y7717724D01*
X26912873Y7646535D01*
X27031256Y7597499D01*
X27031258Y7597499D01*
X27031260Y7597498D01*
X27073903Y7589016D01*
X27156931Y7572500D01*
X27156933Y7572500D01*
X27285067Y7572500D01*
X27285069Y7572500D01*
X27410744Y7597499D01*
X27529127Y7646535D01*
X27635669Y7717724D01*
X27726276Y7808331D01*
X27752058Y7846917D01*
X55070500Y7846917D01*
X55070500Y7699084D01*
X55099340Y7554093D01*
X55099343Y7554083D01*
X55155915Y7417506D01*
X55224490Y7314877D01*
X55238049Y7294584D01*
X55342584Y7190049D01*
X55465505Y7107916D01*
X55602087Y7051342D01*
X55747082Y7022500D01*
X55747084Y7022500D01*
X55894916Y7022500D01*
X55894918Y7022500D01*
X56039913Y7051342D01*
X56176495Y7107916D01*
X56299416Y7190049D01*
X56403951Y7294584D01*
X56486084Y7417505D01*
X56542658Y7554087D01*
X56571500Y7699082D01*
X56571500Y7846918D01*
X56542658Y7991913D01*
X56529988Y8022500D01*
X56486084Y8128495D01*
X56403951Y8251416D01*
X56299415Y8355952D01*
X56176494Y8438085D01*
X56039917Y8494657D01*
X56039907Y8494660D01*
X55942811Y8513974D01*
X55894918Y8523500D01*
X55747082Y8523500D01*
X55705977Y8515324D01*
X55602092Y8494660D01*
X55602082Y8494657D01*
X55465505Y8438085D01*
X55342584Y8355952D01*
X55342583Y8355950D01*
X55238050Y8251417D01*
X55238048Y8251416D01*
X55155915Y8128495D01*
X55099343Y7991918D01*
X55099340Y7991908D01*
X55070500Y7846917D01*
X27752058Y7846917D01*
X27797465Y7914873D01*
X27846501Y8033256D01*
X27871500Y8158931D01*
X27871500Y8287069D01*
X27846501Y8412744D01*
X27797465Y8531127D01*
X27726276Y8637669D01*
X27654339Y8709606D01*
X33295498Y8709606D01*
X33295498Y8586395D01*
X33319533Y8465555D01*
X33319535Y8465548D01*
X33366686Y8351715D01*
X33409881Y8287069D01*
X33435140Y8249267D01*
X33522265Y8162142D01*
X33624712Y8093689D01*
X33738546Y8046537D01*
X33859392Y8022500D01*
X33982604Y8022500D01*
X34103450Y8046537D01*
X34217284Y8093689D01*
X34319731Y8162142D01*
X34406856Y8249267D01*
X34475309Y8351714D01*
X34522461Y8465548D01*
X34541832Y8562937D01*
X34573297Y8610028D01*
X34614410Y8622500D01*
X34685067Y8622500D01*
X34685069Y8622500D01*
X34810744Y8647499D01*
X34929127Y8696535D01*
X35035669Y8767724D01*
X35126276Y8858331D01*
X35197465Y8964873D01*
X35246501Y9083256D01*
X35271500Y9208931D01*
X35271500Y9326456D01*
X35293174Y9378782D01*
X35377136Y9462744D01*
X35541480Y9627087D01*
X35594207Y9718412D01*
X35621500Y9820273D01*
X35621500Y9846918D01*
X51070500Y9846918D01*
X51070500Y9699082D01*
X51080026Y9651189D01*
X51099340Y9554093D01*
X51099343Y9554083D01*
X51155915Y9417506D01*
X51238048Y9294585D01*
X51342584Y9190049D01*
X51465505Y9107916D01*
X51525027Y9083261D01*
X51602087Y9051342D01*
X51747082Y9022500D01*
X51747084Y9022500D01*
X51894916Y9022500D01*
X51894918Y9022500D01*
X52039913Y9051342D01*
X52176495Y9107916D01*
X52299416Y9190049D01*
X52403951Y9294584D01*
X52486084Y9417505D01*
X52542658Y9554087D01*
X52571500Y9699082D01*
X52571500Y9846918D01*
X52542658Y9991913D01*
X52529988Y10022500D01*
X52486084Y10128495D01*
X52403951Y10251416D01*
X52299415Y10355952D01*
X52176494Y10438085D01*
X52039917Y10494657D01*
X52039907Y10494660D01*
X51942811Y10513974D01*
X51894918Y10523500D01*
X51747082Y10523500D01*
X51718050Y10517725D01*
X51602092Y10494660D01*
X51602082Y10494657D01*
X51465505Y10438085D01*
X51342584Y10355952D01*
X51342583Y10355950D01*
X51238050Y10251417D01*
X51238048Y10251416D01*
X51155915Y10128495D01*
X51099343Y9991918D01*
X51099340Y9991908D01*
X51086176Y9925727D01*
X51070500Y9846918D01*
X35621500Y9846918D01*
X35621500Y9925727D01*
X35621500Y11287068D01*
X35970500Y11287068D01*
X35970500Y11158933D01*
X35995497Y11033261D01*
X35995498Y11033258D01*
X36036919Y10933258D01*
X36044535Y10914873D01*
X36115724Y10808331D01*
X36206331Y10717724D01*
X36312873Y10646535D01*
X36431256Y10597499D01*
X36431258Y10597499D01*
X36431260Y10597498D01*
X36473903Y10589016D01*
X36556931Y10572500D01*
X36556933Y10572500D01*
X36685067Y10572500D01*
X36685069Y10572500D01*
X36810744Y10597499D01*
X36929127Y10646535D01*
X37035669Y10717724D01*
X37126276Y10808331D01*
X37197465Y10914873D01*
X37207201Y10938380D01*
X37247247Y10978428D01*
X37303884Y10978430D01*
X37337097Y10951174D01*
X37365321Y10908933D01*
X37365724Y10908331D01*
X37456331Y10817724D01*
X37562873Y10746535D01*
X37681256Y10697499D01*
X37681258Y10697499D01*
X37681260Y10697498D01*
X37723903Y10689016D01*
X37806931Y10672500D01*
X37806933Y10672500D01*
X37935067Y10672500D01*
X37935069Y10672500D01*
X38060744Y10697499D01*
X38179127Y10746535D01*
X38285669Y10817724D01*
X38314862Y10846917D01*
X45070500Y10846917D01*
X45070500Y10699084D01*
X45099340Y10554093D01*
X45099343Y10554083D01*
X45155915Y10417506D01*
X45238048Y10294585D01*
X45342584Y10190049D01*
X45465505Y10107916D01*
X45558138Y10069546D01*
X45602087Y10051342D01*
X45747082Y10022500D01*
X45747084Y10022500D01*
X45894916Y10022500D01*
X45894918Y10022500D01*
X46039913Y10051342D01*
X46176495Y10107916D01*
X46299416Y10190049D01*
X46403951Y10294584D01*
X46486084Y10417505D01*
X46542658Y10554087D01*
X46571500Y10699082D01*
X46571500Y10846917D01*
X58070500Y10846917D01*
X58070500Y10699084D01*
X58099340Y10554093D01*
X58099343Y10554083D01*
X58155915Y10417506D01*
X58238048Y10294585D01*
X58342584Y10190049D01*
X58465505Y10107916D01*
X58558138Y10069546D01*
X58602087Y10051342D01*
X58747082Y10022500D01*
X58747084Y10022500D01*
X58894916Y10022500D01*
X58894918Y10022500D01*
X59039913Y10051342D01*
X59176495Y10107916D01*
X59299416Y10190049D01*
X59403951Y10294584D01*
X59486084Y10417505D01*
X59542658Y10554087D01*
X59571500Y10699082D01*
X59571500Y10846918D01*
X59542658Y10991913D01*
X59529988Y11022500D01*
X59486084Y11128495D01*
X59403951Y11251416D01*
X59299415Y11355952D01*
X59176494Y11438085D01*
X59039917Y11494657D01*
X59039907Y11494660D01*
X58942811Y11513974D01*
X58894918Y11523500D01*
X58747082Y11523500D01*
X58705977Y11515324D01*
X58602092Y11494660D01*
X58602082Y11494657D01*
X58465505Y11438085D01*
X58342584Y11355952D01*
X58342583Y11355950D01*
X58238050Y11251417D01*
X58238048Y11251416D01*
X58155915Y11128495D01*
X58099343Y10991918D01*
X58099340Y10991908D01*
X58070500Y10846917D01*
X46571500Y10846917D01*
X46571500Y10846918D01*
X46542658Y10991913D01*
X46529988Y11022500D01*
X46486084Y11128495D01*
X46403951Y11251416D01*
X46299415Y11355952D01*
X46176494Y11438085D01*
X46039917Y11494657D01*
X46039907Y11494660D01*
X45942811Y11513974D01*
X45894918Y11523500D01*
X45747082Y11523500D01*
X45705977Y11515324D01*
X45602092Y11494660D01*
X45602082Y11494657D01*
X45465505Y11438085D01*
X45342584Y11355952D01*
X45342583Y11355950D01*
X45238050Y11251417D01*
X45238048Y11251416D01*
X45155915Y11128495D01*
X45099343Y10991918D01*
X45099340Y10991908D01*
X45070500Y10846917D01*
X38314862Y10846917D01*
X38376276Y10908331D01*
X38447465Y11014873D01*
X38496501Y11133256D01*
X38521500Y11258931D01*
X38521500Y11387069D01*
X38509168Y11449061D01*
X38496502Y11512740D01*
X38496501Y11512743D01*
X38492045Y11523500D01*
X38447465Y11631127D01*
X38376276Y11737669D01*
X38285669Y11828276D01*
X38257769Y11846918D01*
X47070500Y11846918D01*
X47070500Y11699082D01*
X47075589Y11673500D01*
X47099340Y11554093D01*
X47099343Y11554083D01*
X47155915Y11417506D01*
X47225918Y11312740D01*
X47238049Y11294584D01*
X47342584Y11190049D01*
X47465505Y11107916D01*
X47602087Y11051342D01*
X47747082Y11022500D01*
X47747084Y11022500D01*
X47894916Y11022500D01*
X47894918Y11022500D01*
X48039913Y11051342D01*
X48176495Y11107916D01*
X48299416Y11190049D01*
X48403951Y11294584D01*
X48486084Y11417505D01*
X48542658Y11554087D01*
X48571500Y11699082D01*
X48571500Y11846918D01*
X48542658Y11991913D01*
X48529988Y12022500D01*
X48486084Y12128495D01*
X48403951Y12251416D01*
X48299415Y12355952D01*
X48176494Y12438085D01*
X48039917Y12494657D01*
X48039907Y12494660D01*
X47942811Y12513974D01*
X47894918Y12523500D01*
X47747082Y12523500D01*
X47705977Y12515324D01*
X47602092Y12494660D01*
X47602082Y12494657D01*
X47465505Y12438085D01*
X47342584Y12355952D01*
X47342583Y12355950D01*
X47238050Y12251417D01*
X47238048Y12251416D01*
X47155915Y12128495D01*
X47099343Y11991918D01*
X47099340Y11991908D01*
X47075788Y11873500D01*
X47070500Y11846918D01*
X38257769Y11846918D01*
X38179127Y11899465D01*
X38179124Y11899467D01*
X38179123Y11899467D01*
X38060742Y11948502D01*
X38060739Y11948503D01*
X37970696Y11966414D01*
X37935069Y11973500D01*
X37806931Y11973500D01*
X37775726Y11967293D01*
X37681260Y11948503D01*
X37681257Y11948502D01*
X37562876Y11899467D01*
X37456331Y11828277D01*
X37456330Y11828275D01*
X37365725Y11737670D01*
X37365723Y11737669D01*
X37294533Y11631124D01*
X37284798Y11607620D01*
X37244749Y11567572D01*
X37188112Y11567572D01*
X37154902Y11594827D01*
X37152446Y11598502D01*
X37126276Y11637669D01*
X37035669Y11728276D01*
X37021611Y11737669D01*
X36967986Y11773500D01*
X36929127Y11799465D01*
X36929124Y11799467D01*
X36929123Y11799467D01*
X36810742Y11848502D01*
X36810739Y11848503D01*
X36720696Y11866414D01*
X36685069Y11873500D01*
X36556931Y11873500D01*
X36525726Y11867293D01*
X36431260Y11848503D01*
X36431257Y11848502D01*
X36312876Y11799467D01*
X36206331Y11728277D01*
X36206330Y11728275D01*
X36115725Y11637670D01*
X36115723Y11637669D01*
X36044533Y11531124D01*
X35995498Y11412743D01*
X35995497Y11412740D01*
X35970500Y11287068D01*
X35621500Y11287068D01*
X35621500Y12846917D01*
X51070500Y12846917D01*
X51070500Y12699084D01*
X51099340Y12554093D01*
X51099343Y12554083D01*
X51155915Y12417506D01*
X51197046Y12355950D01*
X51238049Y12294584D01*
X51342584Y12190049D01*
X51465505Y12107916D01*
X51602087Y12051342D01*
X51747082Y12022500D01*
X51747084Y12022500D01*
X51894916Y12022500D01*
X51894918Y12022500D01*
X52039913Y12051342D01*
X52176495Y12107916D01*
X52299416Y12190049D01*
X52403951Y12294584D01*
X52486084Y12417505D01*
X52542658Y12554087D01*
X52571500Y12699082D01*
X52571500Y12846917D01*
X54070500Y12846917D01*
X54070500Y12699084D01*
X54099340Y12554093D01*
X54099343Y12554083D01*
X54155915Y12417506D01*
X54197046Y12355950D01*
X54238049Y12294584D01*
X54342584Y12190049D01*
X54465505Y12107916D01*
X54602087Y12051342D01*
X54747082Y12022500D01*
X54747084Y12022500D01*
X54894916Y12022500D01*
X54894918Y12022500D01*
X55039913Y12051342D01*
X55176495Y12107916D01*
X55299416Y12190049D01*
X55403951Y12294584D01*
X55486084Y12417505D01*
X55542658Y12554087D01*
X55571500Y12699082D01*
X55571500Y12846918D01*
X55542658Y12991913D01*
X55529988Y13022500D01*
X55486084Y13128495D01*
X55403951Y13251416D01*
X55299415Y13355952D01*
X55176494Y13438085D01*
X55039917Y13494657D01*
X55039907Y13494660D01*
X54942811Y13513974D01*
X54894918Y13523500D01*
X54747082Y13523500D01*
X54705977Y13515324D01*
X54602092Y13494660D01*
X54602082Y13494657D01*
X54465505Y13438085D01*
X54342584Y13355952D01*
X54342583Y13355950D01*
X54238050Y13251417D01*
X54238048Y13251416D01*
X54155915Y13128495D01*
X54099343Y12991918D01*
X54099340Y12991908D01*
X54075263Y12870865D01*
X54071220Y12850535D01*
X54070500Y12846917D01*
X52571500Y12846917D01*
X52571500Y12846918D01*
X52542658Y12991913D01*
X52529988Y13022500D01*
X52486084Y13128495D01*
X52403951Y13251416D01*
X52299415Y13355952D01*
X52176494Y13438085D01*
X52039917Y13494657D01*
X52039907Y13494660D01*
X51942811Y13513974D01*
X51894918Y13523500D01*
X51747082Y13523500D01*
X51705977Y13515324D01*
X51602092Y13494660D01*
X51602082Y13494657D01*
X51465505Y13438085D01*
X51342584Y13355952D01*
X51342583Y13355950D01*
X51238050Y13251417D01*
X51238048Y13251416D01*
X51155915Y13128495D01*
X51099343Y12991918D01*
X51099340Y12991908D01*
X51075263Y12870865D01*
X51071220Y12850535D01*
X51070500Y12846917D01*
X35621500Y12846917D01*
X35621500Y13425963D01*
X35622922Y13440400D01*
X35639452Y13523500D01*
X35646500Y13558931D01*
X35646500Y13687069D01*
X43920500Y13687069D01*
X43920500Y13558931D01*
X43927548Y13523500D01*
X43945497Y13433261D01*
X43945498Y13433258D01*
X43970734Y13372332D01*
X43994535Y13314873D01*
X44065724Y13208331D01*
X44156331Y13117724D01*
X44262873Y13046535D01*
X44381256Y12997499D01*
X44381258Y12997499D01*
X44381260Y12997498D01*
X44409338Y12991913D01*
X44506931Y12972500D01*
X44506933Y12972500D01*
X44635067Y12972500D01*
X44635069Y12972500D01*
X44760744Y12997499D01*
X44879127Y13046535D01*
X44985669Y13117724D01*
X45076276Y13208331D01*
X45147465Y13314873D01*
X45196501Y13433256D01*
X45221500Y13558931D01*
X45221500Y13687069D01*
X45196501Y13812744D01*
X45191122Y13825729D01*
X45182345Y13846918D01*
X57070500Y13846918D01*
X57070500Y13699082D01*
X57072890Y13687069D01*
X57099340Y13554093D01*
X57099343Y13554083D01*
X57155915Y13417506D01*
X57224490Y13314877D01*
X57238049Y13294584D01*
X57342584Y13190049D01*
X57465505Y13107916D01*
X57602087Y13051342D01*
X57747082Y13022500D01*
X57747084Y13022500D01*
X57894916Y13022500D01*
X57894918Y13022500D01*
X58039913Y13051342D01*
X58176495Y13107916D01*
X58299416Y13190049D01*
X58403951Y13294584D01*
X58486084Y13417505D01*
X58542658Y13554087D01*
X58571500Y13699082D01*
X58571500Y13846918D01*
X58542658Y13991913D01*
X58486084Y14128495D01*
X58403951Y14251416D01*
X58299416Y14355951D01*
X58288171Y14363465D01*
X58176494Y14438085D01*
X58039917Y14494657D01*
X58039907Y14494660D01*
X57942811Y14513974D01*
X57894918Y14523500D01*
X57747082Y14523500D01*
X57705977Y14515324D01*
X57602092Y14494660D01*
X57602082Y14494657D01*
X57465505Y14438085D01*
X57342584Y14355952D01*
X57342583Y14355950D01*
X57238050Y14251417D01*
X57238048Y14251416D01*
X57155915Y14128495D01*
X57099343Y13991918D01*
X57099340Y13991908D01*
X57084288Y13916233D01*
X57070500Y13846918D01*
X45182345Y13846918D01*
X45147466Y13931124D01*
X45147465Y13931127D01*
X45076276Y14037669D01*
X44985669Y14128276D01*
X44985341Y14128495D01*
X44949896Y14152179D01*
X44879127Y14199465D01*
X44879124Y14199467D01*
X44879123Y14199467D01*
X44760742Y14248502D01*
X44760739Y14248503D01*
X44670696Y14266414D01*
X44635069Y14273500D01*
X44506931Y14273500D01*
X44475726Y14267293D01*
X44381260Y14248503D01*
X44381257Y14248502D01*
X44262876Y14199467D01*
X44156331Y14128277D01*
X44156330Y14128275D01*
X44065725Y14037670D01*
X44065723Y14037669D01*
X43994533Y13931124D01*
X43945498Y13812743D01*
X43945497Y13812740D01*
X43924043Y13704883D01*
X43920500Y13687069D01*
X35646500Y13687069D01*
X35622876Y13805831D01*
X35622845Y13805992D01*
X35622870Y13806119D01*
X35621500Y13820036D01*
X35621500Y13825729D01*
X35621499Y13825730D01*
X35614502Y13851842D01*
X35594207Y13927587D01*
X35541480Y14018913D01*
X35466913Y14093480D01*
X35466910Y14093482D01*
X35466909Y14093483D01*
X35424603Y14117908D01*
X35413718Y14126260D01*
X35413480Y14125969D01*
X35410668Y14128277D01*
X35374896Y14152179D01*
X35304127Y14199465D01*
X35304124Y14199467D01*
X35304123Y14199467D01*
X35185742Y14248502D01*
X35185739Y14248503D01*
X35095696Y14266414D01*
X35060069Y14273500D01*
X34931931Y14273500D01*
X34900726Y14267293D01*
X34806260Y14248503D01*
X34806257Y14248502D01*
X34687876Y14199467D01*
X34581331Y14128277D01*
X34581330Y14128275D01*
X34490725Y14037670D01*
X34490723Y14037669D01*
X34419533Y13931124D01*
X34370498Y13812743D01*
X34370497Y13812740D01*
X34349043Y13704883D01*
X34345500Y13687069D01*
X34345500Y13558931D01*
X34352548Y13523500D01*
X34370497Y13433261D01*
X34370498Y13433258D01*
X34395734Y13372332D01*
X34419535Y13314873D01*
X34490724Y13208331D01*
X34581331Y13117724D01*
X34687873Y13046535D01*
X34687878Y13046533D01*
X34687877Y13046533D01*
X34774818Y13010521D01*
X34814867Y12970473D01*
X34820500Y12942154D01*
X34820500Y11743447D01*
X34798826Y11691121D01*
X34746500Y11669447D01*
X34705389Y11681917D01*
X34679127Y11699465D01*
X34586895Y11737669D01*
X34560742Y11748502D01*
X34560739Y11748503D01*
X34470696Y11766414D01*
X34435069Y11773500D01*
X34306931Y11773500D01*
X34275726Y11767293D01*
X34181260Y11748503D01*
X34181257Y11748502D01*
X34062876Y11699467D01*
X33956331Y11628277D01*
X33956330Y11628275D01*
X33865725Y11537670D01*
X33865723Y11537669D01*
X33794533Y11431124D01*
X33745498Y11312743D01*
X33745497Y11312740D01*
X33725607Y11212744D01*
X33720500Y11187069D01*
X33720500Y11058931D01*
X33722010Y11051342D01*
X33745497Y10933261D01*
X33745498Y10933258D01*
X33793353Y10817725D01*
X33794535Y10814873D01*
X33865724Y10708331D01*
X33956331Y10617724D01*
X34062873Y10546535D01*
X34181256Y10497499D01*
X34181258Y10497499D01*
X34181260Y10497498D01*
X34195528Y10494660D01*
X34306931Y10472500D01*
X34306933Y10472500D01*
X34435067Y10472500D01*
X34435069Y10472500D01*
X34560744Y10497499D01*
X34679127Y10546535D01*
X34705390Y10564084D01*
X34760937Y10575132D01*
X34808029Y10543666D01*
X34820500Y10502554D01*
X34820500Y10069546D01*
X34798826Y10017220D01*
X34726780Y9945174D01*
X34674454Y9923500D01*
X34556931Y9923500D01*
X34525726Y9917293D01*
X34431260Y9898503D01*
X34431257Y9898502D01*
X34312876Y9849467D01*
X34206331Y9778277D01*
X34206330Y9778275D01*
X34115725Y9687670D01*
X34115723Y9687669D01*
X34044533Y9581124D01*
X33995498Y9462743D01*
X33995497Y9462740D01*
X33969791Y9333503D01*
X33967440Y9333971D01*
X33944158Y9290333D01*
X33897170Y9273500D01*
X33859392Y9273500D01*
X33738552Y9249465D01*
X33738545Y9249463D01*
X33624712Y9202312D01*
X33522268Y9133861D01*
X33435137Y9046730D01*
X33366686Y8944286D01*
X33319535Y8830453D01*
X33319533Y8830446D01*
X33295498Y8709606D01*
X27654339Y8709606D01*
X27635669Y8728276D01*
X27529127Y8799465D01*
X27529124Y8799467D01*
X27529123Y8799467D01*
X27410742Y8848502D01*
X27410739Y8848503D01*
X27320696Y8866414D01*
X27285069Y8873500D01*
X27156931Y8873500D01*
X27125726Y8867293D01*
X27031260Y8848503D01*
X27031257Y8848502D01*
X26912876Y8799467D01*
X26806331Y8728277D01*
X26806330Y8728275D01*
X26715725Y8637670D01*
X26715723Y8637669D01*
X26644533Y8531124D01*
X26595498Y8412743D01*
X26595497Y8412740D01*
X26570500Y8287068D01*
X10396435Y8287068D01*
X10403951Y8294584D01*
X10486084Y8417505D01*
X10542658Y8554087D01*
X10571500Y8699082D01*
X10571500Y8846918D01*
X10542658Y8991913D01*
X10529988Y9022500D01*
X10486084Y9128495D01*
X10403951Y9251416D01*
X10299415Y9355952D01*
X10176494Y9438085D01*
X10039917Y9494657D01*
X10039907Y9494660D01*
X9942811Y9513974D01*
X9894918Y9523500D01*
X9747082Y9523500D01*
X9705977Y9515324D01*
X9602092Y9494660D01*
X9602082Y9494657D01*
X9465505Y9438085D01*
X9342584Y9355952D01*
X9342583Y9355950D01*
X9238050Y9251417D01*
X9238048Y9251416D01*
X9155915Y9128495D01*
X9099343Y8991918D01*
X9099340Y8991908D01*
X9089868Y8944286D01*
X9071220Y8850535D01*
X9070500Y8846917D01*
X126694Y8846917D01*
X126175Y11037069D01*
X4520500Y11037069D01*
X4520500Y10908931D01*
X4520620Y10908330D01*
X4545497Y10783261D01*
X4545498Y10783258D01*
X4591375Y10672500D01*
X4594535Y10664873D01*
X4642207Y10593527D01*
X4661880Y10564083D01*
X4665724Y10558331D01*
X4756331Y10467724D01*
X4862873Y10396535D01*
X4981256Y10347499D01*
X4981258Y10347499D01*
X4981260Y10347498D01*
X5023903Y10339016D01*
X5106931Y10322500D01*
X5106933Y10322500D01*
X5235067Y10322500D01*
X5235069Y10322500D01*
X5360744Y10347499D01*
X5479127Y10396535D01*
X5585669Y10467724D01*
X5676276Y10558331D01*
X5747465Y10664873D01*
X5796501Y10783256D01*
X5809164Y10846917D01*
X20070500Y10846917D01*
X20070500Y10699084D01*
X20099340Y10554093D01*
X20099343Y10554083D01*
X20155915Y10417506D01*
X20238048Y10294585D01*
X20342584Y10190049D01*
X20465505Y10107916D01*
X20558138Y10069546D01*
X20602087Y10051342D01*
X20747082Y10022500D01*
X20747084Y10022500D01*
X20894916Y10022500D01*
X20894918Y10022500D01*
X21039913Y10051342D01*
X21176495Y10107916D01*
X21299416Y10190049D01*
X21403951Y10294584D01*
X21486084Y10417505D01*
X21542658Y10554087D01*
X21571500Y10699082D01*
X21571500Y10846918D01*
X21542658Y10991913D01*
X21503243Y11087069D01*
X29520500Y11087069D01*
X29520500Y10958931D01*
X29525606Y10933261D01*
X29545497Y10833261D01*
X29545498Y10833258D01*
X29593353Y10717725D01*
X29594535Y10714873D01*
X29665724Y10608331D01*
X29756331Y10517724D01*
X29862873Y10446535D01*
X29981256Y10397499D01*
X29981258Y10397499D01*
X29981260Y10397498D01*
X30023903Y10389016D01*
X30106931Y10372500D01*
X30106933Y10372500D01*
X30235067Y10372500D01*
X30235069Y10372500D01*
X30360744Y10397499D01*
X30479127Y10446535D01*
X30585669Y10517724D01*
X30676276Y10608331D01*
X30747465Y10714873D01*
X30796501Y10833256D01*
X30821500Y10958931D01*
X30821500Y11087069D01*
X30806447Y11162744D01*
X30796502Y11212740D01*
X30796501Y11212743D01*
X30777369Y11258931D01*
X30747465Y11331127D01*
X30676276Y11437669D01*
X30585669Y11528276D01*
X30581402Y11531127D01*
X30526858Y11567572D01*
X30479127Y11599465D01*
X30479124Y11599467D01*
X30479123Y11599467D01*
X30360742Y11648502D01*
X30360739Y11648503D01*
X30270696Y11666414D01*
X30235069Y11673500D01*
X30106931Y11673500D01*
X30086556Y11669447D01*
X29981260Y11648503D01*
X29981257Y11648502D01*
X29862876Y11599467D01*
X29756331Y11528277D01*
X29756330Y11528275D01*
X29665725Y11437670D01*
X29665723Y11437669D01*
X29594533Y11331124D01*
X29545498Y11212743D01*
X29545497Y11212740D01*
X29529687Y11133256D01*
X29520500Y11087069D01*
X21503243Y11087069D01*
X21486084Y11128495D01*
X21403951Y11251416D01*
X21299416Y11355951D01*
X21252847Y11387068D01*
X21176494Y11438085D01*
X21039917Y11494657D01*
X21039907Y11494660D01*
X20942811Y11513974D01*
X20894918Y11523500D01*
X20747082Y11523500D01*
X20705977Y11515324D01*
X20602092Y11494660D01*
X20602082Y11494657D01*
X20465505Y11438085D01*
X20342584Y11355952D01*
X20342583Y11355950D01*
X20238050Y11251417D01*
X20238048Y11251416D01*
X20155915Y11128495D01*
X20099343Y10991918D01*
X20099340Y10991908D01*
X20070500Y10846917D01*
X5809164Y10846917D01*
X5821500Y10908931D01*
X5821500Y11037069D01*
X5802366Y11133261D01*
X5796502Y11162740D01*
X5796501Y11162743D01*
X5786425Y11187068D01*
X5747465Y11281127D01*
X5676276Y11387669D01*
X5585669Y11478276D01*
X5479127Y11549465D01*
X5479124Y11549467D01*
X5479123Y11549467D01*
X5360742Y11598502D01*
X5360739Y11598503D01*
X5270696Y11616414D01*
X5235069Y11623500D01*
X5106931Y11623500D01*
X5075726Y11617293D01*
X4981260Y11598503D01*
X4981257Y11598502D01*
X4862876Y11549467D01*
X4756331Y11478277D01*
X4756330Y11478275D01*
X4665725Y11387670D01*
X4665723Y11387669D01*
X4594533Y11281124D01*
X4545498Y11162743D01*
X4545497Y11162740D01*
X4525536Y11062386D01*
X4520500Y11037069D01*
X126175Y11037069D01*
X125746Y12846917D01*
X22070500Y12846917D01*
X22070500Y12699084D01*
X22099340Y12554093D01*
X22099343Y12554083D01*
X22155915Y12417506D01*
X22197046Y12355950D01*
X22238049Y12294584D01*
X22342584Y12190049D01*
X22465505Y12107916D01*
X22602087Y12051342D01*
X22747082Y12022500D01*
X22747084Y12022500D01*
X22894916Y12022500D01*
X22894918Y12022500D01*
X23039913Y12051342D01*
X23176495Y12107916D01*
X23299416Y12190049D01*
X23403951Y12294584D01*
X23486084Y12417505D01*
X23542658Y12554087D01*
X23571500Y12699082D01*
X23571500Y12846918D01*
X23542658Y12991913D01*
X23529988Y13022500D01*
X23486084Y13128495D01*
X23403951Y13251416D01*
X23299415Y13355952D01*
X23176494Y13438085D01*
X23039917Y13494657D01*
X23039907Y13494660D01*
X22942811Y13513974D01*
X22894918Y13523500D01*
X22747082Y13523500D01*
X22705977Y13515324D01*
X22602092Y13494660D01*
X22602082Y13494657D01*
X22465505Y13438085D01*
X22342584Y13355952D01*
X22342583Y13355950D01*
X22238050Y13251417D01*
X22238048Y13251416D01*
X22155915Y13128495D01*
X22099343Y12991918D01*
X22099340Y12991908D01*
X22075263Y12870865D01*
X22071220Y12850535D01*
X22070500Y12846917D01*
X125746Y12846917D01*
X125508Y13851842D01*
X1820500Y13851842D01*
X1820500Y13694158D01*
X1830661Y13643075D01*
X1851261Y13539509D01*
X1851264Y13539499D01*
X1911603Y13393826D01*
X1911605Y13393823D01*
X1911606Y13393821D01*
X1999211Y13262711D01*
X2110711Y13151211D01*
X2241821Y13063606D01*
X2241826Y13063604D01*
X2241825Y13063604D01*
X2387498Y13003265D01*
X2387503Y13003263D01*
X2542158Y12972500D01*
X2542160Y12972500D01*
X3499840Y12972500D01*
X3499842Y12972500D01*
X3654497Y13003263D01*
X3800179Y13063606D01*
X3931289Y13151211D01*
X4042789Y13262711D01*
X4130394Y13393821D01*
X4190737Y13539503D01*
X4221500Y13694158D01*
X4221500Y13851842D01*
X5850500Y13851842D01*
X5850500Y13694158D01*
X5860661Y13643075D01*
X5881261Y13539509D01*
X5881264Y13539499D01*
X5941603Y13393826D01*
X5941605Y13393823D01*
X5941606Y13393821D01*
X6029211Y13262711D01*
X6140711Y13151211D01*
X6271821Y13063606D01*
X6271826Y13063604D01*
X6271825Y13063604D01*
X6417498Y13003265D01*
X6417503Y13003263D01*
X6572158Y12972500D01*
X6572160Y12972500D01*
X7829840Y12972500D01*
X7829842Y12972500D01*
X7984497Y13003263D01*
X8130179Y13063606D01*
X8261289Y13151211D01*
X8372789Y13262711D01*
X8460394Y13393821D01*
X8520737Y13539503D01*
X8551500Y13694158D01*
X8551500Y13851842D01*
X8550831Y13855202D01*
X8561875Y13910748D01*
X8608964Y13942219D01*
X8664513Y13931176D01*
X8708873Y13901535D01*
X8827256Y13852499D01*
X8827258Y13852499D01*
X8827260Y13852498D01*
X8869903Y13844016D01*
X8952931Y13827500D01*
X8952933Y13827500D01*
X9081067Y13827500D01*
X9081069Y13827500D01*
X9199555Y13851069D01*
X28940500Y13851069D01*
X28940500Y13722931D01*
X28947586Y13687304D01*
X28965497Y13597261D01*
X28965498Y13597258D01*
X29007996Y13494658D01*
X29014535Y13478873D01*
X29045017Y13433254D01*
X29071361Y13393826D01*
X29085724Y13372331D01*
X29176331Y13281724D01*
X29282873Y13210535D01*
X29401256Y13161499D01*
X29401258Y13161499D01*
X29401260Y13161498D01*
X29443903Y13153016D01*
X29526931Y13136500D01*
X29526933Y13136500D01*
X29655067Y13136500D01*
X29655069Y13136500D01*
X29780744Y13161499D01*
X29899127Y13210535D01*
X30005669Y13281724D01*
X30096276Y13372331D01*
X30167465Y13478873D01*
X30216501Y13597256D01*
X30241500Y13722931D01*
X30241500Y13851069D01*
X30225566Y13931171D01*
X30216502Y13976740D01*
X30216501Y13976743D01*
X30210219Y13991908D01*
X30167465Y14095127D01*
X30096276Y14201669D01*
X30005669Y14292276D01*
X29981642Y14308330D01*
X29970473Y14315793D01*
X29899127Y14363465D01*
X29899124Y14363467D01*
X29899123Y14363467D01*
X29780742Y14412502D01*
X29780739Y14412503D01*
X29690696Y14430414D01*
X29655069Y14437500D01*
X29526931Y14437500D01*
X29495726Y14431293D01*
X29401260Y14412503D01*
X29401257Y14412502D01*
X29282876Y14363467D01*
X29176331Y14292277D01*
X29176330Y14292275D01*
X29085725Y14201670D01*
X29085723Y14201669D01*
X29014533Y14095124D01*
X28965498Y13976743D01*
X28965497Y13976740D01*
X28950538Y13901534D01*
X28940500Y13851069D01*
X9199555Y13851069D01*
X9206744Y13852499D01*
X9325127Y13901535D01*
X9431669Y13972724D01*
X9522276Y14063331D01*
X9593465Y14169873D01*
X9642501Y14288256D01*
X9667500Y14413931D01*
X9667500Y14542069D01*
X9642501Y14667744D01*
X9593465Y14786127D01*
X9592836Y14787068D01*
X12370500Y14787068D01*
X12370500Y14658933D01*
X12395497Y14533261D01*
X12395498Y14533258D01*
X12435162Y14437500D01*
X12444535Y14414873D01*
X12515724Y14308331D01*
X12606331Y14217724D01*
X12712873Y14146535D01*
X12831256Y14097499D01*
X12831258Y14097499D01*
X12831260Y14097498D01*
X12851445Y14093483D01*
X12956931Y14072500D01*
X12956933Y14072500D01*
X13085067Y14072500D01*
X13085069Y14072500D01*
X13210744Y14097499D01*
X13329127Y14146535D01*
X13435669Y14217724D01*
X13526276Y14308331D01*
X13597465Y14414873D01*
X13646501Y14533256D01*
X13671500Y14658931D01*
X13671500Y14787069D01*
X13646501Y14912744D01*
X13597465Y15031127D01*
X13526276Y15137669D01*
X13435669Y15228276D01*
X13329127Y15299465D01*
X13329124Y15299467D01*
X13329123Y15299467D01*
X13210742Y15348502D01*
X13210739Y15348503D01*
X13120696Y15366414D01*
X13085069Y15373500D01*
X12956931Y15373500D01*
X12925726Y15367293D01*
X12831260Y15348503D01*
X12831257Y15348502D01*
X12712876Y15299467D01*
X12606331Y15228277D01*
X12606330Y15228275D01*
X12515725Y15137670D01*
X12515723Y15137669D01*
X12444533Y15031124D01*
X12395498Y14912743D01*
X12395497Y14912740D01*
X12370500Y14787068D01*
X9592836Y14787068D01*
X9522276Y14892669D01*
X9431669Y14983276D01*
X9325127Y15054465D01*
X9325124Y15054467D01*
X9325123Y15054467D01*
X9206742Y15103502D01*
X9206739Y15103503D01*
X9112740Y15122200D01*
X9081069Y15128500D01*
X8952931Y15128500D01*
X8921726Y15122293D01*
X8827260Y15103503D01*
X8827257Y15103502D01*
X8708876Y15054467D01*
X8602331Y14983277D01*
X8602330Y14983275D01*
X8511725Y14892670D01*
X8511723Y14892669D01*
X8440533Y14786124D01*
X8391498Y14667743D01*
X8391497Y14667740D01*
X8374205Y14580806D01*
X8367129Y14545228D01*
X8366500Y14542068D01*
X8366500Y14462934D01*
X8344826Y14410608D01*
X8292500Y14388934D01*
X8251388Y14401405D01*
X8219786Y14422521D01*
X8130179Y14482394D01*
X8130175Y14482396D01*
X8130173Y14482397D01*
X8130174Y14482397D01*
X7984501Y14542736D01*
X7984491Y14542739D01*
X7880925Y14563339D01*
X7829842Y14573500D01*
X7037847Y14573500D01*
X6985521Y14595174D01*
X6963847Y14647500D01*
X6985521Y14699826D01*
X7000847Y14711586D01*
X7013896Y14719121D01*
X7054365Y14742485D01*
X7161515Y14849635D01*
X7237281Y14980865D01*
X7276499Y15127232D01*
X7276500Y15127232D01*
X7276500Y15278768D01*
X7276499Y15278769D01*
X7272261Y15294584D01*
X7237281Y15425135D01*
X7161515Y15556365D01*
X7054365Y15663515D01*
X7054362Y15663517D01*
X6923139Y15739279D01*
X6923130Y15739283D01*
X6776768Y15778500D01*
X6776766Y15778500D01*
X6625234Y15778500D01*
X6625232Y15778500D01*
X6478869Y15739283D01*
X6478860Y15739279D01*
X6347637Y15663517D01*
X6240483Y15556363D01*
X6164721Y15425140D01*
X6164717Y15425131D01*
X6125500Y15278769D01*
X6125500Y15127232D01*
X6164717Y14980870D01*
X6164721Y14980861D01*
X6215639Y14892669D01*
X6240485Y14849635D01*
X6347635Y14742485D01*
X6421522Y14699826D01*
X6452585Y14681892D01*
X6487064Y14636959D01*
X6479671Y14580806D01*
X6434738Y14546327D01*
X6430025Y14545228D01*
X6417503Y14542737D01*
X6417498Y14542736D01*
X6271825Y14482397D01*
X6140711Y14394790D01*
X6140710Y14394788D01*
X6029212Y14283290D01*
X6029210Y14283289D01*
X5941603Y14152175D01*
X5881264Y14006502D01*
X5881261Y14006492D01*
X5860384Y13901534D01*
X5850500Y13851842D01*
X4221500Y13851842D01*
X4190737Y14006497D01*
X4167196Y14063331D01*
X4130396Y14152175D01*
X4130395Y14152177D01*
X4130394Y14152179D01*
X4042789Y14283289D01*
X3931289Y14394789D01*
X3921387Y14401405D01*
X3898842Y14416470D01*
X3800179Y14482394D01*
X3800175Y14482396D01*
X3800173Y14482397D01*
X3800174Y14482397D01*
X3654501Y14542736D01*
X3654491Y14542739D01*
X3550925Y14563339D01*
X3499842Y14573500D01*
X2542158Y14573500D01*
X2498315Y14564780D01*
X2387508Y14542739D01*
X2387498Y14542736D01*
X2241825Y14482397D01*
X2110711Y14394790D01*
X2110710Y14394788D01*
X1999212Y14283290D01*
X1999210Y14283289D01*
X1911603Y14152175D01*
X1851264Y14006502D01*
X1851261Y14006492D01*
X1830384Y13901534D01*
X1820500Y13851842D01*
X125508Y13851842D01*
X125013Y15941455D01*
X21849200Y15941455D01*
X21849200Y15794545D01*
X21852863Y15776130D01*
X21877858Y15650465D01*
X21877861Y15650454D01*
X21934078Y15514734D01*
X21999044Y15417505D01*
X22015699Y15392580D01*
X22119580Y15288699D01*
X22241731Y15207080D01*
X22377458Y15150860D01*
X22521545Y15122200D01*
X22668455Y15122200D01*
X22812542Y15150860D01*
X22948269Y15207080D01*
X23070420Y15288699D01*
X23174301Y15392580D01*
X23255920Y15514731D01*
X23312140Y15650458D01*
X23319852Y15689236D01*
X23351316Y15736326D01*
X23406864Y15747378D01*
X23406867Y15747377D01*
X23462425Y15736326D01*
X23531931Y15722500D01*
X23531933Y15722500D01*
X23660067Y15722500D01*
X23660069Y15722500D01*
X23785744Y15747499D01*
X23799270Y15753103D01*
X23855906Y15753106D01*
X23895956Y15713060D01*
X23900169Y15699175D01*
X23909859Y15650462D01*
X23909861Y15650454D01*
X23966078Y15514734D01*
X24031044Y15417505D01*
X24047699Y15392580D01*
X24151580Y15288699D01*
X24273731Y15207080D01*
X24409458Y15150860D01*
X24553545Y15122200D01*
X24700455Y15122200D01*
X24844542Y15150860D01*
X24980269Y15207080D01*
X25102420Y15288699D01*
X25206301Y15392580D01*
X25287920Y15514731D01*
X25344140Y15650458D01*
X25372800Y15794545D01*
X25372800Y15941455D01*
X25344140Y16085542D01*
X25334872Y16107916D01*
X25287921Y16221267D01*
X25267775Y16251417D01*
X25206301Y16343420D01*
X25102420Y16447301D01*
X25048602Y16483261D01*
X24980266Y16528922D01*
X24844546Y16585139D01*
X24844535Y16585142D01*
X24700455Y16613800D01*
X24553545Y16613800D01*
X24409464Y16585142D01*
X24409453Y16585139D01*
X24309474Y16543726D01*
X24252837Y16543726D01*
X24212790Y16583774D01*
X24172465Y16681127D01*
X24101276Y16787669D01*
X24010669Y16878276D01*
X23996611Y16887669D01*
X23975473Y16901793D01*
X23904127Y16949465D01*
X23904124Y16949467D01*
X23904123Y16949467D01*
X23785742Y16998502D01*
X23785739Y16998503D01*
X23695696Y17016414D01*
X23660069Y17023500D01*
X23531931Y17023500D01*
X23500726Y17017293D01*
X23406260Y16998503D01*
X23406257Y16998502D01*
X23287876Y16949467D01*
X23181331Y16878277D01*
X23181330Y16878275D01*
X23090725Y16787670D01*
X23090723Y16787669D01*
X23019533Y16681124D01*
X22983603Y16594381D01*
X22943554Y16554333D01*
X22886918Y16554333D01*
X22812546Y16585139D01*
X22812535Y16585142D01*
X22668455Y16613800D01*
X22521545Y16613800D01*
X22377464Y16585142D01*
X22377453Y16585139D01*
X22241733Y16528922D01*
X22119583Y16447304D01*
X22015696Y16343417D01*
X21934078Y16221267D01*
X21877861Y16085547D01*
X21877858Y16085536D01*
X21867497Y16033443D01*
X21849200Y15941455D01*
X125013Y15941455D01*
X124552Y17886169D01*
X19633050Y17886169D01*
X19633050Y17659831D01*
X19663477Y17467724D01*
X19668458Y17436280D01*
X19668460Y17436269D01*
X19738397Y17221025D01*
X19841154Y17019350D01*
X19974189Y16836244D01*
X19974193Y16836239D01*
X20134239Y16676193D01*
X20134242Y16676191D01*
X20134243Y16676190D01*
X20317349Y16543155D01*
X20397957Y16502084D01*
X20519019Y16440400D01*
X20519021Y16440400D01*
X20519024Y16440398D01*
X20734268Y16370461D01*
X20734272Y16370461D01*
X20734279Y16370458D01*
X20927263Y16339892D01*
X20957830Y16335050D01*
X20957831Y16335050D01*
X21184170Y16335050D01*
X21211059Y16339310D01*
X21407721Y16370458D01*
X21407729Y16370461D01*
X21407731Y16370461D01*
X21622975Y16440398D01*
X21622975Y16440399D01*
X21622981Y16440400D01*
X21824650Y16543155D01*
X22007761Y16676193D01*
X22167807Y16836239D01*
X22300845Y17019350D01*
X22403600Y17221019D01*
X22436898Y17323500D01*
X22473539Y17436269D01*
X22473539Y17436271D01*
X22473542Y17436279D01*
X22508950Y17659831D01*
X22508950Y17886169D01*
X24713050Y17886169D01*
X24713050Y17659831D01*
X24743477Y17467724D01*
X24748458Y17436280D01*
X24748460Y17436269D01*
X24818397Y17221025D01*
X24921154Y17019350D01*
X25054189Y16836244D01*
X25054193Y16836239D01*
X25214239Y16676193D01*
X25214242Y16676191D01*
X25214243Y16676190D01*
X25397349Y16543155D01*
X25477957Y16502084D01*
X25599019Y16440400D01*
X25599021Y16440400D01*
X25599024Y16440398D01*
X25814268Y16370461D01*
X25814272Y16370461D01*
X25814279Y16370458D01*
X26007263Y16339892D01*
X26037830Y16335050D01*
X26037831Y16335050D01*
X26264170Y16335050D01*
X26291059Y16339310D01*
X26487721Y16370458D01*
X26487729Y16370461D01*
X26487731Y16370461D01*
X26702975Y16440398D01*
X26702975Y16440399D01*
X26702981Y16440400D01*
X26904650Y16543155D01*
X27087761Y16676193D01*
X27247807Y16836239D01*
X27248409Y16837068D01*
X28120500Y16837068D01*
X28120500Y16708933D01*
X28145497Y16583261D01*
X28145498Y16583258D01*
X28186919Y16483258D01*
X28194535Y16464873D01*
X28265724Y16358331D01*
X28356331Y16267724D01*
X28462873Y16196535D01*
X28581256Y16147499D01*
X28581258Y16147499D01*
X28581260Y16147498D01*
X28623903Y16139016D01*
X28706931Y16122500D01*
X28706933Y16122500D01*
X28835067Y16122500D01*
X28835069Y16122500D01*
X28960744Y16147499D01*
X29079127Y16196535D01*
X29185669Y16267724D01*
X29276276Y16358331D01*
X29347465Y16464873D01*
X29396501Y16583256D01*
X29421500Y16708931D01*
X29421500Y16737069D01*
X32170500Y16737069D01*
X32170500Y16608931D01*
X32175233Y16585139D01*
X32195497Y16483261D01*
X32195498Y16483258D01*
X32242221Y16370458D01*
X32244535Y16364873D01*
X32315724Y16258331D01*
X32406331Y16167724D01*
X32512873Y16096535D01*
X32631256Y16047499D01*
X32631258Y16047499D01*
X32631260Y16047498D01*
X32673903Y16039016D01*
X32756931Y16022500D01*
X32756933Y16022500D01*
X32885067Y16022500D01*
X32885069Y16022500D01*
X33010744Y16047499D01*
X33129127Y16096535D01*
X33235669Y16167724D01*
X33326276Y16258331D01*
X33397465Y16364873D01*
X33446501Y16483256D01*
X33457205Y16537068D01*
X34270500Y16537068D01*
X34270500Y16408933D01*
X34295497Y16283261D01*
X34295498Y16283258D01*
X34343353Y16167725D01*
X34344535Y16164873D01*
X34415724Y16058331D01*
X34506331Y15967724D01*
X34612873Y15896535D01*
X34731256Y15847499D01*
X34731258Y15847499D01*
X34731260Y15847498D01*
X34773903Y15839016D01*
X34856931Y15822500D01*
X34856933Y15822500D01*
X34985067Y15822500D01*
X34985069Y15822500D01*
X35110744Y15847499D01*
X35229127Y15896535D01*
X35335669Y15967724D01*
X35426276Y16058331D01*
X35497465Y16164873D01*
X35546501Y16283256D01*
X35571500Y16408931D01*
X35571500Y16537068D01*
X36420500Y16537068D01*
X36420500Y16408933D01*
X36445497Y16283261D01*
X36445498Y16283258D01*
X36493353Y16167725D01*
X36494535Y16164873D01*
X36565724Y16058331D01*
X36656331Y15967724D01*
X36762873Y15896535D01*
X36881256Y15847499D01*
X36881258Y15847499D01*
X36881260Y15847498D01*
X36923903Y15839016D01*
X37006931Y15822500D01*
X37006933Y15822500D01*
X37135067Y15822500D01*
X37135069Y15822500D01*
X37257823Y15846918D01*
X51070500Y15846918D01*
X51070500Y15699082D01*
X51077575Y15663515D01*
X51099340Y15554093D01*
X51099343Y15554083D01*
X51155915Y15417506D01*
X51238048Y15294585D01*
X51342584Y15190049D01*
X51465505Y15107916D01*
X51594542Y15054467D01*
X51602087Y15051342D01*
X51747082Y15022500D01*
X51747084Y15022500D01*
X51894916Y15022500D01*
X51894918Y15022500D01*
X52039913Y15051342D01*
X52176495Y15107916D01*
X52299416Y15190049D01*
X52403951Y15294584D01*
X52486084Y15417505D01*
X52542658Y15554087D01*
X52571500Y15699082D01*
X52571500Y15846918D01*
X52542658Y15991913D01*
X52529988Y16022500D01*
X52486084Y16128495D01*
X52403951Y16251416D01*
X52299415Y16355952D01*
X52176494Y16438085D01*
X52039917Y16494657D01*
X52039907Y16494660D01*
X51942811Y16513974D01*
X51894918Y16523500D01*
X51747082Y16523500D01*
X51705977Y16515324D01*
X51602092Y16494660D01*
X51602082Y16494657D01*
X51465505Y16438085D01*
X51342584Y16355952D01*
X51342583Y16355950D01*
X51238050Y16251417D01*
X51238048Y16251416D01*
X51155915Y16128495D01*
X51099343Y15991918D01*
X51099340Y15991908D01*
X51080369Y15896534D01*
X51070500Y15846918D01*
X37257823Y15846918D01*
X37260744Y15847499D01*
X37379127Y15896535D01*
X37485669Y15967724D01*
X37576276Y16058331D01*
X37647465Y16164873D01*
X37696501Y16283256D01*
X37721500Y16408931D01*
X37721500Y16537069D01*
X37696501Y16662744D01*
X37647465Y16781127D01*
X37603505Y16846918D01*
X55070500Y16846918D01*
X55070500Y16699082D01*
X55077729Y16662740D01*
X55099340Y16554093D01*
X55099343Y16554083D01*
X55155915Y16417506D01*
X55238048Y16294585D01*
X55342584Y16190049D01*
X55465505Y16107916D01*
X55585211Y16058332D01*
X55602087Y16051342D01*
X55747082Y16022500D01*
X55747084Y16022500D01*
X55894916Y16022500D01*
X55894918Y16022500D01*
X56005477Y16044492D01*
X56061026Y16033443D01*
X56092492Y15986351D01*
X56092492Y15957477D01*
X56089305Y15941455D01*
X56070500Y15846918D01*
X56070500Y15699082D01*
X56077575Y15663515D01*
X56099340Y15554093D01*
X56099343Y15554083D01*
X56155915Y15417506D01*
X56238048Y15294585D01*
X56342584Y15190049D01*
X56465505Y15107916D01*
X56594542Y15054467D01*
X56602087Y15051342D01*
X56747082Y15022500D01*
X56747084Y15022500D01*
X56894916Y15022500D01*
X56894918Y15022500D01*
X57039913Y15051342D01*
X57176495Y15107916D01*
X57299416Y15190049D01*
X57403951Y15294584D01*
X57486084Y15417505D01*
X57542658Y15554087D01*
X57571500Y15699082D01*
X57571500Y15846918D01*
X57549507Y15957480D01*
X57560556Y16013027D01*
X57607648Y16044493D01*
X57636518Y16044493D01*
X57747082Y16022500D01*
X57747084Y16022500D01*
X57894916Y16022500D01*
X57894918Y16022500D01*
X58039913Y16051342D01*
X58176495Y16107916D01*
X58299416Y16190049D01*
X58403951Y16294584D01*
X58486084Y16417505D01*
X58542658Y16554087D01*
X58571500Y16699082D01*
X58571500Y16846918D01*
X58542658Y16991913D01*
X58529988Y17022500D01*
X58486084Y17128495D01*
X58403951Y17251416D01*
X58299415Y17355952D01*
X58176494Y17438085D01*
X58039917Y17494657D01*
X58039907Y17494660D01*
X57938373Y17514856D01*
X57894918Y17523500D01*
X57747082Y17523500D01*
X57705977Y17515324D01*
X57602092Y17494660D01*
X57602082Y17494657D01*
X57554161Y17474807D01*
X57497524Y17474807D01*
X57457476Y17514856D01*
X57453265Y17528738D01*
X57447378Y17558332D01*
X57446501Y17562744D01*
X57397465Y17681127D01*
X57326276Y17787669D01*
X57235669Y17878276D01*
X57223856Y17886169D01*
X57189790Y17908931D01*
X57129127Y17949465D01*
X57129124Y17949467D01*
X57129123Y17949467D01*
X57010742Y17998502D01*
X57010739Y17998503D01*
X56914101Y18017725D01*
X56885069Y18023500D01*
X56756931Y18023500D01*
X56727899Y18017725D01*
X56631260Y17998503D01*
X56631257Y17998502D01*
X56512876Y17949467D01*
X56406331Y17878277D01*
X56406330Y17878275D01*
X56315725Y17787670D01*
X56315723Y17787669D01*
X56244533Y17681124D01*
X56195498Y17562743D01*
X56195498Y17562742D01*
X56188733Y17528736D01*
X56157265Y17481645D01*
X56101716Y17470597D01*
X56087837Y17474808D01*
X56039917Y17494657D01*
X56039907Y17494660D01*
X55938373Y17514856D01*
X55894918Y17523500D01*
X55747082Y17523500D01*
X55705977Y17515324D01*
X55602092Y17494660D01*
X55602082Y17494657D01*
X55465505Y17438085D01*
X55342584Y17355952D01*
X55342583Y17355950D01*
X55238050Y17251417D01*
X55238048Y17251416D01*
X55155915Y17128495D01*
X55099343Y16991918D01*
X55099340Y16991908D01*
X55090898Y16949465D01*
X55070500Y16846918D01*
X37603505Y16846918D01*
X37576276Y16887669D01*
X37485669Y16978276D01*
X37481402Y16981127D01*
X37417986Y17023500D01*
X37379127Y17049465D01*
X37379124Y17049467D01*
X37379123Y17049467D01*
X37260742Y17098502D01*
X37260739Y17098503D01*
X37170696Y17116414D01*
X37135069Y17123500D01*
X37006931Y17123500D01*
X36975726Y17117293D01*
X36881260Y17098503D01*
X36881257Y17098502D01*
X36762876Y17049467D01*
X36656331Y16978277D01*
X36656330Y16978275D01*
X36565725Y16887670D01*
X36565723Y16887669D01*
X36494533Y16781124D01*
X36445498Y16662743D01*
X36445497Y16662740D01*
X36420500Y16537068D01*
X35571500Y16537068D01*
X35571500Y16537069D01*
X35546501Y16662744D01*
X35497465Y16781127D01*
X35426276Y16887669D01*
X35335669Y16978276D01*
X35331402Y16981127D01*
X35267986Y17023500D01*
X35229127Y17049465D01*
X35229124Y17049467D01*
X35229123Y17049467D01*
X35110742Y17098502D01*
X35110739Y17098503D01*
X35020696Y17116414D01*
X34985069Y17123500D01*
X34856931Y17123500D01*
X34825726Y17117293D01*
X34731260Y17098503D01*
X34731257Y17098502D01*
X34612876Y17049467D01*
X34506331Y16978277D01*
X34506330Y16978275D01*
X34415725Y16887670D01*
X34415723Y16887669D01*
X34344533Y16781124D01*
X34295498Y16662743D01*
X34295497Y16662740D01*
X34270500Y16537068D01*
X33457205Y16537068D01*
X33471500Y16608931D01*
X33471500Y16737069D01*
X33451772Y16836244D01*
X33446502Y16862740D01*
X33446501Y16862743D01*
X33440067Y16878275D01*
X33397465Y16981127D01*
X33326276Y17087669D01*
X33235669Y17178276D01*
X33221611Y17187669D01*
X33200473Y17201793D01*
X33129127Y17249465D01*
X33129124Y17249467D01*
X33129123Y17249467D01*
X33010742Y17298502D01*
X33010739Y17298503D01*
X32920696Y17316414D01*
X32885069Y17323500D01*
X32756931Y17323500D01*
X32725726Y17317293D01*
X32631260Y17298503D01*
X32631257Y17298502D01*
X32512876Y17249467D01*
X32406331Y17178277D01*
X32406330Y17178275D01*
X32315725Y17087670D01*
X32315723Y17087669D01*
X32244533Y16981124D01*
X32195498Y16862743D01*
X32195497Y16862740D01*
X32179263Y16781124D01*
X32170500Y16737069D01*
X29421500Y16737069D01*
X29421500Y16837069D01*
X29409168Y16899061D01*
X29396502Y16962740D01*
X29396501Y16962743D01*
X29390067Y16978275D01*
X29347465Y17081127D01*
X29276276Y17187669D01*
X29185669Y17278276D01*
X29079127Y17349465D01*
X29079124Y17349467D01*
X29079123Y17349467D01*
X28960742Y17398502D01*
X28960739Y17398503D01*
X28865202Y17417506D01*
X28835069Y17423500D01*
X28706931Y17423500D01*
X28676798Y17417506D01*
X28581260Y17398503D01*
X28581257Y17398502D01*
X28462876Y17349467D01*
X28356331Y17278277D01*
X28356330Y17278275D01*
X28265725Y17187670D01*
X28265723Y17187669D01*
X28194533Y17081124D01*
X28145498Y16962743D01*
X28145497Y16962740D01*
X28120500Y16837068D01*
X27248409Y16837068D01*
X27278349Y16878276D01*
X27282653Y16884200D01*
X27380845Y17019350D01*
X27382450Y17022500D01*
X27483600Y17221019D01*
X27516898Y17323500D01*
X27553539Y17436269D01*
X27553539Y17436271D01*
X27553542Y17436279D01*
X27588950Y17659831D01*
X27588950Y17886169D01*
X27588079Y17891665D01*
X27579389Y17946535D01*
X27553542Y18109721D01*
X27553539Y18109728D01*
X27553539Y18109732D01*
X27483602Y18324976D01*
X27483600Y18324979D01*
X27483600Y18324981D01*
X27415655Y18458332D01*
X27380845Y18526651D01*
X27247810Y18709757D01*
X27247809Y18709758D01*
X27247807Y18709761D01*
X27087761Y18869807D01*
X27087758Y18869810D01*
X27087756Y18869811D01*
X27064004Y18887068D01*
X32170500Y18887068D01*
X32170500Y18758933D01*
X32195497Y18633261D01*
X32195498Y18633258D01*
X32240961Y18523500D01*
X32244535Y18514873D01*
X32315724Y18408331D01*
X32406331Y18317724D01*
X32512873Y18246535D01*
X32631256Y18197499D01*
X32631258Y18197499D01*
X32631260Y18197498D01*
X32673903Y18189016D01*
X32756931Y18172500D01*
X32756933Y18172500D01*
X32885067Y18172500D01*
X32885069Y18172500D01*
X33010744Y18197499D01*
X33129127Y18246535D01*
X33235669Y18317724D01*
X33326276Y18408331D01*
X33397465Y18514873D01*
X33446501Y18633256D01*
X33471500Y18758931D01*
X33471500Y18837068D01*
X34170500Y18837068D01*
X34170500Y18708933D01*
X34195497Y18583261D01*
X34195498Y18583258D01*
X34238983Y18478275D01*
X34244535Y18464873D01*
X34315724Y18358331D01*
X34406331Y18267724D01*
X34512873Y18196535D01*
X34631256Y18147499D01*
X34631258Y18147499D01*
X34631260Y18147498D01*
X34673903Y18139016D01*
X34756931Y18122500D01*
X34756933Y18122500D01*
X34885067Y18122500D01*
X34885069Y18122500D01*
X35010744Y18147499D01*
X35129127Y18196535D01*
X35235669Y18267724D01*
X35326276Y18358331D01*
X35397465Y18464873D01*
X35446501Y18583256D01*
X35447259Y18587069D01*
X35770500Y18587069D01*
X35770500Y18458931D01*
X35770620Y18458330D01*
X35795497Y18333261D01*
X35795498Y18333258D01*
X35841375Y18222500D01*
X35844535Y18214873D01*
X35892207Y18143527D01*
X35906256Y18122500D01*
X35915724Y18108331D01*
X36006331Y18017724D01*
X36112873Y17946535D01*
X36231256Y17897499D01*
X36231258Y17897499D01*
X36231260Y17897498D01*
X36273681Y17889060D01*
X36356931Y17872500D01*
X36356933Y17872500D01*
X36485067Y17872500D01*
X36485069Y17872500D01*
X36610744Y17897499D01*
X36729127Y17946535D01*
X36835669Y18017724D01*
X36855013Y18037068D01*
X39970500Y18037068D01*
X39970500Y17908933D01*
X39995497Y17783261D01*
X39995498Y17783258D01*
X40037803Y17681124D01*
X40044535Y17664873D01*
X40092207Y17593527D01*
X40112776Y17562742D01*
X40115724Y17558331D01*
X40206331Y17467724D01*
X40312873Y17396535D01*
X40431256Y17347499D01*
X40431258Y17347499D01*
X40431260Y17347498D01*
X40473903Y17339016D01*
X40556931Y17322500D01*
X40556933Y17322500D01*
X40685067Y17322500D01*
X40685069Y17322500D01*
X40810744Y17347499D01*
X40929127Y17396535D01*
X41035669Y17467724D01*
X41126276Y17558331D01*
X41197465Y17664873D01*
X41246501Y17783256D01*
X41271500Y17908931D01*
X41271500Y18037069D01*
X41249534Y18147499D01*
X41246502Y18162740D01*
X41246501Y18162743D01*
X41232504Y18196534D01*
X41203017Y18267724D01*
X41197467Y18281123D01*
X41197466Y18281125D01*
X41197465Y18281127D01*
X41193495Y18287068D01*
X42620500Y18287068D01*
X42620500Y18158933D01*
X42645497Y18033261D01*
X42645498Y18033258D01*
X42681420Y17946534D01*
X42694535Y17914873D01*
X42765724Y17808331D01*
X42856331Y17717724D01*
X42962873Y17646535D01*
X43081256Y17597499D01*
X43081258Y17597499D01*
X43081260Y17597498D01*
X43123903Y17589016D01*
X43206931Y17572500D01*
X43206933Y17572500D01*
X43335067Y17572500D01*
X43335069Y17572500D01*
X43460744Y17597499D01*
X43579127Y17646535D01*
X43685669Y17717724D01*
X43776276Y17808331D01*
X43847465Y17914873D01*
X43896501Y18033256D01*
X43921500Y18158931D01*
X43921500Y18287068D01*
X45720500Y18287068D01*
X45720500Y18158933D01*
X45745497Y18033261D01*
X45745498Y18033258D01*
X45781420Y17946534D01*
X45794535Y17914873D01*
X45865724Y17808331D01*
X45956331Y17717724D01*
X46062873Y17646535D01*
X46181256Y17597499D01*
X46181258Y17597499D01*
X46181260Y17597498D01*
X46223903Y17589016D01*
X46306931Y17572500D01*
X46306933Y17572500D01*
X46435067Y17572500D01*
X46435069Y17572500D01*
X46560744Y17597499D01*
X46679127Y17646535D01*
X46785669Y17717724D01*
X46876276Y17808331D01*
X46902058Y17846917D01*
X52070500Y17846917D01*
X52070500Y17699084D01*
X52099340Y17554093D01*
X52099343Y17554083D01*
X52155915Y17417506D01*
X52238048Y17294585D01*
X52342584Y17190049D01*
X52465505Y17107916D01*
X52530179Y17081127D01*
X52602087Y17051342D01*
X52747082Y17022500D01*
X52747084Y17022500D01*
X52894916Y17022500D01*
X52894918Y17022500D01*
X53039913Y17051342D01*
X53176495Y17107916D01*
X53299416Y17190049D01*
X53403951Y17294584D01*
X53486084Y17417505D01*
X53542658Y17554087D01*
X53571500Y17699082D01*
X53571500Y17846918D01*
X53542658Y17991913D01*
X53486084Y18128495D01*
X53403951Y18251416D01*
X53299416Y18355951D01*
X53295855Y18358331D01*
X53176494Y18438085D01*
X53039917Y18494657D01*
X53039907Y18494660D01*
X52938268Y18514877D01*
X52894918Y18523500D01*
X52747082Y18523500D01*
X52705977Y18515324D01*
X52602092Y18494660D01*
X52602082Y18494657D01*
X52465505Y18438085D01*
X52342584Y18355952D01*
X52342583Y18355950D01*
X52238050Y18251417D01*
X52238048Y18251416D01*
X52155915Y18128495D01*
X52099343Y17991918D01*
X52099340Y17991908D01*
X52070500Y17846917D01*
X46902058Y17846917D01*
X46947465Y17914873D01*
X46996501Y18033256D01*
X47021500Y18158931D01*
X47021500Y18287069D01*
X46996501Y18412744D01*
X46947465Y18531127D01*
X46876276Y18637669D01*
X46785669Y18728276D01*
X46679127Y18799465D01*
X46679124Y18799467D01*
X46679123Y18799467D01*
X46560742Y18848502D01*
X46560739Y18848503D01*
X46480739Y18864416D01*
X46435069Y18873500D01*
X46306931Y18873500D01*
X46279915Y18868126D01*
X46181260Y18848503D01*
X46181257Y18848502D01*
X46062876Y18799467D01*
X45956331Y18728277D01*
X45956330Y18728275D01*
X45865725Y18637670D01*
X45865723Y18637669D01*
X45794533Y18531124D01*
X45745498Y18412743D01*
X45745497Y18412740D01*
X45720500Y18287068D01*
X43921500Y18287068D01*
X43921500Y18287069D01*
X43896501Y18412744D01*
X43847465Y18531127D01*
X43776276Y18637669D01*
X43685669Y18728276D01*
X43579127Y18799465D01*
X43579124Y18799467D01*
X43579123Y18799467D01*
X43460742Y18848502D01*
X43460739Y18848503D01*
X43362085Y18868126D01*
X43335069Y18873500D01*
X43206931Y18873500D01*
X43179915Y18868126D01*
X43081260Y18848503D01*
X43081257Y18848502D01*
X42962876Y18799467D01*
X42856331Y18728277D01*
X42856330Y18728275D01*
X42765725Y18637670D01*
X42765723Y18637669D01*
X42694533Y18531124D01*
X42645498Y18412743D01*
X42645497Y18412740D01*
X42620500Y18287068D01*
X41193495Y18287068D01*
X41126276Y18387669D01*
X41035669Y18478276D01*
X40929127Y18549465D01*
X40929124Y18549467D01*
X40929123Y18549467D01*
X40810742Y18598502D01*
X40810739Y18598503D01*
X40720696Y18616414D01*
X40685069Y18623500D01*
X40556931Y18623500D01*
X40525726Y18617293D01*
X40431260Y18598503D01*
X40431257Y18598502D01*
X40312876Y18549467D01*
X40206331Y18478277D01*
X40206330Y18478275D01*
X40115725Y18387670D01*
X40115723Y18387669D01*
X40044533Y18281124D01*
X39995498Y18162743D01*
X39995497Y18162740D01*
X39970500Y18037068D01*
X36855013Y18037068D01*
X36926276Y18108331D01*
X36997465Y18214873D01*
X37046501Y18333256D01*
X37071500Y18458931D01*
X37071500Y18587069D01*
X37052366Y18683261D01*
X37046502Y18712740D01*
X37046501Y18712743D01*
X37040067Y18728275D01*
X36997465Y18831127D01*
X36926678Y18937068D01*
X49520500Y18937068D01*
X49520500Y18808933D01*
X49545497Y18683261D01*
X49545498Y18683258D01*
X49586919Y18583258D01*
X49594535Y18564873D01*
X49620074Y18526651D01*
X49665321Y18458933D01*
X49665724Y18458331D01*
X49756331Y18367724D01*
X49862873Y18296535D01*
X49981256Y18247499D01*
X49981258Y18247499D01*
X49981260Y18247498D01*
X50023903Y18239016D01*
X50106931Y18222500D01*
X50106933Y18222500D01*
X50235067Y18222500D01*
X50235069Y18222500D01*
X50360744Y18247499D01*
X50479127Y18296535D01*
X50585669Y18367724D01*
X50676276Y18458331D01*
X50747465Y18564873D01*
X50796501Y18683256D01*
X50821500Y18808931D01*
X50821500Y18937069D01*
X50809380Y18998000D01*
X55831000Y18998000D01*
X57921000Y18998000D01*
X57921000Y20898000D01*
X55831000Y20898000D01*
X55831000Y18998000D01*
X50809380Y18998000D01*
X50806447Y19012744D01*
X50796502Y19062740D01*
X50796501Y19062743D01*
X50788887Y19081124D01*
X50747465Y19181127D01*
X50676276Y19287669D01*
X50585669Y19378276D01*
X50479127Y19449465D01*
X50479124Y19449467D01*
X50479123Y19449467D01*
X50360742Y19498502D01*
X50360739Y19498503D01*
X50270696Y19516414D01*
X50235069Y19523500D01*
X50106931Y19523500D01*
X50075726Y19517293D01*
X49981260Y19498503D01*
X49981257Y19498502D01*
X49862876Y19449467D01*
X49756331Y19378277D01*
X49756330Y19378275D01*
X49665725Y19287670D01*
X49665723Y19287669D01*
X49594533Y19181124D01*
X49545498Y19062743D01*
X49545497Y19062740D01*
X49532620Y18998000D01*
X49520620Y18937669D01*
X49520500Y18937068D01*
X36926678Y18937068D01*
X36926276Y18937669D01*
X36835669Y19028276D01*
X36747822Y19086973D01*
X36716358Y19134063D01*
X36727407Y19189612D01*
X36774499Y19221078D01*
X36788936Y19222500D01*
X36835067Y19222500D01*
X36835069Y19222500D01*
X36960744Y19247499D01*
X37079127Y19296535D01*
X37185669Y19367724D01*
X37276276Y19458331D01*
X37347465Y19564873D01*
X37396501Y19683256D01*
X37421500Y19808931D01*
X37421500Y19937069D01*
X37396501Y20062744D01*
X37347465Y20181127D01*
X37276276Y20287669D01*
X37185669Y20378276D01*
X37172364Y20387166D01*
X37130432Y20415184D01*
X37110987Y20428177D01*
X37079522Y20475268D01*
X37090571Y20530817D01*
X37110987Y20551233D01*
X37135669Y20567724D01*
X37226276Y20658331D01*
X37278887Y20737069D01*
X39870500Y20737069D01*
X39870500Y20608931D01*
X39870620Y20608330D01*
X39895497Y20483261D01*
X39895498Y20483258D01*
X39939877Y20376117D01*
X39944535Y20364873D01*
X39965401Y20333645D01*
X39996514Y20287080D01*
X40015724Y20258331D01*
X40106331Y20167724D01*
X40212873Y20096535D01*
X40331256Y20047499D01*
X40331258Y20047499D01*
X40331260Y20047498D01*
X40373903Y20039016D01*
X40456931Y20022500D01*
X40456933Y20022500D01*
X40585067Y20022500D01*
X40585069Y20022500D01*
X40710744Y20047499D01*
X40829127Y20096535D01*
X40935669Y20167724D01*
X41026276Y20258331D01*
X41097465Y20364873D01*
X41146501Y20483256D01*
X41171500Y20608931D01*
X41171500Y20737069D01*
X41152366Y20833261D01*
X41146502Y20862740D01*
X41146501Y20862743D01*
X41141612Y20874545D01*
X41097465Y20981127D01*
X41026276Y21087669D01*
X40935669Y21178276D01*
X40829127Y21249465D01*
X40829124Y21249467D01*
X40829123Y21249467D01*
X40773909Y21272337D01*
X40773908Y21272338D01*
X40710746Y21298501D01*
X40710739Y21298503D01*
X40620696Y21316414D01*
X40585069Y21323500D01*
X40456931Y21323500D01*
X40425726Y21317293D01*
X40331260Y21298503D01*
X40331257Y21298502D01*
X40212876Y21249467D01*
X40106331Y21178277D01*
X40106330Y21178275D01*
X40015725Y21087670D01*
X40015723Y21087669D01*
X39944533Y20981124D01*
X39895498Y20862743D01*
X39895497Y20862740D01*
X39876031Y20764873D01*
X39870500Y20737069D01*
X37278887Y20737069D01*
X37297465Y20764873D01*
X37346501Y20883256D01*
X37371500Y21008931D01*
X37371500Y21137069D01*
X37351307Y21238585D01*
X37346502Y21262740D01*
X37346501Y21262743D01*
X37337397Y21284721D01*
X37315715Y21337068D01*
X49520500Y21337068D01*
X49520500Y21208933D01*
X49545497Y21083261D01*
X49545498Y21083258D01*
X49587803Y20981124D01*
X49594535Y20964873D01*
X49665724Y20858331D01*
X49756331Y20767724D01*
X49862873Y20696535D01*
X49981256Y20647499D01*
X49981258Y20647499D01*
X49981260Y20647498D01*
X50023903Y20639016D01*
X50106931Y20622500D01*
X50106933Y20622500D01*
X50235067Y20622500D01*
X50235069Y20622500D01*
X50360744Y20647499D01*
X50479127Y20696535D01*
X50585669Y20767724D01*
X50676276Y20858331D01*
X50747465Y20964873D01*
X50796501Y21083256D01*
X50821500Y21208931D01*
X50821500Y21337069D01*
X50796501Y21462744D01*
X50747465Y21581127D01*
X50676276Y21687669D01*
X50585669Y21778276D01*
X50566750Y21790917D01*
X50550473Y21801793D01*
X50479127Y21849465D01*
X50479124Y21849467D01*
X50479123Y21849467D01*
X50360742Y21898502D01*
X50360739Y21898503D01*
X50270696Y21916414D01*
X50235069Y21923500D01*
X50106931Y21923500D01*
X50075726Y21917293D01*
X49981260Y21898503D01*
X49981257Y21898502D01*
X49862876Y21849467D01*
X49756331Y21778277D01*
X49756330Y21778275D01*
X49665725Y21687670D01*
X49665723Y21687669D01*
X49594533Y21581124D01*
X49545498Y21462743D01*
X49545497Y21462740D01*
X49520500Y21337068D01*
X37315715Y21337068D01*
X37297465Y21381127D01*
X37226276Y21487669D01*
X37135669Y21578276D01*
X37131402Y21581127D01*
X37084449Y21612500D01*
X37029127Y21649465D01*
X37029124Y21649467D01*
X37029123Y21649467D01*
X36910742Y21698502D01*
X36910739Y21698503D01*
X36820696Y21716414D01*
X36785069Y21723500D01*
X36656931Y21723500D01*
X36625726Y21717293D01*
X36531260Y21698503D01*
X36531257Y21698502D01*
X36412876Y21649467D01*
X36306331Y21578277D01*
X36306330Y21578275D01*
X36215725Y21487670D01*
X36215723Y21487669D01*
X36144533Y21381124D01*
X36095498Y21262743D01*
X36095497Y21262740D01*
X36074043Y21154883D01*
X36070500Y21137069D01*
X36070500Y21008931D01*
X36076031Y20981127D01*
X36095497Y20883261D01*
X36095498Y20883258D01*
X36143353Y20767725D01*
X36144535Y20764873D01*
X36215724Y20658331D01*
X36306331Y20567724D01*
X36381011Y20517825D01*
X36412477Y20470733D01*
X36401428Y20415184D01*
X36381012Y20394768D01*
X36356334Y20378279D01*
X36265725Y20287670D01*
X36265723Y20287669D01*
X36194533Y20181124D01*
X36145498Y20062743D01*
X36145497Y20062740D01*
X36124662Y19957993D01*
X36120500Y19937069D01*
X36120500Y19808931D01*
X36120620Y19808330D01*
X36145497Y19683261D01*
X36145498Y19683258D01*
X36191375Y19572500D01*
X36194535Y19564873D01*
X36265724Y19458331D01*
X36356331Y19367724D01*
X36444177Y19309028D01*
X36475642Y19261937D01*
X36464593Y19206388D01*
X36417501Y19174922D01*
X36403064Y19173500D01*
X36356931Y19173500D01*
X36325726Y19167293D01*
X36231260Y19148503D01*
X36231257Y19148502D01*
X36112876Y19099467D01*
X36006331Y19028277D01*
X36006330Y19028275D01*
X35915725Y18937670D01*
X35915723Y18937669D01*
X35844533Y18831124D01*
X35795498Y18712743D01*
X35795497Y18712740D01*
X35779687Y18633256D01*
X35770500Y18587069D01*
X35447259Y18587069D01*
X35471500Y18708931D01*
X35471500Y18837069D01*
X35459168Y18899061D01*
X35446502Y18962740D01*
X35446501Y18962743D01*
X35429890Y19002845D01*
X35397465Y19081127D01*
X35326276Y19187669D01*
X35235669Y19278276D01*
X35221611Y19287669D01*
X35160840Y19328275D01*
X35129127Y19349465D01*
X35129124Y19349467D01*
X35129123Y19349467D01*
X35010742Y19398502D01*
X35010739Y19398503D01*
X34920696Y19416414D01*
X34885069Y19423500D01*
X34756931Y19423500D01*
X34725726Y19417293D01*
X34631260Y19398503D01*
X34631257Y19398502D01*
X34512876Y19349467D01*
X34406331Y19278277D01*
X34406330Y19278275D01*
X34315725Y19187670D01*
X34315723Y19187669D01*
X34244533Y19081124D01*
X34195498Y18962743D01*
X34195497Y18962740D01*
X34170500Y18837068D01*
X33471500Y18837068D01*
X33471500Y18887069D01*
X33446501Y19012744D01*
X33397465Y19131127D01*
X33326276Y19237669D01*
X33235669Y19328276D01*
X33129127Y19399465D01*
X33129124Y19399467D01*
X33129123Y19399467D01*
X33010742Y19448502D01*
X33010739Y19448503D01*
X32920696Y19466414D01*
X32885069Y19473500D01*
X32756931Y19473500D01*
X32725726Y19467293D01*
X32631260Y19448503D01*
X32631257Y19448502D01*
X32512876Y19399467D01*
X32406331Y19328277D01*
X32406330Y19328275D01*
X32315725Y19237670D01*
X32315723Y19237669D01*
X32244533Y19131124D01*
X32195498Y19012743D01*
X32195497Y19012740D01*
X32170500Y18887068D01*
X27064004Y18887068D01*
X26904650Y19002846D01*
X26702975Y19105603D01*
X26487731Y19175540D01*
X26487722Y19175542D01*
X26487721Y19175542D01*
X26292972Y19206388D01*
X26264170Y19210950D01*
X26264169Y19210950D01*
X26037831Y19210950D01*
X26037830Y19210950D01*
X25814279Y19175542D01*
X25814268Y19175540D01*
X25599024Y19105603D01*
X25397349Y19002846D01*
X25214243Y18869811D01*
X25054189Y18709757D01*
X24921154Y18526651D01*
X24818397Y18324976D01*
X24748460Y18109732D01*
X24748458Y18109721D01*
X24713921Y17891665D01*
X24713050Y17886169D01*
X22508950Y17886169D01*
X22508079Y17891665D01*
X22499389Y17946535D01*
X22473542Y18109721D01*
X22473539Y18109728D01*
X22473539Y18109732D01*
X22403602Y18324976D01*
X22403600Y18324979D01*
X22403600Y18324981D01*
X22335655Y18458332D01*
X22300845Y18526651D01*
X22167810Y18709757D01*
X22167809Y18709758D01*
X22167807Y18709761D01*
X22007761Y18869807D01*
X22007758Y18869810D01*
X22007756Y18869811D01*
X21824650Y19002846D01*
X21622975Y19105603D01*
X21407731Y19175540D01*
X21407722Y19175542D01*
X21407721Y19175542D01*
X21212972Y19206388D01*
X21184170Y19210950D01*
X21184169Y19210950D01*
X20957831Y19210950D01*
X20957830Y19210950D01*
X20734279Y19175542D01*
X20734268Y19175540D01*
X20519024Y19105603D01*
X20317349Y19002846D01*
X20134243Y18869811D01*
X19974189Y18709757D01*
X19841154Y18526651D01*
X19738397Y18324976D01*
X19668460Y18109732D01*
X19668458Y18109721D01*
X19633921Y17891665D01*
X19633050Y17886169D01*
X124552Y17886169D01*
X124327Y18837068D01*
X12420500Y18837068D01*
X12420500Y18708933D01*
X12445497Y18583261D01*
X12445498Y18583258D01*
X12488983Y18478275D01*
X12494535Y18464873D01*
X12565724Y18358331D01*
X12656331Y18267724D01*
X12762873Y18196535D01*
X12881256Y18147499D01*
X12881258Y18147499D01*
X12881260Y18147498D01*
X12923903Y18139016D01*
X13006931Y18122500D01*
X13006933Y18122500D01*
X13135067Y18122500D01*
X13135069Y18122500D01*
X13260744Y18147499D01*
X13379127Y18196535D01*
X13485669Y18267724D01*
X13576276Y18358331D01*
X13647465Y18464873D01*
X13696501Y18583256D01*
X13721500Y18708931D01*
X13721500Y18837069D01*
X13709168Y18899061D01*
X13696502Y18962740D01*
X13696501Y18962743D01*
X13679890Y19002845D01*
X13647465Y19081127D01*
X13576276Y19187669D01*
X13485669Y19278276D01*
X13471611Y19287669D01*
X13410840Y19328275D01*
X13379127Y19349465D01*
X13379124Y19349467D01*
X13379123Y19349467D01*
X13260742Y19398502D01*
X13260739Y19398503D01*
X13170696Y19416414D01*
X13135069Y19423500D01*
X13006931Y19423500D01*
X12975726Y19417293D01*
X12881260Y19398503D01*
X12881257Y19398502D01*
X12762876Y19349467D01*
X12656331Y19278277D01*
X12656330Y19278275D01*
X12565725Y19187670D01*
X12565723Y19187669D01*
X12494533Y19081124D01*
X12445498Y18962743D01*
X12445497Y18962740D01*
X12420500Y18837068D01*
X124327Y18837068D01*
X123461Y22491842D01*
X1820500Y22491842D01*
X1820500Y22334158D01*
X1827304Y22299952D01*
X1851261Y22179509D01*
X1851264Y22179499D01*
X1911603Y22033826D01*
X1911605Y22033823D01*
X1911606Y22033821D01*
X1999211Y21902711D01*
X2110711Y21791211D01*
X2241821Y21703606D01*
X2241826Y21703604D01*
X2241825Y21703604D01*
X2334689Y21665139D01*
X2387503Y21643263D01*
X2542158Y21612500D01*
X2542160Y21612500D01*
X3499840Y21612500D01*
X3499842Y21612500D01*
X3654497Y21643263D01*
X3800179Y21703606D01*
X3931289Y21791211D01*
X4042789Y21902711D01*
X4130394Y22033821D01*
X4190737Y22179503D01*
X4221500Y22334158D01*
X4221500Y22491842D01*
X5850500Y22491842D01*
X5850500Y22334158D01*
X5857304Y22299952D01*
X5881261Y22179509D01*
X5881264Y22179499D01*
X5941603Y22033826D01*
X5941605Y22033823D01*
X5941606Y22033821D01*
X6029211Y21902711D01*
X6140711Y21791211D01*
X6271821Y21703606D01*
X6271826Y21703604D01*
X6271825Y21703604D01*
X6364689Y21665139D01*
X6417503Y21643263D01*
X6417507Y21643263D01*
X6417511Y21643261D01*
X6430020Y21640773D01*
X6477113Y21609308D01*
X6488163Y21553760D01*
X6456698Y21506667D01*
X6452586Y21504109D01*
X6347635Y21443515D01*
X6240483Y21336363D01*
X6164721Y21205140D01*
X6164717Y21205131D01*
X6125500Y21058769D01*
X6125500Y20907232D01*
X6164717Y20760870D01*
X6164721Y20760861D01*
X6240483Y20629638D01*
X6240485Y20629635D01*
X6347635Y20522485D01*
X6478865Y20446719D01*
X6625231Y20407501D01*
X6625232Y20407500D01*
X6625234Y20407500D01*
X6776768Y20407500D01*
X6776768Y20407501D01*
X6923135Y20446719D01*
X7054365Y20522485D01*
X7161515Y20629635D01*
X7237281Y20760865D01*
X7276499Y20907232D01*
X7276500Y20907232D01*
X7276500Y21058768D01*
X7276499Y21058769D01*
X7269936Y21083261D01*
X7237281Y21205135D01*
X7161515Y21336365D01*
X7054365Y21443515D01*
X7021066Y21462740D01*
X7000847Y21474414D01*
X6966368Y21519348D01*
X6973761Y21575500D01*
X7018695Y21609979D01*
X7037847Y21612500D01*
X7829840Y21612500D01*
X7829842Y21612500D01*
X7984497Y21643263D01*
X8130179Y21703606D01*
X8151389Y21717779D01*
X8206935Y21728828D01*
X8254028Y21697363D01*
X8266500Y21656250D01*
X8266500Y21643082D01*
X8275176Y21599467D01*
X8295340Y21498093D01*
X8295343Y21498083D01*
X8351915Y21361506D01*
X8434048Y21238585D01*
X8538584Y21134049D01*
X8661505Y21051916D01*
X8735044Y21021455D01*
X8798087Y20995342D01*
X8943082Y20966500D01*
X8943084Y20966500D01*
X9090916Y20966500D01*
X9090918Y20966500D01*
X9235913Y20995342D01*
X9372495Y21051916D01*
X9386343Y21061169D01*
X19633050Y21061169D01*
X19633050Y20834831D01*
X19654954Y20696535D01*
X19668458Y20611280D01*
X19668460Y20611269D01*
X19738397Y20396025D01*
X19738399Y20396020D01*
X19738400Y20396019D01*
X19742911Y20387166D01*
X19841154Y20194350D01*
X19959114Y20031993D01*
X19974193Y20011239D01*
X20134239Y19851193D01*
X20134242Y19851191D01*
X20134243Y19851190D01*
X20317349Y19718155D01*
X20385843Y19683256D01*
X20519019Y19615400D01*
X20519021Y19615400D01*
X20519024Y19615398D01*
X20734268Y19545461D01*
X20734272Y19545461D01*
X20734279Y19545458D01*
X20927263Y19514892D01*
X20957830Y19510050D01*
X20957831Y19510050D01*
X21184170Y19510050D01*
X21211059Y19514310D01*
X21407721Y19545458D01*
X21407729Y19545461D01*
X21407731Y19545461D01*
X21622975Y19615398D01*
X21622975Y19615399D01*
X21622981Y19615400D01*
X21824650Y19718155D01*
X22007761Y19851193D01*
X22167807Y20011239D01*
X22300845Y20194350D01*
X22403600Y20396019D01*
X22428476Y20472580D01*
X22473539Y20611269D01*
X22473540Y20611273D01*
X22473542Y20611279D01*
X22508950Y20834831D01*
X22508950Y21021455D01*
X22865200Y21021455D01*
X22865200Y20874545D01*
X22870380Y20848501D01*
X22893858Y20730465D01*
X22893861Y20730454D01*
X22950078Y20594734D01*
X23024498Y20483356D01*
X23031699Y20472580D01*
X23135580Y20368699D01*
X23257731Y20287080D01*
X23257732Y20287080D01*
X23257733Y20287079D01*
X23393453Y20230862D01*
X23393458Y20230860D01*
X23537545Y20202200D01*
X23684455Y20202200D01*
X23828542Y20230860D01*
X23964269Y20287080D01*
X24086420Y20368699D01*
X24190301Y20472580D01*
X24271920Y20594731D01*
X24328140Y20730458D01*
X24356800Y20874545D01*
X24356800Y21021455D01*
X24356800Y21021456D01*
X24351194Y21049642D01*
X24348901Y21061169D01*
X24713050Y21061169D01*
X24713050Y20834831D01*
X24734954Y20696535D01*
X24748458Y20611280D01*
X24748460Y20611269D01*
X24818397Y20396025D01*
X24818399Y20396020D01*
X24818400Y20396019D01*
X24822911Y20387166D01*
X24921154Y20194350D01*
X25039114Y20031993D01*
X25054193Y20011239D01*
X25214239Y19851193D01*
X25214242Y19851191D01*
X25214243Y19851190D01*
X25397349Y19718155D01*
X25465843Y19683256D01*
X25599019Y19615400D01*
X25599021Y19615400D01*
X25599024Y19615398D01*
X25814268Y19545461D01*
X25814272Y19545461D01*
X25814279Y19545458D01*
X26007263Y19514892D01*
X26037830Y19510050D01*
X26037831Y19510050D01*
X26264170Y19510050D01*
X26291059Y19514310D01*
X26487721Y19545458D01*
X26487729Y19545461D01*
X26487731Y19545461D01*
X26702975Y19615398D01*
X26702975Y19615399D01*
X26702981Y19615400D01*
X26904650Y19718155D01*
X27087761Y19851193D01*
X27246887Y20010320D01*
X27299212Y20031993D01*
X27351538Y20010319D01*
X27373212Y19957993D01*
X27371791Y19943561D01*
X27370500Y19937069D01*
X27370500Y19808931D01*
X27370620Y19808330D01*
X27395497Y19683261D01*
X27395498Y19683258D01*
X27441375Y19572500D01*
X27444535Y19564873D01*
X27515724Y19458331D01*
X27606331Y19367724D01*
X27712873Y19296535D01*
X27831256Y19247499D01*
X27831258Y19247499D01*
X27831260Y19247498D01*
X27873903Y19239016D01*
X27956931Y19222500D01*
X27956933Y19222500D01*
X28085067Y19222500D01*
X28085069Y19222500D01*
X28210744Y19247499D01*
X28329127Y19296535D01*
X28435669Y19367724D01*
X28526276Y19458331D01*
X28597465Y19564873D01*
X28646501Y19683256D01*
X28671500Y19808931D01*
X28671500Y19937069D01*
X28646501Y20062744D01*
X28597465Y20181127D01*
X28526276Y20287669D01*
X28435669Y20378276D01*
X28329127Y20449465D01*
X28329124Y20449467D01*
X28329123Y20449467D01*
X28238346Y20487068D01*
X32120500Y20487068D01*
X32120500Y20358933D01*
X32145497Y20233261D01*
X32145498Y20233258D01*
X32176285Y20158931D01*
X32194535Y20114873D01*
X32242207Y20043527D01*
X32264395Y20010319D01*
X32265724Y20008331D01*
X32356331Y19917724D01*
X32462873Y19846535D01*
X32581256Y19797499D01*
X32581258Y19797499D01*
X32581260Y19797498D01*
X32623903Y19789016D01*
X32706931Y19772500D01*
X32706933Y19772500D01*
X32835067Y19772500D01*
X32835069Y19772500D01*
X32960744Y19797499D01*
X33079127Y19846535D01*
X33185669Y19917724D01*
X33276276Y20008331D01*
X33347465Y20114873D01*
X33396501Y20233256D01*
X33407205Y20287068D01*
X33870500Y20287068D01*
X33870500Y20158933D01*
X33895497Y20033261D01*
X33895498Y20033258D01*
X33943353Y19917725D01*
X33944535Y19914873D01*
X33987081Y19851198D01*
X34015321Y19808933D01*
X34015724Y19808331D01*
X34106331Y19717724D01*
X34212873Y19646535D01*
X34331256Y19597499D01*
X34331258Y19597499D01*
X34331260Y19597498D01*
X34373903Y19589016D01*
X34456931Y19572500D01*
X34456933Y19572500D01*
X34585067Y19572500D01*
X34585069Y19572500D01*
X34710744Y19597499D01*
X34829127Y19646535D01*
X34935669Y19717724D01*
X35026276Y19808331D01*
X35097465Y19914873D01*
X35146501Y20033256D01*
X35171500Y20158931D01*
X35171500Y20287069D01*
X35162234Y20333648D01*
X35173282Y20389194D01*
X35206492Y20416449D01*
X35279127Y20446535D01*
X35385669Y20517724D01*
X35476276Y20608331D01*
X35547465Y20714873D01*
X35596501Y20833256D01*
X35621500Y20958931D01*
X35621500Y21087069D01*
X35605889Y21165547D01*
X35596502Y21212740D01*
X35596501Y21212743D01*
X35585797Y21238584D01*
X35547465Y21331127D01*
X35476276Y21437669D01*
X35385669Y21528276D01*
X35279127Y21599465D01*
X35279124Y21599467D01*
X35279123Y21599467D01*
X35160742Y21648502D01*
X35160739Y21648503D01*
X35070696Y21666414D01*
X35035069Y21673500D01*
X34906931Y21673500D01*
X34875726Y21667293D01*
X34781260Y21648503D01*
X34781257Y21648502D01*
X34662876Y21599467D01*
X34556331Y21528277D01*
X34556330Y21528275D01*
X34465725Y21437670D01*
X34465723Y21437669D01*
X34394533Y21331124D01*
X34345498Y21212743D01*
X34345497Y21212740D01*
X34324043Y21104883D01*
X34320620Y21087669D01*
X34320500Y21087068D01*
X34320500Y20958931D01*
X34329764Y20912353D01*
X34318714Y20856805D01*
X34285505Y20829551D01*
X34212876Y20799467D01*
X34106331Y20728277D01*
X34106330Y20728275D01*
X34015725Y20637670D01*
X34015723Y20637669D01*
X33944533Y20531124D01*
X33895498Y20412743D01*
X33895497Y20412740D01*
X33874095Y20305141D01*
X33870620Y20287669D01*
X33870500Y20287068D01*
X33407205Y20287068D01*
X33421500Y20358931D01*
X33421500Y20487069D01*
X33408736Y20551235D01*
X33396502Y20612740D01*
X33396501Y20612743D01*
X33386176Y20637669D01*
X33347465Y20731127D01*
X33276276Y20837669D01*
X33185669Y20928276D01*
X33079127Y20999465D01*
X33079124Y20999467D01*
X33079123Y20999467D01*
X32960742Y21048502D01*
X32960739Y21048503D01*
X32870696Y21066414D01*
X32835069Y21073500D01*
X32706931Y21073500D01*
X32675726Y21067293D01*
X32581260Y21048503D01*
X32581257Y21048502D01*
X32462876Y20999467D01*
X32356331Y20928277D01*
X32356330Y20928275D01*
X32265725Y20837670D01*
X32265723Y20837669D01*
X32194533Y20731124D01*
X32145498Y20612743D01*
X32145497Y20612740D01*
X32120500Y20487068D01*
X28238346Y20487068D01*
X28210742Y20498502D01*
X28210739Y20498503D01*
X28113598Y20517825D01*
X28085069Y20523500D01*
X27956931Y20523500D01*
X27928402Y20517825D01*
X27831260Y20498503D01*
X27831257Y20498502D01*
X27712876Y20449467D01*
X27619635Y20387166D01*
X27564086Y20376117D01*
X27516994Y20407583D01*
X27505945Y20463132D01*
X27508142Y20471553D01*
X27553542Y20611279D01*
X27588950Y20834831D01*
X27588950Y21061169D01*
X27553542Y21284721D01*
X27553539Y21284728D01*
X27553539Y21284732D01*
X27483602Y21499976D01*
X27483600Y21499979D01*
X27483600Y21499981D01*
X27427895Y21609308D01*
X27380845Y21701651D01*
X27247810Y21884757D01*
X27247809Y21884758D01*
X27247807Y21884761D01*
X27087761Y22044807D01*
X27087758Y22044810D01*
X27087756Y22044811D01*
X26904650Y22177846D01*
X26702975Y22280603D01*
X26487731Y22350540D01*
X26487722Y22350542D01*
X26487721Y22350542D01*
X26293900Y22381241D01*
X26264170Y22385950D01*
X26264169Y22385950D01*
X26037831Y22385950D01*
X26037830Y22385950D01*
X25814279Y22350542D01*
X25814268Y22350540D01*
X25599024Y22280603D01*
X25397349Y22177846D01*
X25214243Y22044811D01*
X25054189Y21884757D01*
X24921154Y21701651D01*
X24818397Y21499976D01*
X24748460Y21284732D01*
X24748458Y21284721D01*
X24716549Y21083258D01*
X24713050Y21061169D01*
X24348901Y21061169D01*
X24328141Y21165536D01*
X24328140Y21165542D01*
X24308588Y21212744D01*
X24271921Y21301267D01*
X24257065Y21323500D01*
X24190301Y21423420D01*
X24086420Y21527301D01*
X24084962Y21528275D01*
X23964266Y21608922D01*
X23828546Y21665139D01*
X23828535Y21665142D01*
X23684455Y21693800D01*
X23537545Y21693800D01*
X23393464Y21665142D01*
X23393453Y21665139D01*
X23257733Y21608922D01*
X23135583Y21527304D01*
X23031696Y21423417D01*
X22950078Y21301267D01*
X22893861Y21165547D01*
X22893858Y21165536D01*
X22870580Y21048503D01*
X22865200Y21021455D01*
X22508950Y21021455D01*
X22508950Y21061169D01*
X22473542Y21284721D01*
X22473539Y21284728D01*
X22473539Y21284732D01*
X22403602Y21499976D01*
X22403600Y21499979D01*
X22403600Y21499981D01*
X22347895Y21609308D01*
X22300845Y21701651D01*
X22167810Y21884757D01*
X22167809Y21884758D01*
X22167807Y21884761D01*
X22007761Y22044807D01*
X22007758Y22044810D01*
X22007756Y22044811D01*
X21824650Y22177846D01*
X21622975Y22280603D01*
X21407731Y22350540D01*
X21407722Y22350542D01*
X21407721Y22350542D01*
X21213900Y22381241D01*
X21184170Y22385950D01*
X21184169Y22385950D01*
X20957831Y22385950D01*
X20957830Y22385950D01*
X20734279Y22350542D01*
X20734268Y22350540D01*
X20519024Y22280603D01*
X20317349Y22177846D01*
X20134243Y22044811D01*
X19974189Y21884757D01*
X19841154Y21701651D01*
X19738397Y21499976D01*
X19668460Y21284732D01*
X19668458Y21284721D01*
X19636549Y21083258D01*
X19633050Y21061169D01*
X9386343Y21061169D01*
X9495416Y21134049D01*
X9599951Y21238584D01*
X9682084Y21361505D01*
X9738658Y21498087D01*
X9767500Y21643082D01*
X9767500Y21790918D01*
X9738658Y21935913D01*
X9682084Y22072495D01*
X9599951Y22195416D01*
X9495416Y22299951D01*
X9445572Y22333256D01*
X9372494Y22382085D01*
X9235917Y22438657D01*
X9235907Y22438660D01*
X9133986Y22458933D01*
X9090918Y22467500D01*
X8943082Y22467500D01*
X8901977Y22459324D01*
X8798092Y22438660D01*
X8798082Y22438657D01*
X8661501Y22382083D01*
X8660379Y22381483D01*
X8659951Y22381441D01*
X8658146Y22380693D01*
X8657919Y22381241D01*
X8604014Y22375935D01*
X8560236Y22411868D01*
X8551500Y22446747D01*
X8551500Y22491841D01*
X8550780Y22495459D01*
X8520737Y22646497D01*
X8498955Y22699084D01*
X8460396Y22792175D01*
X8460395Y22792177D01*
X8460394Y22792179D01*
X8372789Y22923289D01*
X8261289Y23034789D01*
X8246767Y23044492D01*
X8200718Y23075261D01*
X8130179Y23122394D01*
X8130175Y23122396D01*
X8130173Y23122397D01*
X8130174Y23122397D01*
X7984501Y23182736D01*
X7984491Y23182739D01*
X7880925Y23203339D01*
X7829842Y23213500D01*
X6572158Y23213500D01*
X6528315Y23204780D01*
X6417508Y23182739D01*
X6417498Y23182736D01*
X6271825Y23122397D01*
X6140711Y23034790D01*
X6140710Y23034788D01*
X6029212Y22923290D01*
X6029210Y22923289D01*
X5941603Y22792175D01*
X5881264Y22646502D01*
X5881261Y22646492D01*
X5855580Y22517384D01*
X5850500Y22491842D01*
X4221500Y22491842D01*
X4190737Y22646497D01*
X4168955Y22699084D01*
X4130396Y22792175D01*
X4130395Y22792177D01*
X4130394Y22792179D01*
X4042789Y22923289D01*
X3931289Y23034789D01*
X3916767Y23044492D01*
X3870718Y23075261D01*
X3800179Y23122394D01*
X3800175Y23122396D01*
X3800173Y23122397D01*
X3800174Y23122397D01*
X3654501Y23182736D01*
X3654491Y23182739D01*
X3550925Y23203339D01*
X3499842Y23213500D01*
X2542158Y23213500D01*
X2498315Y23204780D01*
X2387508Y23182739D01*
X2387498Y23182736D01*
X2241825Y23122397D01*
X2110711Y23034790D01*
X2110710Y23034788D01*
X1999212Y22923290D01*
X1999210Y22923289D01*
X1911603Y22792175D01*
X1851264Y22646502D01*
X1851261Y22646492D01*
X1825580Y22517384D01*
X1820500Y22491842D01*
X123461Y22491842D01*
X123213Y23537068D01*
X39220500Y23537068D01*
X39220500Y23408933D01*
X39245497Y23283261D01*
X39245498Y23283258D01*
X39287134Y23182739D01*
X39294535Y23164873D01*
X39335051Y23104236D01*
X39349444Y23082695D01*
X39365724Y23058331D01*
X39456331Y22967724D01*
X39562873Y22896535D01*
X39681256Y22847499D01*
X39681258Y22847499D01*
X39681260Y22847498D01*
X39723903Y22839016D01*
X39806931Y22822500D01*
X39806933Y22822500D01*
X39935067Y22822500D01*
X39935069Y22822500D01*
X40057818Y22846917D01*
X52070500Y22846917D01*
X52070500Y22699084D01*
X52099340Y22554093D01*
X52099343Y22554083D01*
X52155915Y22417506D01*
X52231316Y22304661D01*
X52238049Y22294584D01*
X52342584Y22190049D01*
X52465505Y22107916D01*
X52602087Y22051342D01*
X52747082Y22022500D01*
X52747084Y22022500D01*
X52894916Y22022500D01*
X52894918Y22022500D01*
X53039913Y22051342D01*
X53176495Y22107916D01*
X53299416Y22190049D01*
X53403951Y22294584D01*
X53486084Y22417505D01*
X53542658Y22554087D01*
X53571500Y22699082D01*
X53571500Y22846918D01*
X53542658Y22991913D01*
X53529988Y23022500D01*
X53486084Y23128495D01*
X53403951Y23251416D01*
X53299415Y23355952D01*
X53176494Y23438085D01*
X53039917Y23494657D01*
X53039907Y23494660D01*
X52942811Y23513974D01*
X52894918Y23523500D01*
X52747082Y23523500D01*
X52705977Y23515324D01*
X52602092Y23494660D01*
X52602082Y23494657D01*
X52465505Y23438085D01*
X52342584Y23355952D01*
X52342583Y23355950D01*
X52238050Y23251417D01*
X52238048Y23251416D01*
X52155915Y23128495D01*
X52099343Y22991918D01*
X52099340Y22991908D01*
X52080369Y22896534D01*
X52070616Y22847498D01*
X52070500Y22846917D01*
X40057818Y22846917D01*
X40060744Y22847499D01*
X40179127Y22896535D01*
X40285669Y22967724D01*
X40376276Y23058331D01*
X40447465Y23164873D01*
X40496501Y23283256D01*
X40521500Y23408931D01*
X40521500Y23537069D01*
X40496501Y23662744D01*
X40447465Y23781127D01*
X40403505Y23846918D01*
X44070500Y23846918D01*
X44070500Y23699082D01*
X44080026Y23651189D01*
X44099340Y23554093D01*
X44099343Y23554083D01*
X44155915Y23417506D01*
X44238048Y23294585D01*
X44342584Y23190049D01*
X44465505Y23107916D01*
X44585211Y23058332D01*
X44602087Y23051342D01*
X44747082Y23022500D01*
X44747084Y23022500D01*
X44894916Y23022500D01*
X44894918Y23022500D01*
X45039913Y23051342D01*
X45176495Y23107916D01*
X45299416Y23190049D01*
X45403951Y23294584D01*
X45486084Y23417505D01*
X45542658Y23554087D01*
X45571500Y23699082D01*
X45571500Y23846918D01*
X47070500Y23846918D01*
X47070500Y23699082D01*
X47080026Y23651189D01*
X47099340Y23554093D01*
X47099343Y23554083D01*
X47155915Y23417506D01*
X47238048Y23294585D01*
X47342584Y23190049D01*
X47465505Y23107916D01*
X47585211Y23058332D01*
X47602087Y23051342D01*
X47747082Y23022500D01*
X47747084Y23022500D01*
X47894916Y23022500D01*
X47894918Y23022500D01*
X48039913Y23051342D01*
X48176495Y23107916D01*
X48299416Y23190049D01*
X48403951Y23294584D01*
X48486084Y23417505D01*
X48542658Y23554087D01*
X48571500Y23699082D01*
X48571500Y23846918D01*
X56070500Y23846918D01*
X56070500Y23699082D01*
X56080026Y23651189D01*
X56099340Y23554093D01*
X56099343Y23554083D01*
X56155915Y23417506D01*
X56238048Y23294585D01*
X56342584Y23190049D01*
X56378428Y23166099D01*
X56409894Y23119007D01*
X56398845Y23063458D01*
X56378429Y23043042D01*
X56356334Y23028279D01*
X56265725Y22937670D01*
X56265723Y22937669D01*
X56194533Y22831124D01*
X56145498Y22712743D01*
X56145497Y22712740D01*
X56120500Y22587068D01*
X56120500Y22458933D01*
X56145497Y22333261D01*
X56145498Y22333258D01*
X56167308Y22280603D01*
X56194535Y22214873D01*
X56265724Y22108331D01*
X56356331Y22017724D01*
X56462873Y21946535D01*
X56581256Y21897499D01*
X56581258Y21897499D01*
X56581260Y21897498D01*
X56623903Y21889016D01*
X56706931Y21872500D01*
X56706933Y21872500D01*
X56835067Y21872500D01*
X56835069Y21872500D01*
X56960744Y21897499D01*
X57079127Y21946535D01*
X57185669Y22017724D01*
X57276276Y22108331D01*
X57347465Y22214873D01*
X57396501Y22333256D01*
X57421500Y22458931D01*
X57421500Y22587069D01*
X57396501Y22712744D01*
X57347465Y22831127D01*
X57276276Y22937669D01*
X57198013Y23015932D01*
X57195112Y23022935D01*
X57188810Y23027146D01*
X57184599Y23048317D01*
X57176339Y23068258D01*
X57179239Y23075261D01*
X57177761Y23082695D01*
X57189752Y23100642D01*
X57198013Y23120584D01*
X57209227Y23129787D01*
X57279888Y23177001D01*
X57335437Y23188050D01*
X57362112Y23177001D01*
X57465505Y23107916D01*
X57585211Y23058332D01*
X57602087Y23051342D01*
X57747082Y23022500D01*
X57747084Y23022500D01*
X57894916Y23022500D01*
X57894918Y23022500D01*
X58005477Y23044492D01*
X58061026Y23033443D01*
X58092492Y22986351D01*
X58092492Y22957477D01*
X58070616Y22847498D01*
X58070500Y22846917D01*
X58070500Y22699084D01*
X58099340Y22554093D01*
X58099343Y22554083D01*
X58155915Y22417506D01*
X58231316Y22304661D01*
X58238049Y22294584D01*
X58342584Y22190049D01*
X58465505Y22107916D01*
X58602087Y22051342D01*
X58747082Y22022500D01*
X58747084Y22022500D01*
X58894916Y22022500D01*
X58894918Y22022500D01*
X59039913Y22051342D01*
X59176495Y22107916D01*
X59299416Y22190049D01*
X59403951Y22294584D01*
X59486084Y22417505D01*
X59542658Y22554087D01*
X59571500Y22699082D01*
X59571500Y22846918D01*
X59542658Y22991913D01*
X59529988Y23022500D01*
X59486084Y23128495D01*
X59403951Y23251416D01*
X59299415Y23355952D01*
X59176494Y23438085D01*
X59039917Y23494657D01*
X59039907Y23494660D01*
X58942811Y23513974D01*
X58894918Y23523500D01*
X58747082Y23523500D01*
X58636523Y23501508D01*
X58580974Y23512557D01*
X58549508Y23559649D01*
X58549508Y23588523D01*
X58558455Y23633500D01*
X58571500Y23699082D01*
X58571500Y23846918D01*
X58542658Y23991913D01*
X58529988Y24022500D01*
X58486084Y24128495D01*
X58403951Y24251416D01*
X58299415Y24355952D01*
X58176494Y24438085D01*
X58039917Y24494657D01*
X58039907Y24494660D01*
X57942811Y24513974D01*
X57894918Y24523500D01*
X57747082Y24523500D01*
X57705977Y24515324D01*
X57602092Y24494660D01*
X57602082Y24494657D01*
X57465505Y24438085D01*
X57362112Y24369000D01*
X57306563Y24357951D01*
X57279888Y24369000D01*
X57176494Y24438085D01*
X57039917Y24494657D01*
X57039907Y24494660D01*
X56942811Y24513974D01*
X56894918Y24523500D01*
X56747082Y24523500D01*
X56705977Y24515324D01*
X56602092Y24494660D01*
X56602082Y24494657D01*
X56465505Y24438085D01*
X56342584Y24355952D01*
X56342583Y24355950D01*
X56238050Y24251417D01*
X56238048Y24251416D01*
X56155915Y24128495D01*
X56099343Y23991918D01*
X56099340Y23991908D01*
X56080369Y23896534D01*
X56070500Y23846918D01*
X48571500Y23846918D01*
X48542658Y23991913D01*
X48529988Y24022500D01*
X48486084Y24128495D01*
X48403951Y24251416D01*
X48299415Y24355952D01*
X48176494Y24438085D01*
X48039917Y24494657D01*
X48039907Y24494660D01*
X47942811Y24513974D01*
X47894918Y24523500D01*
X47747082Y24523500D01*
X47705977Y24515324D01*
X47602092Y24494660D01*
X47602082Y24494657D01*
X47465505Y24438085D01*
X47342584Y24355952D01*
X47342583Y24355950D01*
X47238050Y24251417D01*
X47238048Y24251416D01*
X47155915Y24128495D01*
X47099343Y23991918D01*
X47099340Y23991908D01*
X47080369Y23896534D01*
X47070500Y23846918D01*
X45571500Y23846918D01*
X45542658Y23991913D01*
X45529988Y24022500D01*
X45486084Y24128495D01*
X45403951Y24251416D01*
X45299415Y24355952D01*
X45176494Y24438085D01*
X45039917Y24494657D01*
X45039907Y24494660D01*
X44942811Y24513974D01*
X44894918Y24523500D01*
X44747082Y24523500D01*
X44705977Y24515324D01*
X44602092Y24494660D01*
X44602082Y24494657D01*
X44465505Y24438085D01*
X44342584Y24355952D01*
X44342583Y24355950D01*
X44238050Y24251417D01*
X44238048Y24251416D01*
X44155915Y24128495D01*
X44099343Y23991918D01*
X44099340Y23991908D01*
X44080369Y23896534D01*
X44070500Y23846918D01*
X40403505Y23846918D01*
X40376276Y23887669D01*
X40285669Y23978276D01*
X40179127Y24049465D01*
X40179124Y24049467D01*
X40179123Y24049467D01*
X40060742Y24098502D01*
X40060739Y24098503D01*
X39970696Y24116414D01*
X39935069Y24123500D01*
X39806931Y24123500D01*
X39775726Y24117293D01*
X39681260Y24098503D01*
X39681257Y24098502D01*
X39562876Y24049467D01*
X39456331Y23978277D01*
X39456330Y23978275D01*
X39365725Y23887670D01*
X39365723Y23887669D01*
X39294533Y23781124D01*
X39245498Y23662743D01*
X39245497Y23662740D01*
X39230735Y23588523D01*
X39221220Y23540686D01*
X39220500Y23537068D01*
X123213Y23537068D01*
X122976Y24537068D01*
X7520500Y24537068D01*
X7520500Y24408933D01*
X7545497Y24283261D01*
X7545498Y24283258D01*
X7584106Y24190049D01*
X7594535Y24164873D01*
X7665724Y24058331D01*
X7756331Y23967724D01*
X7862873Y23896535D01*
X7981256Y23847499D01*
X7981258Y23847499D01*
X7981260Y23847498D01*
X8023903Y23839016D01*
X8106931Y23822500D01*
X8106933Y23822500D01*
X8235067Y23822500D01*
X8235069Y23822500D01*
X8360744Y23847499D01*
X8479127Y23896535D01*
X8585669Y23967724D01*
X8676276Y24058331D01*
X8747465Y24164873D01*
X8796501Y24283256D01*
X8821500Y24408931D01*
X8821500Y24457917D01*
X10171500Y24457917D01*
X10171500Y24310084D01*
X10200340Y24165093D01*
X10200343Y24165083D01*
X10256915Y24028506D01*
X10297528Y23967725D01*
X10339049Y23905584D01*
X10443584Y23801049D01*
X10566505Y23718916D01*
X10703087Y23662342D01*
X10848082Y23633500D01*
X10848084Y23633500D01*
X10995916Y23633500D01*
X10995918Y23633500D01*
X11140913Y23662342D01*
X11277495Y23718916D01*
X11400416Y23801049D01*
X11504951Y23905584D01*
X11587084Y24028505D01*
X11643658Y24165087D01*
X11672500Y24310082D01*
X11672500Y24457918D01*
X11643658Y24602913D01*
X11587084Y24739495D01*
X11540348Y24809441D01*
X11515307Y24846918D01*
X13070500Y24846918D01*
X13070500Y24699082D01*
X13077729Y24662740D01*
X13099340Y24554093D01*
X13099343Y24554083D01*
X13155915Y24417506D01*
X13238048Y24294585D01*
X13342584Y24190049D01*
X13465505Y24107916D01*
X13585211Y24058332D01*
X13602087Y24051342D01*
X13747082Y24022500D01*
X13747084Y24022500D01*
X13894916Y24022500D01*
X13894918Y24022500D01*
X14039913Y24051342D01*
X14176495Y24107916D01*
X14299416Y24190049D01*
X14403951Y24294584D01*
X14486084Y24417505D01*
X14535609Y24537068D01*
X30170500Y24537068D01*
X30170500Y24408933D01*
X30195497Y24283261D01*
X30195498Y24283258D01*
X30234106Y24190049D01*
X30244535Y24164873D01*
X30315724Y24058331D01*
X30406331Y23967724D01*
X30512873Y23896535D01*
X30631256Y23847499D01*
X30631258Y23847499D01*
X30631260Y23847498D01*
X30673903Y23839016D01*
X30756931Y23822500D01*
X30756933Y23822500D01*
X30885067Y23822500D01*
X30885069Y23822500D01*
X31010744Y23847499D01*
X31129127Y23896535D01*
X31235669Y23967724D01*
X31326276Y24058331D01*
X31397465Y24164873D01*
X31446501Y24283256D01*
X31471500Y24408931D01*
X31471500Y24537069D01*
X31446501Y24662744D01*
X31397465Y24781127D01*
X31326276Y24887669D01*
X31235669Y24978276D01*
X31129127Y25049465D01*
X31129124Y25049467D01*
X31129123Y25049467D01*
X31010742Y25098502D01*
X31010739Y25098503D01*
X30920696Y25116414D01*
X30885069Y25123500D01*
X30756931Y25123500D01*
X30725726Y25117293D01*
X30631260Y25098503D01*
X30631257Y25098502D01*
X30512876Y25049467D01*
X30406331Y24978277D01*
X30406330Y24978275D01*
X30315725Y24887670D01*
X30315723Y24887669D01*
X30244533Y24781124D01*
X30195498Y24662743D01*
X30195497Y24662740D01*
X30174095Y24555144D01*
X30171220Y24540686D01*
X30170500Y24537068D01*
X14535609Y24537068D01*
X14542658Y24554087D01*
X14542702Y24554309D01*
X14542869Y24555144D01*
X14564271Y24662740D01*
X14571500Y24699082D01*
X14571500Y24846918D01*
X14542658Y24991913D01*
X14529988Y25022500D01*
X14486084Y25128495D01*
X14403951Y25251416D01*
X14299415Y25355952D01*
X14176494Y25438085D01*
X14039917Y25494657D01*
X14039907Y25494660D01*
X13938268Y25514877D01*
X13894918Y25523500D01*
X13747082Y25523500D01*
X13705977Y25515324D01*
X13602092Y25494660D01*
X13602082Y25494657D01*
X13465505Y25438085D01*
X13342584Y25355952D01*
X13342583Y25355950D01*
X13238050Y25251417D01*
X13238048Y25251416D01*
X13155915Y25128495D01*
X13099343Y24991918D01*
X13099340Y24991908D01*
X13094376Y24966950D01*
X13070500Y24846918D01*
X11515307Y24846918D01*
X11504951Y24862416D01*
X11400415Y24966952D01*
X11277494Y25049085D01*
X11140917Y25105657D01*
X11140907Y25105660D01*
X11026106Y25128495D01*
X10995918Y25134500D01*
X10848082Y25134500D01*
X10817894Y25128495D01*
X10703092Y25105660D01*
X10703082Y25105657D01*
X10566505Y25049085D01*
X10443584Y24966952D01*
X10443583Y24966950D01*
X10339050Y24862417D01*
X10339048Y24862416D01*
X10256915Y24739495D01*
X10200343Y24602918D01*
X10200340Y24602908D01*
X10171500Y24457917D01*
X8821500Y24457917D01*
X8821500Y24537069D01*
X8796501Y24662744D01*
X8747465Y24781127D01*
X8676276Y24887669D01*
X8585669Y24978276D01*
X8479127Y25049465D01*
X8479124Y25049467D01*
X8479123Y25049467D01*
X8360742Y25098502D01*
X8360739Y25098503D01*
X8270696Y25116414D01*
X8235069Y25123500D01*
X8106931Y25123500D01*
X8075726Y25117293D01*
X7981260Y25098503D01*
X7981257Y25098502D01*
X7862876Y25049467D01*
X7756331Y24978277D01*
X7756330Y24978275D01*
X7665725Y24887670D01*
X7665723Y24887669D01*
X7594533Y24781124D01*
X7545498Y24662743D01*
X7545497Y24662740D01*
X7524095Y24555144D01*
X7521220Y24540686D01*
X7520500Y24537068D01*
X122976Y24537068D01*
X122137Y28080148D01*
X1487226Y28080148D01*
X1487226Y27799305D01*
X1518671Y27520214D01*
X1518671Y27520213D01*
X1581163Y27246417D01*
X1581168Y27246401D01*
X1673924Y26981319D01*
X1795778Y26728286D01*
X1945203Y26490478D01*
X2101422Y26294585D01*
X2120310Y26270901D01*
X2318901Y26072310D01*
X2538478Y25897203D01*
X2776281Y25747781D01*
X2776284Y25747780D01*
X2776285Y25747779D01*
X2877406Y25699082D01*
X3029318Y25625925D01*
X3294408Y25533166D01*
X3294413Y25533165D01*
X3294416Y25533164D01*
X3568212Y25470672D01*
X3568213Y25470672D01*
X3568217Y25470671D01*
X3847301Y25439226D01*
X3847305Y25439226D01*
X4128147Y25439226D01*
X4128151Y25439226D01*
X4407235Y25470671D01*
X4681044Y25533166D01*
X4946134Y25625925D01*
X5199171Y25747781D01*
X5436974Y25897203D01*
X5656551Y26072310D01*
X5855142Y26270901D01*
X6030249Y26490478D01*
X6179671Y26728281D01*
X6236803Y26846917D01*
X17070500Y26846917D01*
X17070500Y26699084D01*
X17099340Y26554093D01*
X17099343Y26554083D01*
X17155915Y26417506D01*
X17224490Y26314877D01*
X17238049Y26294584D01*
X17342584Y26190049D01*
X17465505Y26107916D01*
X17602087Y26051342D01*
X17747082Y26022500D01*
X17747084Y26022500D01*
X17894916Y26022500D01*
X17894918Y26022500D01*
X18005477Y26044492D01*
X18061026Y26033443D01*
X18092492Y25986351D01*
X18092492Y25957477D01*
X18070500Y25846917D01*
X18070500Y25699084D01*
X18099340Y25554093D01*
X18099343Y25554083D01*
X18155915Y25417506D01*
X18231794Y25303946D01*
X18238049Y25294584D01*
X18342584Y25190049D01*
X18465505Y25107916D01*
X18602087Y25051342D01*
X18747082Y25022500D01*
X18747084Y25022500D01*
X18894916Y25022500D01*
X18894918Y25022500D01*
X19039913Y25051342D01*
X19176495Y25107916D01*
X19299416Y25190049D01*
X19403951Y25294584D01*
X19486084Y25417505D01*
X19542658Y25554087D01*
X19571500Y25699082D01*
X19571500Y25846917D01*
X21070500Y25846917D01*
X21070500Y25699084D01*
X21099340Y25554093D01*
X21099343Y25554083D01*
X21155915Y25417506D01*
X21231794Y25303946D01*
X21238049Y25294584D01*
X21342584Y25190049D01*
X21465505Y25107916D01*
X21602087Y25051342D01*
X21747082Y25022500D01*
X21747084Y25022500D01*
X21894916Y25022500D01*
X21894918Y25022500D01*
X22039913Y25051342D01*
X22176495Y25107916D01*
X22299416Y25190049D01*
X22403951Y25294584D01*
X22486084Y25417505D01*
X22542658Y25554087D01*
X22571500Y25699082D01*
X22571500Y25846918D01*
X22563513Y25887068D01*
X22563513Y25887069D01*
X41220500Y25887069D01*
X41220500Y25758931D01*
X41226160Y25730478D01*
X41245497Y25633261D01*
X41245498Y25633258D01*
X41290961Y25523500D01*
X41294535Y25514873D01*
X41365724Y25408331D01*
X41456331Y25317724D01*
X41562873Y25246535D01*
X41681256Y25197499D01*
X41681258Y25197499D01*
X41681260Y25197498D01*
X41718709Y25190049D01*
X41806931Y25172500D01*
X41806933Y25172500D01*
X41935067Y25172500D01*
X41935069Y25172500D01*
X42060744Y25197499D01*
X42179127Y25246535D01*
X42285669Y25317724D01*
X42376276Y25408331D01*
X42447465Y25514873D01*
X42496501Y25633256D01*
X42521500Y25758931D01*
X42521500Y25846917D01*
X47070500Y25846917D01*
X47070500Y25699084D01*
X47099340Y25554093D01*
X47099343Y25554083D01*
X47155915Y25417506D01*
X47231794Y25303946D01*
X47238049Y25294584D01*
X47342584Y25190049D01*
X47465505Y25107916D01*
X47602087Y25051342D01*
X47747082Y25022500D01*
X47747084Y25022500D01*
X47894916Y25022500D01*
X47894918Y25022500D01*
X48039913Y25051342D01*
X48176495Y25107916D01*
X48299416Y25190049D01*
X48403951Y25294584D01*
X48486084Y25417505D01*
X48542658Y25554087D01*
X48571500Y25699082D01*
X48571500Y25846917D01*
X50070500Y25846917D01*
X50070500Y25699084D01*
X50099340Y25554093D01*
X50099343Y25554083D01*
X50155915Y25417506D01*
X50231794Y25303946D01*
X50238049Y25294584D01*
X50342584Y25190049D01*
X50465505Y25107916D01*
X50602087Y25051342D01*
X50747082Y25022500D01*
X50747084Y25022500D01*
X50894916Y25022500D01*
X50894918Y25022500D01*
X51039913Y25051342D01*
X51176495Y25107916D01*
X51299416Y25190049D01*
X51403951Y25294584D01*
X51486084Y25417505D01*
X51542658Y25554087D01*
X51571500Y25699082D01*
X51571500Y25846918D01*
X51542658Y25991913D01*
X51529988Y26022500D01*
X51486084Y26128495D01*
X51403951Y26251416D01*
X51299415Y26355952D01*
X51176494Y26438085D01*
X51039917Y26494657D01*
X51039907Y26494660D01*
X50942811Y26513974D01*
X50894918Y26523500D01*
X50747082Y26523500D01*
X50705977Y26515324D01*
X50602092Y26494660D01*
X50602082Y26494657D01*
X50465505Y26438085D01*
X50342584Y26355952D01*
X50342583Y26355950D01*
X50238050Y26251417D01*
X50238048Y26251416D01*
X50155915Y26128495D01*
X50099343Y25991918D01*
X50099340Y25991908D01*
X50070500Y25846917D01*
X48571500Y25846917D01*
X48571500Y25846918D01*
X48542658Y25991913D01*
X48529988Y26022500D01*
X48486084Y26128495D01*
X48403951Y26251416D01*
X48299415Y26355952D01*
X48176494Y26438085D01*
X48039917Y26494657D01*
X48039907Y26494660D01*
X47942811Y26513974D01*
X47894918Y26523500D01*
X47747082Y26523500D01*
X47705977Y26515324D01*
X47602092Y26494660D01*
X47602082Y26494657D01*
X47465505Y26438085D01*
X47342584Y26355952D01*
X47342583Y26355950D01*
X47238050Y26251417D01*
X47238048Y26251416D01*
X47155915Y26128495D01*
X47099343Y25991918D01*
X47099340Y25991908D01*
X47070500Y25846917D01*
X42521500Y25846917D01*
X42521500Y25887069D01*
X42496501Y26012744D01*
X42447465Y26131127D01*
X42376276Y26237669D01*
X42285669Y26328276D01*
X42179127Y26399465D01*
X42179124Y26399467D01*
X42179123Y26399467D01*
X42060742Y26448502D01*
X42060739Y26448503D01*
X41970696Y26466414D01*
X41935069Y26473500D01*
X41806931Y26473500D01*
X41775726Y26467293D01*
X41681260Y26448503D01*
X41681257Y26448502D01*
X41562876Y26399467D01*
X41456331Y26328277D01*
X41456330Y26328275D01*
X41365725Y26237670D01*
X41365723Y26237669D01*
X41294533Y26131124D01*
X41245498Y26012743D01*
X41245497Y26012740D01*
X41234505Y25957477D01*
X41220500Y25887069D01*
X22563513Y25887069D01*
X22542659Y25991908D01*
X22542658Y25991909D01*
X22542658Y25991913D01*
X22529988Y26022500D01*
X22486084Y26128495D01*
X22403951Y26251416D01*
X22299415Y26355952D01*
X22176494Y26438085D01*
X22039917Y26494657D01*
X22039907Y26494660D01*
X21942811Y26513974D01*
X21894918Y26523500D01*
X21747082Y26523500D01*
X21705977Y26515324D01*
X21602092Y26494660D01*
X21602082Y26494657D01*
X21465505Y26438085D01*
X21342584Y26355952D01*
X21342583Y26355950D01*
X21238050Y26251417D01*
X21238048Y26251416D01*
X21155915Y26128495D01*
X21099343Y25991918D01*
X21099340Y25991908D01*
X21070500Y25846917D01*
X19571500Y25846917D01*
X19571500Y25846918D01*
X19542658Y25991913D01*
X19529988Y26022500D01*
X19486084Y26128495D01*
X19403951Y26251416D01*
X19299415Y26355952D01*
X19176494Y26438085D01*
X19039917Y26494657D01*
X19039907Y26494660D01*
X18942811Y26513974D01*
X18894918Y26523500D01*
X18747082Y26523500D01*
X18636523Y26501508D01*
X18580974Y26512557D01*
X18549508Y26559649D01*
X18549508Y26588523D01*
X18571500Y26699084D01*
X18571500Y26846917D01*
X23070500Y26846917D01*
X23070500Y26699084D01*
X23099340Y26554093D01*
X23099343Y26554083D01*
X23155915Y26417506D01*
X23224490Y26314877D01*
X23238049Y26294584D01*
X23342584Y26190049D01*
X23465505Y26107916D01*
X23602087Y26051342D01*
X23747082Y26022500D01*
X23747084Y26022500D01*
X23894916Y26022500D01*
X23894918Y26022500D01*
X24039913Y26051342D01*
X24176495Y26107916D01*
X24299416Y26190049D01*
X24403951Y26294584D01*
X24486084Y26417505D01*
X24542658Y26554087D01*
X24569110Y26687069D01*
X30920500Y26687069D01*
X30920500Y26558931D01*
X30927548Y26523500D01*
X30945497Y26433261D01*
X30945498Y26433258D01*
X30988983Y26328275D01*
X30994535Y26314873D01*
X31065724Y26208331D01*
X31156331Y26117724D01*
X31262873Y26046535D01*
X31381256Y25997499D01*
X31381258Y25997499D01*
X31381260Y25997498D01*
X31409338Y25991913D01*
X31506931Y25972500D01*
X31506933Y25972500D01*
X31635067Y25972500D01*
X31635069Y25972500D01*
X31760744Y25997499D01*
X31879127Y26046535D01*
X31985669Y26117724D01*
X32076276Y26208331D01*
X32147465Y26314873D01*
X32196501Y26433256D01*
X32221500Y26558931D01*
X32221500Y26687069D01*
X32213703Y26726268D01*
X32211555Y26737068D01*
X35120500Y26737068D01*
X35120500Y26608933D01*
X35145497Y26483261D01*
X35145498Y26483258D01*
X35180205Y26399467D01*
X35194535Y26364873D01*
X35265724Y26258331D01*
X35356331Y26167724D01*
X35462873Y26096535D01*
X35581256Y26047499D01*
X35581258Y26047499D01*
X35581260Y26047498D01*
X35623903Y26039016D01*
X35706931Y26022500D01*
X35706933Y26022500D01*
X35835067Y26022500D01*
X35835069Y26022500D01*
X35960744Y26047499D01*
X36079127Y26096535D01*
X36185669Y26167724D01*
X36276276Y26258331D01*
X36347465Y26364873D01*
X36396501Y26483256D01*
X36421500Y26608931D01*
X36421500Y26737069D01*
X36396501Y26862744D01*
X36347465Y26981127D01*
X36276276Y27087669D01*
X36185669Y27178276D01*
X36168049Y27190049D01*
X36150473Y27201793D01*
X36079127Y27249465D01*
X36079124Y27249467D01*
X36079123Y27249467D01*
X35960742Y27298502D01*
X35960739Y27298503D01*
X35870696Y27316414D01*
X35835069Y27323500D01*
X35706931Y27323500D01*
X35675726Y27317293D01*
X35581260Y27298503D01*
X35581257Y27298502D01*
X35462876Y27249467D01*
X35356331Y27178277D01*
X35356330Y27178275D01*
X35265725Y27087670D01*
X35265723Y27087669D01*
X35194533Y26981124D01*
X35145498Y26862743D01*
X35145497Y26862740D01*
X35120500Y26737068D01*
X32211555Y26737068D01*
X32196502Y26812740D01*
X32196501Y26812743D01*
X32195735Y26814592D01*
X32147465Y26931127D01*
X32076276Y27037669D01*
X31985669Y27128276D01*
X31985341Y27128495D01*
X31910840Y27178275D01*
X31879127Y27199465D01*
X31879124Y27199467D01*
X31879123Y27199467D01*
X31760742Y27248502D01*
X31760739Y27248503D01*
X31670696Y27266414D01*
X31635069Y27273500D01*
X31506931Y27273500D01*
X31475726Y27267293D01*
X31381260Y27248503D01*
X31381257Y27248502D01*
X31262876Y27199467D01*
X31156331Y27128277D01*
X31156330Y27128275D01*
X31065725Y27037670D01*
X31065723Y27037669D01*
X30994533Y26931124D01*
X30945498Y26812743D01*
X30945497Y26812740D01*
X30928699Y26728286D01*
X30920500Y26687069D01*
X24569110Y26687069D01*
X24571500Y26699082D01*
X24571500Y26846918D01*
X24542658Y26991913D01*
X24529988Y27022500D01*
X24486084Y27128495D01*
X24403951Y27251416D01*
X24299415Y27355952D01*
X24176494Y27438085D01*
X24039917Y27494657D01*
X24039907Y27494660D01*
X23942811Y27513974D01*
X23894918Y27523500D01*
X23747082Y27523500D01*
X23705977Y27515324D01*
X23602092Y27494660D01*
X23602082Y27494657D01*
X23465505Y27438085D01*
X23342584Y27355952D01*
X23342583Y27355950D01*
X23238050Y27251417D01*
X23238048Y27251416D01*
X23155915Y27128495D01*
X23099343Y26991918D01*
X23099340Y26991908D01*
X23070500Y26846917D01*
X18571500Y26846917D01*
X18542659Y26991908D01*
X18542658Y26991909D01*
X18542658Y26991913D01*
X18529988Y27022500D01*
X18486084Y27128495D01*
X18403951Y27251416D01*
X18299415Y27355952D01*
X18176494Y27438085D01*
X18039917Y27494657D01*
X18039907Y27494660D01*
X17942811Y27513974D01*
X17894918Y27523500D01*
X17747082Y27523500D01*
X17705977Y27515324D01*
X17602092Y27494660D01*
X17602082Y27494657D01*
X17465505Y27438085D01*
X17342584Y27355952D01*
X17342583Y27355950D01*
X17238050Y27251417D01*
X17238048Y27251416D01*
X17155915Y27128495D01*
X17099343Y26991918D01*
X17099340Y26991908D01*
X17070500Y26846917D01*
X6236803Y26846917D01*
X6301527Y26981318D01*
X6394286Y27246408D01*
X6456781Y27520217D01*
X6488226Y27799301D01*
X6488226Y27846917D01*
X9070500Y27846917D01*
X9070500Y27699084D01*
X9099340Y27554093D01*
X9099343Y27554083D01*
X9155915Y27417506D01*
X9235432Y27298501D01*
X9238049Y27294584D01*
X9342584Y27190049D01*
X9465505Y27107916D01*
X9602087Y27051342D01*
X9747082Y27022500D01*
X9747084Y27022500D01*
X9894916Y27022500D01*
X9894918Y27022500D01*
X10039913Y27051342D01*
X10176495Y27107916D01*
X10299416Y27190049D01*
X10403951Y27294584D01*
X10486084Y27417505D01*
X10542658Y27554087D01*
X10571500Y27699082D01*
X10571500Y27846917D01*
X12070500Y27846917D01*
X12070500Y27699084D01*
X12099340Y27554093D01*
X12099343Y27554083D01*
X12155915Y27417506D01*
X12235432Y27298501D01*
X12238049Y27294584D01*
X12342584Y27190049D01*
X12465505Y27107916D01*
X12602087Y27051342D01*
X12747082Y27022500D01*
X12747084Y27022500D01*
X12894916Y27022500D01*
X12894918Y27022500D01*
X13039913Y27051342D01*
X13176495Y27107916D01*
X13299416Y27190049D01*
X13403951Y27294584D01*
X13486084Y27417505D01*
X13542658Y27554087D01*
X13571500Y27699082D01*
X13571500Y27846917D01*
X45070500Y27846917D01*
X45070500Y27699084D01*
X45099340Y27554093D01*
X45099343Y27554083D01*
X45155915Y27417506D01*
X45235432Y27298501D01*
X45238049Y27294584D01*
X45342584Y27190049D01*
X45465505Y27107916D01*
X45602087Y27051342D01*
X45747082Y27022500D01*
X45747084Y27022500D01*
X45894916Y27022500D01*
X45894918Y27022500D01*
X46039913Y27051342D01*
X46176495Y27107916D01*
X46299416Y27190049D01*
X46403951Y27294584D01*
X46486084Y27417505D01*
X46542658Y27554087D01*
X46571500Y27699082D01*
X46571500Y27846918D01*
X46558271Y27913425D01*
X54320500Y27913425D01*
X54320500Y27632575D01*
X54329344Y27554083D01*
X54351945Y27353488D01*
X54351945Y27353487D01*
X54414437Y27079691D01*
X54414442Y27079675D01*
X54507198Y26814593D01*
X54629052Y26561560D01*
X54629054Y26561556D01*
X54629055Y26561555D01*
X54678254Y26483256D01*
X54778477Y26323752D01*
X54950600Y26107916D01*
X54953584Y26104175D01*
X55152175Y25905584D01*
X55371752Y25730477D01*
X55609555Y25581055D01*
X55609558Y25581054D01*
X55609559Y25581053D01*
X55788963Y25494657D01*
X55862592Y25459199D01*
X56127682Y25366440D01*
X56127687Y25366439D01*
X56127690Y25366438D01*
X56401486Y25303946D01*
X56401487Y25303946D01*
X56401491Y25303945D01*
X56680575Y25272500D01*
X56680579Y25272500D01*
X56961421Y25272500D01*
X56961425Y25272500D01*
X57240509Y25303945D01*
X57514318Y25366440D01*
X57779408Y25459199D01*
X58032445Y25581055D01*
X58270248Y25730477D01*
X58489825Y25905584D01*
X58688416Y26104175D01*
X58863523Y26323752D01*
X59012945Y26561555D01*
X59134801Y26814592D01*
X59227560Y27079682D01*
X59290055Y27353491D01*
X59321500Y27632575D01*
X59321500Y27913425D01*
X59290055Y28192509D01*
X59266757Y28294585D01*
X59227562Y28466310D01*
X59227557Y28466326D01*
X59134801Y28731408D01*
X59012947Y28984441D01*
X59012946Y28984442D01*
X59012945Y28984445D01*
X58863523Y29222248D01*
X58688416Y29441825D01*
X58489825Y29640416D01*
X58270248Y29815523D01*
X58032445Y29964945D01*
X58032444Y29964946D01*
X58032440Y29964948D01*
X57779407Y30086802D01*
X57514325Y30179558D01*
X57514309Y30179563D01*
X57240513Y30242055D01*
X57100967Y30257778D01*
X56961425Y30273500D01*
X56680575Y30273500D01*
X56541033Y30257778D01*
X56401487Y30242055D01*
X56401486Y30242055D01*
X56127690Y30179563D01*
X56127674Y30179558D01*
X55862592Y30086802D01*
X55609559Y29964948D01*
X55371751Y29815523D01*
X55152175Y29640417D01*
X54953583Y29441825D01*
X54778477Y29222249D01*
X54629052Y28984441D01*
X54507198Y28731408D01*
X54414442Y28466326D01*
X54414437Y28466310D01*
X54351945Y28192514D01*
X54351945Y28192513D01*
X54342460Y28108331D01*
X54320500Y27913425D01*
X46558271Y27913425D01*
X46542658Y27991913D01*
X46529988Y28022500D01*
X46486084Y28128495D01*
X46403951Y28251416D01*
X46299415Y28355952D01*
X46176494Y28438085D01*
X46039917Y28494657D01*
X46039907Y28494660D01*
X45942811Y28513974D01*
X45894918Y28523500D01*
X45747082Y28523500D01*
X45705977Y28515324D01*
X45602092Y28494660D01*
X45602082Y28494657D01*
X45465505Y28438085D01*
X45342584Y28355952D01*
X45342583Y28355950D01*
X45238050Y28251417D01*
X45238048Y28251416D01*
X45155915Y28128495D01*
X45099343Y27991918D01*
X45099340Y27991908D01*
X45070500Y27846917D01*
X13571500Y27846917D01*
X13571500Y27846918D01*
X13542658Y27991913D01*
X13529988Y28022500D01*
X13486084Y28128495D01*
X13403951Y28251416D01*
X13299415Y28355952D01*
X13176494Y28438085D01*
X13039917Y28494657D01*
X13039907Y28494660D01*
X12942811Y28513974D01*
X12894918Y28523500D01*
X12747082Y28523500D01*
X12705977Y28515324D01*
X12602092Y28494660D01*
X12602082Y28494657D01*
X12465505Y28438085D01*
X12342584Y28355952D01*
X12342583Y28355950D01*
X12238050Y28251417D01*
X12238048Y28251416D01*
X12155915Y28128495D01*
X12099343Y27991918D01*
X12099340Y27991908D01*
X12070500Y27846917D01*
X10571500Y27846917D01*
X10571500Y27846918D01*
X10542658Y27991913D01*
X10529988Y28022500D01*
X10486084Y28128495D01*
X10403951Y28251416D01*
X10299415Y28355952D01*
X10176494Y28438085D01*
X10039917Y28494657D01*
X10039907Y28494660D01*
X9942811Y28513974D01*
X9894918Y28523500D01*
X9747082Y28523500D01*
X9705977Y28515324D01*
X9602092Y28494660D01*
X9602082Y28494657D01*
X9465505Y28438085D01*
X9342584Y28355952D01*
X9342583Y28355950D01*
X9238050Y28251417D01*
X9238048Y28251416D01*
X9155915Y28128495D01*
X9099343Y27991918D01*
X9099340Y27991908D01*
X9070500Y27846917D01*
X6488226Y27846917D01*
X6488226Y28080151D01*
X6456781Y28359235D01*
X6412308Y28554083D01*
X6394288Y28633036D01*
X6394283Y28633052D01*
X6326729Y28826112D01*
X6319449Y28846917D01*
X15070500Y28846917D01*
X15070500Y28699084D01*
X15099340Y28554093D01*
X15099343Y28554083D01*
X15155915Y28417506D01*
X15197046Y28355950D01*
X15238049Y28294584D01*
X15342584Y28190049D01*
X15465505Y28107916D01*
X15602087Y28051342D01*
X15747082Y28022500D01*
X15747084Y28022500D01*
X15894916Y28022500D01*
X15894918Y28022500D01*
X16039913Y28051342D01*
X16176495Y28107916D01*
X16299416Y28190049D01*
X16403951Y28294584D01*
X16486084Y28417505D01*
X16542658Y28554087D01*
X16571500Y28699082D01*
X16571500Y28846917D01*
X18070500Y28846917D01*
X18070500Y28699084D01*
X18099340Y28554093D01*
X18099343Y28554083D01*
X18155915Y28417506D01*
X18197046Y28355950D01*
X18238049Y28294584D01*
X18342584Y28190049D01*
X18465505Y28107916D01*
X18602087Y28051342D01*
X18747082Y28022500D01*
X18747084Y28022500D01*
X18894916Y28022500D01*
X18894918Y28022500D01*
X19039913Y28051342D01*
X19176495Y28107916D01*
X19299416Y28190049D01*
X19403951Y28294584D01*
X19486084Y28417505D01*
X19542658Y28554087D01*
X19571500Y28699082D01*
X19571500Y28846917D01*
X21070500Y28846917D01*
X21070500Y28699084D01*
X21099340Y28554093D01*
X21099343Y28554083D01*
X21155915Y28417506D01*
X21197046Y28355950D01*
X21238049Y28294584D01*
X21342584Y28190049D01*
X21465505Y28107916D01*
X21602087Y28051342D01*
X21747082Y28022500D01*
X21747084Y28022500D01*
X21894916Y28022500D01*
X21894918Y28022500D01*
X22039913Y28051342D01*
X22176495Y28107916D01*
X22299416Y28190049D01*
X22403951Y28294584D01*
X22486084Y28417505D01*
X22542658Y28554087D01*
X22571500Y28699082D01*
X22571500Y28846917D01*
X24070500Y28846917D01*
X24070500Y28699084D01*
X24099340Y28554093D01*
X24099343Y28554083D01*
X24155915Y28417506D01*
X24197046Y28355950D01*
X24238049Y28294584D01*
X24342584Y28190049D01*
X24465505Y28107916D01*
X24602087Y28051342D01*
X24747082Y28022500D01*
X24747084Y28022500D01*
X24894916Y28022500D01*
X24894918Y28022500D01*
X25039913Y28051342D01*
X25176495Y28107916D01*
X25299416Y28190049D01*
X25403951Y28294584D01*
X25486084Y28417505D01*
X25542658Y28554087D01*
X25549218Y28587068D01*
X27720500Y28587068D01*
X27720500Y28458933D01*
X27745497Y28333261D01*
X27745498Y28333258D01*
X27761517Y28294584D01*
X27794535Y28214873D01*
X27865724Y28108331D01*
X27956331Y28017724D01*
X28062873Y27946535D01*
X28181256Y27897499D01*
X28181258Y27897499D01*
X28181260Y27897498D01*
X28223903Y27889016D01*
X28306931Y27872500D01*
X28306933Y27872500D01*
X28435067Y27872500D01*
X28435069Y27872500D01*
X28560744Y27897499D01*
X28679127Y27946535D01*
X28785669Y28017724D01*
X28876276Y28108331D01*
X28947465Y28214873D01*
X28996501Y28333256D01*
X29021500Y28458931D01*
X29021500Y28587069D01*
X28996501Y28712744D01*
X28947465Y28831127D01*
X28876276Y28937669D01*
X28785669Y29028276D01*
X28679127Y29099465D01*
X28679124Y29099467D01*
X28679123Y29099467D01*
X28560742Y29148502D01*
X28560739Y29148503D01*
X28470696Y29166414D01*
X28435069Y29173500D01*
X28306931Y29173500D01*
X28275726Y29167293D01*
X28181260Y29148503D01*
X28181257Y29148502D01*
X28062876Y29099467D01*
X27956331Y29028277D01*
X27956330Y29028275D01*
X27865725Y28937670D01*
X27865723Y28937669D01*
X27794533Y28831124D01*
X27745498Y28712743D01*
X27745497Y28712740D01*
X27720500Y28587068D01*
X25549218Y28587068D01*
X25571500Y28699082D01*
X25571500Y28846918D01*
X25542658Y28991913D01*
X25529988Y29022500D01*
X25486084Y29128495D01*
X25403951Y29251416D01*
X25299415Y29355952D01*
X25176494Y29438085D01*
X25039917Y29494657D01*
X25039907Y29494660D01*
X24942811Y29513974D01*
X24894918Y29523500D01*
X24747082Y29523500D01*
X24705977Y29515324D01*
X24602092Y29494660D01*
X24602082Y29494657D01*
X24465505Y29438085D01*
X24342584Y29355952D01*
X24342583Y29355950D01*
X24238050Y29251417D01*
X24238048Y29251416D01*
X24155915Y29128495D01*
X24099343Y28991918D01*
X24099340Y28991908D01*
X24070500Y28846917D01*
X22571500Y28846917D01*
X22571500Y28846918D01*
X22542658Y28991913D01*
X22529988Y29022500D01*
X22486084Y29128495D01*
X22403951Y29251416D01*
X22299415Y29355952D01*
X22176494Y29438085D01*
X22039917Y29494657D01*
X22039907Y29494660D01*
X21942811Y29513974D01*
X21894918Y29523500D01*
X21747082Y29523500D01*
X21705977Y29515324D01*
X21602092Y29494660D01*
X21602082Y29494657D01*
X21465505Y29438085D01*
X21342584Y29355952D01*
X21342583Y29355950D01*
X21238050Y29251417D01*
X21238048Y29251416D01*
X21155915Y29128495D01*
X21099343Y28991918D01*
X21099340Y28991908D01*
X21070500Y28846917D01*
X19571500Y28846917D01*
X19571500Y28846918D01*
X19542658Y28991913D01*
X19529988Y29022500D01*
X19486084Y29128495D01*
X19403951Y29251416D01*
X19299415Y29355952D01*
X19176494Y29438085D01*
X19039917Y29494657D01*
X19039907Y29494660D01*
X18942811Y29513974D01*
X18894918Y29523500D01*
X18747082Y29523500D01*
X18705977Y29515324D01*
X18602092Y29494660D01*
X18602082Y29494657D01*
X18465505Y29438085D01*
X18342584Y29355952D01*
X18342583Y29355950D01*
X18238050Y29251417D01*
X18238048Y29251416D01*
X18155915Y29128495D01*
X18099343Y28991918D01*
X18099340Y28991908D01*
X18070500Y28846917D01*
X16571500Y28846917D01*
X16571500Y28846918D01*
X16542658Y28991913D01*
X16529988Y29022500D01*
X16486084Y29128495D01*
X16403951Y29251416D01*
X16299415Y29355952D01*
X16176494Y29438085D01*
X16039917Y29494657D01*
X16039907Y29494660D01*
X15942811Y29513974D01*
X15894918Y29523500D01*
X15747082Y29523500D01*
X15705977Y29515324D01*
X15602092Y29494660D01*
X15602082Y29494657D01*
X15465505Y29438085D01*
X15342584Y29355952D01*
X15342583Y29355950D01*
X15238050Y29251417D01*
X15238048Y29251416D01*
X15155915Y29128495D01*
X15099343Y28991918D01*
X15099340Y28991908D01*
X15070500Y28846917D01*
X6319449Y28846917D01*
X6301527Y28898134D01*
X6179673Y29151167D01*
X6179672Y29151168D01*
X6179671Y29151171D01*
X6030249Y29388974D01*
X5855142Y29608551D01*
X5656551Y29807142D01*
X5606675Y29846917D01*
X44070500Y29846917D01*
X44070500Y29699084D01*
X44099340Y29554093D01*
X44099343Y29554083D01*
X44155915Y29417506D01*
X44197046Y29355950D01*
X44238049Y29294584D01*
X44342584Y29190049D01*
X44465505Y29107916D01*
X44602087Y29051342D01*
X44747082Y29022500D01*
X44747084Y29022500D01*
X44894916Y29022500D01*
X44894918Y29022500D01*
X45039913Y29051342D01*
X45176495Y29107916D01*
X45299416Y29190049D01*
X45403951Y29294584D01*
X45486084Y29417505D01*
X45542658Y29554087D01*
X45571500Y29699082D01*
X45571500Y29846918D01*
X45542658Y29991913D01*
X45529988Y30022500D01*
X45486084Y30128495D01*
X45403951Y30251416D01*
X45299415Y30355952D01*
X45176494Y30438085D01*
X45039917Y30494657D01*
X45039907Y30494660D01*
X44942811Y30513974D01*
X44894918Y30523500D01*
X44747082Y30523500D01*
X44705977Y30515324D01*
X44602092Y30494660D01*
X44602082Y30494657D01*
X44465505Y30438085D01*
X44342584Y30355952D01*
X44342583Y30355950D01*
X44238050Y30251417D01*
X44238048Y30251416D01*
X44155915Y30128495D01*
X44099343Y29991918D01*
X44099340Y29991908D01*
X44070500Y29846917D01*
X5606675Y29846917D01*
X5436974Y29982249D01*
X5199171Y30131671D01*
X5199170Y30131672D01*
X5199166Y30131674D01*
X4946133Y30253528D01*
X4681051Y30346284D01*
X4681035Y30346289D01*
X4407239Y30408781D01*
X4267693Y30424504D01*
X4128151Y30440226D01*
X3847301Y30440226D01*
X3707759Y30424504D01*
X3568213Y30408781D01*
X3568212Y30408781D01*
X3294416Y30346289D01*
X3294400Y30346284D01*
X3029318Y30253528D01*
X2776285Y30131674D01*
X2538477Y29982249D01*
X2318901Y29807143D01*
X2120309Y29608551D01*
X1945203Y29388975D01*
X1795778Y29151167D01*
X1673924Y28898134D01*
X1581168Y28633052D01*
X1581163Y28633036D01*
X1518671Y28359240D01*
X1518671Y28359239D01*
X1506523Y28251417D01*
X1490355Y28107916D01*
X1487226Y28080148D01*
X122137Y28080148D01*
X121500Y30769374D01*
X121855Y30776609D01*
X134227Y30902222D01*
X137054Y30916434D01*
X172632Y31033722D01*
X178178Y31047110D01*
X235954Y31155200D01*
X244006Y31167251D01*
X321756Y31261989D01*
X332013Y31272245D01*
X417519Y31342418D01*
X426749Y31349994D01*
X438800Y31358046D01*
X546890Y31415822D01*
X560278Y31421368D01*
X677566Y31456946D01*
X691780Y31459773D01*
X813355Y31471747D01*
X817386Y31472144D01*
X824639Y31472500D01*
X868595Y31472500D01*
X5819386Y31472500D01*
X8280168Y31472177D01*
G37*
%TD.AperFunction*%
%TD*%
M02*
