%TF.GenerationSoftware,KiCad,Pcbnew,9.0.2*%
%TF.CreationDate,2025-06-08T15:41:30-05:00*%
%TF.ProjectId,STM32,53544d33-322e-46b6-9963-61645f706362,rev?*%
%TF.SameCoordinates,PX218c9f8PY54a9188*%
%TF.FileFunction,Copper,L2,Inr*%
%TF.FilePolarity,Positive*%
%FSLAX46Y46*%
G04 Gerber Fmt 4.6, Leading zero omitted, Abs format (unit mm)*
G04 Created by KiCad (PCBNEW 9.0.2) date 2025-06-08 15:41:30*
%MOMM*%
%LPD*%
G01*
G04 APERTURE LIST*
%TA.AperFunction,HeatsinkPad*%
%ADD10O,1.800000X1.000000*%
%TD*%
%TA.AperFunction,HeatsinkPad*%
%ADD11O,2.100000X1.000000*%
%TD*%
%TA.AperFunction,ComponentPad*%
%ADD12C,0.700000*%
%TD*%
%TA.AperFunction,ComponentPad*%
%ADD13C,4.400000*%
%TD*%
%TA.AperFunction,ViaPad*%
%ADD14C,0.900000*%
%TD*%
%TA.AperFunction,ViaPad*%
%ADD15C,0.700000*%
%TD*%
%TA.AperFunction,ViaPad*%
%ADD16C,0.650000*%
%TD*%
G04 APERTURE END LIST*
D10*
%TO.N,GND*%
%TO.C,J1*%
X3021000Y13773000D03*
D11*
X7201000Y13773000D03*
D10*
X3021000Y22413000D03*
D11*
X7201000Y22413000D03*
%TD*%
D12*
%TO.N,GND*%
%TO.C,H1*%
X2337726Y27939726D03*
X2821000Y29106452D03*
X2821000Y26773000D03*
X3987726Y29589726D03*
D13*
X3987726Y27939726D03*
D12*
X3987726Y26289726D03*
X5154452Y29106452D03*
X5154452Y26773000D03*
X5637726Y27939726D03*
%TD*%
%TO.N,GND*%
%TO.C,H3*%
X55171000Y27773000D03*
X55654274Y28939726D03*
X55654274Y26606274D03*
X56821000Y29423000D03*
D13*
X56821000Y27773000D03*
D12*
X56821000Y26123000D03*
X57987726Y28939726D03*
X57987726Y26606274D03*
X58471000Y27773000D03*
%TD*%
%TO.N,GND*%
%TO.C,H2*%
X2254274Y3439726D03*
X2737548Y4606452D03*
X2737548Y2273000D03*
X3904274Y5089726D03*
D13*
X3904274Y3439726D03*
D12*
X3904274Y1789726D03*
X5071000Y4606452D03*
X5071000Y2273000D03*
X5554274Y3439726D03*
%TD*%
%TO.N,GND*%
%TO.C,H4*%
X55421000Y3523000D03*
X55904274Y4689726D03*
X55904274Y2356274D03*
X57071000Y5173000D03*
D13*
X57071000Y3523000D03*
D12*
X57071000Y1873000D03*
X58237726Y4689726D03*
X58237726Y2356274D03*
X58721000Y3523000D03*
%TD*%
D14*
%TO.N,GND*%
X10922000Y24384000D03*
D15*
X29591000Y13787000D03*
D14*
X46821000Y773000D03*
X43821000Y773000D03*
X18821000Y773000D03*
X15821000Y773000D03*
X9821000Y773000D03*
X6821000Y773000D03*
X54821000Y12773000D03*
X51821000Y12773000D03*
X50821000Y25773000D03*
X47821000Y25773000D03*
X47821000Y23773000D03*
X44821000Y23773000D03*
X24821000Y28773000D03*
X21821000Y28773000D03*
X21821000Y25773000D03*
X18821000Y25773000D03*
X13821000Y24773000D03*
X18821000Y28773000D03*
X15821000Y28773000D03*
X12821000Y27773000D03*
X9821000Y27773000D03*
X22821000Y12773000D03*
X20821000Y10773000D03*
X52821000Y17773000D03*
X55821000Y16773000D03*
X56821000Y15773000D03*
X57821000Y16773000D03*
X58821000Y22773000D03*
X57821000Y23773000D03*
X56821000Y23773000D03*
X52821000Y22773000D03*
X45821000Y27773000D03*
X47821000Y11773000D03*
X57821000Y13773000D03*
X55821000Y7773000D03*
X26821000Y5773000D03*
X5821000Y6773000D03*
X9821000Y8773000D03*
X12821000Y1773000D03*
X10821000Y3773000D03*
X45821000Y10773000D03*
X58821000Y10773000D03*
X46821000Y5773000D03*
X51821000Y9773000D03*
X51821000Y15773000D03*
X44821000Y29773000D03*
X23821000Y26773000D03*
X17821000Y26773000D03*
X33821000Y30773000D03*
X28821000Y30773000D03*
X22821000Y30773000D03*
X17821000Y30773000D03*
X11821000Y30773000D03*
X8821000Y30773000D03*
D15*
X34821000Y18773000D03*
X50171000Y18873000D03*
X13021000Y14723000D03*
X32821000Y18823000D03*
X32771000Y20423000D03*
D16*
X33920998Y8648000D03*
D15*
X28021000Y19873000D03*
X8171000Y24473000D03*
X56771000Y22523000D03*
X41871000Y25823000D03*
X5171000Y10973000D03*
X31571000Y26623000D03*
X36721000Y21073000D03*
X40621000Y17973000D03*
X50171000Y21273000D03*
X34521000Y20223000D03*
X34821000Y18773000D03*
X9017000Y14478000D03*
X44571000Y13623000D03*
X34971000Y21023000D03*
X13071000Y18773000D03*
X36621000Y11223000D03*
X28771000Y16773000D03*
X46371000Y18223000D03*
X30171000Y11023000D03*
X34371000Y11123000D03*
X34921000Y16473000D03*
X32821000Y16673000D03*
X39871000Y23473000D03*
X40521000Y20673000D03*
X18821000Y4023000D03*
X37071000Y16473000D03*
X23596000Y16373000D03*
X35771000Y26673000D03*
X36771000Y19873000D03*
X13871000Y7623000D03*
X37871000Y11323000D03*
X28371000Y28523000D03*
X43271000Y18223000D03*
X56821000Y17373000D03*
X27221000Y8223000D03*
X36421000Y18523000D03*
X30821000Y24473000D03*
%TO.N,+3V3*%
X40571000Y18973000D03*
X26621000Y13923000D03*
X32121000Y28698000D03*
X32571000Y26573000D03*
X31846000Y27898000D03*
X31396000Y723000D03*
X32571000Y23773000D03*
X40521000Y21623000D03*
X29846000Y20423000D03*
D16*
X16621000Y9898000D03*
D15*
X39721000Y6173000D03*
X29821000Y16823000D03*
X26521000Y13123000D03*
D16*
X16346000Y8723000D03*
D15*
X22646000Y22173000D03*
X37771000Y13773000D03*
D14*
%TO.N,GND*%
X9017000Y21717000D03*
%TD*%
%TA.AperFunction,Conductor*%
%TO.N,GND*%
G36*
X59766278Y31465400D02*
G01*
X59766301Y31465392D01*
X59810270Y31465393D01*
X59817509Y31465038D01*
X59943112Y31452667D01*
X59957330Y31449839D01*
X60074610Y31414263D01*
X60088013Y31408711D01*
X60189223Y31354613D01*
X60196086Y31350945D01*
X60208148Y31342886D01*
X60302881Y31265140D01*
X60313139Y31254882D01*
X60390885Y31160149D01*
X60398944Y31148087D01*
X60456710Y31040013D01*
X60462262Y31026611D01*
X60497837Y30909336D01*
X60500667Y30895108D01*
X60513036Y30769511D01*
X60513392Y30762277D01*
X60513392Y30759007D01*
X60513392Y30718301D01*
X60513403Y30718265D01*
X60513405Y30712565D01*
X60513405Y30712563D01*
X60520460Y836160D01*
X60519991Y829768D01*
X60520449Y783972D01*
X60520117Y776193D01*
X60507103Y640008D01*
X60504004Y624764D01*
X60463988Y498044D01*
X60457772Y483786D01*
X60392150Y368224D01*
X60383089Y355580D01*
X60294761Y256292D01*
X60283259Y245821D01*
X60176128Y167189D01*
X60162691Y159355D01*
X60041487Y104853D01*
X60026708Y100000D01*
X59911293Y75160D01*
X59895714Y73503D01*
X31919166Y76869D01*
X31866843Y98549D01*
X31845175Y150878D01*
X31866847Y203192D01*
X31940114Y276458D01*
X32016775Y391189D01*
X32069580Y518672D01*
X32096500Y654007D01*
X32096500Y791993D01*
X32069580Y927328D01*
X32016775Y1054811D01*
X31940114Y1169542D01*
X31842542Y1267114D01*
X31727811Y1343775D01*
X31727810Y1343776D01*
X31727808Y1343777D01*
X31600332Y1396579D01*
X31600322Y1396582D01*
X31509694Y1414609D01*
X31464993Y1423500D01*
X31327007Y1423500D01*
X31288642Y1415869D01*
X31191677Y1396582D01*
X31191667Y1396579D01*
X31064191Y1343777D01*
X30949461Y1267117D01*
X30851883Y1169539D01*
X30775223Y1054809D01*
X30722421Y927333D01*
X30722418Y927323D01*
X30704285Y836160D01*
X30695500Y791993D01*
X30695500Y654007D01*
X30698285Y640008D01*
X30722418Y518678D01*
X30722421Y518668D01*
X30775223Y391192D01*
X30775224Y391190D01*
X30775225Y391189D01*
X30851886Y276458D01*
X30925024Y203320D01*
X30946698Y150995D01*
X30925024Y98669D01*
X30872698Y76995D01*
X30872689Y76995D01*
X881403Y80602D01*
X875715Y80603D01*
X875699Y80608D01*
X831731Y80608D01*
X831729Y80609D01*
X824487Y80964D01*
X698892Y93333D01*
X684664Y96163D01*
X567389Y131738D01*
X553987Y137290D01*
X445913Y195056D01*
X433851Y203115D01*
X339118Y280861D01*
X328860Y291119D01*
X251114Y385852D01*
X243055Y397914D01*
X185289Y505988D01*
X179737Y519390D01*
X144161Y636670D01*
X141333Y650888D01*
X128962Y776491D01*
X128607Y783744D01*
X128607Y791993D01*
X128608Y827699D01*
X128607Y827702D01*
X128607Y833556D01*
X128593Y833727D01*
X127312Y6241992D01*
X39020500Y6241992D01*
X39020500Y6104009D01*
X39047418Y5968678D01*
X39047421Y5968668D01*
X39100223Y5841192D01*
X39100224Y5841190D01*
X39100225Y5841189D01*
X39176886Y5726458D01*
X39274458Y5628886D01*
X39389189Y5552225D01*
X39516672Y5499420D01*
X39652007Y5472500D01*
X39652009Y5472500D01*
X39789991Y5472500D01*
X39789993Y5472500D01*
X39925328Y5499420D01*
X40052811Y5552225D01*
X40167542Y5628886D01*
X40265114Y5726458D01*
X40341775Y5841189D01*
X40394580Y5968672D01*
X40421500Y6104007D01*
X40421500Y6241993D01*
X40394580Y6377328D01*
X40341775Y6504811D01*
X40265114Y6619542D01*
X40167542Y6717114D01*
X40052811Y6793775D01*
X40052810Y6793776D01*
X40052808Y6793777D01*
X39925332Y6846579D01*
X39925322Y6846582D01*
X39834694Y6864609D01*
X39789993Y6873500D01*
X39652007Y6873500D01*
X39613642Y6865869D01*
X39516677Y6846582D01*
X39516667Y6846579D01*
X39389191Y6793777D01*
X39274461Y6717117D01*
X39176883Y6619539D01*
X39100223Y6504809D01*
X39047421Y6377333D01*
X39047418Y6377323D01*
X39024945Y6264344D01*
X39021220Y6245610D01*
X39020500Y6241992D01*
X127312Y6241992D01*
X126708Y8789531D01*
X15670500Y8789531D01*
X15670500Y8656470D01*
X15696458Y8525969D01*
X15696460Y8525962D01*
X15747379Y8403032D01*
X15821304Y8292395D01*
X15915394Y8198305D01*
X16026031Y8124380D01*
X16148961Y8073461D01*
X16148968Y8073459D01*
X16215093Y8060306D01*
X16279469Y8047500D01*
X16279470Y8047500D01*
X16412530Y8047500D01*
X16412531Y8047500D01*
X16543036Y8073460D01*
X16665969Y8124380D01*
X16776606Y8198305D01*
X16870695Y8292394D01*
X16944620Y8403031D01*
X16995540Y8525964D01*
X17021500Y8656469D01*
X17021500Y8789531D01*
X16995540Y8920036D01*
X16944620Y9042969D01*
X16870695Y9153606D01*
X16866510Y9157791D01*
X16844836Y9210117D01*
X16866510Y9262443D01*
X16890511Y9278481D01*
X16940969Y9299380D01*
X17000108Y9338895D01*
X34120500Y9338895D01*
X34120500Y9207106D01*
X34154606Y9079819D01*
X34154610Y9079810D01*
X34220500Y8965686D01*
X34313686Y8872500D01*
X34427814Y8806608D01*
X34555105Y8772501D01*
X34555106Y8772500D01*
X34555108Y8772500D01*
X34686894Y8772500D01*
X34686894Y8772501D01*
X34814186Y8806608D01*
X34928314Y8872500D01*
X35021500Y8965686D01*
X35087392Y9079814D01*
X35121499Y9207106D01*
X35121500Y9207106D01*
X35121500Y9338894D01*
X35121499Y9338895D01*
X35087393Y9466182D01*
X35087392Y9466186D01*
X35021500Y9580314D01*
X34928314Y9673500D01*
X34880745Y9700964D01*
X34814190Y9739390D01*
X34814181Y9739394D01*
X34686894Y9773500D01*
X34686892Y9773500D01*
X34555108Y9773500D01*
X34555106Y9773500D01*
X34427818Y9739394D01*
X34427809Y9739390D01*
X34313685Y9673500D01*
X34220500Y9580315D01*
X34154610Y9466191D01*
X34154606Y9466182D01*
X34120500Y9338895D01*
X17000108Y9338895D01*
X17051606Y9373305D01*
X17145695Y9467394D01*
X17219620Y9578031D01*
X17270540Y9700964D01*
X17296500Y9831469D01*
X17296500Y9964531D01*
X17270540Y10095036D01*
X17219620Y10217969D01*
X17145695Y10328606D01*
X17051606Y10422695D01*
X16940969Y10496620D01*
X16940970Y10496620D01*
X16940968Y10496621D01*
X16818038Y10547540D01*
X16818031Y10547542D01*
X16709085Y10569213D01*
X16687531Y10573500D01*
X16554469Y10573500D01*
X16535970Y10569821D01*
X16423968Y10547542D01*
X16423961Y10547540D01*
X16301031Y10496621D01*
X16190394Y10422696D01*
X16190393Y10422694D01*
X16096306Y10328607D01*
X16096304Y10328606D01*
X16022379Y10217969D01*
X15971460Y10095039D01*
X15971458Y10095032D01*
X15945500Y9964531D01*
X15945500Y9831470D01*
X15971458Y9700969D01*
X15971460Y9700962D01*
X16022379Y9578032D01*
X16096304Y9467395D01*
X16100488Y9463211D01*
X16122162Y9410885D01*
X16100488Y9358559D01*
X16076482Y9342518D01*
X16026028Y9321619D01*
X15915394Y9247696D01*
X15915393Y9247694D01*
X15821306Y9153607D01*
X15821304Y9153606D01*
X15747379Y9042969D01*
X15696460Y8920039D01*
X15696458Y8920032D01*
X15670500Y8789531D01*
X126708Y8789531D01*
X125486Y13948001D01*
X1789157Y13948001D01*
X1789157Y13948000D01*
X2375625Y13948000D01*
X2341444Y13888796D01*
X2321000Y13812496D01*
X2321000Y13733504D01*
X2341444Y13657204D01*
X2375625Y13598000D01*
X1789157Y13598000D01*
X1803663Y13525070D01*
X1803665Y13525064D01*
X1867740Y13370374D01*
X1960761Y13231157D01*
X2079156Y13112762D01*
X2218373Y13019741D01*
X2373063Y12955666D01*
X2373069Y12955664D01*
X2537284Y12923000D01*
X2846000Y12923000D01*
X2846000Y13473000D01*
X3196000Y13473000D01*
X3196000Y12923000D01*
X3504716Y12923000D01*
X3668930Y12955664D01*
X3668936Y12955666D01*
X3823626Y13019741D01*
X3962843Y13112762D01*
X3962845Y13112763D01*
X4081237Y13231155D01*
X4081238Y13231157D01*
X4174259Y13370374D01*
X4238334Y13525064D01*
X4238336Y13525070D01*
X4252842Y13598000D01*
X3666375Y13598000D01*
X3700556Y13657204D01*
X3721000Y13733504D01*
X3721000Y13812496D01*
X3700556Y13888796D01*
X3666375Y13948000D01*
X4252843Y13948000D01*
X4252842Y13948001D01*
X5819157Y13948001D01*
X5819157Y13948000D01*
X6405625Y13948000D01*
X6371444Y13888796D01*
X6351000Y13812496D01*
X6351000Y13733504D01*
X6371444Y13657204D01*
X6405625Y13598000D01*
X5819157Y13598000D01*
X5833663Y13525070D01*
X5833665Y13525064D01*
X5897740Y13370374D01*
X5990761Y13231157D01*
X6109156Y13112762D01*
X6248373Y13019741D01*
X6403063Y12955666D01*
X6403069Y12955664D01*
X6567284Y12923000D01*
X7026000Y12923000D01*
X7026000Y13473000D01*
X7376000Y13473000D01*
X7376000Y12923000D01*
X7834716Y12923000D01*
X7998930Y12955664D01*
X7998936Y12955666D01*
X8153626Y13019741D01*
X8292843Y13112762D01*
X8292845Y13112763D01*
X8372074Y13191992D01*
X25820500Y13191992D01*
X25820500Y13054009D01*
X25847418Y12918678D01*
X25847421Y12918668D01*
X25900223Y12791192D01*
X25900224Y12791190D01*
X25900225Y12791189D01*
X25976886Y12676458D01*
X26074458Y12578886D01*
X26189189Y12502225D01*
X26316672Y12449420D01*
X26452007Y12422500D01*
X26452009Y12422500D01*
X26589991Y12422500D01*
X26589993Y12422500D01*
X26725328Y12449420D01*
X26852811Y12502225D01*
X26967542Y12578886D01*
X27065114Y12676458D01*
X27141775Y12791189D01*
X27194580Y12918672D01*
X27221500Y13054007D01*
X27221500Y13191993D01*
X27194580Y13327328D01*
X27160307Y13410071D01*
X27160307Y13466705D01*
X27167138Y13479489D01*
X27241775Y13591189D01*
X27282246Y13688895D01*
X34495500Y13688895D01*
X34495500Y13557106D01*
X34529606Y13429819D01*
X34529607Y13429816D01*
X34529608Y13429814D01*
X34595500Y13315686D01*
X34688686Y13222500D01*
X34802814Y13156608D01*
X34930105Y13122501D01*
X34930106Y13122500D01*
X34930108Y13122500D01*
X35061894Y13122500D01*
X35061894Y13122501D01*
X35189186Y13156608D01*
X35303314Y13222500D01*
X35396500Y13315686D01*
X35462392Y13429814D01*
X35496499Y13557106D01*
X35496500Y13557106D01*
X35496500Y13688894D01*
X35496499Y13688895D01*
X35492449Y13704009D01*
X35462392Y13816186D01*
X35447493Y13841992D01*
X37070500Y13841992D01*
X37070500Y13704009D01*
X37097418Y13568678D01*
X37097421Y13568668D01*
X37150223Y13441192D01*
X37226304Y13327328D01*
X37226886Y13326458D01*
X37324458Y13228886D01*
X37439189Y13152225D01*
X37439190Y13152225D01*
X37439191Y13152224D01*
X37534459Y13112763D01*
X37566672Y13099420D01*
X37702007Y13072500D01*
X37702009Y13072500D01*
X37839991Y13072500D01*
X37839993Y13072500D01*
X37975328Y13099420D01*
X38102811Y13152225D01*
X38217542Y13228886D01*
X38315114Y13326458D01*
X38391775Y13441189D01*
X38444580Y13568672D01*
X38471500Y13704007D01*
X38471500Y13841993D01*
X38444580Y13977328D01*
X38391775Y14104811D01*
X38315114Y14219542D01*
X38217542Y14317114D01*
X38102811Y14393775D01*
X38102810Y14393776D01*
X38102808Y14393777D01*
X37975332Y14446579D01*
X37975322Y14446582D01*
X37872082Y14467117D01*
X37839993Y14473500D01*
X37702007Y14473500D01*
X37669918Y14467117D01*
X37566677Y14446582D01*
X37566667Y14446579D01*
X37439191Y14393777D01*
X37324461Y14317117D01*
X37226883Y14219539D01*
X37150223Y14104809D01*
X37097421Y13977333D01*
X37097418Y13977323D01*
X37070500Y13841992D01*
X35447493Y13841992D01*
X35396500Y13930314D01*
X35303314Y14023500D01*
X35217578Y14073000D01*
X35189190Y14089390D01*
X35189181Y14089394D01*
X35061894Y14123500D01*
X35061892Y14123500D01*
X34930108Y14123500D01*
X34930106Y14123500D01*
X34802818Y14089394D01*
X34802809Y14089390D01*
X34688685Y14023500D01*
X34595500Y13930315D01*
X34529610Y13816191D01*
X34529606Y13816182D01*
X34495500Y13688895D01*
X27282246Y13688895D01*
X27294580Y13718672D01*
X27321500Y13854007D01*
X27321500Y13991993D01*
X27294580Y14127328D01*
X27241775Y14254811D01*
X27165114Y14369542D01*
X27067542Y14467114D01*
X26952811Y14543775D01*
X26952810Y14543776D01*
X26952808Y14543777D01*
X26825332Y14596579D01*
X26825322Y14596582D01*
X26734694Y14614609D01*
X26689993Y14623500D01*
X26552007Y14623500D01*
X26513642Y14615869D01*
X26416677Y14596582D01*
X26416667Y14596579D01*
X26289191Y14543777D01*
X26174461Y14467117D01*
X26076883Y14369539D01*
X26000223Y14254809D01*
X25947421Y14127333D01*
X25947418Y14127323D01*
X25920500Y13991992D01*
X25920500Y13854009D01*
X25947418Y13718678D01*
X25947420Y13718673D01*
X25947420Y13718672D01*
X25981692Y13635932D01*
X25981692Y13579295D01*
X25974854Y13566502D01*
X25900223Y13454809D01*
X25847421Y13327333D01*
X25847418Y13327323D01*
X25820500Y13191992D01*
X8372074Y13191992D01*
X8411237Y13231155D01*
X8411238Y13231157D01*
X8414969Y13236740D01*
X8504259Y13370374D01*
X8568334Y13525064D01*
X8568336Y13525070D01*
X8582842Y13598000D01*
X7996375Y13598000D01*
X8030556Y13657204D01*
X8051000Y13733504D01*
X8051000Y13812496D01*
X8030556Y13888796D01*
X7996375Y13948000D01*
X8582843Y13948000D01*
X8582842Y13948001D01*
X8568336Y14020931D01*
X8568334Y14020937D01*
X8504259Y14175627D01*
X8411238Y14314844D01*
X8292843Y14433239D01*
X8153626Y14526260D01*
X7998936Y14590335D01*
X7998930Y14590337D01*
X7834716Y14623000D01*
X7376000Y14623000D01*
X7376000Y14073000D01*
X7026000Y14073000D01*
X7026000Y14626994D01*
X7007150Y14672502D01*
X7028824Y14724828D01*
X7044149Y14736587D01*
X7054365Y14742485D01*
X7161515Y14849635D01*
X7237281Y14980865D01*
X7276499Y15127232D01*
X7276500Y15127232D01*
X7276500Y15278768D01*
X7276499Y15278769D01*
X7237282Y15425131D01*
X7237281Y15425135D01*
X7161515Y15556365D01*
X7054365Y15663515D01*
X7054362Y15663517D01*
X6923139Y15739279D01*
X6923130Y15739283D01*
X6776768Y15778500D01*
X6776766Y15778500D01*
X6625234Y15778500D01*
X6625232Y15778500D01*
X6478869Y15739283D01*
X6478860Y15739279D01*
X6347637Y15663517D01*
X6240483Y15556363D01*
X6164721Y15425140D01*
X6164717Y15425131D01*
X6125500Y15278769D01*
X6125500Y15127232D01*
X6164717Y14980870D01*
X6164718Y14980867D01*
X6164719Y14980865D01*
X6240485Y14849635D01*
X6347635Y14742485D01*
X6347637Y14742484D01*
X6394281Y14715554D01*
X6428760Y14670621D01*
X6421367Y14614468D01*
X6385600Y14583101D01*
X6248373Y14526260D01*
X6109156Y14433239D01*
X6109155Y14433237D01*
X5990763Y14314845D01*
X5990761Y14314844D01*
X5897740Y14175627D01*
X5833665Y14020937D01*
X5833663Y14020931D01*
X5819157Y13948001D01*
X4252842Y13948001D01*
X4238336Y14020931D01*
X4238334Y14020937D01*
X4174259Y14175627D01*
X4081238Y14314844D01*
X3962843Y14433239D01*
X3823626Y14526260D01*
X3668936Y14590335D01*
X3668930Y14590337D01*
X3504716Y14623000D01*
X3196000Y14623000D01*
X3196000Y14073000D01*
X2846000Y14073000D01*
X2846000Y14623000D01*
X2537284Y14623000D01*
X2373069Y14590337D01*
X2373063Y14590335D01*
X2218373Y14526260D01*
X2079156Y14433239D01*
X2079155Y14433237D01*
X1960763Y14314845D01*
X1960761Y14314844D01*
X1867740Y14175627D01*
X1803665Y14020937D01*
X1803663Y14020931D01*
X1789157Y13948001D01*
X125486Y13948001D01*
X125014Y15941455D01*
X21849200Y15941455D01*
X21849200Y15794545D01*
X21856267Y15759014D01*
X21877858Y15650465D01*
X21877861Y15650454D01*
X21934078Y15514734D01*
X21934079Y15514732D01*
X21934080Y15514731D01*
X22015699Y15392580D01*
X22119580Y15288699D01*
X22241731Y15207080D01*
X22377458Y15150860D01*
X22521545Y15122200D01*
X22668455Y15122200D01*
X22812542Y15150860D01*
X22948269Y15207080D01*
X23070420Y15288699D01*
X23174301Y15392580D01*
X23255920Y15514731D01*
X23312140Y15650458D01*
X23340800Y15794545D01*
X23340800Y15941455D01*
X23881200Y15941455D01*
X23881200Y15794545D01*
X23888267Y15759014D01*
X23909858Y15650465D01*
X23909861Y15650454D01*
X23966078Y15514734D01*
X23966079Y15514732D01*
X23966080Y15514731D01*
X24047699Y15392580D01*
X24151580Y15288699D01*
X24273731Y15207080D01*
X24409458Y15150860D01*
X24553545Y15122200D01*
X24700455Y15122200D01*
X24844542Y15150860D01*
X24980269Y15207080D01*
X25102420Y15288699D01*
X25206301Y15392580D01*
X25287920Y15514731D01*
X25344140Y15650458D01*
X25372800Y15794545D01*
X25372800Y15941455D01*
X25344140Y16085542D01*
X25344138Y16085547D01*
X25287921Y16221267D01*
X25206303Y16343417D01*
X25206301Y16343420D01*
X25102420Y16447301D01*
X24980269Y16528920D01*
X24980268Y16528921D01*
X24980266Y16528922D01*
X24844546Y16585139D01*
X24844535Y16585142D01*
X24700455Y16613800D01*
X24553545Y16613800D01*
X24409464Y16585142D01*
X24409453Y16585139D01*
X24273733Y16528922D01*
X24151583Y16447304D01*
X24047696Y16343417D01*
X23966078Y16221267D01*
X23909861Y16085547D01*
X23909858Y16085536D01*
X23881919Y15945072D01*
X23881200Y15941455D01*
X23340800Y15941455D01*
X23312140Y16085542D01*
X23312138Y16085547D01*
X23255921Y16221267D01*
X23174303Y16343417D01*
X23174301Y16343420D01*
X23070420Y16447301D01*
X22948269Y16528920D01*
X22948268Y16528921D01*
X22948266Y16528922D01*
X22812546Y16585139D01*
X22812535Y16585142D01*
X22668455Y16613800D01*
X22521545Y16613800D01*
X22377464Y16585142D01*
X22377453Y16585139D01*
X22241733Y16528922D01*
X22119583Y16447304D01*
X22015696Y16343417D01*
X21934078Y16221267D01*
X21877861Y16085547D01*
X21877858Y16085536D01*
X21849919Y15945072D01*
X21849200Y15941455D01*
X125014Y15941455D01*
X124553Y17886169D01*
X19633050Y17886169D01*
X19633050Y17659831D01*
X19667270Y17443777D01*
X19668458Y17436280D01*
X19668460Y17436269D01*
X19738397Y17221025D01*
X19841154Y17019350D01*
X19974189Y16836244D01*
X19974193Y16836239D01*
X20134239Y16676193D01*
X20134242Y16676191D01*
X20134243Y16676190D01*
X20317349Y16543155D01*
X20414552Y16493628D01*
X20519019Y16440400D01*
X20519021Y16440400D01*
X20519024Y16440398D01*
X20734268Y16370461D01*
X20734272Y16370461D01*
X20734279Y16370458D01*
X20927263Y16339892D01*
X20957830Y16335050D01*
X20957831Y16335050D01*
X21184170Y16335050D01*
X21211059Y16339310D01*
X21407721Y16370458D01*
X21407729Y16370461D01*
X21407731Y16370461D01*
X21622975Y16440398D01*
X21622975Y16440399D01*
X21622981Y16440400D01*
X21824650Y16543155D01*
X22007761Y16676193D01*
X22167807Y16836239D01*
X22300845Y17019350D01*
X22403600Y17221019D01*
X22473542Y17436279D01*
X22508950Y17659831D01*
X22508950Y17886169D01*
X24713050Y17886169D01*
X24713050Y17659831D01*
X24747270Y17443777D01*
X24748458Y17436280D01*
X24748460Y17436269D01*
X24818397Y17221025D01*
X24921154Y17019350D01*
X25054189Y16836244D01*
X25054193Y16836239D01*
X25214239Y16676193D01*
X25214242Y16676191D01*
X25214243Y16676190D01*
X25397349Y16543155D01*
X25494552Y16493628D01*
X25599019Y16440400D01*
X25599021Y16440400D01*
X25599024Y16440398D01*
X25814268Y16370461D01*
X25814272Y16370461D01*
X25814279Y16370458D01*
X26007263Y16339892D01*
X26037830Y16335050D01*
X26037831Y16335050D01*
X26264170Y16335050D01*
X26291059Y16339310D01*
X26487721Y16370458D01*
X26487729Y16370461D01*
X26487731Y16370461D01*
X26702975Y16440398D01*
X26702975Y16440399D01*
X26702981Y16440400D01*
X26904650Y16543155D01*
X27087761Y16676193D01*
X27247807Y16836239D01*
X27288314Y16891992D01*
X29120500Y16891992D01*
X29120500Y16754009D01*
X29147418Y16618678D01*
X29147421Y16618668D01*
X29200223Y16491192D01*
X29234162Y16440398D01*
X29276886Y16376458D01*
X29374458Y16278886D01*
X29489189Y16202225D01*
X29616672Y16149420D01*
X29752007Y16122500D01*
X29752009Y16122500D01*
X29889991Y16122500D01*
X29889993Y16122500D01*
X30025328Y16149420D01*
X30152811Y16202225D01*
X30267542Y16278886D01*
X30365114Y16376458D01*
X30441775Y16491189D01*
X30494580Y16618672D01*
X30521500Y16754007D01*
X30521500Y16891993D01*
X30494580Y17027328D01*
X30441775Y17154811D01*
X30365114Y17269542D01*
X30267542Y17367114D01*
X30164044Y17436269D01*
X30152808Y17443777D01*
X30025332Y17496579D01*
X30025322Y17496582D01*
X29934694Y17514609D01*
X29889993Y17523500D01*
X29752007Y17523500D01*
X29713642Y17515869D01*
X29616677Y17496582D01*
X29616667Y17496579D01*
X29489191Y17443777D01*
X29374461Y17367117D01*
X29276883Y17269539D01*
X29200223Y17154809D01*
X29147421Y17027333D01*
X29147418Y17027323D01*
X29120500Y16891992D01*
X27288314Y16891992D01*
X27380845Y17019350D01*
X27483600Y17221019D01*
X27553542Y17436279D01*
X27588950Y17659831D01*
X27588950Y17886169D01*
X27553542Y18109721D01*
X27553539Y18109728D01*
X27553539Y18109732D01*
X27483602Y18324976D01*
X27483600Y18324979D01*
X27483600Y18324981D01*
X27380941Y18526462D01*
X27380845Y18526651D01*
X27247810Y18709757D01*
X27247809Y18709758D01*
X27247807Y18709761D01*
X27087761Y18869807D01*
X27087758Y18869810D01*
X27087756Y18869811D01*
X26928164Y18985761D01*
X26904649Y19002846D01*
X26827820Y19041992D01*
X39870500Y19041992D01*
X39870500Y18904009D01*
X39897418Y18768678D01*
X39897421Y18768668D01*
X39950223Y18641192D01*
X40026757Y18526650D01*
X40026886Y18526458D01*
X40124458Y18428886D01*
X40239189Y18352225D01*
X40366672Y18299420D01*
X40502007Y18272500D01*
X40502009Y18272500D01*
X40639991Y18272500D01*
X40639993Y18272500D01*
X40775328Y18299420D01*
X40902811Y18352225D01*
X41017542Y18428886D01*
X41115114Y18526458D01*
X41191775Y18641189D01*
X41244580Y18768672D01*
X41271500Y18904007D01*
X41271500Y18998000D01*
X55831000Y18998000D01*
X57921000Y18998000D01*
X57921000Y20898000D01*
X55831000Y20898000D01*
X55831000Y18998000D01*
X41271500Y18998000D01*
X41271500Y19041993D01*
X41244580Y19177328D01*
X41191775Y19304811D01*
X41115114Y19419542D01*
X41017542Y19517114D01*
X40975122Y19545458D01*
X40902808Y19593777D01*
X40775332Y19646579D01*
X40775322Y19646582D01*
X40684694Y19664609D01*
X40639993Y19673500D01*
X40502007Y19673500D01*
X40463642Y19665869D01*
X40366677Y19646582D01*
X40366667Y19646579D01*
X40239191Y19593777D01*
X40124461Y19517117D01*
X40026883Y19419539D01*
X39950223Y19304809D01*
X39897421Y19177333D01*
X39897418Y19177323D01*
X39870500Y19041992D01*
X26827820Y19041992D01*
X26702975Y19105603D01*
X26487731Y19175540D01*
X26487722Y19175542D01*
X26487721Y19175542D01*
X26375945Y19193246D01*
X26264170Y19210950D01*
X26264169Y19210950D01*
X26037831Y19210950D01*
X26037830Y19210950D01*
X25814279Y19175542D01*
X25814268Y19175540D01*
X25599024Y19105603D01*
X25397349Y19002846D01*
X25214243Y18869811D01*
X25054189Y18709757D01*
X24921154Y18526651D01*
X24818397Y18324976D01*
X24748460Y18109732D01*
X24748458Y18109721D01*
X24713050Y17886169D01*
X22508950Y17886169D01*
X22473542Y18109721D01*
X22473539Y18109728D01*
X22473539Y18109732D01*
X22403602Y18324976D01*
X22403600Y18324979D01*
X22403600Y18324981D01*
X22300941Y18526462D01*
X22300845Y18526651D01*
X22167810Y18709757D01*
X22167809Y18709758D01*
X22167807Y18709761D01*
X22007761Y18869807D01*
X22007758Y18869810D01*
X22007756Y18869811D01*
X21824650Y19002846D01*
X21622975Y19105603D01*
X21407731Y19175540D01*
X21407722Y19175542D01*
X21407721Y19175542D01*
X21295945Y19193246D01*
X21184170Y19210950D01*
X21184169Y19210950D01*
X20957831Y19210950D01*
X20957830Y19210950D01*
X20734279Y19175542D01*
X20734268Y19175540D01*
X20519024Y19105603D01*
X20317349Y19002846D01*
X20134243Y18869811D01*
X19974189Y18709757D01*
X19841154Y18526651D01*
X19738397Y18324976D01*
X19668460Y18109732D01*
X19668458Y18109721D01*
X19633050Y17886169D01*
X124553Y17886169D01*
X123439Y22588001D01*
X1789157Y22588001D01*
X1789157Y22588000D01*
X2375625Y22588000D01*
X2341444Y22528796D01*
X2321000Y22452496D01*
X2321000Y22373504D01*
X2341444Y22297204D01*
X2375625Y22238000D01*
X1789157Y22238000D01*
X1803663Y22165070D01*
X1803665Y22165064D01*
X1867740Y22010374D01*
X1960761Y21871157D01*
X2079156Y21752762D01*
X2218373Y21659741D01*
X2373063Y21595666D01*
X2373069Y21595664D01*
X2537284Y21563000D01*
X2846000Y21563000D01*
X2846000Y22113000D01*
X3196000Y22113000D01*
X3196000Y21563000D01*
X3504716Y21563000D01*
X3668930Y21595664D01*
X3668936Y21595666D01*
X3823626Y21659741D01*
X3962843Y21752762D01*
X3962845Y21752763D01*
X4081237Y21871155D01*
X4081238Y21871157D01*
X4174259Y22010374D01*
X4238334Y22165064D01*
X4238336Y22165070D01*
X4252842Y22238000D01*
X3666375Y22238000D01*
X3700556Y22297204D01*
X3721000Y22373504D01*
X3721000Y22452496D01*
X3700556Y22528796D01*
X3666375Y22588000D01*
X4252843Y22588000D01*
X4252842Y22588001D01*
X5819157Y22588001D01*
X5819157Y22588000D01*
X6405625Y22588000D01*
X6371444Y22528796D01*
X6351000Y22452496D01*
X6351000Y22373504D01*
X6371444Y22297204D01*
X6405625Y22238000D01*
X5819157Y22238000D01*
X5833663Y22165070D01*
X5833665Y22165064D01*
X5897740Y22010374D01*
X5990761Y21871157D01*
X6109156Y21752762D01*
X6248374Y21659740D01*
X6385599Y21602900D01*
X6425648Y21562852D01*
X6425648Y21506215D01*
X6394282Y21470448D01*
X6347638Y21443518D01*
X6347638Y21443517D01*
X6347635Y21443515D01*
X6291521Y21387401D01*
X6240483Y21336363D01*
X6164721Y21205140D01*
X6164717Y21205131D01*
X6125500Y21058769D01*
X6125500Y20907232D01*
X6164717Y20760870D01*
X6164721Y20760861D01*
X6182277Y20730454D01*
X6240485Y20629635D01*
X6347635Y20522485D01*
X6478865Y20446719D01*
X6625231Y20407501D01*
X6625232Y20407500D01*
X6625234Y20407500D01*
X6776768Y20407500D01*
X6776768Y20407501D01*
X6923135Y20446719D01*
X7054365Y20522485D01*
X7161515Y20629635D01*
X7237281Y20760865D01*
X7276499Y20907232D01*
X7276500Y20907232D01*
X7276500Y21058769D01*
X7275857Y21061169D01*
X19633050Y21061169D01*
X19633050Y20834831D01*
X19649581Y20730458D01*
X19668458Y20611280D01*
X19668460Y20611269D01*
X19738397Y20396025D01*
X19841154Y20194350D01*
X19974189Y20011244D01*
X19974193Y20011239D01*
X20134239Y19851193D01*
X20134242Y19851191D01*
X20134243Y19851190D01*
X20317349Y19718155D01*
X20404991Y19673500D01*
X20519019Y19615400D01*
X20519021Y19615400D01*
X20519024Y19615398D01*
X20734268Y19545461D01*
X20734272Y19545461D01*
X20734279Y19545458D01*
X20913213Y19517117D01*
X20957830Y19510050D01*
X20957831Y19510050D01*
X21184170Y19510050D01*
X21228787Y19517117D01*
X21407721Y19545458D01*
X21407729Y19545461D01*
X21407731Y19545461D01*
X21622975Y19615398D01*
X21622975Y19615399D01*
X21622981Y19615400D01*
X21824650Y19718155D01*
X22007761Y19851193D01*
X22167807Y20011239D01*
X22300845Y20194350D01*
X22403600Y20396019D01*
X22428476Y20472580D01*
X22473539Y20611269D01*
X22473539Y20611271D01*
X22473542Y20611279D01*
X22508950Y20834831D01*
X22508950Y21061169D01*
X22473542Y21284721D01*
X22473538Y21284732D01*
X22440179Y21387401D01*
X22444622Y21443864D01*
X22487689Y21480647D01*
X22524990Y21482847D01*
X22577007Y21472500D01*
X22577009Y21472500D01*
X22714991Y21472500D01*
X22714993Y21472500D01*
X22850328Y21499420D01*
X22946665Y21539324D01*
X23003299Y21539324D01*
X23043348Y21499276D01*
X23043348Y21442639D01*
X23033664Y21426480D01*
X23033719Y21426443D01*
X23032985Y21425346D01*
X23032192Y21424021D01*
X23031699Y21423421D01*
X22950078Y21301267D01*
X22893861Y21165547D01*
X22893858Y21165536D01*
X22865200Y21021455D01*
X22865200Y20874546D01*
X22893858Y20730465D01*
X22893861Y20730454D01*
X22950078Y20594734D01*
X23018727Y20491993D01*
X23031699Y20472580D01*
X23135580Y20368699D01*
X23257731Y20287080D01*
X23393458Y20230860D01*
X23537545Y20202200D01*
X23684455Y20202200D01*
X23828542Y20230860D01*
X23964269Y20287080D01*
X24086420Y20368699D01*
X24190301Y20472580D01*
X24271920Y20594731D01*
X24328140Y20730458D01*
X24356800Y20874545D01*
X24356800Y21021455D01*
X24356800Y21021456D01*
X24351194Y21049642D01*
X24348901Y21061169D01*
X24713050Y21061169D01*
X24713050Y20834831D01*
X24729581Y20730458D01*
X24748458Y20611280D01*
X24748460Y20611269D01*
X24818397Y20396025D01*
X24921154Y20194350D01*
X25054189Y20011244D01*
X25054193Y20011239D01*
X25214239Y19851193D01*
X25214242Y19851191D01*
X25214243Y19851190D01*
X25397349Y19718155D01*
X25484991Y19673500D01*
X25599019Y19615400D01*
X25599021Y19615400D01*
X25599024Y19615398D01*
X25814268Y19545461D01*
X25814272Y19545461D01*
X25814279Y19545458D01*
X25993213Y19517117D01*
X26037830Y19510050D01*
X26037831Y19510050D01*
X26264170Y19510050D01*
X26308787Y19517117D01*
X26487721Y19545458D01*
X26487729Y19545461D01*
X26487731Y19545461D01*
X26702975Y19615398D01*
X26702975Y19615399D01*
X26702981Y19615400D01*
X26904650Y19718155D01*
X27087761Y19851193D01*
X27247807Y20011239D01*
X27380845Y20194350D01*
X27483600Y20396019D01*
X27500073Y20446718D01*
X27514784Y20491992D01*
X29145500Y20491992D01*
X29145500Y20354009D01*
X29172418Y20218678D01*
X29172421Y20218668D01*
X29225223Y20091192D01*
X29278642Y20011244D01*
X29301886Y19976458D01*
X29399458Y19878886D01*
X29514189Y19802225D01*
X29641672Y19749420D01*
X29777007Y19722500D01*
X29777009Y19722500D01*
X29914991Y19722500D01*
X29914993Y19722500D01*
X30050328Y19749420D01*
X30177811Y19802225D01*
X30292542Y19878886D01*
X30390114Y19976458D01*
X30466775Y20091189D01*
X30519580Y20218672D01*
X30546500Y20354007D01*
X30546500Y20491993D01*
X30519580Y20627328D01*
X30476862Y20730458D01*
X30466776Y20754809D01*
X30462732Y20760861D01*
X30390114Y20869542D01*
X30292542Y20967114D01*
X30239996Y21002224D01*
X30177808Y21043777D01*
X30050332Y21096579D01*
X30050322Y21096582D01*
X29959694Y21114609D01*
X29914993Y21123500D01*
X29777007Y21123500D01*
X29738642Y21115869D01*
X29641677Y21096582D01*
X29641667Y21096579D01*
X29514191Y21043777D01*
X29399461Y20967117D01*
X29301883Y20869539D01*
X29225223Y20754809D01*
X29172421Y20627333D01*
X29172418Y20627323D01*
X29145500Y20491992D01*
X27514784Y20491992D01*
X27523395Y20518495D01*
X27553539Y20611269D01*
X27553539Y20611271D01*
X27553542Y20611279D01*
X27588950Y20834831D01*
X27588950Y21061169D01*
X27553542Y21284721D01*
X27553539Y21284728D01*
X27553539Y21284732D01*
X27483602Y21499976D01*
X27483600Y21499979D01*
X27483600Y21499981D01*
X27385765Y21691993D01*
X39820500Y21691993D01*
X39820500Y21554007D01*
X39827412Y21519259D01*
X39847418Y21418678D01*
X39847421Y21418668D01*
X39900223Y21291192D01*
X39957724Y21205135D01*
X39976886Y21176458D01*
X40074458Y21078886D01*
X40189189Y21002225D01*
X40189190Y21002225D01*
X40189191Y21002224D01*
X40273955Y20967114D01*
X40316672Y20949420D01*
X40452007Y20922500D01*
X40452009Y20922500D01*
X40589991Y20922500D01*
X40589993Y20922500D01*
X40725328Y20949420D01*
X40852811Y21002225D01*
X40967542Y21078886D01*
X41065114Y21176458D01*
X41141775Y21291189D01*
X41194580Y21418672D01*
X41221500Y21554007D01*
X41221500Y21691993D01*
X41194580Y21827328D01*
X41176426Y21871155D01*
X41141776Y21954809D01*
X41065116Y22069539D01*
X41065114Y22069542D01*
X40967542Y22167114D01*
X40951480Y22177846D01*
X40852808Y22243777D01*
X40725332Y22296579D01*
X40725322Y22296582D01*
X40634694Y22314609D01*
X40589993Y22323500D01*
X40452007Y22323500D01*
X40413642Y22315869D01*
X40316677Y22296582D01*
X40316667Y22296579D01*
X40189191Y22243777D01*
X40074461Y22167117D01*
X39976883Y22069539D01*
X39900223Y21954809D01*
X39847421Y21827333D01*
X39847418Y21827323D01*
X39825127Y21715255D01*
X39820500Y21691993D01*
X27385765Y21691993D01*
X27380845Y21701650D01*
X27247810Y21884757D01*
X27247809Y21884758D01*
X27247807Y21884761D01*
X27087761Y22044807D01*
X27087758Y22044810D01*
X27087756Y22044811D01*
X26904650Y22177846D01*
X26702975Y22280603D01*
X26487731Y22350540D01*
X26487722Y22350542D01*
X26487721Y22350542D01*
X26342748Y22373504D01*
X26264170Y22385950D01*
X26264169Y22385950D01*
X26037831Y22385950D01*
X26037830Y22385950D01*
X25814279Y22350542D01*
X25814268Y22350540D01*
X25599024Y22280603D01*
X25397349Y22177846D01*
X25214243Y22044811D01*
X25054189Y21884757D01*
X24921154Y21701651D01*
X24818397Y21499976D01*
X24748460Y21284732D01*
X24748458Y21284721D01*
X24718659Y21096579D01*
X24713050Y21061169D01*
X24348901Y21061169D01*
X24328141Y21165536D01*
X24328140Y21165542D01*
X24328138Y21165547D01*
X24271921Y21301267D01*
X24248469Y21336365D01*
X24190301Y21423420D01*
X24086420Y21527301D01*
X24068426Y21539324D01*
X23964266Y21608922D01*
X23828546Y21665139D01*
X23828535Y21665142D01*
X23684455Y21693800D01*
X23537545Y21693800D01*
X23393464Y21665142D01*
X23393453Y21665139D01*
X23281022Y21618569D01*
X23224385Y21618569D01*
X23184337Y21658618D01*
X23184337Y21715255D01*
X23191171Y21728041D01*
X23266775Y21841189D01*
X23319580Y21968672D01*
X23346500Y22104007D01*
X23346500Y22241993D01*
X23319580Y22377328D01*
X23266775Y22504811D01*
X23190114Y22619542D01*
X23092542Y22717114D01*
X22977811Y22793775D01*
X22977810Y22793776D01*
X22977808Y22793777D01*
X22850332Y22846579D01*
X22850322Y22846582D01*
X22759694Y22864609D01*
X22714993Y22873500D01*
X22577007Y22873500D01*
X22538642Y22865869D01*
X22441677Y22846582D01*
X22441667Y22846579D01*
X22314191Y22793777D01*
X22199461Y22717117D01*
X22101883Y22619539D01*
X22025223Y22504809D01*
X21972421Y22377333D01*
X21972418Y22377323D01*
X21956358Y22296580D01*
X21945855Y22243775D01*
X21945500Y22241992D01*
X21945500Y22235276D01*
X21923826Y22182950D01*
X21871500Y22161276D01*
X21828008Y22175405D01*
X21824646Y22177848D01*
X21622975Y22280603D01*
X21407731Y22350540D01*
X21407722Y22350542D01*
X21407721Y22350542D01*
X21262748Y22373504D01*
X21184170Y22385950D01*
X21184169Y22385950D01*
X20957831Y22385950D01*
X20957830Y22385950D01*
X20734279Y22350542D01*
X20734268Y22350540D01*
X20519024Y22280603D01*
X20317349Y22177846D01*
X20134243Y22044811D01*
X19974189Y21884757D01*
X19841154Y21701651D01*
X19738397Y21499976D01*
X19668460Y21284732D01*
X19668458Y21284721D01*
X19638659Y21096579D01*
X19633050Y21061169D01*
X7275857Y21061169D01*
X7237282Y21205131D01*
X7237281Y21205135D01*
X7161515Y21336365D01*
X7054365Y21443515D01*
X7044148Y21449414D01*
X7009671Y21494348D01*
X7017065Y21550501D01*
X7026000Y21562145D01*
X7026000Y22113000D01*
X7376000Y22113000D01*
X7376000Y21563000D01*
X7834716Y21563000D01*
X7998930Y21595664D01*
X7998936Y21595666D01*
X8153626Y21659741D01*
X8292843Y21752762D01*
X8292845Y21752763D01*
X8411237Y21871155D01*
X8411238Y21871157D01*
X8504259Y22010374D01*
X8568334Y22165064D01*
X8568336Y22165070D01*
X8582842Y22238000D01*
X7996375Y22238000D01*
X8030556Y22297204D01*
X8051000Y22373504D01*
X8051000Y22452496D01*
X8030556Y22528796D01*
X7996375Y22588000D01*
X8582843Y22588000D01*
X8582842Y22588001D01*
X8568336Y22660931D01*
X8568334Y22660937D01*
X8504259Y22815627D01*
X8411238Y22954844D01*
X8292843Y23073239D01*
X8153626Y23166260D01*
X7998936Y23230335D01*
X7998930Y23230337D01*
X7834716Y23263000D01*
X7376000Y23263000D01*
X7376000Y22713000D01*
X7026000Y22713000D01*
X7026000Y23263000D01*
X6567284Y23263000D01*
X6403069Y23230337D01*
X6403063Y23230335D01*
X6248373Y23166260D01*
X6109156Y23073239D01*
X6109155Y23073237D01*
X5990763Y22954845D01*
X5990761Y22954844D01*
X5897740Y22815627D01*
X5833665Y22660937D01*
X5833663Y22660931D01*
X5819157Y22588001D01*
X4252842Y22588001D01*
X4238336Y22660931D01*
X4238334Y22660937D01*
X4174259Y22815627D01*
X4081238Y22954844D01*
X3962843Y23073239D01*
X3823626Y23166260D01*
X3668936Y23230335D01*
X3668930Y23230337D01*
X3504716Y23263000D01*
X3196000Y23263000D01*
X3196000Y22713000D01*
X2846000Y22713000D01*
X2846000Y23263000D01*
X2537284Y23263000D01*
X2373069Y23230337D01*
X2373063Y23230335D01*
X2218373Y23166260D01*
X2079156Y23073239D01*
X2079155Y23073237D01*
X1960763Y22954845D01*
X1960761Y22954844D01*
X1867740Y22815627D01*
X1803665Y22660937D01*
X1803663Y22660931D01*
X1789157Y22588001D01*
X123439Y22588001D01*
X123142Y23841992D01*
X31870500Y23841992D01*
X31870500Y23704009D01*
X31897418Y23568678D01*
X31897421Y23568668D01*
X31950223Y23441192D01*
X31950224Y23441190D01*
X31950225Y23441189D01*
X32026886Y23326458D01*
X32124458Y23228886D01*
X32239189Y23152225D01*
X32366672Y23099420D01*
X32502007Y23072500D01*
X32502009Y23072500D01*
X32639991Y23072500D01*
X32639993Y23072500D01*
X32775328Y23099420D01*
X32902811Y23152225D01*
X33017542Y23228886D01*
X33115114Y23326458D01*
X33191775Y23441189D01*
X33244580Y23568672D01*
X33271500Y23704007D01*
X33271500Y23841993D01*
X33244580Y23977328D01*
X33191775Y24104811D01*
X33115114Y24219542D01*
X33017542Y24317114D01*
X32902811Y24393775D01*
X32902810Y24393776D01*
X32902808Y24393777D01*
X32775332Y24446579D01*
X32775322Y24446582D01*
X32684694Y24464609D01*
X32639993Y24473500D01*
X32502007Y24473500D01*
X32463642Y24465869D01*
X32366677Y24446582D01*
X32366667Y24446579D01*
X32239191Y24393777D01*
X32124461Y24317117D01*
X32026883Y24219539D01*
X31950223Y24104809D01*
X31897421Y23977333D01*
X31897418Y23977323D01*
X31874945Y23864344D01*
X31871220Y23845610D01*
X31870500Y23841992D01*
X123142Y23841992D01*
X122164Y27966992D01*
X31145500Y27966992D01*
X31145500Y27829009D01*
X31172418Y27693678D01*
X31172421Y27693668D01*
X31225223Y27566192D01*
X31225224Y27566190D01*
X31225225Y27566189D01*
X31301886Y27451458D01*
X31399458Y27353886D01*
X31514189Y27277225D01*
X31641672Y27224420D01*
X31777007Y27197500D01*
X31777009Y27197500D01*
X31914991Y27197500D01*
X31914993Y27197500D01*
X32037557Y27221880D01*
X32093106Y27210831D01*
X32124572Y27163739D01*
X32113523Y27108190D01*
X32104320Y27096976D01*
X32026883Y27019539D01*
X31950223Y26904809D01*
X31897421Y26777333D01*
X31897418Y26777323D01*
X31870500Y26641992D01*
X31870500Y26504009D01*
X31897418Y26368678D01*
X31897421Y26368668D01*
X31950223Y26241192D01*
X31950224Y26241190D01*
X31950225Y26241189D01*
X32026886Y26126458D01*
X32124458Y26028886D01*
X32239189Y25952225D01*
X32366672Y25899420D01*
X32502007Y25872500D01*
X32502009Y25872500D01*
X32639991Y25872500D01*
X32639993Y25872500D01*
X32775328Y25899420D01*
X32902811Y25952225D01*
X33017542Y26028886D01*
X33115114Y26126458D01*
X33191775Y26241189D01*
X33244580Y26368672D01*
X33271500Y26504007D01*
X33271500Y26641993D01*
X33244580Y26777328D01*
X33191775Y26904811D01*
X33115114Y27019542D01*
X33017542Y27117114D01*
X32902811Y27193775D01*
X32902810Y27193776D01*
X32902808Y27193777D01*
X32775332Y27246579D01*
X32775322Y27246582D01*
X32684694Y27264609D01*
X32639993Y27273500D01*
X32502007Y27273500D01*
X32379441Y27249121D01*
X32323892Y27260171D01*
X32292427Y27307263D01*
X32303477Y27362812D01*
X32312669Y27374014D01*
X32390114Y27451458D01*
X32466775Y27566189D01*
X32519580Y27693672D01*
X32546500Y27829007D01*
X32546500Y27966993D01*
X32525800Y28071057D01*
X32536849Y28126604D01*
X32557262Y28147018D01*
X32567542Y28153886D01*
X32665114Y28251458D01*
X32741775Y28366189D01*
X32794580Y28493672D01*
X32821500Y28629007D01*
X32821500Y28766993D01*
X32794580Y28902328D01*
X32741775Y29029811D01*
X32665114Y29144542D01*
X32567542Y29242114D01*
X32452811Y29318775D01*
X32452810Y29318776D01*
X32452808Y29318777D01*
X32325332Y29371579D01*
X32325322Y29371582D01*
X32234694Y29389609D01*
X32189993Y29398500D01*
X32052007Y29398500D01*
X32013642Y29390869D01*
X31916677Y29371582D01*
X31916667Y29371579D01*
X31789191Y29318777D01*
X31674461Y29242117D01*
X31576883Y29144539D01*
X31500223Y29029809D01*
X31447421Y28902333D01*
X31447418Y28902323D01*
X31420500Y28766992D01*
X31420500Y28629008D01*
X31441199Y28524945D01*
X31430150Y28469397D01*
X31409735Y28448981D01*
X31399460Y28442116D01*
X31301883Y28344539D01*
X31225223Y28229809D01*
X31172421Y28102333D01*
X31172418Y28102323D01*
X31166199Y28071055D01*
X31146220Y27970610D01*
X31145500Y27966992D01*
X122164Y27966992D01*
X121500Y30769374D01*
X121855Y30776609D01*
X134227Y30902222D01*
X137054Y30916434D01*
X172632Y31033722D01*
X178178Y31047110D01*
X235954Y31155200D01*
X244006Y31167251D01*
X321756Y31261989D01*
X332013Y31272245D01*
X426749Y31349994D01*
X438800Y31358046D01*
X546890Y31415822D01*
X560278Y31421368D01*
X677566Y31456946D01*
X691780Y31459773D01*
X817386Y31472144D01*
X824639Y31472500D01*
X868595Y31472500D01*
X5819386Y31472500D01*
X59766278Y31465400D01*
G37*
%TD.AperFunction*%
%TD*%
%TA.AperFunction,Conductor*%
%TO.N,+3V3*%
G36*
X31437132Y1066578D02*
G01*
X31489484Y1056165D01*
X31503360Y1051957D01*
X31552688Y1031525D01*
X31565468Y1024694D01*
X31598127Y1002871D01*
X31609866Y995027D01*
X31621079Y985825D01*
X31658823Y948081D01*
X31668026Y936867D01*
X31697686Y892477D01*
X31704524Y879684D01*
X31724951Y830369D01*
X31729162Y816488D01*
X31739578Y764129D01*
X31741000Y749691D01*
X31741000Y696311D01*
X31739578Y681873D01*
X31729162Y629514D01*
X31724951Y615634D01*
X31704524Y566318D01*
X31697685Y553523D01*
X31668026Y509136D01*
X31658824Y497924D01*
X31615492Y454592D01*
X31600387Y438520D01*
X31538415Y339255D01*
X31538414Y339253D01*
X31516747Y286953D01*
X31516738Y286928D01*
X31502441Y245294D01*
X31502441Y245292D01*
X31491849Y143286D01*
X31480051Y121493D01*
X31470565Y98597D01*
X31466817Y97046D01*
X31464887Y93479D01*
X31418237Y76929D01*
X31373612Y76934D01*
X31321288Y98614D01*
X31299620Y150942D01*
X31300013Y158553D01*
X31301515Y173025D01*
X31275137Y287040D01*
X31253463Y339365D01*
X31244402Y359454D01*
X31176400Y454696D01*
X31133175Y497921D01*
X31123972Y509135D01*
X31094311Y553527D01*
X31087477Y566311D01*
X31067042Y615645D01*
X31062833Y629524D01*
X31052422Y681870D01*
X31051000Y696305D01*
X31051000Y749692D01*
X31052422Y764127D01*
X31062836Y816488D01*
X31062837Y816496D01*
X31067046Y830369D01*
X31087475Y879691D01*
X31094304Y892466D01*
X31123975Y936872D01*
X31133169Y948075D01*
X31170925Y985831D01*
X31182132Y995027D01*
X31226534Y1024696D01*
X31239309Y1031525D01*
X31288635Y1051956D01*
X31302497Y1056161D01*
X31354880Y1066580D01*
X31369309Y1068000D01*
X31422696Y1068000D01*
X31437132Y1066578D01*
G37*
%TD.AperFunction*%
%TA.AperFunction,Conductor*%
G36*
X39762132Y6516578D02*
G01*
X39814484Y6506165D01*
X39828360Y6501957D01*
X39877688Y6481525D01*
X39890468Y6474694D01*
X39923127Y6452871D01*
X39934866Y6445027D01*
X39946079Y6435825D01*
X39983823Y6398081D01*
X39993026Y6386867D01*
X40022686Y6342477D01*
X40029524Y6329684D01*
X40049951Y6280369D01*
X40054162Y6266488D01*
X40064578Y6214129D01*
X40066000Y6199691D01*
X40066000Y6146311D01*
X40064578Y6131873D01*
X40054162Y6079514D01*
X40049951Y6065633D01*
X40029524Y6016318D01*
X40022686Y6003525D01*
X39993026Y5959135D01*
X39983823Y5947921D01*
X39946079Y5910177D01*
X39934865Y5900974D01*
X39890475Y5871314D01*
X39877682Y5864476D01*
X39828367Y5844049D01*
X39814486Y5839838D01*
X39762128Y5829422D01*
X39747690Y5828000D01*
X39694309Y5828000D01*
X39679873Y5829422D01*
X39653925Y5834584D01*
X39627512Y5839838D01*
X39613631Y5844049D01*
X39564316Y5864476D01*
X39551523Y5871314D01*
X39507133Y5900974D01*
X39495919Y5910177D01*
X39458175Y5947921D01*
X39448972Y5959136D01*
X39419314Y6003524D01*
X39412476Y6016315D01*
X39412475Y6016318D01*
X39392043Y6065644D01*
X39387835Y6079520D01*
X39377422Y6131875D01*
X39376000Y6146310D01*
X39376000Y6199699D01*
X39377422Y6214134D01*
X39378181Y6217954D01*
X39387835Y6266492D01*
X39392042Y6280361D01*
X39412475Y6329690D01*
X39419304Y6342466D01*
X39448975Y6386872D01*
X39458169Y6398075D01*
X39495925Y6435831D01*
X39507132Y6445027D01*
X39551534Y6474696D01*
X39564309Y6481525D01*
X39613635Y6501956D01*
X39627497Y6506161D01*
X39679880Y6516580D01*
X39694309Y6518000D01*
X39747696Y6518000D01*
X39762132Y6516578D01*
G37*
%TD.AperFunction*%
%TA.AperFunction,Conductor*%
G36*
X16475042Y9156651D02*
G01*
X16507955Y9110559D01*
X16507955Y9110557D01*
X16516394Y9074084D01*
X16516397Y9074073D01*
X16538066Y9021758D01*
X16538071Y9021748D01*
X16547132Y9001657D01*
X16547134Y9001654D01*
X16547138Y9001647D01*
X16557502Y8987131D01*
X16559666Y8983927D01*
X16576725Y8957183D01*
X16575107Y8956101D01*
X16625958Y8879996D01*
X16626390Y8879320D01*
X16626467Y8878884D01*
X16632368Y8867843D01*
X16650911Y8823076D01*
X16655121Y8809198D01*
X16664577Y8761667D01*
X16664578Y8761665D01*
X16666000Y8747226D01*
X16666000Y8698776D01*
X16664578Y8684337D01*
X16655122Y8636805D01*
X16650911Y8622925D01*
X16632369Y8578161D01*
X16625531Y8565368D01*
X16598603Y8525067D01*
X16589400Y8513853D01*
X16555147Y8479600D01*
X16543933Y8470397D01*
X16503632Y8443469D01*
X16490838Y8436631D01*
X16446073Y8418089D01*
X16432194Y8413878D01*
X16400155Y8407505D01*
X16384662Y8404422D01*
X16370225Y8403000D01*
X16321778Y8403000D01*
X16307340Y8404422D01*
X16297336Y8406412D01*
X16259798Y8413880D01*
X16245918Y8418091D01*
X16201159Y8436631D01*
X16188367Y8443469D01*
X16148068Y8470395D01*
X16136853Y8479598D01*
X16102595Y8513856D01*
X16093392Y8525070D01*
X16066465Y8565369D01*
X16059628Y8578161D01*
X16041085Y8622926D01*
X16036875Y8636808D01*
X16027422Y8684336D01*
X16026000Y8698771D01*
X16026000Y8747232D01*
X16027422Y8761667D01*
X16027666Y8762895D01*
X16036876Y8809201D01*
X16041083Y8823071D01*
X16059631Y8867850D01*
X16066460Y8880626D01*
X16093394Y8920936D01*
X16102583Y8932133D01*
X16136864Y8966415D01*
X16148062Y8975605D01*
X16188366Y9002535D01*
X16201152Y9009369D01*
X16212527Y9014079D01*
X16273993Y9046935D01*
X16297999Y9062976D01*
X16366959Y9123243D01*
X16373086Y9133059D01*
X16419177Y9165971D01*
X16475042Y9156651D01*
G37*
%TD.AperFunction*%
%TA.AperFunction,Conductor*%
G36*
X16659665Y10216578D02*
G01*
X16707194Y10207124D01*
X16721075Y10202913D01*
X16751145Y10190458D01*
X16765839Y10184371D01*
X16778628Y10177536D01*
X16818928Y10150609D01*
X16818931Y10150607D01*
X16830145Y10141404D01*
X16864400Y10107149D01*
X16873603Y10095935D01*
X16900531Y10055634D01*
X16907369Y10042841D01*
X16925911Y9998077D01*
X16930121Y9984198D01*
X16939577Y9936667D01*
X16939578Y9936665D01*
X16941000Y9922226D01*
X16941000Y9873776D01*
X16939578Y9859337D01*
X16930122Y9811805D01*
X16925911Y9797925D01*
X16907369Y9753161D01*
X16900531Y9740368D01*
X16873603Y9700067D01*
X16864400Y9688853D01*
X16830143Y9654596D01*
X16818933Y9645396D01*
X16802604Y9634484D01*
X16802599Y9634481D01*
X16778639Y9618472D01*
X16765851Y9611636D01*
X16754485Y9606928D01*
X16754470Y9606921D01*
X16693000Y9574065D01*
X16692997Y9574064D01*
X16692997Y9574063D01*
X16668996Y9558025D01*
X16668990Y9558021D01*
X16668989Y9558019D01*
X16600036Y9497757D01*
X16593907Y9487939D01*
X16547811Y9455031D01*
X16491947Y9464357D01*
X16459040Y9510450D01*
X16450602Y9546924D01*
X16450600Y9546930D01*
X16446004Y9558025D01*
X16428927Y9599254D01*
X16419866Y9619345D01*
X16409484Y9633885D01*
X16407333Y9637072D01*
X16390272Y9663819D01*
X16391892Y9664900D01*
X16341029Y9741022D01*
X16340605Y9741687D01*
X16340528Y9742122D01*
X16334628Y9753161D01*
X16316084Y9797929D01*
X16311875Y9811808D01*
X16302422Y9859336D01*
X16301000Y9873771D01*
X16301000Y9922232D01*
X16302422Y9936667D01*
X16302666Y9937895D01*
X16311876Y9984198D01*
X16316083Y9998071D01*
X16334631Y10042850D01*
X16341460Y10055626D01*
X16368394Y10095936D01*
X16377583Y10107133D01*
X16411864Y10141415D01*
X16423066Y10150607D01*
X16463370Y10177538D01*
X16476153Y10184370D01*
X16520932Y10202918D01*
X16534801Y10207125D01*
X16569446Y10214015D01*
X16582333Y10216578D01*
X16596768Y10218000D01*
X16645228Y10218000D01*
X16659665Y10216578D01*
G37*
%TD.AperFunction*%
%TA.AperFunction,Conductor*%
G36*
X26662132Y14266578D02*
G01*
X26714484Y14256165D01*
X26728360Y14251957D01*
X26777688Y14231525D01*
X26790468Y14224694D01*
X26823127Y14202871D01*
X26834866Y14195027D01*
X26846079Y14185825D01*
X26883823Y14148081D01*
X26893026Y14136867D01*
X26922686Y14092477D01*
X26929524Y14079684D01*
X26949951Y14030369D01*
X26954162Y14016488D01*
X26964578Y13964129D01*
X26966000Y13949691D01*
X26966000Y13896311D01*
X26964578Y13881872D01*
X26954162Y13829515D01*
X26949955Y13815644D01*
X26946370Y13806986D01*
X26946366Y13806978D01*
X26929526Y13766321D01*
X26922688Y13753527D01*
X26871556Y13677004D01*
X26871544Y13676985D01*
X26853600Y13647042D01*
X26853593Y13647030D01*
X26853593Y13647029D01*
X26850955Y13642093D01*
X26850951Y13642087D01*
X26846763Y13634248D01*
X26824068Y13582134D01*
X26804807Y13466708D01*
X26804807Y13410056D01*
X26805489Y13388052D01*
X26805489Y13388046D01*
X26831866Y13274030D01*
X26831868Y13274025D01*
X26849952Y13230366D01*
X26854163Y13216486D01*
X26864578Y13164130D01*
X26866000Y13149692D01*
X26866000Y13096311D01*
X26864578Y13081873D01*
X26854162Y13029514D01*
X26849951Y13015633D01*
X26829524Y12966318D01*
X26822686Y12953525D01*
X26793026Y12909135D01*
X26783823Y12897921D01*
X26746079Y12860177D01*
X26734865Y12850974D01*
X26690475Y12821314D01*
X26677682Y12814476D01*
X26628367Y12794049D01*
X26614486Y12789838D01*
X26562128Y12779422D01*
X26547690Y12778000D01*
X26494309Y12778000D01*
X26479873Y12779422D01*
X26453925Y12784584D01*
X26427512Y12789838D01*
X26413631Y12794049D01*
X26364316Y12814476D01*
X26351523Y12821314D01*
X26307133Y12850974D01*
X26295919Y12860177D01*
X26258175Y12897921D01*
X26248972Y12909136D01*
X26219314Y12953524D01*
X26212476Y12966315D01*
X26212475Y12966318D01*
X26192043Y13015644D01*
X26187835Y13029520D01*
X26177422Y13081875D01*
X26176000Y13096310D01*
X26176000Y13149693D01*
X26177422Y13164129D01*
X26187837Y13216491D01*
X26192045Y13230366D01*
X26212478Y13279698D01*
X26219307Y13292472D01*
X26270441Y13368997D01*
X26288377Y13398920D01*
X26295215Y13411713D01*
X26317930Y13463864D01*
X26337192Y13579295D01*
X26337192Y13635932D01*
X26336509Y13657959D01*
X26310132Y13771974D01*
X26292046Y13815638D01*
X26287835Y13829520D01*
X26277422Y13881874D01*
X26276000Y13896310D01*
X26276000Y13949693D01*
X26277422Y13964129D01*
X26287837Y14016494D01*
X26292048Y14030373D01*
X26312472Y14079682D01*
X26319309Y14092473D01*
X26319312Y14092477D01*
X26348975Y14136872D01*
X26358169Y14148075D01*
X26395925Y14185831D01*
X26407132Y14195027D01*
X26451534Y14224696D01*
X26464309Y14231525D01*
X26513635Y14251956D01*
X26527497Y14256161D01*
X26579880Y14266580D01*
X26594309Y14268000D01*
X26647696Y14268000D01*
X26662132Y14266578D01*
G37*
%TD.AperFunction*%
%TA.AperFunction,Conductor*%
G36*
X37812132Y14116578D02*
G01*
X37864484Y14106165D01*
X37878360Y14101957D01*
X37927688Y14081525D01*
X37940468Y14074694D01*
X37973127Y14052871D01*
X37984866Y14045027D01*
X37996079Y14035825D01*
X38033823Y13998081D01*
X38043026Y13986867D01*
X38072686Y13942477D01*
X38079524Y13929684D01*
X38099951Y13880369D01*
X38104162Y13866488D01*
X38114578Y13814129D01*
X38116000Y13799691D01*
X38116000Y13746311D01*
X38114578Y13731873D01*
X38104162Y13679514D01*
X38099951Y13665633D01*
X38079524Y13616318D01*
X38072686Y13603525D01*
X38043026Y13559135D01*
X38033823Y13547921D01*
X37996079Y13510177D01*
X37984865Y13500974D01*
X37940475Y13471314D01*
X37927682Y13464476D01*
X37878367Y13444049D01*
X37864486Y13439838D01*
X37812128Y13429422D01*
X37797690Y13428000D01*
X37744309Y13428000D01*
X37729873Y13429422D01*
X37703968Y13434575D01*
X37677515Y13439837D01*
X37663635Y13444048D01*
X37614316Y13464476D01*
X37601521Y13471315D01*
X37557131Y13500976D01*
X37545918Y13510178D01*
X37508175Y13547921D01*
X37498972Y13559135D01*
X37469309Y13603529D01*
X37462471Y13616323D01*
X37442048Y13665630D01*
X37437837Y13679512D01*
X37427422Y13731874D01*
X37426000Y13746310D01*
X37426000Y13799693D01*
X37427422Y13814129D01*
X37427722Y13815638D01*
X37437837Y13866494D01*
X37442048Y13880373D01*
X37445631Y13889023D01*
X37462472Y13929682D01*
X37469309Y13942473D01*
X37474132Y13949691D01*
X37498975Y13986872D01*
X37508169Y13998075D01*
X37545925Y14035831D01*
X37557132Y14045027D01*
X37601534Y14074696D01*
X37614309Y14081525D01*
X37663635Y14101956D01*
X37677497Y14106161D01*
X37729880Y14116580D01*
X37744309Y14118000D01*
X37797696Y14118000D01*
X37812132Y14116578D01*
G37*
%TD.AperFunction*%
%TA.AperFunction,Conductor*%
G36*
X29862132Y17166578D02*
G01*
X29914484Y17156165D01*
X29928360Y17151957D01*
X29977688Y17131525D01*
X29990468Y17124694D01*
X30023127Y17102871D01*
X30034866Y17095027D01*
X30046079Y17085825D01*
X30083823Y17048081D01*
X30093026Y17036867D01*
X30122686Y16992477D01*
X30129524Y16979684D01*
X30149951Y16930369D01*
X30154162Y16916488D01*
X30164578Y16864129D01*
X30166000Y16849691D01*
X30166000Y16796311D01*
X30164578Y16781873D01*
X30154162Y16729514D01*
X30149951Y16715633D01*
X30129524Y16666318D01*
X30122686Y16653525D01*
X30093026Y16609135D01*
X30083823Y16597921D01*
X30046079Y16560177D01*
X30034865Y16550974D01*
X29990475Y16521314D01*
X29977682Y16514476D01*
X29928367Y16494049D01*
X29914486Y16489838D01*
X29862128Y16479422D01*
X29847690Y16478000D01*
X29794309Y16478000D01*
X29779873Y16479422D01*
X29753925Y16484584D01*
X29727512Y16489838D01*
X29713631Y16494049D01*
X29664316Y16514476D01*
X29651523Y16521314D01*
X29607133Y16550974D01*
X29595919Y16560177D01*
X29558175Y16597921D01*
X29548972Y16609135D01*
X29519309Y16653529D01*
X29512471Y16666323D01*
X29492048Y16715630D01*
X29487837Y16729512D01*
X29477422Y16781874D01*
X29476000Y16796310D01*
X29476000Y16849693D01*
X29477422Y16864129D01*
X29487837Y16916494D01*
X29492048Y16930373D01*
X29512471Y16979679D01*
X29519309Y16992473D01*
X29519312Y16992477D01*
X29548975Y17036872D01*
X29558169Y17048075D01*
X29595925Y17085831D01*
X29607132Y17095027D01*
X29651534Y17124696D01*
X29664309Y17131525D01*
X29713635Y17151956D01*
X29727497Y17156161D01*
X29779880Y17166580D01*
X29794309Y17168000D01*
X29847696Y17168000D01*
X29862132Y17166578D01*
G37*
%TD.AperFunction*%
%TA.AperFunction,Conductor*%
G36*
X40612132Y19316578D02*
G01*
X40664484Y19306165D01*
X40678360Y19301957D01*
X40727688Y19281525D01*
X40740468Y19274694D01*
X40773127Y19252871D01*
X40784866Y19245027D01*
X40796079Y19235825D01*
X40833823Y19198081D01*
X40843026Y19186867D01*
X40872686Y19142477D01*
X40879524Y19129684D01*
X40899951Y19080369D01*
X40904162Y19066488D01*
X40914578Y19014129D01*
X40916000Y18999691D01*
X40916000Y18946311D01*
X40914578Y18931873D01*
X40904162Y18879514D01*
X40899951Y18865633D01*
X40879524Y18816318D01*
X40872686Y18803525D01*
X40843026Y18759135D01*
X40833823Y18747921D01*
X40796079Y18710177D01*
X40784865Y18700974D01*
X40740475Y18671314D01*
X40727682Y18664476D01*
X40678367Y18644049D01*
X40664486Y18639838D01*
X40612128Y18629422D01*
X40597690Y18628000D01*
X40544309Y18628000D01*
X40529873Y18629422D01*
X40503925Y18634584D01*
X40477512Y18639838D01*
X40463631Y18644049D01*
X40414316Y18664476D01*
X40401523Y18671314D01*
X40357133Y18700974D01*
X40345919Y18710177D01*
X40308175Y18747921D01*
X40298972Y18759135D01*
X40269309Y18803529D01*
X40262471Y18816323D01*
X40242048Y18865630D01*
X40237837Y18879512D01*
X40227422Y18931874D01*
X40226000Y18946310D01*
X40226000Y18999693D01*
X40227422Y19014129D01*
X40237837Y19066494D01*
X40242048Y19080373D01*
X40262471Y19129679D01*
X40269309Y19142473D01*
X40269312Y19142477D01*
X40298975Y19186872D01*
X40308169Y19198075D01*
X40345925Y19235831D01*
X40357132Y19245027D01*
X40401534Y19274696D01*
X40414309Y19281525D01*
X40463635Y19301956D01*
X40477497Y19306161D01*
X40529880Y19316580D01*
X40544309Y19318000D01*
X40597696Y19318000D01*
X40612132Y19316578D01*
G37*
%TD.AperFunction*%
%TA.AperFunction,Conductor*%
G36*
X29887132Y20766578D02*
G01*
X29939484Y20756165D01*
X29953360Y20751957D01*
X30002688Y20731525D01*
X30015468Y20724694D01*
X30048127Y20702871D01*
X30059866Y20695027D01*
X30071079Y20685825D01*
X30108822Y20648082D01*
X30118024Y20636869D01*
X30147685Y20592479D01*
X30154524Y20579684D01*
X30174952Y20530366D01*
X30179163Y20516486D01*
X30189578Y20464130D01*
X30191000Y20449693D01*
X30191000Y20396311D01*
X30189578Y20381873D01*
X30179162Y20329514D01*
X30174951Y20315633D01*
X30154524Y20266318D01*
X30147686Y20253525D01*
X30118026Y20209135D01*
X30108823Y20197921D01*
X30071079Y20160177D01*
X30059865Y20150974D01*
X30015475Y20121314D01*
X30002682Y20114476D01*
X29953367Y20094049D01*
X29939486Y20089838D01*
X29887128Y20079422D01*
X29872690Y20078000D01*
X29819309Y20078000D01*
X29804873Y20079422D01*
X29778925Y20084584D01*
X29752512Y20089838D01*
X29738631Y20094049D01*
X29689316Y20114476D01*
X29676523Y20121314D01*
X29632133Y20150974D01*
X29620919Y20160177D01*
X29583175Y20197921D01*
X29573972Y20209135D01*
X29544309Y20253529D01*
X29537471Y20266323D01*
X29517048Y20315630D01*
X29512837Y20329512D01*
X29502422Y20381874D01*
X29501000Y20396310D01*
X29501000Y20449693D01*
X29502422Y20464129D01*
X29512837Y20516491D01*
X29517048Y20530373D01*
X29537471Y20579679D01*
X29544309Y20592473D01*
X29544313Y20592479D01*
X29573975Y20636872D01*
X29583169Y20648075D01*
X29620925Y20685831D01*
X29632132Y20695027D01*
X29676534Y20724696D01*
X29689309Y20731525D01*
X29738635Y20751956D01*
X29752497Y20756161D01*
X29804880Y20766580D01*
X29819309Y20768000D01*
X29872696Y20768000D01*
X29887132Y20766578D01*
G37*
%TD.AperFunction*%
%TA.AperFunction,Conductor*%
G36*
X40562132Y21966578D02*
G01*
X40614484Y21956165D01*
X40628360Y21951957D01*
X40677688Y21931525D01*
X40690468Y21924694D01*
X40713386Y21909380D01*
X40734866Y21895027D01*
X40746079Y21885825D01*
X40783822Y21848082D01*
X40793024Y21836869D01*
X40822685Y21792479D01*
X40829524Y21779684D01*
X40849952Y21730366D01*
X40854163Y21716486D01*
X40864578Y21664130D01*
X40866000Y21649692D01*
X40866000Y21596311D01*
X40864578Y21581873D01*
X40854162Y21529514D01*
X40849951Y21515633D01*
X40829524Y21466318D01*
X40822686Y21453525D01*
X40793026Y21409135D01*
X40783823Y21397921D01*
X40746079Y21360177D01*
X40734865Y21350974D01*
X40694302Y21323871D01*
X40638754Y21312822D01*
X40585069Y21323500D01*
X40456931Y21323500D01*
X40456930Y21323500D01*
X40403245Y21312823D01*
X40403245Y21312822D01*
X40403244Y21312823D01*
X40403243Y21312822D01*
X40347696Y21323871D01*
X40318293Y21343518D01*
X40307131Y21350976D01*
X40295918Y21360178D01*
X40258175Y21397921D01*
X40248973Y21409134D01*
X40241129Y21420873D01*
X40219306Y21453532D01*
X40212475Y21466312D01*
X40192043Y21515640D01*
X40187835Y21529516D01*
X40177422Y21581869D01*
X40176000Y21596305D01*
X40176000Y21649692D01*
X40177422Y21664127D01*
X40178422Y21669157D01*
X40187837Y21716496D01*
X40192045Y21730366D01*
X40212478Y21779695D01*
X40219304Y21792466D01*
X40248975Y21836872D01*
X40258169Y21848075D01*
X40295925Y21885831D01*
X40307132Y21895027D01*
X40351534Y21924696D01*
X40364309Y21931525D01*
X40413635Y21951956D01*
X40427497Y21956161D01*
X40479880Y21966580D01*
X40494309Y21968000D01*
X40547696Y21968000D01*
X40562132Y21966578D01*
G37*
%TD.AperFunction*%
%TA.AperFunction,Conductor*%
G36*
X22687132Y22516578D02*
G01*
X22739484Y22506165D01*
X22753360Y22501957D01*
X22802688Y22481525D01*
X22815468Y22474694D01*
X22848127Y22452871D01*
X22859866Y22445027D01*
X22871079Y22435825D01*
X22908823Y22398081D01*
X22918026Y22386867D01*
X22947686Y22342477D01*
X22954524Y22329684D01*
X22974951Y22280369D01*
X22979162Y22266488D01*
X22989578Y22214129D01*
X22991000Y22199691D01*
X22991000Y22146311D01*
X22989578Y22131873D01*
X22979162Y22079513D01*
X22974951Y22065632D01*
X22954524Y22016317D01*
X22947686Y22003525D01*
X22895585Y21925549D01*
X22885212Y21908244D01*
X22846208Y21876453D01*
X22842369Y21875109D01*
X22810621Y21867763D01*
X22751481Y21843268D01*
X22749510Y21842577D01*
X22748669Y21842624D01*
X22739482Y21839837D01*
X22687128Y21829422D01*
X22672690Y21828000D01*
X22619307Y21828000D01*
X22604872Y21829422D01*
X22601641Y21830065D01*
X22594347Y21831516D01*
X22594335Y21831517D01*
X22504064Y21837731D01*
X22466755Y21835530D01*
X22357093Y21811291D01*
X22357090Y21811290D01*
X22320649Y21789371D01*
X22295582Y21785614D01*
X22270932Y21779695D01*
X22268017Y21781481D01*
X22264638Y21780974D01*
X22222643Y21809286D01*
X22187772Y21857282D01*
X22174551Y21912351D01*
X22188344Y21941625D01*
X22187050Y21942432D01*
X22233170Y22016317D01*
X22252265Y22046907D01*
X22273939Y22099233D01*
X22281738Y22119845D01*
X22284828Y22138368D01*
X22285532Y22142012D01*
X22292327Y22173007D01*
X22294170Y22172640D01*
X22312979Y22267209D01*
X22313132Y22267902D01*
X22313367Y22268241D01*
X22317048Y22280373D01*
X22337471Y22329679D01*
X22344309Y22342473D01*
X22344312Y22342477D01*
X22373975Y22386872D01*
X22383169Y22398075D01*
X22420925Y22435831D01*
X22432132Y22445027D01*
X22476534Y22474696D01*
X22489309Y22481525D01*
X22538635Y22501956D01*
X22552497Y22506161D01*
X22604880Y22516580D01*
X22619309Y22518000D01*
X22672696Y22518000D01*
X22687132Y22516578D01*
G37*
%TD.AperFunction*%
%TA.AperFunction,Conductor*%
G36*
X32612132Y24116578D02*
G01*
X32664484Y24106165D01*
X32678360Y24101957D01*
X32727688Y24081525D01*
X32740468Y24074694D01*
X32773127Y24052871D01*
X32784866Y24045027D01*
X32796079Y24035825D01*
X32833823Y23998081D01*
X32843026Y23986867D01*
X32872686Y23942477D01*
X32879524Y23929684D01*
X32899951Y23880369D01*
X32904162Y23866488D01*
X32914578Y23814129D01*
X32916000Y23799691D01*
X32916000Y23746311D01*
X32914578Y23731873D01*
X32904162Y23679514D01*
X32899951Y23665633D01*
X32879524Y23616318D01*
X32872686Y23603525D01*
X32843026Y23559135D01*
X32833823Y23547921D01*
X32796079Y23510177D01*
X32784865Y23500974D01*
X32740475Y23471314D01*
X32727682Y23464476D01*
X32678367Y23444049D01*
X32664486Y23439838D01*
X32612128Y23429422D01*
X32597690Y23428000D01*
X32544309Y23428000D01*
X32529873Y23429422D01*
X32503925Y23434584D01*
X32477512Y23439838D01*
X32463631Y23444049D01*
X32414316Y23464476D01*
X32401523Y23471314D01*
X32357133Y23500974D01*
X32345919Y23510177D01*
X32308175Y23547921D01*
X32298972Y23559136D01*
X32269314Y23603524D01*
X32262476Y23616315D01*
X32262475Y23616318D01*
X32242043Y23665644D01*
X32237835Y23679520D01*
X32227422Y23731875D01*
X32226000Y23746310D01*
X32226000Y23799699D01*
X32227422Y23814134D01*
X32228181Y23817954D01*
X32237835Y23866492D01*
X32242042Y23880361D01*
X32262475Y23929690D01*
X32269304Y23942466D01*
X32298975Y23986872D01*
X32308169Y23998075D01*
X32345925Y24035831D01*
X32357132Y24045027D01*
X32401534Y24074696D01*
X32414309Y24081525D01*
X32463635Y24101956D01*
X32477497Y24106161D01*
X32529880Y24116580D01*
X32544309Y24118000D01*
X32597696Y24118000D01*
X32612132Y24116578D01*
G37*
%TD.AperFunction*%
%TA.AperFunction,Conductor*%
G36*
X32612132Y26916578D02*
G01*
X32664484Y26906165D01*
X32678360Y26901957D01*
X32727688Y26881525D01*
X32740468Y26874694D01*
X32773127Y26852871D01*
X32784866Y26845027D01*
X32796079Y26835825D01*
X32833823Y26798081D01*
X32843026Y26786867D01*
X32872686Y26742477D01*
X32879524Y26729684D01*
X32899951Y26680369D01*
X32904162Y26666488D01*
X32914578Y26614129D01*
X32916000Y26599691D01*
X32916000Y26546311D01*
X32914578Y26531873D01*
X32904162Y26479514D01*
X32899951Y26465633D01*
X32879524Y26416318D01*
X32872686Y26403525D01*
X32843026Y26359135D01*
X32833823Y26347921D01*
X32796079Y26310177D01*
X32784865Y26300974D01*
X32740475Y26271314D01*
X32727682Y26264476D01*
X32678367Y26244049D01*
X32664486Y26239838D01*
X32612128Y26229422D01*
X32597690Y26228000D01*
X32544309Y26228000D01*
X32529873Y26229422D01*
X32503925Y26234584D01*
X32477512Y26239838D01*
X32463631Y26244049D01*
X32414316Y26264476D01*
X32401523Y26271314D01*
X32357133Y26300974D01*
X32345919Y26310177D01*
X32308175Y26347921D01*
X32298972Y26359136D01*
X32269314Y26403524D01*
X32262476Y26416315D01*
X32262475Y26416318D01*
X32242043Y26465644D01*
X32237835Y26479520D01*
X32227422Y26531875D01*
X32226000Y26546310D01*
X32226000Y26599693D01*
X32227422Y26614129D01*
X32237837Y26666494D01*
X32242048Y26680373D01*
X32262471Y26729679D01*
X32262472Y26729680D01*
X32269309Y26742473D01*
X32298973Y26786867D01*
X32298973Y26786870D01*
X32308171Y26798077D01*
X32355696Y26845600D01*
X32379126Y26871451D01*
X32380398Y26873002D01*
X32425347Y26899046D01*
X32430295Y26899878D01*
X32448793Y26900451D01*
X32530972Y26916797D01*
X32532044Y26916977D01*
X32532607Y26916848D01*
X32544308Y26918000D01*
X32597696Y26918000D01*
X32612132Y26916578D01*
G37*
%TD.AperFunction*%
%TA.AperFunction,Conductor*%
G36*
X32162132Y29041578D02*
G01*
X32214484Y29031165D01*
X32228360Y29026957D01*
X32277688Y29006525D01*
X32290468Y28999694D01*
X32323127Y28977871D01*
X32334866Y28970027D01*
X32346079Y28960825D01*
X32383823Y28923081D01*
X32393026Y28911867D01*
X32422686Y28867477D01*
X32429524Y28854684D01*
X32449951Y28805369D01*
X32454162Y28791488D01*
X32464578Y28739129D01*
X32466000Y28724691D01*
X32466000Y28671311D01*
X32464578Y28656873D01*
X32454162Y28604514D01*
X32449951Y28590633D01*
X32429524Y28541318D01*
X32422686Y28528525D01*
X32393026Y28484135D01*
X32383823Y28472921D01*
X32327477Y28416575D01*
X32322098Y28411700D01*
X32305889Y28398397D01*
X32305886Y28398395D01*
X32285459Y28377967D01*
X32285456Y28377963D01*
X32229591Y28305416D01*
X32229588Y28305410D01*
X32188180Y28195960D01*
X32188179Y28195960D01*
X32177132Y28140422D01*
X32173502Y28118670D01*
X32177129Y28001715D01*
X32177131Y28001700D01*
X32189578Y27939128D01*
X32191000Y27924691D01*
X32191000Y27871311D01*
X32189578Y27856873D01*
X32179162Y27804514D01*
X32174951Y27790634D01*
X32154524Y27741318D01*
X32147685Y27728523D01*
X32118026Y27684136D01*
X32108824Y27672924D01*
X32061305Y27625405D01*
X32037839Y27599512D01*
X32036578Y27597975D01*
X31991650Y27571955D01*
X31986700Y27571124D01*
X31968201Y27570549D01*
X31886024Y27554203D01*
X31884955Y27554023D01*
X31884391Y27554153D01*
X31872690Y27553000D01*
X31819309Y27553000D01*
X31804873Y27554422D01*
X31778925Y27559584D01*
X31752512Y27564838D01*
X31738631Y27569049D01*
X31689316Y27589476D01*
X31676523Y27596314D01*
X31632133Y27625974D01*
X31620919Y27635177D01*
X31583175Y27672921D01*
X31573972Y27684136D01*
X31544314Y27728524D01*
X31537476Y27741315D01*
X31537475Y27741318D01*
X31517043Y27790644D01*
X31512835Y27804520D01*
X31502422Y27856875D01*
X31501000Y27871310D01*
X31501000Y27924693D01*
X31502422Y27939129D01*
X31512837Y27991491D01*
X31517048Y28005373D01*
X31537471Y28054679D01*
X31537472Y28054680D01*
X31544309Y28067473D01*
X31573975Y28111872D01*
X31583169Y28123075D01*
X31639532Y28179438D01*
X31644906Y28184307D01*
X31661114Y28197608D01*
X31661118Y28197611D01*
X31681533Y28218027D01*
X31737408Y28290589D01*
X31778819Y28400044D01*
X31789868Y28455592D01*
X31793496Y28477328D01*
X31791720Y28534583D01*
X31789869Y28594285D01*
X31789867Y28594303D01*
X31777422Y28656870D01*
X31776000Y28671306D01*
X31776000Y28724693D01*
X31777422Y28739129D01*
X31787837Y28791494D01*
X31792048Y28805373D01*
X31812471Y28854679D01*
X31819309Y28867473D01*
X31819312Y28867477D01*
X31848975Y28911872D01*
X31858169Y28923075D01*
X31895925Y28960831D01*
X31907132Y28970027D01*
X31951534Y28999696D01*
X31964309Y29006525D01*
X32013635Y29026956D01*
X32027497Y29031161D01*
X32079880Y29041580D01*
X32094309Y29043000D01*
X32147696Y29043000D01*
X32162132Y29041578D01*
G37*
%TD.AperFunction*%
%TD*%
M02*
