%TF.GenerationSoftware,KiCad,Pcbnew,9.0.2*%
%TF.CreationDate,2025-06-08T15:41:30-05:00*%
%TF.ProjectId,STM32,53544d33-322e-46b6-9963-61645f706362,rev?*%
%TF.SameCoordinates,PX218c9f8PY54a9188*%
%TF.FileFunction,Soldermask,Bot*%
%TF.FilePolarity,Negative*%
%FSLAX46Y46*%
G04 Gerber Fmt 4.6, Leading zero omitted, Abs format (unit mm)*
G04 Created by KiCad (PCBNEW 9.0.2) date 2025-06-08 15:41:30*
%MOMM*%
%LPD*%
G01*
G04 APERTURE LIST*
%ADD10O,1.800000X1.000000*%
%ADD11O,2.100000X1.000000*%
%ADD12C,0.650000*%
%ADD13C,0.700000*%
%ADD14C,4.400000*%
%ADD15C,2.374900*%
%ADD16C,0.990600*%
G04 APERTURE END LIST*
D10*
%TO.C,J1*%
X3021000Y13773000D03*
D11*
X7201000Y13773000D03*
D10*
X3021000Y22413000D03*
D11*
X7201000Y22413000D03*
D12*
X6701000Y15203000D03*
X6701000Y20983000D03*
%TD*%
D13*
%TO.C,H1*%
X2337726Y27939726D03*
X2821000Y29106452D03*
X2821000Y26773000D03*
X3987726Y29589726D03*
D14*
X3987726Y27939726D03*
D13*
X3987726Y26289726D03*
X5154452Y29106452D03*
X5154452Y26773000D03*
X5637726Y27939726D03*
%TD*%
%TO.C,H3*%
X55171000Y27773000D03*
X55654274Y28939726D03*
X55654274Y26606274D03*
X56821000Y29423000D03*
D14*
X56821000Y27773000D03*
D13*
X56821000Y26123000D03*
X57987726Y28939726D03*
X57987726Y26606274D03*
X58471000Y27773000D03*
%TD*%
D15*
%TO.C,J3*%
X26151000Y20948000D03*
D16*
X23611000Y20948000D03*
D15*
X21071000Y20948000D03*
X26151000Y17773000D03*
X21071000Y17773000D03*
D16*
X24627000Y15868000D03*
X22595000Y15868000D03*
%TD*%
D13*
%TO.C,H2*%
X2254274Y3439726D03*
X2737548Y4606452D03*
X2737548Y2273000D03*
X3904274Y5089726D03*
D14*
X3904274Y3439726D03*
D13*
X3904274Y1789726D03*
X5071000Y4606452D03*
X5071000Y2273000D03*
X5554274Y3439726D03*
%TD*%
%TO.C,H4*%
X55421000Y3523000D03*
X55904274Y4689726D03*
X55904274Y2356274D03*
X57071000Y5173000D03*
D14*
X57071000Y3523000D03*
D13*
X57071000Y1873000D03*
X58237726Y4689726D03*
X58237726Y2356274D03*
X58721000Y3523000D03*
%TD*%
M02*
