%TF.GenerationSoftware,KiCad,Pcbnew,9.0.2*%
%TF.CreationDate,2025-06-08T15:41:30-05:00*%
%TF.ProjectId,STM32,53544d33-322e-46b6-9963-61645f706362,rev?*%
%TF.SameCoordinates,PX218c9f8PY54a9188*%
%TF.FileFunction,Copper,L1,Top*%
%TF.FilePolarity,Positive*%
%FSLAX46Y46*%
G04 Gerber Fmt 4.6, Leading zero omitted, Abs format (unit mm)*
G04 Created by KiCad (PCBNEW 9.0.2) date 2025-06-08 15:41:30*
%MOMM*%
%LPD*%
G01*
G04 APERTURE LIST*
G04 Aperture macros list*
%AMRoundRect*
0 Rectangle with rounded corners*
0 $1 Rounding radius*
0 $2 $3 $4 $5 $6 $7 $8 $9 X,Y pos of 4 corners*
0 Add a 4 corners polygon primitive as box body*
4,1,4,$2,$3,$4,$5,$6,$7,$8,$9,$2,$3,0*
0 Add four circle primitives for the rounded corners*
1,1,$1+$1,$2,$3*
1,1,$1+$1,$4,$5*
1,1,$1+$1,$6,$7*
1,1,$1+$1,$8,$9*
0 Add four rect primitives between the rounded corners*
20,1,$1+$1,$2,$3,$4,$5,0*
20,1,$1+$1,$4,$5,$6,$7,0*
20,1,$1+$1,$6,$7,$8,$9,0*
20,1,$1+$1,$8,$9,$2,$3,0*%
G04 Aperture macros list end*
%TA.AperFunction,SMDPad,CuDef*%
%ADD10RoundRect,0.150000X-0.350000X0.150000X-0.350000X-0.150000X0.350000X-0.150000X0.350000X0.150000X0*%
%TD*%
%TA.AperFunction,HeatsinkPad*%
%ADD11O,1.800000X1.000000*%
%TD*%
%TA.AperFunction,HeatsinkPad*%
%ADD12O,2.100000X1.000000*%
%TD*%
%TA.AperFunction,SMDPad,CuDef*%
%ADD13RoundRect,0.150000X-0.425000X0.150000X-0.425000X-0.150000X0.425000X-0.150000X0.425000X0.150000X0*%
%TD*%
%TA.AperFunction,SMDPad,CuDef*%
%ADD14RoundRect,0.075000X-0.500000X0.075000X-0.500000X-0.075000X0.500000X-0.075000X0.500000X0.075000X0*%
%TD*%
%TA.AperFunction,SMDPad,CuDef*%
%ADD15RoundRect,0.140000X-0.170000X0.140000X-0.170000X-0.140000X0.170000X-0.140000X0.170000X0.140000X0*%
%TD*%
%TA.AperFunction,SMDPad,CuDef*%
%ADD16C,1.000000*%
%TD*%
%TA.AperFunction,SMDPad,CuDef*%
%ADD17RoundRect,0.135000X0.185000X-0.135000X0.185000X0.135000X-0.185000X0.135000X-0.185000X-0.135000X0*%
%TD*%
%TA.AperFunction,SMDPad,CuDef*%
%ADD18RoundRect,0.140000X0.140000X0.170000X-0.140000X0.170000X-0.140000X-0.170000X0.140000X-0.170000X0*%
%TD*%
%TA.AperFunction,SMDPad,CuDef*%
%ADD19RoundRect,0.150000X-0.150000X0.512500X-0.150000X-0.512500X0.150000X-0.512500X0.150000X0.512500X0*%
%TD*%
%TA.AperFunction,SMDPad,CuDef*%
%ADD20RoundRect,0.150000X0.150000X0.400000X-0.150000X0.400000X-0.150000X-0.400000X0.150000X-0.400000X0*%
%TD*%
%TA.AperFunction,SMDPad,CuDef*%
%ADD21RoundRect,0.147500X0.172500X-0.147500X0.172500X0.147500X-0.172500X0.147500X-0.172500X-0.147500X0*%
%TD*%
%TA.AperFunction,SMDPad,CuDef*%
%ADD22RoundRect,0.135000X-0.185000X0.135000X-0.185000X-0.135000X0.185000X-0.135000X0.185000X0.135000X0*%
%TD*%
%TA.AperFunction,SMDPad,CuDef*%
%ADD23RoundRect,0.062500X0.062500X-0.375000X0.062500X0.375000X-0.062500X0.375000X-0.062500X-0.375000X0*%
%TD*%
%TA.AperFunction,SMDPad,CuDef*%
%ADD24RoundRect,0.062500X0.375000X-0.062500X0.375000X0.062500X-0.375000X0.062500X-0.375000X-0.062500X0*%
%TD*%
%TA.AperFunction,HeatsinkPad*%
%ADD25R,5.600000X5.600000*%
%TD*%
%TA.AperFunction,SMDPad,CuDef*%
%ADD26RoundRect,0.135000X-0.135000X-0.185000X0.135000X-0.185000X0.135000X0.185000X-0.135000X0.185000X0*%
%TD*%
%TA.AperFunction,SMDPad,CuDef*%
%ADD27RoundRect,0.225000X0.225000X0.250000X-0.225000X0.250000X-0.225000X-0.250000X0.225000X-0.250000X0*%
%TD*%
%TA.AperFunction,ComponentPad*%
%ADD28C,0.700000*%
%TD*%
%TA.AperFunction,ComponentPad*%
%ADD29C,4.400000*%
%TD*%
%TA.AperFunction,SMDPad,CuDef*%
%ADD30RoundRect,0.068750X-0.068750X-0.281250X0.068750X-0.281250X0.068750X0.281250X-0.068750X0.281250X0*%
%TD*%
%TA.AperFunction,SMDPad,CuDef*%
%ADD31RoundRect,0.061250X-0.163750X-0.061250X0.163750X-0.061250X0.163750X0.061250X-0.163750X0.061250X0*%
%TD*%
%TA.AperFunction,SMDPad,CuDef*%
%ADD32R,1.500000X1.500000*%
%TD*%
%TA.AperFunction,SMDPad,CuDef*%
%ADD33RoundRect,0.147500X-0.147500X-0.172500X0.147500X-0.172500X0.147500X0.172500X-0.147500X0.172500X0*%
%TD*%
%TA.AperFunction,SMDPad,CuDef*%
%ADD34RoundRect,0.218750X-0.218750X-0.381250X0.218750X-0.381250X0.218750X0.381250X-0.218750X0.381250X0*%
%TD*%
%TA.AperFunction,SMDPad,CuDef*%
%ADD35RoundRect,0.200000X0.200000X-0.250000X0.200000X0.250000X-0.200000X0.250000X-0.200000X-0.250000X0*%
%TD*%
%TA.AperFunction,SMDPad,CuDef*%
%ADD36RoundRect,0.250000X-0.275000X-0.250000X0.275000X-0.250000X0.275000X0.250000X-0.275000X0.250000X0*%
%TD*%
%TA.AperFunction,SMDPad,CuDef*%
%ADD37RoundRect,0.250000X-0.850000X-0.275000X0.850000X-0.275000X0.850000X0.275000X-0.850000X0.275000X0*%
%TD*%
%TA.AperFunction,SMDPad,CuDef*%
%ADD38RoundRect,0.150000X-0.512500X-0.150000X0.512500X-0.150000X0.512500X0.150000X-0.512500X0.150000X0*%
%TD*%
%TA.AperFunction,SMDPad,CuDef*%
%ADD39RoundRect,0.135000X0.135000X0.185000X-0.135000X0.185000X-0.135000X-0.185000X0.135000X-0.185000X0*%
%TD*%
%TA.AperFunction,ConnectorPad*%
%ADD40C,0.787400*%
%TD*%
%TA.AperFunction,SMDPad,CuDef*%
%ADD41RoundRect,0.225000X-0.250000X0.225000X-0.250000X-0.225000X0.250000X-0.225000X0.250000X0.225000X0*%
%TD*%
%TA.AperFunction,SMDPad,CuDef*%
%ADD42RoundRect,0.150000X-0.150000X-0.700000X0.150000X-0.700000X0.150000X0.700000X-0.150000X0.700000X0*%
%TD*%
%TA.AperFunction,SMDPad,CuDef*%
%ADD43RoundRect,0.250000X-0.250000X-1.100000X0.250000X-1.100000X0.250000X1.100000X-0.250000X1.100000X0*%
%TD*%
%TA.AperFunction,ViaPad*%
%ADD44C,0.900000*%
%TD*%
%TA.AperFunction,ViaPad*%
%ADD45C,0.700000*%
%TD*%
%TA.AperFunction,ViaPad*%
%ADD46C,0.650000*%
%TD*%
%TA.AperFunction,Conductor*%
%ADD47C,0.200000*%
%TD*%
%TA.AperFunction,Conductor*%
%ADD48C,0.250000*%
%TD*%
%TA.AperFunction,Conductor*%
%ADD49C,0.220000*%
%TD*%
%TA.AperFunction,Conductor*%
%ADD50C,0.500000*%
%TD*%
%TA.AperFunction,Conductor*%
%ADD51C,0.190000*%
%TD*%
G04 APERTURE END LIST*
D10*
%TO.P,J1,B12,GND*%
%TO.N,GND*%
X7921000Y21293000D03*
D11*
%TO.P,J1,S1,SHIELD*%
X3021000Y13773000D03*
D12*
X7201000Y13773000D03*
D11*
X3021000Y22413000D03*
D12*
X7201000Y22413000D03*
D13*
%TO.P,J1,B9,VBUS*%
%TO.N,+5V*%
X7776000Y20493000D03*
D14*
%TO.P,J1,B8,SBU2*%
%TO.N,unconnected-(J1-SBU2-PadB8)*%
X7776000Y19843000D03*
%TO.P,J1,B7,D-*%
%TO.N,Net-(J1-D--PadA7)*%
X7776000Y18843000D03*
%TO.P,J1,B6,D+*%
%TO.N,Net-(J1-D+-PadA6)*%
X7776000Y17343000D03*
%TO.P,J1,B5,CC2*%
%TO.N,Net-(J1-CC2)*%
X7776000Y16343000D03*
D13*
%TO.P,J1,B4,VBUS*%
%TO.N,+5V*%
X7776000Y15693000D03*
D10*
%TO.P,J1,B1,GND*%
%TO.N,GND*%
X7926000Y14893000D03*
%TO.P,J1,A12,GND*%
X7926000Y14893000D03*
D13*
%TO.P,J1,A9,VBUS*%
%TO.N,+5V*%
X7776000Y15693000D03*
D14*
%TO.P,J1,A8,SBU1*%
%TO.N,unconnected-(J1-SBU1-PadA8)*%
X7776000Y16843000D03*
%TO.P,J1,A7,D-*%
%TO.N,Net-(J1-D--PadA7)*%
X7776000Y17843000D03*
%TO.P,J1,A6,D+*%
%TO.N,Net-(J1-D+-PadA6)*%
X7776000Y18343000D03*
%TO.P,J1,A5,CC1*%
%TO.N,Net-(J1-CC1)*%
X7776000Y19343000D03*
D13*
%TO.P,J1,A4,VBUS*%
%TO.N,+5V*%
X7776000Y20493000D03*
D10*
%TO.P,J1,A1,GND*%
%TO.N,GND*%
X7871000Y21293000D03*
%TD*%
D15*
%TO.P,C18,2*%
%TO.N,GND*%
X30071000Y11613000D03*
%TO.P,C18,1*%
%TO.N,/LSC_IN*%
X30071000Y12573000D03*
%TD*%
D16*
%TO.P,FM2,*%
%TO.N,*%
X53071000Y27773000D03*
%TD*%
D17*
%TO.P,R4,1*%
%TO.N,/UART_RXC*%
X40321000Y12003000D03*
%TO.P,R4,2*%
%TO.N,/UART_RX*%
X40321000Y13023000D03*
%TD*%
D18*
%TO.P,C7,1*%
%TO.N,+3V3*%
X32551000Y25773000D03*
%TO.P,C7,2*%
%TO.N,GND*%
X31591000Y25773000D03*
%TD*%
D19*
%TO.P,U1,1,VIN*%
%TO.N,+5V*%
X15658500Y12798000D03*
%TO.P,U1,2,GND*%
%TO.N,GND*%
X14708500Y12798000D03*
%TO.P,U1,3,EN*%
%TO.N,+5V*%
X13758500Y12798000D03*
%TO.P,U1,4,NC*%
%TO.N,unconnected-(U1-NC-Pad4)*%
X13758500Y10523000D03*
%TO.P,U1,5,VOUT*%
%TO.N,+3V3*%
X15658500Y10523000D03*
%TD*%
D20*
%TO.P,X1,1,1*%
%TO.N,/LSC_OUT*%
X32971000Y12523000D03*
%TO.P,X1,2,2*%
%TO.N,/LSC_IN*%
X31571000Y12523000D03*
%TD*%
D21*
%TO.P,D1,1,K*%
%TO.N,/LED_K*%
X43321000Y11773000D03*
%TO.P,D1,2,A*%
%TO.N,Net-(D1-A)*%
X43321000Y12743000D03*
%TD*%
D22*
%TO.P,R7,1*%
%TO.N,/BOOT0*%
X20561000Y6033000D03*
%TO.P,R7,2*%
%TO.N,Net-(R7-Pad2)*%
X20561000Y5013000D03*
%TD*%
D23*
%TO.P,U3,1,VBAT*%
%TO.N,+3V3*%
X32071000Y15335500D03*
%TO.P,U3,2,PC14*%
%TO.N,/LSC_IN*%
X32571000Y15335500D03*
%TO.P,U3,3,PC15*%
%TO.N,/LSC_OUT*%
X33071000Y15335500D03*
%TO.P,U3,4,PH3*%
%TO.N,/BOOT0*%
X33571000Y15335500D03*
%TO.P,U3,5,PB8*%
%TO.N,unconnected-(U3-PB8-Pad5)*%
X34071000Y15335500D03*
%TO.P,U3,6,PB9*%
%TO.N,unconnected-(U3-PB9-Pad6)*%
X34571000Y15335500D03*
%TO.P,U3,7,NRST*%
%TO.N,/SWD_NRST*%
X35071000Y15335500D03*
%TO.P,U3,8,VDDA*%
%TO.N,+3V3*%
X35571000Y15335500D03*
%TO.P,U3,9,PA0*%
%TO.N,unconnected-(U3-PA0-Pad9)*%
X36071000Y15335500D03*
%TO.P,U3,10,PA1*%
%TO.N,unconnected-(U3-PA1-Pad10)*%
X36571000Y15335500D03*
%TO.P,U3,11,PA2*%
%TO.N,/UART_TX*%
X37071000Y15335500D03*
%TO.P,U3,12,PA3*%
%TO.N,/UART_RX*%
X37571000Y15335500D03*
D24*
%TO.P,U3,13,PA4*%
%TO.N,unconnected-(U3-PA4-Pad13)*%
X38258500Y16023000D03*
%TO.P,U3,14,PA5*%
%TO.N,unconnected-(U3-PA5-Pad14)*%
X38258500Y16523000D03*
%TO.P,U3,15,PA6*%
%TO.N,unconnected-(U3-PA6-Pad15)*%
X38258500Y17023000D03*
%TO.P,U3,16,PA7*%
%TO.N,Net-(D1-A)*%
X38258500Y17523000D03*
%TO.P,U3,17,PA8*%
%TO.N,unconnected-(U3-PA8-Pad17)*%
X38258500Y18023000D03*
%TO.P,U3,18,PA9*%
%TO.N,unconnected-(U3-PA9-Pad18)*%
X38258500Y18523000D03*
%TO.P,U3,19,PB2*%
%TO.N,unconnected-(U3-PB2-Pad19)*%
X38258500Y19023000D03*
%TO.P,U3,20,VDD*%
%TO.N,+3V3*%
X38258500Y19523000D03*
%TO.P,U3,21,RF1*%
%TO.N,/RF*%
X38258500Y20023000D03*
%TO.P,U3,22,VSSRF*%
%TO.N,GND*%
X38258500Y20523000D03*
%TO.P,U3,23,VDDRF*%
%TO.N,+3V3*%
X38258500Y21023000D03*
%TO.P,U3,24,OSC_OUT*%
%TO.N,/HSC_OUT*%
X38258500Y21523000D03*
D23*
%TO.P,U3,25,OSC_IN*%
%TO.N,/HSC_IN*%
X37571000Y22210500D03*
%TO.P,U3,26,AT0*%
%TO.N,unconnected-(U3-AT0-Pad26)*%
X37071000Y22210500D03*
%TO.P,U3,27,AT1*%
%TO.N,unconnected-(U3-AT1-Pad27)*%
X36571000Y22210500D03*
%TO.P,U3,28,PB0*%
%TO.N,unconnected-(U3-PB0-Pad28)*%
X36071000Y22210500D03*
%TO.P,U3,29,PB1*%
%TO.N,unconnected-(U3-PB1-Pad29)*%
X35571000Y22210500D03*
%TO.P,U3,30,PE4*%
%TO.N,unconnected-(U3-PE4-Pad30)*%
X35071000Y22210500D03*
%TO.P,U3,31,VFBSMPS*%
%TO.N,/SMPSFB*%
X34571000Y22210500D03*
%TO.P,U3,32,VSSSMPS*%
%TO.N,GND*%
X34071000Y22210500D03*
%TO.P,U3,33,VLXSMPS*%
%TO.N,/SMPSLX*%
X33571000Y22210500D03*
%TO.P,U3,34,VDDSMPS*%
%TO.N,+3V3*%
X33071000Y22210500D03*
%TO.P,U3,35,VDD*%
X32571000Y22210500D03*
%TO.P,U3,36,PA10*%
%TO.N,unconnected-(U3-PA10-Pad36)*%
X32071000Y22210500D03*
D24*
%TO.P,U3,37,PA11*%
%TO.N,/USB_D-*%
X31383500Y21523000D03*
%TO.P,U3,38,PA12*%
%TO.N,/USB_D+*%
X31383500Y21023000D03*
%TO.P,U3,39,PA13*%
%TO.N,/SWD_DIO*%
X31383500Y20523000D03*
%TO.P,U3,40,VDDUSB*%
%TO.N,+3V3*%
X31383500Y20023000D03*
%TO.P,U3,41,PA14*%
%TO.N,/SWD_CLK*%
X31383500Y19523000D03*
%TO.P,U3,42,PA15*%
%TO.N,unconnected-(U3-PA15-Pad42)*%
X31383500Y19023000D03*
%TO.P,U3,43,PB3*%
%TO.N,/SWO*%
X31383500Y18523000D03*
%TO.P,U3,44,PB4*%
%TO.N,unconnected-(U3-PB4-Pad44)*%
X31383500Y18023000D03*
%TO.P,U3,45,PB5*%
%TO.N,unconnected-(U3-PB5-Pad45)*%
X31383500Y17523000D03*
%TO.P,U3,46,PB6*%
%TO.N,unconnected-(U3-PB6-Pad46)*%
X31383500Y17023000D03*
%TO.P,U3,47,PB7*%
%TO.N,unconnected-(U3-PB7-Pad47)*%
X31383500Y16523000D03*
%TO.P,U3,48,VDD*%
%TO.N,+3V3*%
X31383500Y16023000D03*
D25*
%TO.P,U3,49,VSS*%
%TO.N,GND*%
X34821000Y18773000D03*
%TD*%
D15*
%TO.P,C12,1*%
%TO.N,+3V3*%
X39821000Y21653000D03*
%TO.P,C12,2*%
%TO.N,GND*%
X39821000Y20693000D03*
%TD*%
%TO.P,C19,1*%
%TO.N,/BOOT0*%
X18821000Y6003000D03*
%TO.P,C19,2*%
%TO.N,GND*%
X18821000Y5043000D03*
%TD*%
D26*
%TO.P,R2,1*%
%TO.N,Net-(J1-CC1)*%
X6321000Y24523000D03*
%TO.P,R2,2*%
%TO.N,GND*%
X7341000Y24523000D03*
%TD*%
D27*
%TO.P,C14,1*%
%TO.N,/SMPSFB*%
X37371000Y25773000D03*
%TO.P,C14,2*%
%TO.N,GND*%
X35821000Y25773000D03*
%TD*%
%TO.P,C2,1*%
%TO.N,+3V3*%
X15371000Y8523000D03*
%TO.P,C2,2*%
%TO.N,GND*%
X13821000Y8523000D03*
%TD*%
%TO.P,C1,1*%
%TO.N,+5V*%
X15621000Y14773000D03*
%TO.P,C1,2*%
%TO.N,GND*%
X14071000Y14773000D03*
%TD*%
D28*
%TO.P,H1,1,1*%
%TO.N,GND*%
X2337726Y27939726D03*
X2821000Y29106452D03*
X2821000Y26773000D03*
X3987726Y29589726D03*
D29*
X3987726Y27939726D03*
D28*
X3987726Y26289726D03*
X5154452Y29106452D03*
X5154452Y26773000D03*
X5637726Y27939726D03*
%TD*%
D30*
%TO.P,FLT1,1,IN*%
%TO.N,/RF_Match*%
X49595500Y19973000D03*
D31*
%TO.P,FLT1,2,GND*%
%TO.N,GND*%
X50208500Y20200500D03*
D30*
%TO.P,FLT1,3,OUT*%
%TO.N,/RF_ANT*%
X50821000Y19973000D03*
D31*
%TO.P,FLT1,4,GND*%
%TO.N,GND*%
X50208500Y19745500D03*
%TD*%
D16*
%TO.P,FM1,*%
%TO.N,*%
X8071000Y28523000D03*
%TD*%
D32*
%TO.P,SW1,1,1*%
%TO.N,Net-(R7-Pad2)*%
X23561000Y1773000D03*
%TO.P,SW1,2,2*%
%TO.N,+3V3*%
X31361000Y1773000D03*
%TD*%
D15*
%TO.P,C15,1*%
%TO.N,/RF*%
X43321000Y19983000D03*
%TO.P,C15,2*%
%TO.N,GND*%
X43321000Y19023000D03*
%TD*%
D17*
%TO.P,R3,1*%
%TO.N,/UART_TXC*%
X39071000Y12003000D03*
%TO.P,R3,2*%
%TO.N,/UART_TX*%
X39071000Y13023000D03*
%TD*%
D18*
%TO.P,C6,1*%
%TO.N,+3V3*%
X29781000Y16023000D03*
%TO.P,C6,2*%
%TO.N,GND*%
X28821000Y16023000D03*
%TD*%
D33*
%TO.P,L3,1,1*%
%TO.N,/RF*%
X44321000Y19983000D03*
%TO.P,L3,2,2*%
%TO.N,/RF_Match*%
X45291000Y19983000D03*
%TD*%
D21*
%TO.P,L1,1,1*%
%TO.N,/SMPSLX*%
X33621000Y24803000D03*
%TO.P,L1,2,2*%
%TO.N,/SMPSLXL*%
X33621000Y25773000D03*
%TD*%
D34*
%TO.P,L2,1,1*%
%TO.N,/SMPSLXL*%
X35258500Y28273000D03*
%TO.P,L2,2,2*%
%TO.N,/SMPSFB*%
X37383500Y28273000D03*
%TD*%
D35*
%TO.P,X2,1,1*%
%TO.N,/HSC_OUT*%
X40921000Y24373000D03*
%TO.P,X2,2,2*%
%TO.N,GND*%
X40921000Y25773000D03*
%TO.P,X2,3,3*%
%TO.N,/HSC_IN*%
X39821000Y25773000D03*
%TO.P,X2,4,4*%
%TO.N,GND*%
X39821000Y24373000D03*
%TD*%
D26*
%TO.P,R6,1*%
%TO.N,/BOOT0*%
X25311000Y8273000D03*
%TO.P,R6,2*%
%TO.N,GND*%
X26331000Y8273000D03*
%TD*%
D18*
%TO.P,C11,1*%
%TO.N,+3V3*%
X32531000Y24523000D03*
%TO.P,C11,2*%
%TO.N,GND*%
X31571000Y24523000D03*
%TD*%
D15*
%TO.P,C9,1*%
%TO.N,+3V3*%
X30099000Y14676000D03*
%TO.P,C9,2*%
%TO.N,GND*%
X30099000Y13716000D03*
%TD*%
D22*
%TO.P,R5,1*%
%TO.N,GND*%
X44571000Y12783000D03*
%TO.P,R5,2*%
%TO.N,/LED_K*%
X44571000Y11763000D03*
%TD*%
D36*
%TO.P,J4,1,In*%
%TO.N,/RF_ANT*%
X55296000Y19948000D03*
D37*
%TO.P,J4,2,Ext*%
%TO.N,GND*%
X56821000Y21423000D03*
X56821000Y18473000D03*
%TD*%
D28*
%TO.P,H3,1,1*%
%TO.N,GND*%
X55171000Y27773000D03*
X55654274Y28939726D03*
X55654274Y26606274D03*
X56821000Y29423000D03*
D29*
X56821000Y27773000D03*
D28*
X56821000Y26123000D03*
X57987726Y28939726D03*
X57987726Y26606274D03*
X58471000Y27773000D03*
%TD*%
D38*
%TO.P,U2,1,I/O1*%
%TO.N,Net-(J1-D--PadA7)*%
X14251000Y19673000D03*
%TO.P,U2,2,GND*%
%TO.N,GND*%
X14251000Y18723000D03*
%TO.P,U2,3,I/O2*%
%TO.N,Net-(J1-D+-PadA6)*%
X14251000Y17773000D03*
%TO.P,U2,4,I/O2*%
%TO.N,/USB_D+*%
X16526000Y17773000D03*
%TO.P,U2,5,VBUS*%
%TO.N,+5V*%
X16526000Y18723000D03*
%TO.P,U2,6,I/O1*%
%TO.N,/USB_D-*%
X16526000Y19673000D03*
%TD*%
D39*
%TO.P,R1,1*%
%TO.N,Net-(J1-CC2)*%
X7081000Y11023000D03*
%TO.P,R1,2*%
%TO.N,GND*%
X6061000Y11023000D03*
%TD*%
D27*
%TO.P,C10,1*%
%TO.N,+3V3*%
X30846000Y28523000D03*
%TO.P,C10,2*%
%TO.N,GND*%
X29296000Y28523000D03*
%TD*%
D15*
%TO.P,C8,1*%
%TO.N,+3V3*%
X39821000Y18983000D03*
%TO.P,C8,2*%
%TO.N,GND*%
X39821000Y18023000D03*
%TD*%
%TO.P,C17,1*%
%TO.N,/LSC_OUT*%
X34321000Y12923000D03*
%TO.P,C17,2*%
%TO.N,GND*%
X34321000Y11963000D03*
%TD*%
%TO.P,C5,1*%
%TO.N,+3V3*%
X37821000Y13023000D03*
%TO.P,C5,2*%
%TO.N,GND*%
X37821000Y12063000D03*
%TD*%
D40*
%TO.P,J3,1,VCC*%
%TO.N,+3V3*%
X22976000Y19678000D03*
%TO.P,J3,2,SWDIO*%
%TO.N,/SWD_DIO*%
X24246000Y19678000D03*
%TO.P,J3,3,~{RESET}*%
%TO.N,/SWD_NRST*%
X22976000Y18408000D03*
%TO.P,J3,4,SWCLK*%
%TO.N,/SWD_CLK*%
X24246000Y18408000D03*
%TO.P,J3,5,GND*%
%TO.N,GND*%
X22976000Y17138000D03*
%TO.P,J3,6,SWO*%
%TO.N,/SWO*%
X24246000Y17138000D03*
%TD*%
D28*
%TO.P,H2,1,1*%
%TO.N,GND*%
X2254274Y3439726D03*
X2737548Y4606452D03*
X2737548Y2273000D03*
X3904274Y5089726D03*
D29*
X3904274Y3439726D03*
D28*
X3904274Y1789726D03*
X5071000Y4606452D03*
X5071000Y2273000D03*
X5554274Y3439726D03*
%TD*%
D41*
%TO.P,C3,1*%
%TO.N,+3V3*%
X27432000Y13773000D03*
%TO.P,C3,2*%
%TO.N,GND*%
X27432000Y12223000D03*
%TD*%
D42*
%TO.P,J2,1,Pin_1*%
%TO.N,GND*%
X35921000Y4773000D03*
%TO.P,J2,2,Pin_2*%
%TO.N,/UART_RXC*%
X37171000Y4773000D03*
%TO.P,J2,3,Pin_3*%
%TO.N,/UART_TXC*%
X38421000Y4773000D03*
%TO.P,J2,4,Pin_4*%
%TO.N,+3V3*%
X39671000Y4773000D03*
D43*
%TO.P,J2,MP*%
%TO.N,N/C*%
X34071000Y1573000D03*
X41521000Y1573000D03*
%TD*%
D28*
%TO.P,H4,1,1*%
%TO.N,GND*%
X55421000Y3523000D03*
X55904274Y4689726D03*
X55904274Y2356274D03*
X57071000Y5173000D03*
D29*
X57071000Y3523000D03*
D28*
X57071000Y1873000D03*
X58237726Y4689726D03*
X58237726Y2356274D03*
X58721000Y3523000D03*
%TD*%
D18*
%TO.P,C4,1*%
%TO.N,+3V3*%
X29846000Y19848000D03*
%TO.P,C4,2*%
%TO.N,GND*%
X28886000Y19848000D03*
%TD*%
D15*
%TO.P,C13,1*%
%TO.N,/SWD_NRST*%
X36721000Y13023000D03*
%TO.P,C13,2*%
%TO.N,GND*%
X36721000Y12063000D03*
%TD*%
%TO.P,C16,1*%
%TO.N,/RF_Match*%
X46321000Y19983000D03*
%TO.P,C16,2*%
%TO.N,GND*%
X46321000Y19023000D03*
%TD*%
D16*
%TO.P,FM3,*%
%TO.N,*%
X52371000Y2873000D03*
%TD*%
D44*
%TO.N,GND*%
X10922000Y24384000D03*
D45*
X29591000Y13787000D03*
D44*
X46821000Y773000D03*
X43821000Y773000D03*
X18821000Y773000D03*
X15821000Y773000D03*
X9821000Y773000D03*
X6821000Y773000D03*
X54821000Y12773000D03*
X51821000Y12773000D03*
X50821000Y25773000D03*
X47821000Y25773000D03*
X47821000Y23773000D03*
X44821000Y23773000D03*
X24821000Y28773000D03*
X21821000Y28773000D03*
X21821000Y25773000D03*
X18821000Y25773000D03*
X13821000Y24773000D03*
X18821000Y28773000D03*
X15821000Y28773000D03*
X12821000Y27773000D03*
X9821000Y27773000D03*
%TO.N,*%
X62821000Y-1227000D03*
%TO.N,GND*%
X22821000Y12773000D03*
X20821000Y10773000D03*
X52821000Y17773000D03*
X55821000Y16773000D03*
X56821000Y15773000D03*
X57821000Y16773000D03*
X58821000Y22773000D03*
X57821000Y23773000D03*
X56821000Y23773000D03*
X52821000Y22773000D03*
X45821000Y27773000D03*
X47821000Y11773000D03*
X57821000Y13773000D03*
X55821000Y7773000D03*
X26821000Y5773000D03*
X5821000Y6773000D03*
X9821000Y8773000D03*
X12821000Y1773000D03*
X10821000Y3773000D03*
X45821000Y10773000D03*
X58821000Y10773000D03*
X46821000Y5773000D03*
X51821000Y9773000D03*
X51821000Y15773000D03*
X44821000Y29773000D03*
X23821000Y26773000D03*
X17821000Y26773000D03*
X33821000Y30773000D03*
X28821000Y30773000D03*
X22821000Y30773000D03*
X17821000Y30773000D03*
X11821000Y30773000D03*
X8821000Y30773000D03*
D45*
X34821000Y18773000D03*
X50171000Y18873000D03*
X13021000Y14723000D03*
X32821000Y18823000D03*
X32771000Y20423000D03*
D46*
X33920998Y8648000D03*
D45*
X28021000Y19873000D03*
X8171000Y24473000D03*
X56771000Y22523000D03*
X41871000Y25823000D03*
X5171000Y10973000D03*
X31571000Y26623000D03*
X36721000Y21073000D03*
X40621000Y17973000D03*
X50171000Y21273000D03*
X34521000Y20223000D03*
X34821000Y18773000D03*
X9017000Y14478000D03*
X44571000Y13623000D03*
X34971000Y21023000D03*
X13071000Y18773000D03*
X36621000Y11223000D03*
X28771000Y16773000D03*
X46371000Y18223000D03*
X30171000Y11023000D03*
X34371000Y11123000D03*
X34921000Y16473000D03*
X32821000Y16673000D03*
X39871000Y23473000D03*
X40521000Y20673000D03*
X18821000Y4023000D03*
X37071000Y16473000D03*
X23596000Y16373000D03*
X35771000Y26673000D03*
X36771000Y19873000D03*
X13871000Y7623000D03*
X37871000Y11323000D03*
X28371000Y28523000D03*
X43271000Y18223000D03*
X56821000Y17373000D03*
X27221000Y8223000D03*
X36421000Y18523000D03*
X30821000Y24473000D03*
%TO.N,+3V3*%
X40571000Y18973000D03*
X26621000Y13923000D03*
X32121000Y28698000D03*
X32571000Y26573000D03*
X31846000Y27898000D03*
X31396000Y723000D03*
X32571000Y23773000D03*
X40521000Y21623000D03*
X29846000Y20423000D03*
D46*
X16621000Y9898000D03*
D45*
X39721000Y6173000D03*
X29821000Y16823000D03*
X26521000Y13123000D03*
D46*
X16346000Y8723000D03*
D45*
X22646000Y22173000D03*
X37771000Y13773000D03*
%TO.N,/BOOT0*%
X34996000Y13623000D03*
X34621000Y9273000D03*
D44*
%TO.N,GND*%
X9017000Y21717000D03*
%TD*%
D47*
%TO.N,+3V3*%
X30646000Y15498000D02*
X31071000Y15073000D01*
X30646000Y15998000D02*
X30646000Y15498000D01*
X30674000Y14676000D02*
X30099000Y14676000D01*
X31071000Y15073000D02*
X30674000Y14676000D01*
D48*
%TO.N,GND*%
X8602000Y14893000D02*
X9017000Y14478000D01*
X7776000Y14893000D02*
X8602000Y14893000D01*
X8593000Y21293000D02*
X9017000Y21717000D01*
X7921000Y21293000D02*
X8593000Y21293000D01*
D47*
X14708500Y14135500D02*
X14071000Y14773000D01*
X14708500Y12798000D02*
X14708500Y14135500D01*
D48*
X36571000Y20523000D02*
X38258500Y20523000D01*
X34821000Y18773000D02*
X36571000Y20523000D01*
D47*
%TO.N,/SWD_DIO*%
X24457300Y21659300D02*
X25560000Y22762000D01*
X24457300Y19889300D02*
X24457300Y21659300D01*
X28583084Y22762000D02*
X30822084Y20523000D01*
X30822084Y20523000D02*
X31041000Y20523000D01*
X24246000Y19678000D02*
X24457300Y19889300D01*
X25560000Y22762000D02*
X28583084Y22762000D01*
D49*
%TO.N,/USB_D+*%
X30903326Y21023000D02*
X31383500Y21023000D01*
X28753326Y23173000D02*
X30903326Y21023000D01*
X18882630Y23173000D02*
X28753326Y23173000D01*
X16896000Y21077000D02*
X16896000Y21186370D01*
X18669000Y19304000D02*
X16896000Y21077000D01*
X18510000Y18343242D02*
X18669000Y18502242D01*
X16896000Y21186370D02*
X18882630Y23173000D01*
X18510000Y18129000D02*
X18510000Y18343242D01*
X18161000Y17780000D02*
X18510000Y18129000D01*
X16865000Y17780000D02*
X18161000Y17780000D01*
X18669000Y18502242D02*
X18669000Y19304000D01*
%TO.N,/USB_D-*%
X30928000Y21523000D02*
X31383500Y21523000D01*
X18759370Y23573000D02*
X28878000Y23573000D01*
X16526000Y21339630D02*
X18759370Y23573000D01*
X16526000Y19673000D02*
X16526000Y21339630D01*
X28878000Y23573000D02*
X30928000Y21523000D01*
D50*
%TO.N,GND*%
X28821000Y16723000D02*
X28771000Y16773000D01*
X41171000Y25823000D02*
X41871000Y25823000D01*
X50171000Y19573000D02*
X50171000Y18873000D01*
X31521000Y24473000D02*
X30821000Y24473000D01*
X46371000Y18923000D02*
X46371000Y18223000D01*
X26521000Y8223000D02*
X27221000Y8223000D01*
X56821000Y18073000D02*
X56821000Y17373000D01*
X7471000Y24473000D02*
X8171000Y24473000D01*
X43271000Y18923000D02*
X43271000Y18223000D01*
X44571000Y12923000D02*
X44571000Y13623000D01*
X28821000Y16023000D02*
X28821000Y16723000D01*
X31571000Y25923000D02*
X31571000Y26623000D01*
X29071000Y28523000D02*
X28371000Y28523000D01*
X30121000Y11773000D02*
X30121000Y11073000D01*
X23071000Y16923000D02*
X23071000Y16898000D01*
D47*
X39821000Y20693000D02*
X39651000Y20523000D01*
D50*
X39921000Y17973000D02*
X40621000Y17973000D01*
X37871000Y12023000D02*
X37871000Y11323000D01*
X18821000Y4723000D02*
X18821000Y4023000D01*
X56771000Y21823000D02*
X56771000Y22523000D01*
X23071000Y16898000D02*
X23596000Y16373000D01*
X39871000Y24173000D02*
X39871000Y23473000D01*
X5871000Y10973000D02*
X5171000Y10973000D01*
X50221000Y20423000D02*
X50221000Y21123000D01*
X13721000Y14723000D02*
X13021000Y14723000D01*
X30341000Y13766000D02*
X29641000Y13766000D01*
D47*
X39651000Y20523000D02*
X38258500Y20523000D01*
D50*
X13771000Y18773000D02*
X13071000Y18773000D01*
X35771000Y25973000D02*
X35771000Y26673000D01*
X39821000Y20673000D02*
X40521000Y20673000D01*
X28721000Y19873000D02*
X28021000Y19873000D01*
X34321000Y11873000D02*
X34321000Y11173000D01*
X36571000Y11973000D02*
X36571000Y11273000D01*
X13871000Y8323000D02*
X13871000Y7623000D01*
D48*
X34071000Y19523000D02*
X34821000Y18773000D01*
X34071000Y22210500D02*
X34071000Y19523000D01*
D50*
%TO.N,+5V*%
X14667600Y20773000D02*
X13821000Y20773000D01*
D47*
X15658500Y12435500D02*
X15658500Y12798000D01*
D50*
X16526000Y18723000D02*
X15863501Y18723000D01*
X13541000Y20493000D02*
X7776000Y20493000D01*
D47*
X13758500Y12135501D02*
X14146001Y11748000D01*
D50*
X15412500Y20028100D02*
X14667600Y20773000D01*
X7776000Y15693000D02*
X9641000Y15693000D01*
X15621000Y15873000D02*
X15621000Y14773000D01*
X15412500Y16264500D02*
X15221000Y16073000D01*
X15421000Y16073000D02*
X15621000Y15873000D01*
X15621000Y14773000D02*
X15621000Y12835500D01*
D47*
X14146001Y11748000D02*
X14971000Y11748000D01*
D50*
X10021000Y16073000D02*
X15221000Y16073000D01*
X15863501Y18723000D02*
X15412500Y18271999D01*
X9641000Y15693000D02*
X10021000Y16073000D01*
X13821000Y20773000D02*
X13541000Y20493000D01*
D47*
X13758500Y12798000D02*
X13758500Y12135501D01*
D50*
X15412500Y18271999D02*
X15412500Y16264500D01*
X15412500Y18271999D02*
X15412500Y20028100D01*
X15221000Y16073000D02*
X15421000Y16073000D01*
D47*
X14971000Y11748000D02*
X15658500Y12435500D01*
D50*
X15621000Y12835500D02*
X15658500Y12798000D01*
D47*
%TO.N,+3V3*%
X32071000Y14373000D02*
X32071000Y15335500D01*
X33071000Y22210500D02*
X33020000Y22261500D01*
D50*
X39871000Y18973000D02*
X40571000Y18973000D01*
D47*
X37096000Y13773000D02*
X37771000Y13773000D01*
X30521000Y15998000D02*
X30521000Y15873000D01*
X38258500Y19523000D02*
X39281000Y19523000D01*
D50*
X30621000Y16023000D02*
X30646000Y15998000D01*
X39821000Y21623000D02*
X40521000Y21623000D01*
D47*
X33020000Y22261500D02*
X33020000Y23324000D01*
X33020000Y23324000D02*
X32571000Y23773000D01*
X35571000Y15335500D02*
X35571000Y14882202D01*
X39281000Y19523000D02*
X39821000Y18983000D01*
X32571000Y22210500D02*
X32571000Y23773000D01*
X38258500Y21023000D02*
X39191000Y21023000D01*
X22646000Y22173000D02*
X22646000Y20008000D01*
X31071000Y15073000D02*
X31071000Y14273000D01*
X31071000Y14273000D02*
X31971000Y14273000D01*
D50*
X32571000Y25873000D02*
X32571000Y26573000D01*
D47*
X22646000Y20008000D02*
X22976000Y19678000D01*
X29846000Y19848000D02*
X30021000Y20023000D01*
X35955202Y14498000D02*
X36371000Y14498000D01*
D50*
X31396000Y1423000D02*
X31396000Y723000D01*
D47*
X30021000Y20023000D02*
X31383500Y20023000D01*
X31971000Y14273000D02*
X32071000Y14373000D01*
D50*
X39721000Y5473000D02*
X39721000Y6173000D01*
X32571000Y24473000D02*
X32571000Y23773000D01*
X39821000Y21523000D02*
X39920000Y21523000D01*
D47*
X30646000Y15998000D02*
X30521000Y15998000D01*
X39191000Y21023000D02*
X39821000Y21653000D01*
X36371000Y14498000D02*
X37096000Y13773000D01*
D50*
X29846000Y19723000D02*
X29846000Y20423000D01*
D47*
X35571000Y14882202D02*
X35955202Y14498000D01*
D50*
X29821000Y16123000D02*
X29821000Y16823000D01*
X37771000Y13073000D02*
X37771000Y13773000D01*
D47*
X31283500Y15998000D02*
X30646000Y15998000D01*
D50*
X29781000Y16023000D02*
X30621000Y16023000D01*
D47*
%TO.N,/SWD_NRST*%
X18921000Y14673000D02*
X18921000Y18173000D01*
X35521000Y10373000D02*
X35221000Y10373000D01*
X22072550Y19311450D02*
X22976000Y18408000D01*
X18921000Y18173000D02*
X20059450Y19311450D01*
X35220000Y10372000D02*
X23222000Y10372000D01*
X35221000Y10373000D02*
X35220000Y10372000D01*
X35071000Y15335500D02*
X35071000Y14623000D01*
X36571000Y13123000D02*
X36571000Y13023000D01*
X20059450Y19311450D02*
X22072550Y19311450D01*
X35071000Y14623000D02*
X36571000Y13123000D01*
X36571000Y13023000D02*
X35521000Y11973000D01*
X23222000Y10372000D02*
X18921000Y14673000D01*
X35521000Y11973000D02*
X35521000Y10373000D01*
D48*
%TO.N,/SMPSFB*%
X37383500Y25785500D02*
X37371000Y25773000D01*
X37321000Y24523000D02*
X37321000Y25723000D01*
X37321000Y25723000D02*
X37371000Y25773000D01*
X34571000Y24023000D02*
X35071000Y24523000D01*
X37383500Y28273000D02*
X37383500Y25785500D01*
X35071000Y24523000D02*
X37321000Y24523000D01*
X34571000Y22210500D02*
X34571000Y24023000D01*
D51*
%TO.N,/RF*%
X43281000Y20023000D02*
X43321000Y19983000D01*
X38258500Y20023000D02*
X43281000Y20023000D01*
X43321000Y19983000D02*
X44321000Y19983000D01*
%TO.N,/RF_Match*%
X45291000Y19983000D02*
X46321000Y19983000D01*
X46321000Y19983000D02*
X48805500Y19983000D01*
X48805500Y19983000D02*
X48815500Y19973000D01*
X48815500Y19973000D02*
X49595500Y19973000D01*
D47*
%TO.N,/LSC_OUT*%
X33571000Y12573000D02*
X33571000Y12923000D01*
X33071000Y15335500D02*
X33071000Y14173000D01*
X33571000Y12923000D02*
X34321000Y12923000D01*
X33521000Y12523000D02*
X33571000Y12573000D01*
X33071000Y14173000D02*
X34321000Y12923000D01*
X32971000Y12523000D02*
X33521000Y12523000D01*
%TO.N,/LSC_IN*%
X32571000Y15335500D02*
X32571000Y13973000D01*
X30071000Y12773000D02*
X31321000Y12773000D01*
X32421000Y13823000D02*
X31771000Y13823000D01*
X31321000Y12773000D02*
X31571000Y12523000D01*
X31571000Y13623000D02*
X31571000Y12523000D01*
X32571000Y13973000D02*
X32421000Y13823000D01*
X31771000Y13823000D02*
X31571000Y13623000D01*
%TO.N,/BOOT0*%
X18851000Y6033000D02*
X18821000Y6003000D01*
X34029202Y14424000D02*
X34195000Y14424000D01*
X33571000Y15335500D02*
X33571000Y14882202D01*
X34195000Y14424000D02*
X34996000Y13623000D01*
X34621000Y9273000D02*
X26311000Y9273000D01*
X25221000Y8273000D02*
X22981000Y6033000D01*
X22981000Y6033000D02*
X20561000Y6033000D01*
X25311000Y8273000D02*
X25221000Y8273000D01*
X20561000Y6033000D02*
X18851000Y6033000D01*
X33571000Y14882202D02*
X34029202Y14424000D01*
X26311000Y9273000D02*
X25311000Y8273000D01*
%TO.N,Net-(D1-A)*%
X39421000Y16973000D02*
X39421000Y15673000D01*
X43121000Y14173000D02*
X43321000Y13973000D01*
X39421000Y15673000D02*
X40921000Y14173000D01*
X38258500Y17523000D02*
X38871000Y17523000D01*
X38871000Y17523000D02*
X39421000Y16973000D01*
X43321000Y13973000D02*
X43321000Y12743000D01*
X40921000Y14173000D02*
X43121000Y14173000D01*
%TO.N,/LED_K*%
X43321000Y11773000D02*
X44561000Y11773000D01*
X44561000Y11773000D02*
X44571000Y11763000D01*
D51*
%TO.N,/RF_ANT*%
X55271000Y19973000D02*
X55296000Y19948000D01*
X50821000Y19973000D02*
X55271000Y19973000D01*
D47*
%TO.N,Net-(J1-CC1)*%
X6321000Y24523000D02*
X5621000Y23823000D01*
X7167176Y19343000D02*
X7776000Y19343000D01*
X5621000Y23823000D02*
X5621000Y20889176D01*
X5621000Y20889176D02*
X7167176Y19343000D01*
%TO.N,Net-(J1-CC2)*%
X6884992Y16343000D02*
X5850000Y15308008D01*
X5850000Y15308008D02*
X5850000Y12254000D01*
X5850000Y12254000D02*
X7081000Y11023000D01*
X7776000Y16343000D02*
X6884992Y16343000D01*
%TO.N,Net-(J1-D--PadA7)*%
X8652000Y18104000D02*
X8391000Y17843000D01*
X8391000Y17843000D02*
X7776000Y17843000D01*
X14251000Y19673000D02*
X9921000Y19673000D01*
X7776000Y18843000D02*
X8384824Y18843000D01*
X9921000Y19673000D02*
X9091000Y18843000D01*
X9091000Y18843000D02*
X7776000Y18843000D01*
X8384824Y18843000D02*
X8652000Y18575824D01*
X8652000Y18575824D02*
X8652000Y18104000D01*
%TO.N,Net-(J1-D+-PadA6)*%
X7091000Y18343000D02*
X6621000Y17873000D01*
X14251000Y17773000D02*
X9821000Y17773000D01*
X7776000Y18343000D02*
X7091000Y18343000D01*
X6621000Y17873000D02*
X6621000Y17473000D01*
X9391000Y17343000D02*
X7776000Y17343000D01*
X9821000Y17773000D02*
X9391000Y17343000D01*
X6751000Y17343000D02*
X7776000Y17343000D01*
X6621000Y17473000D02*
X6751000Y17343000D01*
%TO.N,/UART_TXC*%
X36830032Y3622000D02*
X37511968Y3622000D01*
X39071000Y12003000D02*
X39071000Y11320100D01*
X36570000Y3882032D02*
X36830032Y3622000D01*
X38421000Y4531032D02*
X38421000Y4773000D01*
X39071000Y11320100D02*
X36570000Y8819100D01*
X37511968Y3622000D02*
X38421000Y4531032D01*
X36570000Y8819100D02*
X36570000Y3882032D01*
%TO.N,/UART_RXC*%
X37171000Y8023000D02*
X40321000Y11173000D01*
X40321000Y11173000D02*
X40321000Y12003000D01*
X37171000Y4773000D02*
X37171000Y8023000D01*
%TO.N,/SWO*%
X28071000Y17273000D02*
X26571000Y15773000D01*
X25821000Y15773000D02*
X25821000Y16234550D01*
X24610303Y17138000D02*
X24246000Y17138000D01*
X26571000Y15773000D02*
X25821000Y15773000D01*
X28321000Y18523000D02*
X28071000Y18273000D01*
X25821000Y16234550D02*
X25513753Y16234550D01*
X25513753Y16234550D02*
X24610303Y17138000D01*
X28071000Y18273000D02*
X28071000Y17273000D01*
X31383500Y18523000D02*
X28321000Y18523000D01*
%TO.N,/SWD_CLK*%
X25207550Y19409550D02*
X25071000Y19273000D01*
X25071000Y19233000D02*
X24246000Y18408000D01*
X30071000Y19023000D02*
X27571000Y19023000D01*
X27571000Y19023000D02*
X27184450Y19409550D01*
X25071000Y19273000D02*
X25071000Y19233000D01*
X27184450Y19409550D02*
X25207550Y19409550D01*
X31383500Y19523000D02*
X30571000Y19523000D01*
X30571000Y19523000D02*
X30071000Y19023000D01*
D48*
%TO.N,/SMPSLX*%
X33571000Y22210500D02*
X33571000Y23123000D01*
D50*
X33571000Y23123000D02*
X33621000Y23173000D01*
X33621000Y23173000D02*
X33621000Y24803000D01*
%TO.N,/SMPSLXL*%
X33971000Y28273000D02*
X35258500Y28273000D01*
X33621000Y27923000D02*
X33971000Y28273000D01*
X33621000Y25773000D02*
X33621000Y27923000D01*
D47*
%TO.N,/UART_TX*%
X39021000Y13673000D02*
X39071000Y13623000D01*
X37170000Y14424000D02*
X38070000Y14424000D01*
X38821000Y13673000D02*
X39021000Y13673000D01*
X37071000Y14523000D02*
X37170000Y14424000D01*
X39071000Y13623000D02*
X39071000Y13023000D01*
X37071000Y15335500D02*
X37071000Y14523000D01*
X38070000Y14424000D02*
X38821000Y13673000D01*
%TO.N,/UART_RX*%
X37571000Y15335500D02*
X38081500Y14825000D01*
X40321000Y13973000D02*
X40321000Y13023000D01*
X39469000Y14825000D02*
X40321000Y13973000D01*
X38081500Y14825000D02*
X39469000Y14825000D01*
%TO.N,Net-(R7-Pad2)*%
X20561000Y5013000D02*
X20561000Y1813000D01*
X20521000Y1773000D02*
X23561000Y1773000D01*
X20561000Y1813000D02*
X20521000Y1773000D01*
%TO.N,/HSC_OUT*%
X39121000Y22173000D02*
X39471000Y22523000D01*
X38258500Y21523000D02*
X39121000Y21523000D01*
X39121000Y21523000D02*
X39121000Y22173000D01*
X39471000Y22523000D02*
X40671000Y22523000D01*
X40671000Y22523000D02*
X40921000Y22773000D01*
X40921000Y22773000D02*
X40921000Y24373000D01*
%TO.N,/HSC_IN*%
X38721000Y25773000D02*
X38421000Y25473000D01*
X38421000Y25473000D02*
X38421000Y24673000D01*
X37571000Y23823000D02*
X37571000Y22210500D01*
X39821000Y25773000D02*
X38721000Y25773000D01*
X38421000Y24673000D02*
X37571000Y23823000D01*
D50*
%TO.N,+5V*%
X16526000Y18723000D02*
X17721000Y18723000D01*
%TD*%
%TA.AperFunction,Conductor*%
%TO.N,GND*%
G36*
X14351000Y14986000D02*
G01*
X14351000Y14605000D01*
X14859000Y14351000D01*
X15113000Y13970000D01*
X15113000Y13589000D01*
X14986000Y13081000D01*
X14478000Y13081000D01*
X14478000Y13335000D01*
X14224000Y13716000D01*
X13843000Y13843000D01*
X13843000Y14224000D01*
X13716000Y14351000D01*
X13716000Y15113000D01*
X14351000Y14986000D01*
G37*
%TD.AperFunction*%
%TD*%
%TA.AperFunction,Conductor*%
%TO.N,GND*%
G36*
X19644743Y18154990D02*
G01*
X19666417Y18102664D01*
X19665506Y18091088D01*
X19635953Y17904500D01*
X19633050Y17886169D01*
X19633050Y17659831D01*
X19667270Y17443777D01*
X19668458Y17436280D01*
X19668460Y17436269D01*
X19738397Y17221025D01*
X19841154Y17019350D01*
X19970204Y16841729D01*
X19974193Y16836239D01*
X20134239Y16676193D01*
X20134242Y16676191D01*
X20134243Y16676190D01*
X20317349Y16543155D01*
X20414552Y16493628D01*
X20519019Y16440400D01*
X20519021Y16440400D01*
X20519024Y16440398D01*
X20734268Y16370461D01*
X20734272Y16370461D01*
X20734279Y16370458D01*
X20927263Y16339892D01*
X20957830Y16335050D01*
X20957831Y16335050D01*
X21184170Y16335050D01*
X21211059Y16339310D01*
X21407721Y16370458D01*
X21407729Y16370461D01*
X21407731Y16370461D01*
X21622975Y16440398D01*
X21622975Y16440399D01*
X21622981Y16440400D01*
X21824650Y16543155D01*
X22007761Y16676193D01*
X22167807Y16836239D01*
X22171796Y16841729D01*
X22220086Y16871323D01*
X22275159Y16858102D01*
X22300031Y16826553D01*
X22316941Y16785727D01*
X22384939Y16683962D01*
X22395988Y16628413D01*
X22364522Y16581321D01*
X22351729Y16574483D01*
X22241731Y16528921D01*
X22119583Y16447304D01*
X22015696Y16343417D01*
X21934078Y16221267D01*
X21877861Y16085547D01*
X21877858Y16085536D01*
X21849200Y15941455D01*
X21849200Y15794546D01*
X21877858Y15650465D01*
X21877861Y15650454D01*
X21934078Y15514734D01*
X22014380Y15394553D01*
X22015699Y15392580D01*
X22119580Y15288699D01*
X22241731Y15207080D01*
X22241732Y15207080D01*
X22241733Y15207079D01*
X22323440Y15173235D01*
X22377458Y15150860D01*
X22521545Y15122200D01*
X22668455Y15122200D01*
X22812542Y15150860D01*
X22948269Y15207080D01*
X23070420Y15288699D01*
X23174301Y15392580D01*
X23255920Y15514731D01*
X23312140Y15650458D01*
X23340800Y15794545D01*
X23340800Y15941455D01*
X23312140Y16085542D01*
X23294736Y16127558D01*
X23255921Y16221267D01*
X23243803Y16239403D01*
X23186848Y16324641D01*
X23175800Y16380188D01*
X23207266Y16427281D01*
X23220060Y16434119D01*
X23328270Y16478940D01*
X23328271Y16478941D01*
X23363818Y16502693D01*
X23363818Y16502694D01*
X22904582Y16961930D01*
X22882908Y17014256D01*
X22904582Y17066582D01*
X22954326Y17116326D01*
X23006652Y17138000D01*
X23192836Y17138000D01*
X23245162Y17116326D01*
X23602485Y16759003D01*
X23611687Y16747790D01*
X23667937Y16663606D01*
X23667939Y16663604D01*
X23667942Y16663600D01*
X23771600Y16559942D01*
X23893489Y16478498D01*
X24001655Y16433695D01*
X24041704Y16393647D01*
X24041704Y16337010D01*
X24034866Y16324216D01*
X23966078Y16221267D01*
X23909861Y16085547D01*
X23909858Y16085536D01*
X23881200Y15941455D01*
X23881200Y15794546D01*
X23909858Y15650465D01*
X23909861Y15650454D01*
X23966078Y15514734D01*
X24046380Y15394553D01*
X24047699Y15392580D01*
X24151580Y15288699D01*
X24273731Y15207080D01*
X24273732Y15207080D01*
X24273733Y15207079D01*
X24355440Y15173235D01*
X24409458Y15150860D01*
X24553545Y15122200D01*
X24700455Y15122200D01*
X24844542Y15150860D01*
X24980269Y15207080D01*
X25102420Y15288699D01*
X25206301Y15392580D01*
X25287920Y15514731D01*
X25298168Y15539474D01*
X25338214Y15579522D01*
X25394851Y15579524D01*
X25430621Y15548157D01*
X25458934Y15499118D01*
X25460511Y15496387D01*
X25544387Y15412511D01*
X25544389Y15412510D01*
X25544390Y15412509D01*
X25631006Y15362501D01*
X25647114Y15353201D01*
X25647115Y15353201D01*
X25647117Y15353200D01*
X25704402Y15337851D01*
X25761688Y15322501D01*
X25761689Y15322500D01*
X25761691Y15322500D01*
X26630309Y15322500D01*
X26720673Y15346714D01*
X26720674Y15346714D01*
X26731498Y15349614D01*
X26744887Y15353201D01*
X26847614Y15412511D01*
X27241232Y15806129D01*
X28191000Y15806129D01*
X28197273Y15747774D01*
X28197275Y15747768D01*
X28246513Y15615755D01*
X28246514Y15615754D01*
X28330955Y15502956D01*
X28443753Y15418515D01*
X28443754Y15418514D01*
X28575767Y15369276D01*
X28575773Y15369274D01*
X28634128Y15363000D01*
X28646000Y15363000D01*
X28646000Y15848000D01*
X28191000Y15848000D01*
X28191000Y15806129D01*
X27241232Y15806129D01*
X27674975Y16239872D01*
X28191000Y16239872D01*
X28191000Y16198000D01*
X28646000Y16198000D01*
X28646000Y16683000D01*
X28634128Y16683000D01*
X28575773Y16676727D01*
X28575767Y16676725D01*
X28443754Y16627487D01*
X28443753Y16627486D01*
X28330955Y16543045D01*
X28246514Y16430247D01*
X28246513Y16430246D01*
X28197275Y16298233D01*
X28197273Y16298227D01*
X28191000Y16239872D01*
X27674975Y16239872D01*
X28431489Y16996386D01*
X28475433Y17072500D01*
X28490799Y17099114D01*
X28521499Y17213689D01*
X28521500Y17213689D01*
X28521500Y17998500D01*
X28543174Y18050826D01*
X28595500Y18072500D01*
X30521501Y18072500D01*
X30573827Y18050826D01*
X30595501Y17998500D01*
X30595501Y17927998D01*
X30610818Y17831285D01*
X30610819Y17831279D01*
X30623397Y17806593D01*
X30627840Y17750131D01*
X30623397Y17739407D01*
X30610819Y17714722D01*
X30610818Y17714717D01*
X30595500Y17618004D01*
X30595500Y17427998D01*
X30610818Y17331285D01*
X30610819Y17331279D01*
X30623397Y17306593D01*
X30629147Y17254634D01*
X30627113Y17246698D01*
X30610818Y17214715D01*
X30597700Y17131895D01*
X30596837Y17128525D01*
X30581768Y17108435D01*
X30568647Y17087023D01*
X30565064Y17086163D01*
X30562854Y17083216D01*
X30537996Y17079665D01*
X30513575Y17073802D01*
X30510433Y17075728D01*
X30506786Y17075206D01*
X30486695Y17090275D01*
X30465284Y17103396D01*
X30462447Y17108461D01*
X30461477Y17109189D01*
X30461284Y17110539D01*
X30456785Y17118573D01*
X30455158Y17122500D01*
X30441775Y17154811D01*
X30365114Y17269542D01*
X30267542Y17367114D01*
X30262838Y17370257D01*
X30152808Y17443777D01*
X30025332Y17496579D01*
X30025322Y17496582D01*
X29934694Y17514609D01*
X29889993Y17523500D01*
X29752007Y17523500D01*
X29713642Y17515869D01*
X29616677Y17496582D01*
X29616667Y17496579D01*
X29489191Y17443777D01*
X29374461Y17367117D01*
X29276883Y17269539D01*
X29200223Y17154809D01*
X29147421Y17027333D01*
X29147418Y17027323D01*
X29120500Y16891992D01*
X29120500Y16753274D01*
X29098826Y16700948D01*
X29046500Y16679274D01*
X29038591Y16679698D01*
X29007873Y16683000D01*
X28996000Y16683000D01*
X28996000Y15363000D01*
X29007872Y15363000D01*
X29066226Y15369274D01*
X29066232Y15369276D01*
X29198242Y15418513D01*
X29256233Y15461925D01*
X29311111Y15475933D01*
X29344927Y15461926D01*
X29399365Y15421175D01*
X29403511Y15418071D01*
X29535665Y15368781D01*
X29594085Y15362500D01*
X29618217Y15362501D01*
X29670542Y15340829D01*
X29692218Y15288504D01*
X29670546Y15236177D01*
X29662565Y15229261D01*
X29578597Y15166403D01*
X29494069Y15053487D01*
X29444782Y14921340D01*
X29444781Y14921335D01*
X29438500Y14862916D01*
X29438500Y14489085D01*
X29443364Y14443843D01*
X29444781Y14430665D01*
X29494071Y14298511D01*
X29494072Y14298510D01*
X29537924Y14239929D01*
X29551931Y14185051D01*
X29537924Y14151237D01*
X29494516Y14093251D01*
X29494513Y14093246D01*
X29445275Y13961233D01*
X29445273Y13961227D01*
X29439000Y13902872D01*
X29439000Y13891000D01*
X30778176Y13891000D01*
X30797759Y13899113D01*
X30834764Y13889199D01*
X30897114Y13853201D01*
X30897115Y13853201D01*
X30897117Y13853200D01*
X30954402Y13837851D01*
X31011688Y13822501D01*
X31011689Y13822500D01*
X31011691Y13822500D01*
X31061626Y13822500D01*
X31113952Y13800826D01*
X31135626Y13748500D01*
X31133104Y13729349D01*
X31127734Y13709309D01*
X31120500Y13682311D01*
X31120500Y13360293D01*
X31098826Y13307968D01*
X31095077Y13304220D01*
X31063454Y13280546D01*
X31039777Y13248919D01*
X31036034Y13245175D01*
X31014391Y13236210D01*
X30994239Y13224253D01*
X30983709Y13223501D01*
X30983709Y13223500D01*
X30983708Y13223501D01*
X30983708Y13223500D01*
X30765041Y13223500D01*
X30712715Y13245174D01*
X30691041Y13297500D01*
X30702877Y13333053D01*
X30700948Y13334106D01*
X30703486Y13338755D01*
X30752724Y13470768D01*
X30752726Y13470774D01*
X30759000Y13529129D01*
X30759000Y13541000D01*
X29439000Y13541000D01*
X29439000Y13529129D01*
X29445273Y13470774D01*
X29445275Y13470768D01*
X29494513Y13338755D01*
X29494514Y13338754D01*
X29578955Y13225956D01*
X29594213Y13214533D01*
X29623113Y13165824D01*
X29609106Y13110946D01*
X29594214Y13096055D01*
X29563417Y13073000D01*
X29550597Y13063403D01*
X29466069Y12950487D01*
X29416782Y12818340D01*
X29416781Y12818335D01*
X29410500Y12759916D01*
X29410500Y12386085D01*
X29414523Y12348670D01*
X29416781Y12327665D01*
X29466071Y12195511D01*
X29466072Y12195510D01*
X29509924Y12136929D01*
X29523931Y12082051D01*
X29509924Y12048237D01*
X29466516Y11990251D01*
X29466513Y11990246D01*
X29417275Y11858233D01*
X29417273Y11858227D01*
X29411000Y11799872D01*
X29411000Y11788000D01*
X30731000Y11788000D01*
X30731000Y11799872D01*
X30724726Y11858227D01*
X30724724Y11858233D01*
X30675486Y11990246D01*
X30675485Y11990247D01*
X30632075Y12048236D01*
X30618068Y12103114D01*
X30632075Y12136929D01*
X30675929Y12195511D01*
X30676626Y12197378D01*
X30705338Y12274360D01*
X30716228Y12286059D01*
X30722346Y12300826D01*
X30734768Y12305972D01*
X30743931Y12315813D01*
X30774672Y12322500D01*
X30846501Y12322500D01*
X30898827Y12300826D01*
X30920501Y12248500D01*
X30920501Y12075127D01*
X30926909Y12015515D01*
X30977202Y11880671D01*
X30977203Y11880670D01*
X30977204Y11880669D01*
X31063454Y11765454D01*
X31150657Y11700174D01*
X31178669Y11679204D01*
X31178670Y11679203D01*
X31287813Y11638496D01*
X31313517Y11628909D01*
X31373127Y11622500D01*
X31768872Y11622501D01*
X31828483Y11628909D01*
X31895907Y11654057D01*
X31963329Y11679203D01*
X31963329Y11679204D01*
X31963331Y11679204D01*
X32078546Y11765454D01*
X32164796Y11880669D01*
X32167531Y11888000D01*
X32201666Y11979522D01*
X32240259Y12020975D01*
X32296860Y12022996D01*
X32338313Y11984403D01*
X32340334Y11979522D01*
X32377202Y11880671D01*
X32377203Y11880670D01*
X32377204Y11880669D01*
X32463454Y11765454D01*
X32550657Y11700174D01*
X32578669Y11679204D01*
X32578670Y11679203D01*
X32687813Y11638496D01*
X32713517Y11628909D01*
X32773127Y11622500D01*
X33168872Y11622501D01*
X33228483Y11628909D01*
X33295907Y11654057D01*
X33363329Y11679203D01*
X33363329Y11679204D01*
X33363331Y11679204D01*
X33478546Y11765454D01*
X33527760Y11831197D01*
X33576469Y11860096D01*
X33631347Y11846089D01*
X33660247Y11797380D01*
X33661000Y11786849D01*
X33661000Y11776129D01*
X33667273Y11717774D01*
X33667275Y11717768D01*
X33716513Y11585755D01*
X33716514Y11585754D01*
X33800955Y11472956D01*
X33913753Y11388515D01*
X33913754Y11388514D01*
X34045767Y11339276D01*
X34045773Y11339274D01*
X34104128Y11333000D01*
X34146000Y11333000D01*
X34146000Y11889000D01*
X34167674Y11941326D01*
X34220000Y11963000D01*
X34422000Y11963000D01*
X34474326Y11941326D01*
X34496000Y11889000D01*
X34496000Y11333000D01*
X34537872Y11333000D01*
X34596226Y11339274D01*
X34596232Y11339276D01*
X34728245Y11388514D01*
X34728246Y11388515D01*
X34841044Y11472956D01*
X34925484Y11585753D01*
X34927165Y11590258D01*
X34965758Y11631711D01*
X35022359Y11633734D01*
X35063812Y11595141D01*
X35070500Y11564399D01*
X35070500Y10896500D01*
X35048826Y10844174D01*
X34996500Y10822500D01*
X23439255Y10822500D01*
X23386929Y10844174D01*
X22270791Y11960312D01*
X26607000Y11960312D01*
X26621799Y11847896D01*
X26679737Y11708021D01*
X26771905Y11587906D01*
X26892020Y11495738D01*
X27031895Y11437800D01*
X27144312Y11423000D01*
X27257000Y11423000D01*
X27607000Y11423000D01*
X27719688Y11423000D01*
X27743455Y11426129D01*
X29411000Y11426129D01*
X29417273Y11367774D01*
X29417275Y11367768D01*
X29466513Y11235755D01*
X29466514Y11235754D01*
X29550955Y11122956D01*
X29663753Y11038515D01*
X29663754Y11038514D01*
X29795767Y10989276D01*
X29795773Y10989274D01*
X29854128Y10983000D01*
X29896000Y10983000D01*
X30246000Y10983000D01*
X30287872Y10983000D01*
X30346226Y10989274D01*
X30346232Y10989276D01*
X30478245Y11038514D01*
X30478246Y11038515D01*
X30591044Y11122956D01*
X30675485Y11235754D01*
X30675486Y11235755D01*
X30724724Y11367768D01*
X30724726Y11367774D01*
X30731000Y11426129D01*
X30731000Y11438000D01*
X30246000Y11438000D01*
X30246000Y10983000D01*
X29896000Y10983000D01*
X29896000Y11438000D01*
X29411000Y11438000D01*
X29411000Y11426129D01*
X27743455Y11426129D01*
X27832104Y11437800D01*
X27971979Y11495738D01*
X27971983Y11495740D01*
X28013184Y11527354D01*
X28013191Y11527360D01*
X28092094Y11587906D01*
X28184262Y11708021D01*
X28242200Y11847896D01*
X28257000Y11960312D01*
X28257000Y12048000D01*
X27607000Y12048000D01*
X27607000Y11423000D01*
X27257000Y11423000D01*
X27257000Y12048000D01*
X26607000Y12048000D01*
X26607000Y11960312D01*
X22270791Y11960312D01*
X21457091Y12774012D01*
X25570976Y12774012D01*
X25570976Y12774005D01*
X25574327Y12706095D01*
X25574328Y12706081D01*
X25578401Y12678212D01*
X25600734Y12598105D01*
X25602548Y12591601D01*
X25665111Y12492701D01*
X25665113Y12492698D01*
X25665115Y12492696D01*
X25702855Y12450473D01*
X25734184Y12419516D01*
X25734185Y12419516D01*
X25734188Y12419513D01*
X25833829Y12358138D01*
X25833830Y12358138D01*
X25833832Y12358137D01*
X25921181Y12338478D01*
X25948000Y12332441D01*
X26004548Y12329269D01*
X26026584Y12328717D01*
X26141897Y12348669D01*
X26369709Y12428405D01*
X26408589Y12431137D01*
X26452007Y12422500D01*
X26452009Y12422500D01*
X26551848Y12422500D01*
X26604174Y12400826D01*
X26607000Y12398000D01*
X28257000Y12398000D01*
X28257000Y12485689D01*
X28242200Y12598105D01*
X28183204Y12740536D01*
X28183204Y12797173D01*
X28210519Y12830422D01*
X28789938Y13216701D01*
X28873067Y13293867D01*
X28901735Y13330625D01*
X28912665Y13345412D01*
X28963071Y13451027D01*
X28976452Y13567286D01*
X28973579Y13623850D01*
X28971780Y13645816D01*
X28939652Y13758347D01*
X28512184Y14658280D01*
X28512182Y14658282D01*
X28512180Y14658288D01*
X28481544Y14710701D01*
X28467031Y14731271D01*
X28467029Y14731273D01*
X28429617Y14773000D01*
X28411868Y14792797D01*
X28350210Y14831285D01*
X28312594Y14854766D01*
X28260279Y14876436D01*
X28239657Y14884238D01*
X28124228Y14903500D01*
X28124226Y14903500D01*
X26316735Y14903500D01*
X26280890Y14900613D01*
X26259802Y14898913D01*
X26236418Y14895119D01*
X26160297Y14873871D01*
X26160294Y14873870D01*
X26060463Y14812807D01*
X26060455Y14812801D01*
X26017666Y14775702D01*
X26001481Y14760765D01*
X26001472Y14760755D01*
X25932610Y14666143D01*
X25930078Y14661080D01*
X25920953Y14641348D01*
X25917406Y14633016D01*
X25917399Y14632999D01*
X25917396Y14632991D01*
X25915256Y14627500D01*
X25909447Y14612601D01*
X25639632Y13852216D01*
X25639628Y13852200D01*
X25625814Y13801762D01*
X25621636Y13780457D01*
X25615375Y13728569D01*
X25615372Y13728538D01*
X25570976Y12774012D01*
X21457091Y12774012D01*
X19393174Y14837929D01*
X19371500Y14890255D01*
X19371500Y17955746D01*
X19393173Y18008071D01*
X19540093Y18154992D01*
X19592417Y18176664D01*
X19644743Y18154990D01*
G37*
%TD.AperFunction*%
%TA.AperFunction,Conductor*%
G36*
X14883500Y12872000D02*
G01*
X14861826Y12819674D01*
X14809500Y12798000D01*
X14607500Y12798000D01*
X14555174Y12819674D01*
X14533500Y12872000D01*
X14533500Y13081000D01*
X14883500Y13081000D01*
X14883500Y12872000D01*
G37*
%TD.AperFunction*%
%TA.AperFunction,Conductor*%
G36*
X14224000Y13716000D02*
G01*
X14226593Y13712110D01*
X14223384Y13711290D01*
X14189569Y13725297D01*
X14184319Y13729227D01*
X14224000Y13716000D01*
G37*
%TD.AperFunction*%
%TA.AperFunction,Conductor*%
G36*
X13939000Y13811000D02*
G01*
X13937651Y13811000D01*
X13932091Y13813303D01*
X13939000Y13811000D01*
G37*
%TD.AperFunction*%
%TA.AperFunction,Conductor*%
G36*
X34096519Y21688004D02*
G01*
X34104595Y21687368D01*
X34128306Y21663657D01*
X34135053Y21658489D01*
X34136043Y21656777D01*
X34170211Y21589719D01*
X34181189Y21578741D01*
X34186053Y21570334D01*
X34196000Y21533278D01*
X34196000Y21427760D01*
X34262556Y21438299D01*
X34262560Y21438301D01*
X34286852Y21450678D01*
X34343314Y21455124D01*
X34354038Y21450682D01*
X34379285Y21437818D01*
X34475997Y21422500D01*
X34666002Y21422501D01*
X34762715Y21437818D01*
X34787406Y21450400D01*
X34843866Y21454844D01*
X34854579Y21450407D01*
X34879285Y21437818D01*
X34975997Y21422500D01*
X35166002Y21422501D01*
X35262715Y21437818D01*
X35287406Y21450400D01*
X35343866Y21454844D01*
X35354579Y21450407D01*
X35379285Y21437818D01*
X35475997Y21422500D01*
X35666002Y21422501D01*
X35762715Y21437818D01*
X35787406Y21450400D01*
X35843866Y21454844D01*
X35854579Y21450407D01*
X35879285Y21437818D01*
X35975997Y21422500D01*
X36166002Y21422501D01*
X36262715Y21437818D01*
X36287406Y21450400D01*
X36343866Y21454844D01*
X36354579Y21450407D01*
X36379285Y21437818D01*
X36475997Y21422500D01*
X36666002Y21422501D01*
X36762715Y21437818D01*
X36787406Y21450400D01*
X36843866Y21454844D01*
X36854579Y21450407D01*
X36879285Y21437818D01*
X36975997Y21422500D01*
X37166002Y21422501D01*
X37262715Y21437818D01*
X37287407Y21450400D01*
X37342430Y21455294D01*
X37348724Y21453390D01*
X37379285Y21437818D01*
X37423155Y21430870D01*
X37428003Y21429403D01*
X37446284Y21414422D01*
X37466440Y21402071D01*
X37469052Y21395764D01*
X37471810Y21393504D01*
X37472383Y21387723D01*
X37479662Y21370151D01*
X37485818Y21331284D01*
X37485819Y21331279D01*
X37498397Y21306593D01*
X37502840Y21250131D01*
X37498397Y21239407D01*
X37485819Y21214722D01*
X37485818Y21214717D01*
X37470500Y21118004D01*
X37470500Y20927998D01*
X37485818Y20831285D01*
X37485818Y20831283D01*
X37498677Y20806047D01*
X37503121Y20749584D01*
X37498679Y20738858D01*
X37486299Y20714560D01*
X37475757Y20648000D01*
X37581278Y20648000D01*
X37618335Y20638053D01*
X37626738Y20633192D01*
X37637719Y20622211D01*
X37704777Y20588044D01*
X37706489Y20587053D01*
X37722603Y20566013D01*
X37739810Y20545867D01*
X37739644Y20543764D01*
X37740927Y20542089D01*
X37737444Y20515820D01*
X37735366Y20489405D01*
X37733726Y20487766D01*
X37733485Y20485943D01*
X37726731Y20480771D01*
X37703027Y20457066D01*
X37637720Y20423791D01*
X37633604Y20419674D01*
X37581278Y20398000D01*
X37475758Y20398000D01*
X37486298Y20331442D01*
X37486299Y20331440D01*
X37498677Y20307148D01*
X37503121Y20250685D01*
X37498679Y20239959D01*
X37485818Y20214717D01*
X37470500Y20118004D01*
X37470500Y19927998D01*
X37485818Y19831285D01*
X37485819Y19831279D01*
X37498397Y19806593D01*
X37502840Y19750131D01*
X37498397Y19739407D01*
X37485819Y19714722D01*
X37485818Y19714717D01*
X37470500Y19618004D01*
X37470500Y19427998D01*
X37485818Y19331285D01*
X37485819Y19331279D01*
X37498397Y19306593D01*
X37502840Y19250131D01*
X37498397Y19239407D01*
X37485819Y19214722D01*
X37485818Y19214717D01*
X37470500Y19118004D01*
X37470500Y18927998D01*
X37485818Y18831285D01*
X37485819Y18831279D01*
X37498397Y18806593D01*
X37502840Y18750131D01*
X37498397Y18739407D01*
X37485819Y18714722D01*
X37485818Y18714717D01*
X37470500Y18618004D01*
X37470500Y18427998D01*
X37485818Y18331285D01*
X37485819Y18331279D01*
X37498397Y18306593D01*
X37502840Y18250131D01*
X37498397Y18239407D01*
X37485819Y18214722D01*
X37485818Y18214717D01*
X37470500Y18118004D01*
X37470500Y17927998D01*
X37485818Y17831285D01*
X37485819Y17831279D01*
X37498397Y17806593D01*
X37502840Y17750131D01*
X37498397Y17739407D01*
X37485819Y17714722D01*
X37485818Y17714717D01*
X37470500Y17618004D01*
X37470500Y17427998D01*
X37485818Y17331285D01*
X37485819Y17331279D01*
X37498397Y17306593D01*
X37502840Y17250131D01*
X37498397Y17239407D01*
X37485819Y17214722D01*
X37485818Y17214717D01*
X37470500Y17118004D01*
X37470500Y16927998D01*
X37485818Y16831285D01*
X37485819Y16831279D01*
X37498397Y16806593D01*
X37502840Y16750131D01*
X37498397Y16739407D01*
X37485819Y16714722D01*
X37485818Y16714717D01*
X37470500Y16618004D01*
X37470500Y16427998D01*
X37485818Y16331285D01*
X37485819Y16331279D01*
X37498397Y16306593D01*
X37503291Y16251571D01*
X37501382Y16245263D01*
X37485818Y16214715D01*
X37478871Y16170858D01*
X37477401Y16165998D01*
X37462419Y16147715D01*
X37450066Y16127558D01*
X37443762Y16124947D01*
X37441503Y16122190D01*
X37435721Y16121617D01*
X37418149Y16114338D01*
X37379283Y16108182D01*
X37379278Y16108181D01*
X37354593Y16095603D01*
X37298131Y16091160D01*
X37287407Y16095603D01*
X37262721Y16108181D01*
X37262716Y16108182D01*
X37166003Y16123500D01*
X36975997Y16123500D01*
X36879284Y16108182D01*
X36879278Y16108181D01*
X36854593Y16095603D01*
X36798131Y16091160D01*
X36787407Y16095603D01*
X36762721Y16108181D01*
X36762716Y16108182D01*
X36666003Y16123500D01*
X36475997Y16123500D01*
X36379284Y16108182D01*
X36379278Y16108181D01*
X36354593Y16095603D01*
X36298131Y16091160D01*
X36287407Y16095603D01*
X36262721Y16108181D01*
X36262716Y16108182D01*
X36166003Y16123500D01*
X35975997Y16123500D01*
X35879284Y16108182D01*
X35879278Y16108181D01*
X35854593Y16095603D01*
X35798131Y16091160D01*
X35787407Y16095603D01*
X35762721Y16108181D01*
X35762716Y16108182D01*
X35666003Y16123500D01*
X35475997Y16123500D01*
X35379284Y16108182D01*
X35379278Y16108181D01*
X35354593Y16095603D01*
X35298131Y16091160D01*
X35287407Y16095603D01*
X35262721Y16108181D01*
X35262716Y16108182D01*
X35166003Y16123500D01*
X34975997Y16123500D01*
X34879284Y16108182D01*
X34879278Y16108181D01*
X34854593Y16095603D01*
X34798131Y16091160D01*
X34787407Y16095603D01*
X34762721Y16108181D01*
X34762716Y16108182D01*
X34666003Y16123500D01*
X34475997Y16123500D01*
X34379284Y16108182D01*
X34379278Y16108181D01*
X34354593Y16095603D01*
X34298131Y16091160D01*
X34287407Y16095603D01*
X34262721Y16108181D01*
X34262716Y16108182D01*
X34166003Y16123500D01*
X33975997Y16123500D01*
X33879284Y16108182D01*
X33879278Y16108181D01*
X33854593Y16095603D01*
X33798131Y16091160D01*
X33787407Y16095603D01*
X33762721Y16108181D01*
X33762716Y16108182D01*
X33666003Y16123500D01*
X33475997Y16123500D01*
X33379284Y16108182D01*
X33379278Y16108181D01*
X33354593Y16095603D01*
X33298131Y16091160D01*
X33287407Y16095603D01*
X33262721Y16108181D01*
X33262716Y16108182D01*
X33166003Y16123500D01*
X32975997Y16123500D01*
X32879284Y16108182D01*
X32879278Y16108181D01*
X32854593Y16095603D01*
X32798131Y16091160D01*
X32787407Y16095603D01*
X32762721Y16108181D01*
X32762716Y16108182D01*
X32666003Y16123500D01*
X32475997Y16123500D01*
X32379284Y16108182D01*
X32379278Y16108181D01*
X32354593Y16095603D01*
X32299571Y16090709D01*
X32293262Y16092618D01*
X32262715Y16108182D01*
X32218854Y16115130D01*
X32213996Y16116599D01*
X32195715Y16131580D01*
X32175557Y16143933D01*
X32172945Y16150239D01*
X32170189Y16152497D01*
X32169615Y16158279D01*
X32162336Y16175852D01*
X32156182Y16214715D01*
X32143600Y16239407D01*
X32139156Y16295866D01*
X32143593Y16306580D01*
X32156182Y16331285D01*
X32171500Y16427997D01*
X32171499Y16618002D01*
X32156182Y16714715D01*
X32143600Y16739407D01*
X32139156Y16795866D01*
X32143593Y16806580D01*
X32156182Y16831285D01*
X32171500Y16927997D01*
X32171499Y17118002D01*
X32170786Y17122501D01*
X32159085Y17196386D01*
X32156182Y17214715D01*
X32143600Y17239407D01*
X32139156Y17295866D01*
X32143593Y17306580D01*
X32156182Y17331285D01*
X32171500Y17427997D01*
X32171499Y17618002D01*
X32156182Y17714715D01*
X32143600Y17739407D01*
X32139156Y17795866D01*
X32143593Y17806580D01*
X32156182Y17831285D01*
X32171500Y17927997D01*
X32171499Y18118002D01*
X32156182Y18214715D01*
X32143600Y18239407D01*
X32139156Y18295866D01*
X32143593Y18306580D01*
X32156182Y18331285D01*
X32171500Y18427997D01*
X32171499Y18618002D01*
X32156182Y18714715D01*
X32143600Y18739407D01*
X32139156Y18795866D01*
X32143593Y18806580D01*
X32156182Y18831285D01*
X32171500Y18927997D01*
X32171499Y19118002D01*
X32156182Y19214715D01*
X32143600Y19239407D01*
X32139156Y19295866D01*
X32143593Y19306580D01*
X32156182Y19331285D01*
X32171500Y19427997D01*
X32171499Y19618002D01*
X32156182Y19714715D01*
X32143600Y19739407D01*
X32139156Y19795866D01*
X32143593Y19806580D01*
X32156182Y19831285D01*
X32171500Y19927997D01*
X32171499Y20118002D01*
X32170671Y20123227D01*
X32158164Y20202200D01*
X32156182Y20214715D01*
X32143600Y20239407D01*
X32139156Y20295866D01*
X32143593Y20306580D01*
X32156182Y20331285D01*
X32171500Y20427997D01*
X32171499Y20618002D01*
X32171017Y20621043D01*
X32165877Y20653500D01*
X32156182Y20714715D01*
X32143600Y20739407D01*
X32139156Y20795866D01*
X32143593Y20806580D01*
X32156182Y20831285D01*
X32171500Y20927997D01*
X32171499Y21118002D01*
X32156182Y21214715D01*
X32143600Y21239408D01*
X32138706Y21294430D01*
X32140610Y21300725D01*
X32156182Y21331285D01*
X32163130Y21375159D01*
X32164597Y21380005D01*
X32179580Y21398290D01*
X32191929Y21418441D01*
X32198233Y21421053D01*
X32200495Y21423812D01*
X32206281Y21424387D01*
X32223848Y21431663D01*
X32262715Y21437818D01*
X32287404Y21450399D01*
X32343866Y21454843D01*
X32354587Y21450402D01*
X32379285Y21437818D01*
X32475997Y21422500D01*
X32666002Y21422501D01*
X32762715Y21437818D01*
X32787406Y21450400D01*
X32843866Y21454844D01*
X32854579Y21450407D01*
X32879285Y21437818D01*
X32975997Y21422500D01*
X33166002Y21422501D01*
X33262715Y21437818D01*
X33287406Y21450400D01*
X33343866Y21454844D01*
X33354579Y21450407D01*
X33379285Y21437818D01*
X33475997Y21422500D01*
X33666002Y21422501D01*
X33762715Y21437818D01*
X33787954Y21450679D01*
X33844415Y21455124D01*
X33855146Y21450679D01*
X33879444Y21438299D01*
X33879442Y21438299D01*
X33946000Y21427759D01*
X33946000Y21533278D01*
X33967674Y21585604D01*
X33971789Y21589719D01*
X34005065Y21655029D01*
X34021113Y21668736D01*
X34033944Y21685486D01*
X34041972Y21686551D01*
X34048132Y21691811D01*
X34069172Y21690156D01*
X34090090Y21692928D01*
X34096519Y21688004D01*
G37*
%TD.AperFunction*%
%TA.AperFunction,Conductor*%
G36*
X13281403Y19200826D02*
G01*
X13303077Y19148500D01*
X13295919Y19120450D01*
X13296996Y19120048D01*
X13244903Y18980381D01*
X13244902Y18980376D01*
X13238500Y18920829D01*
X13238500Y18898000D01*
X14177000Y18898000D01*
X14229326Y18876326D01*
X14251000Y18824000D01*
X14251000Y18622000D01*
X14229326Y18569674D01*
X14177000Y18548000D01*
X13238500Y18548000D01*
X13238500Y18525172D01*
X13244902Y18465625D01*
X13244903Y18465620D01*
X13296996Y18325952D01*
X13294861Y18325156D01*
X13300085Y18276666D01*
X13264555Y18232559D01*
X13229078Y18223500D01*
X9761689Y18223500D01*
X9678014Y18201079D01*
X9671326Y18199287D01*
X9657345Y18195541D01*
X9647111Y18192799D01*
X9544385Y18133490D01*
X9226071Y17815174D01*
X9173745Y17793500D01*
X9121097Y17793500D01*
X9068771Y17815174D01*
X9047097Y17867500D01*
X9057011Y17904500D01*
X9071799Y17930113D01*
X9080141Y17961249D01*
X9085840Y17982512D01*
X9101300Y18040214D01*
X9102500Y18044691D01*
X9102500Y18322908D01*
X9109892Y18340756D01*
X9112414Y18359908D01*
X9120347Y18365996D01*
X9124174Y18375234D01*
X9157346Y18394386D01*
X9242083Y18417091D01*
X9242084Y18417091D01*
X9252137Y18419785D01*
X9264887Y18423201D01*
X9367614Y18482511D01*
X10085929Y19200826D01*
X10138255Y19222500D01*
X13229077Y19222500D01*
X13281403Y19200826D01*
G37*
%TD.AperFunction*%
%TA.AperFunction,Conductor*%
G36*
X28418155Y22289826D02*
G01*
X29541955Y21166026D01*
X29563629Y21113700D01*
X29541955Y21061374D01*
X29517956Y21045336D01*
X29514190Y21043776D01*
X29399461Y20967117D01*
X29301883Y20869539D01*
X29225223Y20754809D01*
X29172420Y20627331D01*
X29172419Y20627325D01*
X29160298Y20566392D01*
X29128831Y20519301D01*
X29079809Y20507254D01*
X29072871Y20508000D01*
X29061000Y20508000D01*
X29061000Y19922000D01*
X29039326Y19869674D01*
X28987000Y19848000D01*
X28886000Y19848000D01*
X28886000Y19747000D01*
X28864326Y19694674D01*
X28812000Y19673000D01*
X28256000Y19673000D01*
X28256000Y19631129D01*
X28262273Y19572774D01*
X28263339Y19568266D01*
X28261861Y19567917D01*
X28260031Y19516754D01*
X28218575Y19478164D01*
X28192720Y19473500D01*
X27788255Y19473500D01*
X27735929Y19495174D01*
X27599974Y19631129D01*
X27461064Y19770039D01*
X27461061Y19770041D01*
X27461060Y19770042D01*
X27358341Y19829347D01*
X27358339Y19829348D01*
X27358337Y19829349D01*
X27357035Y19829698D01*
X27334124Y19835838D01*
X27334124Y19835837D01*
X27334123Y19835838D01*
X27334123Y19835837D01*
X27251516Y19857972D01*
X27206583Y19892450D01*
X27199190Y19948602D01*
X27218342Y19981775D01*
X27247807Y20011239D01*
X27286774Y20064872D01*
X28256000Y20064872D01*
X28256000Y20023000D01*
X28711000Y20023000D01*
X28711000Y20508000D01*
X28699128Y20508000D01*
X28640773Y20501727D01*
X28640767Y20501725D01*
X28508754Y20452487D01*
X28508753Y20452486D01*
X28395955Y20368045D01*
X28311514Y20255247D01*
X28311513Y20255246D01*
X28262275Y20123233D01*
X28262273Y20123227D01*
X28256000Y20064872D01*
X27286774Y20064872D01*
X27380845Y20194350D01*
X27483600Y20396019D01*
X27487330Y20407500D01*
X27553539Y20611269D01*
X27553539Y20611271D01*
X27553542Y20611279D01*
X27588950Y20834831D01*
X27588950Y21061169D01*
X27553542Y21284721D01*
X27553539Y21284728D01*
X27553539Y21284732D01*
X27483602Y21499976D01*
X27483600Y21499979D01*
X27483600Y21499981D01*
X27408920Y21646550D01*
X27380845Y21701651D01*
X27247810Y21884757D01*
X27247809Y21884758D01*
X27247807Y21884761D01*
X27087761Y22044807D01*
X27087758Y22044810D01*
X27087756Y22044811D01*
X26904942Y22177633D01*
X26875349Y22225924D01*
X26888571Y22280996D01*
X26936862Y22310589D01*
X26948438Y22311500D01*
X28365829Y22311500D01*
X28418155Y22289826D01*
G37*
%TD.AperFunction*%
%TA.AperFunction,Conductor*%
G36*
X39072103Y25316635D02*
G01*
X39087426Y25316373D01*
X39097231Y25306227D01*
X39110270Y25300826D01*
X39126785Y25275646D01*
X39136637Y25250660D01*
X39228077Y25130079D01*
X39231657Y25126499D01*
X39229990Y25124833D01*
X39254601Y25082771D01*
X39240259Y25027980D01*
X39231721Y25019437D01*
X39232014Y25019144D01*
X39228437Y25015568D01*
X39137077Y24895093D01*
X39081614Y24754444D01*
X39071000Y24666062D01*
X39071000Y24548000D01*
X39747000Y24548000D01*
X39799326Y24526326D01*
X39821000Y24474000D01*
X39821000Y24373000D01*
X39922000Y24373000D01*
X39974326Y24351326D01*
X39996000Y24299000D01*
X39996000Y23573000D01*
X40064061Y23573000D01*
X40152443Y23583615D01*
X40293094Y23639079D01*
X40325871Y23663935D01*
X40344176Y23668729D01*
X40360509Y23678283D01*
X40370585Y23675645D01*
X40380661Y23678283D01*
X40415299Y23663936D01*
X40441211Y23644286D01*
X40441213Y23644285D01*
X40469811Y23595398D01*
X40470500Y23585321D01*
X40470500Y23047500D01*
X40448826Y22995174D01*
X40396500Y22973500D01*
X39411689Y22973500D01*
X39342065Y22954844D01*
X39321326Y22949287D01*
X39307345Y22945541D01*
X39297111Y22942799D01*
X39194385Y22883490D01*
X38760509Y22449613D01*
X38701200Y22346886D01*
X38698438Y22336577D01*
X38694935Y22323500D01*
X38670500Y22232312D01*
X38670500Y22072500D01*
X38648826Y22020174D01*
X38596500Y21998500D01*
X38120499Y21998500D01*
X38068173Y22020174D01*
X38046499Y22072500D01*
X38046499Y22618003D01*
X38040966Y22652937D01*
X38031182Y22714715D01*
X38029565Y22717889D01*
X38021500Y22751483D01*
X38021500Y23605745D01*
X38043174Y23658071D01*
X38465042Y24079939D01*
X39071000Y24079939D01*
X39081614Y23991557D01*
X39137077Y23850908D01*
X39228435Y23730436D01*
X39348907Y23639078D01*
X39489556Y23583615D01*
X39577939Y23573000D01*
X39646000Y23573000D01*
X39646000Y24198000D01*
X39071000Y24198000D01*
X39071000Y24079939D01*
X38465042Y24079939D01*
X38666081Y24280978D01*
X38691232Y24306129D01*
X38781490Y24396387D01*
X38840799Y24499114D01*
X38848091Y24526326D01*
X38854046Y24548554D01*
X38871499Y24613689D01*
X38871500Y24613689D01*
X38871500Y25248500D01*
X38893174Y25300826D01*
X38945500Y25322500D01*
X39057944Y25322500D01*
X39072103Y25316635D01*
G37*
%TD.AperFunction*%
%TA.AperFunction,Conductor*%
G36*
X59760054Y31465401D02*
G01*
X59760158Y31465393D01*
X59766298Y31465393D01*
X59766301Y31465392D01*
X59810257Y31465393D01*
X59817509Y31465038D01*
X59943112Y31452667D01*
X59957330Y31449839D01*
X60074610Y31414263D01*
X60088013Y31408711D01*
X60189223Y31354613D01*
X60196086Y31350945D01*
X60208148Y31342886D01*
X60302881Y31265140D01*
X60313139Y31254882D01*
X60390885Y31160149D01*
X60398944Y31148087D01*
X60456710Y31040013D01*
X60462262Y31026611D01*
X60497837Y30909336D01*
X60500667Y30895108D01*
X60513036Y30769511D01*
X60513392Y30762258D01*
X60513392Y30712736D01*
X60513405Y30712563D01*
X60520460Y836160D01*
X60520460Y836133D01*
X60520459Y829100D01*
X60520012Y827672D01*
X60520453Y783573D01*
X60520453Y783222D01*
X60520412Y783126D01*
X60520117Y776193D01*
X60507103Y640008D01*
X60504004Y624764D01*
X60463988Y498044D01*
X60457772Y483786D01*
X60392150Y368224D01*
X60383089Y355580D01*
X60294761Y256292D01*
X60283259Y245821D01*
X60176128Y167189D01*
X60162691Y159355D01*
X60041487Y104853D01*
X60026708Y100000D01*
X59911293Y75160D01*
X59895714Y73503D01*
X42367113Y75612D01*
X42314790Y97292D01*
X42293122Y149621D01*
X42298755Y177931D01*
X42299210Y179030D01*
X42356044Y316238D01*
X42371500Y433639D01*
X42371499Y2712360D01*
X42356044Y2829762D01*
X42303437Y2956767D01*
X51520500Y2956767D01*
X51520500Y2789234D01*
X51553182Y2624925D01*
X51553184Y2624918D01*
X51617296Y2470138D01*
X51617297Y2470137D01*
X51710374Y2330838D01*
X51828838Y2212374D01*
X51968137Y2119297D01*
X52122918Y2055184D01*
X52287233Y2022500D01*
X52287234Y2022500D01*
X52454766Y2022500D01*
X52454767Y2022500D01*
X52619082Y2055184D01*
X52773863Y2119297D01*
X52913162Y2212374D01*
X53031626Y2330838D01*
X53124703Y2470137D01*
X53188816Y2624918D01*
X53221500Y2789233D01*
X53221500Y2956767D01*
X53188816Y3121082D01*
X53124703Y3275863D01*
X53031626Y3415162D01*
X52913162Y3533626D01*
X52872326Y3560912D01*
X52773862Y3626704D01*
X52619082Y3690816D01*
X52619075Y3690818D01*
X52495212Y3715455D01*
X52454767Y3723500D01*
X52287233Y3723500D01*
X52254728Y3717035D01*
X52122924Y3690818D01*
X52122917Y3690816D01*
X51968137Y3626704D01*
X51828841Y3533629D01*
X51710371Y3415159D01*
X51617296Y3275863D01*
X51553184Y3121083D01*
X51553182Y3121076D01*
X51520500Y2956767D01*
X42303437Y2956767D01*
X42295536Y2975841D01*
X42199282Y3101282D01*
X42199279Y3101285D01*
X42073841Y3197536D01*
X41927761Y3258045D01*
X41837675Y3269905D01*
X41810361Y3273500D01*
X41810359Y3273500D01*
X41231640Y3273500D01*
X41114240Y3258045D01*
X41114236Y3258044D01*
X40968159Y3197537D01*
X40842720Y3101285D01*
X40842715Y3101280D01*
X40746464Y2975842D01*
X40685955Y2829762D01*
X40670500Y2712360D01*
X40670500Y433641D01*
X40685955Y316241D01*
X40685956Y316237D01*
X40743160Y178134D01*
X40743160Y121497D01*
X40703111Y81449D01*
X40674784Y75816D01*
X34917484Y76508D01*
X34865161Y98188D01*
X34843493Y150517D01*
X34849126Y178827D01*
X34906044Y316238D01*
X34921500Y433639D01*
X34921499Y2712360D01*
X34906044Y2829762D01*
X34845536Y2975841D01*
X34749282Y3101282D01*
X34749279Y3101285D01*
X34623841Y3197536D01*
X34477761Y3258045D01*
X34387675Y3269905D01*
X34360361Y3273500D01*
X34360359Y3273500D01*
X33781640Y3273500D01*
X33664240Y3258045D01*
X33664236Y3258044D01*
X33518159Y3197537D01*
X33392720Y3101285D01*
X33392715Y3101280D01*
X33296464Y2975842D01*
X33235955Y2829762D01*
X33220500Y2712360D01*
X33220500Y433641D01*
X33235955Y316241D01*
X33235956Y316237D01*
X33292789Y179030D01*
X33292789Y122393D01*
X33252740Y82345D01*
X33224413Y76712D01*
X31919166Y76869D01*
X31866843Y98549D01*
X31845175Y150878D01*
X31866847Y203192D01*
X31940114Y276458D01*
X32016775Y391189D01*
X32069580Y518672D01*
X32088667Y614631D01*
X32120132Y661723D01*
X32150572Y673420D01*
X32212393Y682427D01*
X32317483Y733802D01*
X32400198Y816517D01*
X32451573Y921607D01*
X32461500Y989740D01*
X32461500Y2556260D01*
X32451573Y2624393D01*
X32400198Y2729483D01*
X32317483Y2812198D01*
X32317482Y2812199D01*
X32212394Y2863573D01*
X32144264Y2873500D01*
X32144260Y2873500D01*
X30577740Y2873500D01*
X30577735Y2873500D01*
X30509606Y2863573D01*
X30509605Y2863573D01*
X30404517Y2812199D01*
X30321801Y2729483D01*
X30270427Y2624395D01*
X30270427Y2624394D01*
X30260500Y2556265D01*
X30260500Y989736D01*
X30270427Y921607D01*
X30270427Y921606D01*
X30321801Y816518D01*
X30321802Y816517D01*
X30404517Y733802D01*
X30509607Y682427D01*
X30577740Y672500D01*
X30631092Y672500D01*
X30683418Y650826D01*
X30703670Y612936D01*
X30722418Y518679D01*
X30722421Y518668D01*
X30775223Y391192D01*
X30775224Y391190D01*
X30775225Y391189D01*
X30851886Y276458D01*
X30925024Y203320D01*
X30946698Y150995D01*
X30925024Y98669D01*
X30872698Y76995D01*
X30872689Y76995D01*
X881403Y80602D01*
X875715Y80603D01*
X875699Y80608D01*
X831731Y80608D01*
X831729Y80609D01*
X824487Y80964D01*
X698892Y93333D01*
X684664Y96163D01*
X567389Y131738D01*
X553987Y137290D01*
X445913Y195056D01*
X433851Y203115D01*
X339118Y280861D01*
X328860Y291119D01*
X251114Y385852D01*
X243055Y397914D01*
X185289Y505988D01*
X179737Y519390D01*
X144161Y636670D01*
X141333Y650888D01*
X128962Y776491D01*
X128607Y783744D01*
X128607Y784687D01*
X128608Y827699D01*
X128607Y827702D01*
X128607Y833556D01*
X128593Y833727D01*
X127640Y4856129D01*
X18161000Y4856129D01*
X18167273Y4797774D01*
X18167275Y4797768D01*
X18216513Y4665755D01*
X18216514Y4665754D01*
X18300955Y4552956D01*
X18413753Y4468515D01*
X18413754Y4468514D01*
X18545767Y4419276D01*
X18545773Y4419274D01*
X18604128Y4413000D01*
X18646000Y4413000D01*
X18996000Y4413000D01*
X19037872Y4413000D01*
X19096226Y4419274D01*
X19096232Y4419276D01*
X19228245Y4468514D01*
X19228246Y4468515D01*
X19341044Y4552956D01*
X19425485Y4665754D01*
X19425486Y4665755D01*
X19474724Y4797768D01*
X19474726Y4797774D01*
X19481000Y4856129D01*
X19481000Y4868000D01*
X18996000Y4868000D01*
X18996000Y4413000D01*
X18646000Y4413000D01*
X18646000Y4868000D01*
X18161000Y4868000D01*
X18161000Y4856129D01*
X127640Y4856129D01*
X126839Y8235312D01*
X13021000Y8235312D01*
X13035799Y8122896D01*
X13093737Y7983021D01*
X13185905Y7862906D01*
X13306020Y7770738D01*
X13445895Y7712800D01*
X13558312Y7698000D01*
X13646000Y7698000D01*
X13646000Y8348000D01*
X13021000Y8348000D01*
X13021000Y8235312D01*
X126839Y8235312D01*
X126703Y8810689D01*
X13021000Y8810689D01*
X13021000Y8698000D01*
X13646000Y8698000D01*
X13646000Y9348000D01*
X13558312Y9348000D01*
X13445895Y9333201D01*
X13306020Y9275263D01*
X13185905Y9183095D01*
X13093737Y9062980D01*
X13035799Y8923105D01*
X13021000Y8810689D01*
X126703Y8810689D01*
X126234Y10791615D01*
X5441001Y10791615D01*
X5447211Y10733844D01*
X5495947Y10603176D01*
X5495948Y10603175D01*
X5579527Y10491528D01*
X5691174Y10407949D01*
X5691175Y10407948D01*
X5821841Y10359213D01*
X5821847Y10359211D01*
X5879613Y10353001D01*
X5885999Y10353002D01*
X5886000Y10353002D01*
X5886000Y10848000D01*
X5441001Y10848000D01*
X5441001Y10791615D01*
X126234Y10791615D01*
X125486Y13948001D01*
X1789157Y13948001D01*
X1789157Y13948000D01*
X2375625Y13948000D01*
X2341444Y13888796D01*
X2321000Y13812496D01*
X2321000Y13733504D01*
X2341444Y13657204D01*
X2375625Y13598000D01*
X1789157Y13598000D01*
X1803663Y13525070D01*
X1803665Y13525064D01*
X1867740Y13370374D01*
X1960761Y13231157D01*
X2079156Y13112762D01*
X2218373Y13019741D01*
X2373063Y12955666D01*
X2373069Y12955664D01*
X2537284Y12923000D01*
X2846000Y12923000D01*
X2846000Y13473000D01*
X3196000Y13473000D01*
X3196000Y12923000D01*
X3504716Y12923000D01*
X3668930Y12955664D01*
X3668936Y12955666D01*
X3823626Y13019741D01*
X3962843Y13112762D01*
X3962845Y13112763D01*
X4081237Y13231155D01*
X4081238Y13231157D01*
X4174259Y13370374D01*
X4238334Y13525064D01*
X4238336Y13525070D01*
X4252842Y13598000D01*
X3666375Y13598000D01*
X3700556Y13657204D01*
X3721000Y13733504D01*
X3721000Y13812496D01*
X3700556Y13888796D01*
X3666375Y13948000D01*
X4252843Y13948000D01*
X4252842Y13948001D01*
X4238336Y14020931D01*
X4238334Y14020937D01*
X4174259Y14175627D01*
X4081238Y14314844D01*
X3962843Y14433239D01*
X3823626Y14526260D01*
X3668936Y14590335D01*
X3668930Y14590337D01*
X3504716Y14623000D01*
X3196000Y14623000D01*
X3196000Y14073000D01*
X2846000Y14073000D01*
X2846000Y14623000D01*
X2537284Y14623000D01*
X2373069Y14590337D01*
X2373063Y14590335D01*
X2218373Y14526260D01*
X2079156Y14433239D01*
X2079155Y14433237D01*
X1960763Y14314845D01*
X1960761Y14314844D01*
X1867740Y14175627D01*
X1803665Y14020937D01*
X1803663Y14020931D01*
X1789157Y13948001D01*
X125486Y13948001D01*
X123439Y22588001D01*
X1789157Y22588001D01*
X1789157Y22588000D01*
X2375625Y22588000D01*
X2341444Y22528796D01*
X2321000Y22452496D01*
X2321000Y22373504D01*
X2341444Y22297204D01*
X2375625Y22238000D01*
X1789157Y22238000D01*
X1803663Y22165070D01*
X1803665Y22165064D01*
X1867740Y22010374D01*
X1960761Y21871157D01*
X2079156Y21752762D01*
X2218373Y21659741D01*
X2373063Y21595666D01*
X2373069Y21595664D01*
X2537284Y21563000D01*
X2846000Y21563000D01*
X2846000Y22113000D01*
X3196000Y22113000D01*
X3196000Y21563000D01*
X3504716Y21563000D01*
X3668930Y21595664D01*
X3668936Y21595666D01*
X3823626Y21659741D01*
X3962843Y21752762D01*
X3962845Y21752763D01*
X4081237Y21871155D01*
X4081238Y21871157D01*
X4174259Y22010374D01*
X4238334Y22165064D01*
X4238336Y22165070D01*
X4252842Y22238000D01*
X3666375Y22238000D01*
X3700556Y22297204D01*
X3721000Y22373504D01*
X3721000Y22452496D01*
X3700556Y22528796D01*
X3666375Y22588000D01*
X4252843Y22588000D01*
X4252842Y22588001D01*
X4238336Y22660931D01*
X4238334Y22660937D01*
X4174259Y22815627D01*
X4081238Y22954844D01*
X3962843Y23073239D01*
X3823626Y23166260D01*
X3668936Y23230335D01*
X3668930Y23230337D01*
X3504716Y23263000D01*
X3196000Y23263000D01*
X3196000Y22713000D01*
X2846000Y22713000D01*
X2846000Y23263000D01*
X2537284Y23263000D01*
X2373069Y23230337D01*
X2373063Y23230335D01*
X2218373Y23166260D01*
X2079156Y23073239D01*
X2079155Y23073237D01*
X1960763Y22954845D01*
X1960761Y22954844D01*
X1867740Y22815627D01*
X1803665Y22660937D01*
X1803663Y22660931D01*
X1789157Y22588001D01*
X123439Y22588001D01*
X123132Y23882309D01*
X5170500Y23882309D01*
X5170500Y20829868D01*
X5188989Y20760864D01*
X5188988Y20760864D01*
X5201199Y20715293D01*
X5201201Y20715288D01*
X5260508Y20612566D01*
X5260509Y20612565D01*
X5260511Y20612562D01*
X6054573Y19818500D01*
X6833557Y19039516D01*
X6855231Y18987190D01*
X6854320Y18975617D01*
X6850500Y18951495D01*
X6850500Y18767064D01*
X6828826Y18714738D01*
X6818158Y18706553D01*
X6818240Y18706447D01*
X6814390Y18703493D01*
X6260508Y18149611D01*
X6201203Y18046892D01*
X6201199Y18046883D01*
X6199412Y18040216D01*
X6199413Y18040215D01*
X6170500Y17932309D01*
X6170500Y17413689D01*
X6187803Y17349115D01*
X6187803Y17349114D01*
X6201199Y17299118D01*
X6201203Y17299109D01*
X6260509Y17196388D01*
X6260511Y17196386D01*
X6474386Y16982510D01*
X6577113Y16923201D01*
X6577115Y16923201D01*
X6577116Y16923200D01*
X6585184Y16921039D01*
X6601326Y16916714D01*
X6685825Y16894072D01*
X6730758Y16859593D01*
X6738149Y16803440D01*
X6703671Y16758508D01*
X6608377Y16703490D01*
X5489508Y15584619D01*
X5438982Y15497104D01*
X5430201Y15481895D01*
X5425252Y15463423D01*
X5399500Y15367320D01*
X5399500Y15367317D01*
X5399500Y12194691D01*
X5402246Y12184444D01*
X5415899Y12133488D01*
X5415898Y12133488D01*
X5430199Y12080117D01*
X5430201Y12080112D01*
X5489508Y11977390D01*
X5489509Y11977389D01*
X5489511Y11977386D01*
X5606801Y11860096D01*
X5710322Y11756575D01*
X5731996Y11704249D01*
X5710322Y11651923D01*
X5693466Y11639304D01*
X5691179Y11638055D01*
X5579527Y11554473D01*
X5495948Y11442826D01*
X5495947Y11442825D01*
X5447212Y11312159D01*
X5447211Y11312154D01*
X5441000Y11254386D01*
X5441000Y11198000D01*
X5987000Y11198000D01*
X6039326Y11176326D01*
X6061000Y11124000D01*
X6061000Y11023000D01*
X6162000Y11023000D01*
X6214326Y11001326D01*
X6236000Y10949000D01*
X6236000Y10353001D01*
X6242384Y10353001D01*
X6300156Y10359212D01*
X6430824Y10407948D01*
X6430825Y10407949D01*
X6526235Y10479372D01*
X6581113Y10493379D01*
X6614926Y10479373D01*
X6710932Y10407505D01*
X6710931Y10407505D01*
X6788742Y10378483D01*
X6841738Y10358716D01*
X6899557Y10352500D01*
X7262442Y10352501D01*
X7262443Y10352501D01*
X7262443Y10352502D01*
X7320262Y10358716D01*
X7451068Y10407505D01*
X7562831Y10491169D01*
X7646495Y10602932D01*
X7695284Y10733738D01*
X7701500Y10791557D01*
X7701499Y11254442D01*
X7695284Y11312262D01*
X7646495Y11443068D01*
X7562831Y11554831D01*
X7462729Y11629766D01*
X7451067Y11638496D01*
X7451068Y11638496D01*
X7320263Y11687284D01*
X7320260Y11687285D01*
X7262445Y11693500D01*
X7262443Y11693500D01*
X7078255Y11693500D01*
X7025929Y11715174D01*
X6322174Y12418929D01*
X6300500Y12471255D01*
X6300500Y12887400D01*
X6322174Y12939726D01*
X6374500Y12961400D01*
X6399499Y12956427D01*
X6399588Y12956720D01*
X6402563Y12955818D01*
X6402821Y12955766D01*
X6403063Y12955666D01*
X6403069Y12955664D01*
X6567284Y12923000D01*
X7026000Y12923000D01*
X7026000Y13473000D01*
X7376000Y13473000D01*
X7376000Y12923000D01*
X7834716Y12923000D01*
X7998930Y12955664D01*
X7998936Y12955666D01*
X8153626Y13019741D01*
X8292843Y13112762D01*
X8292845Y13112763D01*
X8411237Y13231155D01*
X8411238Y13231157D01*
X8504259Y13370374D01*
X8568334Y13525064D01*
X8568336Y13525070D01*
X8582842Y13598000D01*
X7996375Y13598000D01*
X8030556Y13657204D01*
X8051000Y13733504D01*
X8051000Y13812496D01*
X8030556Y13888796D01*
X7996375Y13948000D01*
X8582843Y13948000D01*
X8582842Y13948001D01*
X8568336Y14020931D01*
X8568334Y14020937D01*
X8504260Y14175626D01*
X8492196Y14193681D01*
X8481147Y14249230D01*
X8512613Y14296322D01*
X8518015Y14299592D01*
X8633188Y14385812D01*
X8719353Y14500912D01*
X8719354Y14500913D01*
X8769596Y14635620D01*
X8769597Y14635625D01*
X8776000Y14695172D01*
X8776000Y14718000D01*
X8101000Y14718000D01*
X8101000Y14237000D01*
X8079326Y14184674D01*
X8027000Y14163000D01*
X7825000Y14163000D01*
X7772674Y14184674D01*
X7751000Y14237000D01*
X7751000Y14718000D01*
X7208531Y14718000D01*
X7156205Y14739674D01*
X7134531Y14792000D01*
X7156204Y14844325D01*
X7161515Y14849635D01*
X7237281Y14980865D01*
X7239098Y14987650D01*
X7273571Y15032583D01*
X7310573Y15042501D01*
X8248872Y15042501D01*
X8308483Y15048909D01*
X8347159Y15063334D01*
X8373019Y15068000D01*
X8776000Y15068000D01*
X8778826Y15070826D01*
X8831152Y15092500D01*
X9557397Y15092500D01*
X9557413Y15092499D01*
X9561943Y15092499D01*
X9720059Y15092499D01*
X9720059Y15092500D01*
X9872785Y15133423D01*
X9922904Y15162361D01*
X10009716Y15212480D01*
X10121520Y15324284D01*
X10121520Y15324286D01*
X10127612Y15330377D01*
X10127614Y15330380D01*
X10248062Y15450826D01*
X10300387Y15472500D01*
X13316084Y15472500D01*
X13368410Y15450826D01*
X13390084Y15398500D01*
X13374792Y15353452D01*
X13343739Y15312984D01*
X13343737Y15312980D01*
X13285799Y15173105D01*
X13271000Y15060689D01*
X13271000Y14948000D01*
X13716000Y14948000D01*
X13716000Y14598000D01*
X13271000Y14598000D01*
X13271000Y14485312D01*
X13285799Y14372896D01*
X13343737Y14233021D01*
X13435905Y14112906D01*
X13556020Y14020738D01*
X13695897Y13962800D01*
X13695894Y13962800D01*
X13729569Y13958367D01*
X13778619Y13930049D01*
X13793278Y13875342D01*
X13764960Y13826292D01*
X13719911Y13811000D01*
X13560627Y13811000D01*
X13501014Y13804591D01*
X13366170Y13754298D01*
X13366169Y13754297D01*
X13250954Y13668046D01*
X13164703Y13552831D01*
X13164702Y13552830D01*
X13114410Y13417988D01*
X13114409Y13417983D01*
X13108000Y13358374D01*
X13108000Y12237627D01*
X13114409Y12178015D01*
X13164702Y12043171D01*
X13164703Y12043170D01*
X13181318Y12020975D01*
X13250954Y11927954D01*
X13366169Y11841704D01*
X13429273Y11818168D01*
X13455738Y11801160D01*
X13595972Y11660926D01*
X13617646Y11608600D01*
X13595972Y11556274D01*
X13551556Y11535024D01*
X13501014Y11529591D01*
X13366170Y11479298D01*
X13366169Y11479297D01*
X13250954Y11393046D01*
X13164703Y11277831D01*
X13164702Y11277830D01*
X13114410Y11142988D01*
X13114409Y11142983D01*
X13108000Y11083374D01*
X13108000Y9962627D01*
X13114409Y9903015D01*
X13164702Y9768171D01*
X13164703Y9768170D01*
X13164704Y9768169D01*
X13250954Y9652954D01*
X13355989Y9574325D01*
X13366169Y9566704D01*
X13366170Y9566703D01*
X13456561Y9532990D01*
X13501017Y9516409D01*
X13560627Y9510000D01*
X13956372Y9510001D01*
X14015983Y9516409D01*
X14143168Y9563846D01*
X14155322Y9563413D01*
X14166387Y9568465D01*
X14182539Y9562441D01*
X14199769Y9561825D01*
X14208057Y9552923D01*
X14219453Y9548672D01*
X14226614Y9532990D01*
X14238362Y9520372D01*
X14242981Y9497153D01*
X14245963Y9413652D01*
X14226170Y9360586D01*
X14174651Y9337058D01*
X14162351Y9337644D01*
X14083688Y9348000D01*
X13996000Y9348000D01*
X13996000Y7698000D01*
X14083688Y7698000D01*
X14196104Y7712800D01*
X14335979Y7770738D01*
X14431984Y7844405D01*
X14486692Y7859064D01*
X14517230Y7847827D01*
X14547503Y7828241D01*
X14547510Y7828237D01*
X14547512Y7828236D01*
X15233826Y7530833D01*
X15233836Y7530831D01*
X15233837Y7530830D01*
X15335666Y7503727D01*
X15335668Y7503727D01*
X15335671Y7503726D01*
X15378795Y7498904D01*
X15484120Y7502848D01*
X17133256Y7813555D01*
X17133257Y7813556D01*
X17133260Y7813556D01*
X17215096Y7839527D01*
X17215101Y7839530D01*
X17215110Y7839532D01*
X17236863Y7849466D01*
X17247384Y7854270D01*
X17247385Y7854272D01*
X17247392Y7854274D01*
X17337460Y7913342D01*
X17410399Y8004858D01*
X17437928Y8054355D01*
X17448038Y8073937D01*
X17480404Y8186399D01*
X17696259Y10057138D01*
X17690471Y10173485D01*
X17680297Y10220234D01*
X17637206Y10328471D01*
X16946867Y11471102D01*
X16945588Y11472956D01*
X16922464Y11506470D01*
X16922455Y11506481D01*
X16913653Y11517718D01*
X16911445Y11520538D01*
X16911443Y11520540D01*
X16911440Y11520544D01*
X16893155Y11539939D01*
X16866893Y11567797D01*
X16779257Y11622501D01*
X16767619Y11629766D01*
X16715304Y11651436D01*
X16694682Y11659238D01*
X16579253Y11678500D01*
X16579251Y11678500D01*
X16023418Y11678500D01*
X15971092Y11700174D01*
X15949418Y11752500D01*
X15971092Y11804826D01*
X15997558Y11821834D01*
X16050829Y11841703D01*
X16050829Y11841704D01*
X16050831Y11841704D01*
X16166046Y11927954D01*
X16252296Y12043169D01*
X16259693Y12063000D01*
X16287266Y12136929D01*
X16302591Y12178017D01*
X16309000Y12237627D01*
X16308999Y13358372D01*
X16308792Y13360293D01*
X16304757Y13397829D01*
X16302591Y13417983D01*
X16292449Y13445174D01*
X16252296Y13552831D01*
X16236260Y13574253D01*
X16221500Y13618599D01*
X16221500Y14049238D01*
X16243174Y14101564D01*
X16250448Y14107944D01*
X16256451Y14112549D01*
X16348698Y14232767D01*
X16406687Y14372764D01*
X16421500Y14485280D01*
X16421500Y15060720D01*
X16406687Y15173236D01*
X16348698Y15313233D01*
X16256451Y15433451D01*
X16250446Y15438059D01*
X16222132Y15487109D01*
X16221500Y15496763D01*
X16221500Y15787971D01*
X16221501Y15787984D01*
X16221501Y15952059D01*
X16221500Y15952060D01*
X16180578Y16104782D01*
X16175061Y16114338D01*
X16101520Y16241716D01*
X16034674Y16308562D01*
X16013000Y16360888D01*
X16013000Y17048501D01*
X16034674Y17100827D01*
X16087000Y17122501D01*
X17086372Y17122501D01*
X17145983Y17128909D01*
X17215430Y17154811D01*
X17280829Y17179203D01*
X17280829Y17179204D01*
X17280831Y17179204D01*
X17396046Y17265454D01*
X17406355Y17279227D01*
X17414308Y17289848D01*
X17463017Y17318747D01*
X17473547Y17319500D01*
X18221624Y17319500D01*
X18221626Y17319500D01*
X18338747Y17350882D01*
X18359499Y17362863D01*
X18415652Y17370257D01*
X18460585Y17335779D01*
X18470500Y17298778D01*
X18470500Y14613689D01*
X18489233Y14543777D01*
X18489233Y14543776D01*
X18501199Y14499118D01*
X18501203Y14499109D01*
X18560508Y14396390D01*
X18560509Y14396389D01*
X18560511Y14396386D01*
X22945387Y10011510D01*
X23030054Y9962628D01*
X23033565Y9960601D01*
X23033566Y9960600D01*
X23048109Y9952203D01*
X23048117Y9952200D01*
X23105402Y9936851D01*
X23162688Y9921501D01*
X23162689Y9921500D01*
X23162691Y9921500D01*
X34100194Y9921500D01*
X34115519Y9915152D01*
X34152519Y9899826D01*
X34174193Y9847500D01*
X34152519Y9795176D01*
X34152518Y9795174D01*
X34102517Y9745174D01*
X34050192Y9723500D01*
X26251689Y9723500D01*
X26137116Y9692801D01*
X26034386Y9633490D01*
X25366069Y8965174D01*
X25313743Y8943500D01*
X25129556Y8943500D01*
X25129555Y8943499D01*
X25071737Y8937284D01*
X24940932Y8888496D01*
X24829169Y8804831D01*
X24745504Y8693068D01*
X24696716Y8562264D01*
X24696715Y8562261D01*
X24690500Y8504445D01*
X24690500Y8410256D01*
X24668826Y8357930D01*
X22816071Y6505174D01*
X22763745Y6483500D01*
X21153326Y6483500D01*
X21101000Y6505174D01*
X21094089Y6513150D01*
X21092831Y6514831D01*
X20981068Y6598495D01*
X20981067Y6598496D01*
X20981068Y6598496D01*
X20850263Y6647284D01*
X20850260Y6647285D01*
X20792444Y6653500D01*
X20329556Y6653500D01*
X20329555Y6653499D01*
X20271737Y6647284D01*
X20140932Y6598496D01*
X20029169Y6514831D01*
X20027913Y6513155D01*
X20026879Y6512541D01*
X20025427Y6511088D01*
X20025056Y6511459D01*
X19979207Y6484253D01*
X19968674Y6483500D01*
X19379261Y6483500D01*
X19334915Y6498260D01*
X19228488Y6577930D01*
X19096339Y6627218D01*
X19096336Y6627219D01*
X19096335Y6627219D01*
X19037915Y6633500D01*
X18604084Y6633500D01*
X18554449Y6628164D01*
X18545665Y6627219D01*
X18468652Y6598495D01*
X18413511Y6577929D01*
X18300597Y6493403D01*
X18216069Y6380487D01*
X18166782Y6248340D01*
X18166781Y6248335D01*
X18160500Y6189916D01*
X18160500Y5816085D01*
X18163477Y5788399D01*
X18166781Y5757665D01*
X18216071Y5625511D01*
X18216072Y5625510D01*
X18259924Y5566929D01*
X18273931Y5512051D01*
X18259924Y5478237D01*
X18216516Y5420251D01*
X18216513Y5420246D01*
X18167275Y5288233D01*
X18167273Y5288227D01*
X18161000Y5229872D01*
X18161000Y5218000D01*
X19481000Y5218000D01*
X19481000Y5229872D01*
X19474726Y5288227D01*
X19474724Y5288233D01*
X19425486Y5420246D01*
X19425485Y5420247D01*
X19392617Y5464153D01*
X19378610Y5519031D01*
X19407510Y5567740D01*
X19451857Y5582500D01*
X19946964Y5582500D01*
X19999290Y5560826D01*
X20020964Y5508500D01*
X20006204Y5464154D01*
X19945506Y5383072D01*
X19945504Y5383069D01*
X19896716Y5252264D01*
X19896715Y5252261D01*
X19890500Y5194445D01*
X19890500Y4831557D01*
X19890501Y4831556D01*
X19896716Y4773738D01*
X19945504Y4642933D01*
X19945505Y4642932D01*
X20029169Y4531169D01*
X20080846Y4492485D01*
X20109747Y4443777D01*
X20110500Y4433245D01*
X20110500Y1982822D01*
X20106236Y1958065D01*
X20103970Y1951685D01*
X20101201Y1946887D01*
X20101201Y1946886D01*
X20097920Y1934643D01*
X20097917Y1934633D01*
X20070500Y1832312D01*
X20070500Y1713689D01*
X20090482Y1639116D01*
X20090482Y1639115D01*
X20101199Y1599118D01*
X20101203Y1599109D01*
X20160508Y1496390D01*
X20160509Y1496389D01*
X20160511Y1496386D01*
X20244386Y1412511D01*
X20347113Y1353201D01*
X20347115Y1353201D01*
X20347116Y1353200D01*
X20355184Y1351039D01*
X20371326Y1346714D01*
X20443618Y1327343D01*
X20461690Y1322500D01*
X20461691Y1322500D01*
X22386500Y1322500D01*
X22438826Y1300826D01*
X22460500Y1248500D01*
X22460500Y989736D01*
X22470427Y921607D01*
X22470427Y921606D01*
X22521801Y816518D01*
X22521802Y816517D01*
X22604517Y733802D01*
X22709607Y682427D01*
X22777740Y672500D01*
X22777746Y672500D01*
X24344254Y672500D01*
X24344260Y672500D01*
X24412393Y682427D01*
X24517483Y733802D01*
X24600198Y816517D01*
X24651573Y921607D01*
X24661500Y989740D01*
X24661500Y2556260D01*
X24651573Y2624393D01*
X24600198Y2729483D01*
X24517483Y2812198D01*
X24517482Y2812199D01*
X24412394Y2863573D01*
X24344264Y2873500D01*
X24344260Y2873500D01*
X22777740Y2873500D01*
X22777735Y2873500D01*
X22709606Y2863573D01*
X22709605Y2863573D01*
X22604517Y2812199D01*
X22521801Y2729483D01*
X22470427Y2624395D01*
X22470427Y2624394D01*
X22460500Y2556265D01*
X22460500Y2297500D01*
X22438826Y2245174D01*
X22386500Y2223500D01*
X21085500Y2223500D01*
X21033174Y2245174D01*
X21011500Y2297500D01*
X21011500Y4025172D01*
X35271000Y4025172D01*
X35277402Y3965625D01*
X35277403Y3965620D01*
X35327645Y3830913D01*
X35327646Y3830912D01*
X35413811Y3715812D01*
X35528911Y3629647D01*
X35528912Y3629646D01*
X35663619Y3579404D01*
X35663624Y3579403D01*
X35723171Y3573000D01*
X35746000Y3573000D01*
X35746000Y4598000D01*
X35271000Y4598000D01*
X35271000Y4025172D01*
X21011500Y4025172D01*
X21011500Y4433245D01*
X21033174Y4485571D01*
X21041149Y4492482D01*
X21092831Y4531169D01*
X21176495Y4642932D01*
X21185008Y4665754D01*
X21198955Y4703150D01*
X21225284Y4773738D01*
X21231500Y4831557D01*
X21231499Y5194442D01*
X21225284Y5252262D01*
X21176495Y5383068D01*
X21115794Y5464156D01*
X21101788Y5519031D01*
X21102855Y5520829D01*
X35271000Y5520829D01*
X35271000Y4948000D01*
X35746000Y4948000D01*
X35746000Y5973000D01*
X35723171Y5973000D01*
X35663624Y5966598D01*
X35663619Y5966597D01*
X35528912Y5916355D01*
X35528911Y5916354D01*
X35413811Y5830189D01*
X35327646Y5715089D01*
X35327645Y5715088D01*
X35277403Y5580381D01*
X35277402Y5580376D01*
X35271000Y5520829D01*
X21102855Y5520829D01*
X21130688Y5567740D01*
X21175035Y5582500D01*
X23040310Y5582500D01*
X23050026Y5585104D01*
X23130673Y5606714D01*
X23130674Y5606714D01*
X23141350Y5609575D01*
X23154887Y5613201D01*
X23257614Y5672511D01*
X25165929Y7580828D01*
X25218255Y7602501D01*
X25492444Y7602501D01*
X25492444Y7602502D01*
X25550262Y7608716D01*
X25681068Y7657505D01*
X25777072Y7729373D01*
X25831949Y7743379D01*
X25865765Y7729372D01*
X25961174Y7657949D01*
X25961175Y7657948D01*
X26091841Y7609213D01*
X26091847Y7609211D01*
X26149613Y7603001D01*
X26506000Y7603001D01*
X26512384Y7603001D01*
X26570156Y7609212D01*
X26700824Y7657948D01*
X26700825Y7657949D01*
X26812472Y7741528D01*
X26896051Y7853175D01*
X26896052Y7853176D01*
X26944787Y7983842D01*
X26944788Y7983847D01*
X26951000Y8041615D01*
X26951000Y8098000D01*
X26506000Y8098000D01*
X26506000Y7603001D01*
X26149613Y7603001D01*
X26155999Y7603002D01*
X26156000Y7603002D01*
X26156000Y8199000D01*
X26177674Y8251326D01*
X26230000Y8273000D01*
X26331000Y8273000D01*
X26331000Y8374000D01*
X26352674Y8426326D01*
X26405000Y8448000D01*
X26950999Y8448000D01*
X26950999Y8504386D01*
X26944788Y8562157D01*
X26896052Y8692825D01*
X26896049Y8692830D01*
X26887572Y8704154D01*
X26873565Y8759031D01*
X26902466Y8807740D01*
X26946812Y8822500D01*
X34050192Y8822500D01*
X34102518Y8800826D01*
X34174458Y8728886D01*
X34289189Y8652225D01*
X34289190Y8652225D01*
X34289191Y8652224D01*
X34416667Y8599422D01*
X34416672Y8599420D01*
X34552007Y8572500D01*
X34552009Y8572500D01*
X34689991Y8572500D01*
X34689993Y8572500D01*
X34825328Y8599420D01*
X34952811Y8652225D01*
X35067542Y8728886D01*
X35165114Y8826458D01*
X35241775Y8941189D01*
X35294580Y9068672D01*
X35321500Y9204007D01*
X35321500Y9341993D01*
X35294580Y9477328D01*
X35281047Y9510000D01*
X35241776Y9604809D01*
X35165116Y9719539D01*
X35165114Y9719542D01*
X35089480Y9795176D01*
X35078721Y9821150D01*
X35067809Y9847007D01*
X35067909Y9847254D01*
X35067807Y9847500D01*
X35078553Y9873446D01*
X35089133Y9899476D01*
X35089378Y9899579D01*
X35089481Y9899826D01*
X35141314Y9921498D01*
X35141614Y9921500D01*
X35279309Y9921500D01*
X35282823Y9922442D01*
X35291263Y9922498D01*
X35291327Y9922472D01*
X35291756Y9922500D01*
X35580311Y9922500D01*
X35580311Y9922501D01*
X35694886Y9953201D01*
X35797613Y10012511D01*
X35881489Y10096387D01*
X35940799Y10199114D01*
X35971499Y10313689D01*
X35971500Y10313689D01*
X35971500Y11664399D01*
X35993174Y11716725D01*
X36045500Y11738399D01*
X36097826Y11716725D01*
X36114835Y11690258D01*
X36116515Y11685753D01*
X36200955Y11572956D01*
X36313753Y11488515D01*
X36313754Y11488514D01*
X36445767Y11439276D01*
X36445773Y11439274D01*
X36504128Y11433000D01*
X36546000Y11433000D01*
X36896000Y11433000D01*
X36937872Y11433000D01*
X36996226Y11439274D01*
X36996232Y11439276D01*
X37128245Y11488514D01*
X37128246Y11488515D01*
X37226653Y11562182D01*
X37281531Y11576189D01*
X37315347Y11562182D01*
X37413753Y11488515D01*
X37413754Y11488514D01*
X37545767Y11439276D01*
X37545773Y11439274D01*
X37604128Y11433000D01*
X37646000Y11433000D01*
X37646000Y11888000D01*
X36896000Y11888000D01*
X36896000Y11433000D01*
X36546000Y11433000D01*
X36546000Y11989000D01*
X36567674Y12041326D01*
X36620000Y12063000D01*
X36721000Y12063000D01*
X36721000Y12164000D01*
X36742674Y12216326D01*
X36795000Y12238000D01*
X37747000Y12238000D01*
X37799326Y12216326D01*
X37821000Y12164000D01*
X37821000Y12063000D01*
X37922000Y12063000D01*
X37974326Y12041326D01*
X37996000Y11989000D01*
X37996000Y11433000D01*
X38037872Y11433000D01*
X38096226Y11439274D01*
X38096232Y11439276D01*
X38228245Y11488514D01*
X38228246Y11488515D01*
X38341045Y11572956D01*
X38341046Y11572957D01*
X38361484Y11600258D01*
X38410192Y11629159D01*
X38465070Y11615152D01*
X38479961Y11600262D01*
X38539169Y11521169D01*
X38539172Y11521167D01*
X38541754Y11517718D01*
X38555761Y11462840D01*
X38534840Y11421045D01*
X36209508Y9095711D01*
X36150201Y8992988D01*
X36147680Y8983577D01*
X36147679Y8983578D01*
X36147679Y8983575D01*
X36119500Y8878412D01*
X36119500Y6027152D01*
X36097826Y5974826D01*
X36096000Y5973000D01*
X36096000Y3573000D01*
X36118829Y3573000D01*
X36178380Y3579403D01*
X36182885Y3580467D01*
X36183464Y3578013D01*
X36232014Y3576300D01*
X36253628Y3561301D01*
X36553418Y3261510D01*
X36656145Y3202201D01*
X36668381Y3198923D01*
X36673551Y3197537D01*
X36673554Y3197537D01*
X36673556Y3197536D01*
X36770720Y3171501D01*
X36770721Y3171500D01*
X36770723Y3171500D01*
X37571278Y3171500D01*
X37595568Y3178009D01*
X37668444Y3197536D01*
X37685855Y3202201D01*
X37788582Y3261511D01*
X38087982Y3560913D01*
X38140307Y3582586D01*
X38158835Y3579243D01*
X38159008Y3579974D01*
X38163512Y3578910D01*
X38163515Y3578910D01*
X38163517Y3578909D01*
X38223127Y3572500D01*
X38618872Y3572501D01*
X38678483Y3578909D01*
X38749557Y3605418D01*
X38813329Y3629203D01*
X38813329Y3629204D01*
X38813331Y3629204D01*
X38928546Y3715454D01*
X38986760Y3793219D01*
X39035469Y3822118D01*
X39090347Y3808111D01*
X39105239Y3793219D01*
X39163454Y3715454D01*
X39278077Y3629647D01*
X39278669Y3629204D01*
X39278670Y3629203D01*
X39371608Y3594540D01*
X39413517Y3578909D01*
X39473127Y3572500D01*
X39868872Y3572501D01*
X39928483Y3578909D01*
X39999557Y3605418D01*
X40063329Y3629203D01*
X40063329Y3629204D01*
X40063331Y3629204D01*
X40178546Y3715454D01*
X40264796Y3830669D01*
X40315091Y3965517D01*
X40321500Y4025127D01*
X40321499Y5387973D01*
X40321500Y5387985D01*
X40321500Y5788399D01*
X40333973Y5829513D01*
X40334664Y5830547D01*
X40341775Y5841189D01*
X40394580Y5968672D01*
X40421500Y6104007D01*
X40421500Y6241993D01*
X40394580Y6377328D01*
X40350602Y6483500D01*
X40341776Y6504809D01*
X40336199Y6513155D01*
X40265114Y6619542D01*
X40167542Y6717114D01*
X40052811Y6793775D01*
X40052810Y6793776D01*
X40052808Y6793777D01*
X39925332Y6846579D01*
X39925322Y6846582D01*
X39834694Y6864609D01*
X39789993Y6873500D01*
X39652007Y6873500D01*
X39613642Y6865869D01*
X39516677Y6846582D01*
X39516667Y6846579D01*
X39389191Y6793777D01*
X39274461Y6717117D01*
X39176883Y6619539D01*
X39100223Y6504809D01*
X39047421Y6377333D01*
X39047418Y6377323D01*
X39020500Y6241992D01*
X39020500Y6104009D01*
X39047418Y5968678D01*
X39047421Y5968668D01*
X39097303Y5848241D01*
X39097303Y5791604D01*
X39057254Y5751556D01*
X39000617Y5751556D01*
X38969697Y5775575D01*
X38928546Y5830546D01*
X38822018Y5910293D01*
X38813330Y5916797D01*
X38813329Y5916798D01*
X38678487Y5967090D01*
X38678484Y5967091D01*
X38678483Y5967091D01*
X38618873Y5973500D01*
X38223127Y5973500D01*
X38163514Y5967091D01*
X38028670Y5916798D01*
X38028669Y5916797D01*
X37913454Y5830546D01*
X37855240Y5752783D01*
X37806530Y5723883D01*
X37751653Y5737890D01*
X37736760Y5752783D01*
X37693293Y5810846D01*
X37678546Y5830546D01*
X37678545Y5830547D01*
X37651152Y5851054D01*
X37622253Y5899763D01*
X37621500Y5910293D01*
X37621500Y7805745D01*
X37643174Y7858071D01*
X39145689Y9360586D01*
X40681490Y10896386D01*
X40740799Y10999113D01*
X40747286Y11023327D01*
X40771500Y11113691D01*
X40771500Y11423245D01*
X40793174Y11475571D01*
X40801149Y11482482D01*
X40852831Y11521169D01*
X40936495Y11632932D01*
X40985284Y11763738D01*
X40991500Y11821557D01*
X40991499Y12184442D01*
X40985284Y12242262D01*
X40936495Y12373068D01*
X40864939Y12468657D01*
X40850933Y12523531D01*
X40864938Y12557343D01*
X40936495Y12652932D01*
X40985284Y12783738D01*
X40991500Y12841557D01*
X40991499Y13204442D01*
X40985284Y13262262D01*
X40949436Y13358373D01*
X40936495Y13393069D01*
X40936493Y13393072D01*
X40852834Y13504828D01*
X40852831Y13504831D01*
X40801153Y13543517D01*
X40798313Y13548302D01*
X40793174Y13550431D01*
X40784208Y13572076D01*
X40772253Y13592226D01*
X40771500Y13602757D01*
X40771500Y13650228D01*
X40793174Y13702554D01*
X40845500Y13724228D01*
X40856827Y13722736D01*
X40856880Y13723133D01*
X40861689Y13722500D01*
X40861691Y13722500D01*
X42796500Y13722500D01*
X42848826Y13700826D01*
X42870500Y13648500D01*
X42870500Y13341513D01*
X42848826Y13289187D01*
X42840847Y13282273D01*
X42792740Y13246260D01*
X42706920Y13131620D01*
X42706919Y13131619D01*
X42656878Y12997451D01*
X42656877Y12997446D01*
X42650500Y12938133D01*
X42650500Y12547868D01*
X42656877Y12488555D01*
X42656878Y12488550D01*
X42706919Y12354382D01*
X42706922Y12354377D01*
X42745872Y12302346D01*
X42759879Y12247469D01*
X42745872Y12213654D01*
X42706922Y12161624D01*
X42706919Y12161619D01*
X42656878Y12027451D01*
X42656877Y12027446D01*
X42651725Y11979522D01*
X42650500Y11968132D01*
X42650500Y11577868D01*
X42656319Y11523740D01*
X42656877Y11518555D01*
X42656878Y11518550D01*
X42706919Y11384382D01*
X42706920Y11384381D01*
X42706921Y11384380D01*
X42792740Y11269740D01*
X42838140Y11235754D01*
X42907380Y11183921D01*
X42907381Y11183920D01*
X42953720Y11166637D01*
X43041554Y11133877D01*
X43095109Y11128120D01*
X43100867Y11127500D01*
X43100868Y11127500D01*
X43541133Y11127500D01*
X43546381Y11128065D01*
X43600446Y11133877D01*
X43714257Y11176326D01*
X43734618Y11183920D01*
X43734618Y11183921D01*
X43734620Y11183921D01*
X43849260Y11269740D01*
X43849263Y11269744D01*
X43866559Y11292847D01*
X43871342Y11295686D01*
X43873472Y11300826D01*
X43895120Y11309793D01*
X43915268Y11321747D01*
X43925798Y11322500D01*
X43971187Y11322500D01*
X44023513Y11300826D01*
X44030427Y11292847D01*
X44039167Y11281171D01*
X44039168Y11281171D01*
X44039169Y11281169D01*
X44150932Y11197505D01*
X44150931Y11197505D01*
X44187351Y11183921D01*
X44281738Y11148716D01*
X44339557Y11142500D01*
X44802442Y11142501D01*
X44802443Y11142501D01*
X44802443Y11142502D01*
X44860262Y11148716D01*
X44991068Y11197505D01*
X45102831Y11281169D01*
X45186495Y11392932D01*
X45235284Y11523738D01*
X45241500Y11581557D01*
X45241499Y11944442D01*
X45235284Y12002262D01*
X45186495Y12133068D01*
X45114627Y12229073D01*
X45100621Y12283949D01*
X45114628Y12317765D01*
X45186052Y12413176D01*
X45234787Y12543842D01*
X45234788Y12543847D01*
X45241000Y12601615D01*
X45241000Y12608000D01*
X44645000Y12608000D01*
X44592674Y12629674D01*
X44571000Y12682000D01*
X44571000Y12783000D01*
X44470000Y12783000D01*
X44417674Y12804674D01*
X44396000Y12857000D01*
X44396000Y12958000D01*
X44746000Y12958000D01*
X45240999Y12958000D01*
X45240999Y12964386D01*
X45234788Y13022157D01*
X45186052Y13152825D01*
X45186051Y13152826D01*
X45102472Y13264473D01*
X44990825Y13348052D01*
X44990824Y13348053D01*
X44860158Y13396788D01*
X44860153Y13396789D01*
X44802386Y13403000D01*
X44746000Y13403000D01*
X44746000Y12958000D01*
X44396000Y12958000D01*
X44396000Y13403000D01*
X44395999Y13403001D01*
X44339615Y13403000D01*
X44339614Y13402999D01*
X44281843Y13396789D01*
X44151175Y13348053D01*
X44151174Y13348052D01*
X44039527Y13264473D01*
X44039526Y13264472D01*
X43996815Y13207418D01*
X43948106Y13178519D01*
X43893228Y13192527D01*
X43885925Y13198774D01*
X43881792Y13202803D01*
X43849260Y13246260D01*
X43797300Y13285157D01*
X43793849Y13288521D01*
X43784433Y13310453D01*
X43772253Y13330982D01*
X43771580Y13340393D01*
X43771506Y13340565D01*
X43771558Y13340697D01*
X43771500Y13341513D01*
X43771500Y14032311D01*
X43771499Y14032312D01*
X43764374Y14058901D01*
X43743311Y14137511D01*
X43740799Y14146887D01*
X43681490Y14249614D01*
X43397614Y14533489D01*
X43397612Y14533491D01*
X43294891Y14592797D01*
X43294889Y14592798D01*
X43294887Y14592799D01*
X43293585Y14593148D01*
X43270674Y14599288D01*
X43270674Y14599287D01*
X43180309Y14623500D01*
X41138255Y14623500D01*
X41085929Y14645174D01*
X39893174Y15837929D01*
X39871500Y15890255D01*
X39871500Y17032311D01*
X39871499Y17032312D01*
X39862316Y17066582D01*
X39853600Y17099114D01*
X39840800Y17146883D01*
X39840798Y17146888D01*
X39803611Y17211297D01*
X39781488Y17249615D01*
X39667674Y17363429D01*
X39655425Y17393000D01*
X39996000Y17393000D01*
X40037872Y17393000D01*
X40096226Y17399274D01*
X40096232Y17399276D01*
X40228245Y17448514D01*
X40228246Y17448515D01*
X40341044Y17532956D01*
X40425485Y17645754D01*
X40425486Y17645755D01*
X40474724Y17777768D01*
X40474726Y17777774D01*
X40481000Y17836129D01*
X40481000Y17848000D01*
X39996000Y17848000D01*
X39996000Y17393000D01*
X39655425Y17393000D01*
X39646000Y17415755D01*
X39646000Y17949000D01*
X39667674Y18001326D01*
X39720000Y18023000D01*
X39821000Y18023000D01*
X39821000Y18124000D01*
X39835364Y18158679D01*
X55371001Y18158679D01*
X55386443Y18041372D01*
X55386444Y18041368D01*
X55446900Y17895413D01*
X55543075Y17770076D01*
X55668412Y17673901D01*
X55814369Y17613444D01*
X55931678Y17598001D01*
X56646000Y17598001D01*
X56996000Y17598001D01*
X57710321Y17598001D01*
X57827628Y17613444D01*
X57827632Y17613445D01*
X57973587Y17673901D01*
X58098924Y17770076D01*
X58195099Y17895413D01*
X58255556Y18041370D01*
X58271000Y18158679D01*
X58271000Y18298000D01*
X56996000Y18298000D01*
X56996000Y17598001D01*
X56646000Y17598001D01*
X56646000Y18298000D01*
X55371001Y18298000D01*
X55371001Y18158679D01*
X39835364Y18158679D01*
X39842674Y18176326D01*
X39895000Y18198000D01*
X40481000Y18198000D01*
X40481000Y18198500D01*
X40502674Y18250826D01*
X40555000Y18272500D01*
X40639991Y18272500D01*
X40639993Y18272500D01*
X40775328Y18299420D01*
X40902811Y18352225D01*
X41017542Y18428886D01*
X41115114Y18526458D01*
X41191775Y18641189D01*
X41244580Y18768672D01*
X41257998Y18836129D01*
X42661000Y18836129D01*
X42667273Y18777774D01*
X42667275Y18777768D01*
X42716513Y18645755D01*
X42716514Y18645754D01*
X42800955Y18532956D01*
X42913753Y18448515D01*
X42913754Y18448514D01*
X43045767Y18399276D01*
X43045773Y18399274D01*
X43104128Y18393000D01*
X43146000Y18393000D01*
X43496000Y18393000D01*
X43537872Y18393000D01*
X43596226Y18399274D01*
X43596232Y18399276D01*
X43728245Y18448514D01*
X43728246Y18448515D01*
X43841044Y18532956D01*
X43925485Y18645754D01*
X43925486Y18645755D01*
X43974724Y18777768D01*
X43974726Y18777774D01*
X43981000Y18836129D01*
X45661000Y18836129D01*
X45667273Y18777774D01*
X45667275Y18777768D01*
X45716513Y18645755D01*
X45716514Y18645754D01*
X45800955Y18532956D01*
X45913753Y18448515D01*
X45913754Y18448514D01*
X46045767Y18399276D01*
X46045773Y18399274D01*
X46104128Y18393000D01*
X46146000Y18393000D01*
X46496000Y18393000D01*
X46537872Y18393000D01*
X46596226Y18399274D01*
X46596233Y18399276D01*
X46728245Y18448514D01*
X46728246Y18448515D01*
X46841044Y18532956D01*
X46925485Y18645754D01*
X46925486Y18645755D01*
X46974724Y18777768D01*
X46974726Y18777774D01*
X46981000Y18836129D01*
X46981000Y18848000D01*
X46496000Y18848000D01*
X46496000Y18393000D01*
X46146000Y18393000D01*
X46146000Y18848000D01*
X45661000Y18848000D01*
X45661000Y18836129D01*
X43981000Y18836129D01*
X43981000Y18848000D01*
X43496000Y18848000D01*
X43496000Y18393000D01*
X43146000Y18393000D01*
X43146000Y18848000D01*
X42661000Y18848000D01*
X42661000Y18836129D01*
X41257998Y18836129D01*
X41271500Y18904007D01*
X41271500Y19041993D01*
X41244580Y19177328D01*
X41191775Y19304811D01*
X41115114Y19419542D01*
X41083480Y19451176D01*
X41061807Y19503500D01*
X41083481Y19555826D01*
X41135807Y19577500D01*
X42699998Y19577500D01*
X42705150Y19575366D01*
X42710553Y19576743D01*
X42730687Y19564788D01*
X42752324Y19555826D01*
X42759252Y19547828D01*
X42759938Y19546911D01*
X42773927Y19492028D01*
X42759924Y19458237D01*
X42716516Y19400251D01*
X42716513Y19400246D01*
X42667275Y19268233D01*
X42667273Y19268227D01*
X42661000Y19209872D01*
X42661000Y19198000D01*
X43981000Y19198000D01*
X43981000Y19209870D01*
X43977923Y19238485D01*
X43993879Y19292829D01*
X44043587Y19319973D01*
X44061893Y19318828D01*
X44061952Y19319372D01*
X44066553Y19318878D01*
X44066554Y19318877D01*
X44102503Y19315012D01*
X44125867Y19312500D01*
X44125868Y19312500D01*
X44516133Y19312500D01*
X44521381Y19313065D01*
X44575446Y19318877D01*
X44665596Y19352501D01*
X44709618Y19368920D01*
X44709618Y19368921D01*
X44709620Y19368921D01*
X44761653Y19407874D01*
X44816531Y19421880D01*
X44850347Y19407873D01*
X44902380Y19368921D01*
X44902381Y19368920D01*
X44975668Y19341586D01*
X45036554Y19318877D01*
X45090109Y19313120D01*
X45095867Y19312500D01*
X45095868Y19312500D01*
X45486133Y19312500D01*
X45491381Y19313065D01*
X45545446Y19318877D01*
X45565792Y19326466D01*
X45622392Y19324447D01*
X45660987Y19282996D01*
X45665230Y19249224D01*
X45661000Y19209874D01*
X45661000Y19198000D01*
X46981000Y19198000D01*
X46981000Y19209872D01*
X46974726Y19268227D01*
X46974724Y19268233D01*
X46925486Y19400246D01*
X46925485Y19400247D01*
X46911332Y19419153D01*
X46897325Y19474031D01*
X46926225Y19522740D01*
X46970572Y19537500D01*
X48709787Y19537500D01*
X48728939Y19534979D01*
X48742128Y19531445D01*
X48756847Y19527500D01*
X48756848Y19527500D01*
X48756849Y19527500D01*
X49094557Y19527500D01*
X49146883Y19505826D01*
X49160491Y19487096D01*
X49183342Y19442249D01*
X49277250Y19348341D01*
X49335073Y19318879D01*
X49395579Y19288050D01*
X49395579Y19288049D01*
X49493753Y19272500D01*
X49493754Y19272500D01*
X49697247Y19272500D01*
X49716880Y19275610D01*
X49795420Y19288049D01*
X49827711Y19304503D01*
X49884170Y19308947D01*
X49906649Y19289749D01*
X50012386Y19273000D01*
X50404614Y19273000D01*
X50509497Y19289614D01*
X50522026Y19304283D01*
X50578488Y19308729D01*
X50589209Y19304288D01*
X50621080Y19288049D01*
X50621079Y19288049D01*
X50719253Y19272500D01*
X50719254Y19272500D01*
X50922747Y19272500D01*
X51020920Y19288049D01*
X51139251Y19348342D01*
X51233158Y19442249D01*
X51256009Y19487096D01*
X51299076Y19523878D01*
X51321943Y19527500D01*
X54392201Y19527500D01*
X54444527Y19505826D01*
X54460567Y19481820D01*
X54477446Y19441071D01*
X54496464Y19395159D01*
X54592715Y19269721D01*
X54592720Y19269716D01*
X54664403Y19214712D01*
X54718159Y19173464D01*
X54864238Y19112956D01*
X54981639Y19097500D01*
X55355584Y19097501D01*
X55407910Y19075827D01*
X55429584Y19023501D01*
X55423951Y18995183D01*
X55386443Y18904631D01*
X55371000Y18787322D01*
X55371000Y18648000D01*
X58270999Y18648000D01*
X58270999Y18787322D01*
X58255556Y18904629D01*
X58255555Y18904633D01*
X58195099Y19050588D01*
X58098924Y19175925D01*
X57973586Y19272101D01*
X57966679Y19274962D01*
X57926632Y19315012D01*
X57921000Y19343328D01*
X57921000Y20552674D01*
X57942674Y20605000D01*
X57966687Y20621043D01*
X57973588Y20623902D01*
X58098924Y20720076D01*
X58195099Y20845413D01*
X58255556Y20991370D01*
X58271000Y21108679D01*
X58271000Y21248000D01*
X55371001Y21248000D01*
X55371001Y21108679D01*
X55386443Y20991372D01*
X55386444Y20991368D01*
X55423951Y20900818D01*
X55423951Y20844181D01*
X55383902Y20804133D01*
X55355584Y20798500D01*
X54981640Y20798500D01*
X54864240Y20783045D01*
X54864236Y20783044D01*
X54718159Y20722537D01*
X54592720Y20626285D01*
X54592715Y20626280D01*
X54496463Y20500841D01*
X54481279Y20464182D01*
X54441231Y20424133D01*
X54412912Y20418500D01*
X51321943Y20418500D01*
X51269617Y20440174D01*
X51256009Y20458904D01*
X51244867Y20480771D01*
X51233158Y20503751D01*
X51139251Y20597658D01*
X51139249Y20597660D01*
X51020920Y20657951D01*
X51020920Y20657952D01*
X50922747Y20673500D01*
X50922746Y20673500D01*
X50719254Y20673500D01*
X50719253Y20673500D01*
X50621082Y20657952D01*
X50621080Y20657952D01*
X50621080Y20657951D01*
X50589217Y20641716D01*
X50532755Y20637273D01*
X50510574Y20656218D01*
X50404616Y20673000D01*
X50012385Y20673000D01*
X49907635Y20656410D01*
X49894900Y20641498D01*
X49838437Y20637055D01*
X49827713Y20641497D01*
X49795420Y20657951D01*
X49795418Y20657952D01*
X49795417Y20657952D01*
X49697247Y20673500D01*
X49697246Y20673500D01*
X49493754Y20673500D01*
X49493753Y20673500D01*
X49395579Y20657952D01*
X49395579Y20657951D01*
X49277250Y20597660D01*
X49183342Y20503752D01*
X49160491Y20458904D01*
X49117424Y20422122D01*
X49094557Y20418500D01*
X48911213Y20418500D01*
X48892060Y20421022D01*
X48878871Y20424556D01*
X48864153Y20428500D01*
X48864152Y20428500D01*
X48864151Y20428500D01*
X46912059Y20428500D01*
X46859733Y20450174D01*
X46852819Y20458153D01*
X46841404Y20473402D01*
X46828339Y20483182D01*
X46728489Y20557929D01*
X46728488Y20557930D01*
X46728486Y20557931D01*
X46596339Y20607218D01*
X46596336Y20607219D01*
X46596335Y20607219D01*
X46537915Y20613500D01*
X46104084Y20613500D01*
X46054449Y20608164D01*
X46045665Y20607219D01*
X46004861Y20592000D01*
X45913509Y20557929D01*
X45867059Y20523157D01*
X45812181Y20509151D01*
X45778367Y20523158D01*
X45679619Y20597080D01*
X45679618Y20597081D01*
X45545450Y20647122D01*
X45545447Y20647123D01*
X45545446Y20647123D01*
X45515789Y20650312D01*
X45486133Y20653500D01*
X45486132Y20653500D01*
X45095868Y20653500D01*
X45095867Y20653500D01*
X45036554Y20647123D01*
X45036549Y20647122D01*
X44902381Y20597081D01*
X44902376Y20597078D01*
X44850346Y20558128D01*
X44795469Y20544121D01*
X44761654Y20558128D01*
X44709623Y20597078D01*
X44709618Y20597081D01*
X44575450Y20647122D01*
X44575447Y20647123D01*
X44575446Y20647123D01*
X44545789Y20650312D01*
X44516133Y20653500D01*
X44516132Y20653500D01*
X44125868Y20653500D01*
X44125867Y20653500D01*
X44066554Y20647123D01*
X44066549Y20647122D01*
X43932381Y20597081D01*
X43932380Y20597080D01*
X43848632Y20534386D01*
X43793754Y20520379D01*
X43759939Y20534386D01*
X43728489Y20557929D01*
X43728488Y20557930D01*
X43728486Y20557931D01*
X43596339Y20607218D01*
X43596336Y20607219D01*
X43596335Y20607219D01*
X43537915Y20613500D01*
X43104084Y20613500D01*
X43054449Y20608164D01*
X43045665Y20607219D01*
X42913511Y20557929D01*
X42913510Y20557929D01*
X42913509Y20557928D01*
X42813764Y20483260D01*
X42769418Y20468500D01*
X40555000Y20468500D01*
X40502674Y20490174D01*
X40498323Y20500677D01*
X40481000Y20518000D01*
X39895000Y20518000D01*
X39842674Y20539674D01*
X39821000Y20592000D01*
X39821000Y20794000D01*
X39842674Y20846326D01*
X39895000Y20868000D01*
X40481000Y20868000D01*
X40494788Y20881789D01*
X40502674Y20900826D01*
X40555000Y20922500D01*
X40589991Y20922500D01*
X40589993Y20922500D01*
X40725328Y20949420D01*
X40852811Y21002225D01*
X40967542Y21078886D01*
X41065114Y21176458D01*
X41141775Y21291189D01*
X41194580Y21418672D01*
X41221500Y21554007D01*
X41221500Y21691993D01*
X41214644Y21726458D01*
X41212483Y21737322D01*
X55371000Y21737322D01*
X55371000Y21598000D01*
X56646000Y21598000D01*
X56996000Y21598000D01*
X58270999Y21598000D01*
X58270999Y21737322D01*
X58255556Y21854629D01*
X58255555Y21854633D01*
X58195099Y22000588D01*
X58098924Y22125925D01*
X57973587Y22222100D01*
X57827630Y22282557D01*
X57710321Y22298000D01*
X56996000Y22298000D01*
X56996000Y21598000D01*
X56646000Y21598000D01*
X56646000Y22298000D01*
X55931678Y22298000D01*
X55814371Y22282557D01*
X55814367Y22282556D01*
X55668412Y22222100D01*
X55543075Y22125925D01*
X55446900Y22000588D01*
X55386443Y21854631D01*
X55371000Y21737322D01*
X41212483Y21737322D01*
X41194580Y21827328D01*
X41194578Y21827333D01*
X41141776Y21954809D01*
X41113058Y21997788D01*
X41065114Y22069542D01*
X41012203Y22122453D01*
X40990530Y22174777D01*
X41012203Y22227102D01*
X41281489Y22496386D01*
X41325433Y22572500D01*
X41340799Y22599114D01*
X41371499Y22713689D01*
X41371500Y22713689D01*
X41371500Y23585322D01*
X41393174Y23637648D01*
X41400775Y23644277D01*
X41513922Y23730078D01*
X41605361Y23850658D01*
X41660877Y23991436D01*
X41671500Y24079898D01*
X41671500Y24666102D01*
X41660877Y24754564D01*
X41605361Y24895342D01*
X41513922Y25015922D01*
X41510343Y25019501D01*
X41512006Y25021165D01*
X41487396Y25063243D01*
X41501746Y25118032D01*
X41510283Y25126566D01*
X41509989Y25126860D01*
X41513563Y25130435D01*
X41604922Y25250908D01*
X41660385Y25391557D01*
X41671000Y25479939D01*
X41671000Y25598000D01*
X40995000Y25598000D01*
X40942674Y25619674D01*
X40921000Y25672000D01*
X40921000Y25773000D01*
X40820000Y25773000D01*
X40767674Y25794674D01*
X40746000Y25847000D01*
X40746000Y25948000D01*
X41096000Y25948000D01*
X41671000Y25948000D01*
X41671000Y26066062D01*
X41660385Y26154444D01*
X41604922Y26295093D01*
X41513564Y26415565D01*
X41393092Y26506923D01*
X41252443Y26562386D01*
X41164061Y26573000D01*
X41096000Y26573000D01*
X41096000Y25948000D01*
X40746000Y25948000D01*
X40746000Y26573000D01*
X40677939Y26573000D01*
X40589556Y26562386D01*
X40448906Y26506922D01*
X40416125Y26482064D01*
X40361335Y26467718D01*
X40326700Y26482065D01*
X40293341Y26507362D01*
X40191978Y26547334D01*
X40152564Y26562877D01*
X40123076Y26566418D01*
X40064104Y26573500D01*
X40064102Y26573500D01*
X39577898Y26573500D01*
X39577896Y26573500D01*
X39489436Y26562877D01*
X39348658Y26507362D01*
X39228078Y26415923D01*
X39228077Y26415922D01*
X39136637Y26295341D01*
X39126785Y26270354D01*
X39087426Y26229627D01*
X39057944Y26223500D01*
X38661689Y26223500D01*
X38590367Y26204389D01*
X38571326Y26199287D01*
X38557345Y26195541D01*
X38547111Y26192799D01*
X38444389Y26133492D01*
X38297826Y25986929D01*
X38245500Y25965255D01*
X38193174Y25986929D01*
X38171500Y26039255D01*
X38171500Y26060719D01*
X38156687Y26173235D01*
X38156687Y26173236D01*
X38133329Y26229627D01*
X38098698Y26313233D01*
X38006451Y26433451D01*
X37887951Y26524380D01*
X37859633Y26573430D01*
X37859000Y26583088D01*
X37859000Y27334745D01*
X37880674Y27387071D01*
X37887952Y27393453D01*
X37889331Y27394511D01*
X38008244Y27485756D01*
X38099489Y27604669D01*
X38156848Y27743146D01*
X38171500Y27854439D01*
X38171500Y27856767D01*
X52220500Y27856767D01*
X52220500Y27689234D01*
X52253182Y27524925D01*
X52253184Y27524918D01*
X52317296Y27370138D01*
X52317297Y27370137D01*
X52410374Y27230838D01*
X52528838Y27112374D01*
X52668137Y27019297D01*
X52822918Y26955184D01*
X52987233Y26922500D01*
X52987234Y26922500D01*
X53154766Y26922500D01*
X53154767Y26922500D01*
X53319082Y26955184D01*
X53473863Y27019297D01*
X53613162Y27112374D01*
X53731626Y27230838D01*
X53824703Y27370137D01*
X53888816Y27524918D01*
X53921500Y27689233D01*
X53921500Y27856767D01*
X53888816Y28021082D01*
X53824703Y28175863D01*
X53731626Y28315162D01*
X53613162Y28433626D01*
X53604771Y28439233D01*
X53473862Y28526704D01*
X53319082Y28590816D01*
X53319075Y28590818D01*
X53195288Y28615440D01*
X53154767Y28623500D01*
X52987233Y28623500D01*
X52954728Y28617035D01*
X52822924Y28590818D01*
X52822917Y28590816D01*
X52668137Y28526704D01*
X52528841Y28433629D01*
X52410371Y28315159D01*
X52317296Y28175863D01*
X52253184Y28021083D01*
X52253182Y28021076D01*
X52220500Y27856767D01*
X38171500Y27856767D01*
X38171499Y28274918D01*
X38171499Y28691560D01*
X38167489Y28722023D01*
X38156848Y28802854D01*
X38099489Y28941331D01*
X38099487Y28941334D01*
X38008246Y29060242D01*
X38008241Y29060247D01*
X37889330Y29151490D01*
X37750856Y29208848D01*
X37750852Y29208849D01*
X37668863Y29219643D01*
X37639561Y29223500D01*
X37639559Y29223500D01*
X37127440Y29223500D01*
X37016148Y29208849D01*
X37016144Y29208848D01*
X36877669Y29151490D01*
X36758758Y29060247D01*
X36758753Y29060242D01*
X36667510Y28941331D01*
X36610152Y28802857D01*
X36610151Y28802853D01*
X36595500Y28691560D01*
X36595500Y27854441D01*
X36610151Y27743149D01*
X36610152Y27743145D01*
X36667510Y27604670D01*
X36758753Y27485759D01*
X36758758Y27485754D01*
X36879048Y27393453D01*
X36907367Y27344404D01*
X36908000Y27334745D01*
X36908000Y26596780D01*
X36886326Y26544454D01*
X36862324Y26528415D01*
X36855767Y26525699D01*
X36735549Y26433451D01*
X36654393Y26327688D01*
X36605343Y26299370D01*
X36550636Y26314029D01*
X36536977Y26327688D01*
X36456094Y26433095D01*
X36335979Y26525263D01*
X36196104Y26583201D01*
X36083688Y26598000D01*
X35996000Y26598000D01*
X35996000Y25847000D01*
X35974326Y25794674D01*
X35922000Y25773000D01*
X35821000Y25773000D01*
X35821000Y25672000D01*
X35799326Y25619674D01*
X35747000Y25598000D01*
X35021000Y25598000D01*
X35021000Y25485312D01*
X35035799Y25372896D01*
X35093737Y25233021D01*
X35182343Y25117549D01*
X35197002Y25062842D01*
X35168684Y25013792D01*
X35123635Y24998500D01*
X35008397Y24998500D01*
X34887464Y24966096D01*
X34779036Y24903496D01*
X34416706Y24541166D01*
X34364380Y24519492D01*
X34312054Y24541166D01*
X34290380Y24593492D01*
X34290804Y24601397D01*
X34291500Y24607868D01*
X34291500Y24998132D01*
X34291460Y24998500D01*
X34289209Y25019437D01*
X34285123Y25057446D01*
X34274860Y25084963D01*
X34235080Y25191619D01*
X34235079Y25191620D01*
X34215097Y25218313D01*
X34196126Y25243654D01*
X34182120Y25298531D01*
X34196127Y25332347D01*
X34235079Y25384380D01*
X34285123Y25518554D01*
X34291500Y25577868D01*
X34291500Y25968132D01*
X34285123Y26027446D01*
X34283356Y26032182D01*
X34281465Y26037255D01*
X34281465Y26037256D01*
X34272725Y26060689D01*
X35021000Y26060689D01*
X35021000Y25948000D01*
X35646000Y25948000D01*
X35646000Y26598000D01*
X35558312Y26598000D01*
X35445895Y26583201D01*
X35306020Y26525263D01*
X35185905Y26433095D01*
X35093737Y26312980D01*
X35035799Y26173105D01*
X35021000Y26060689D01*
X34272725Y26060689D01*
X34235080Y26161619D01*
X34232544Y26166263D01*
X34233935Y26167023D01*
X34221500Y26204389D01*
X34221500Y27598500D01*
X34243174Y27650826D01*
X34295500Y27672500D01*
X34464970Y27672500D01*
X34517296Y27650826D01*
X34533335Y27626821D01*
X34542511Y27604670D01*
X34542512Y27604667D01*
X34633753Y27485759D01*
X34633758Y27485754D01*
X34752669Y27394511D01*
X34891143Y27337153D01*
X34891144Y27337153D01*
X34891146Y27337152D01*
X35002439Y27322500D01*
X35514560Y27322501D01*
X35625854Y27337152D01*
X35764331Y27394511D01*
X35883244Y27485756D01*
X35974489Y27604669D01*
X36031848Y27743146D01*
X36046500Y27854439D01*
X36046499Y28691560D01*
X36031848Y28802854D01*
X35974489Y28941331D01*
X35974487Y28941334D01*
X35883246Y29060242D01*
X35883241Y29060247D01*
X35764330Y29151490D01*
X35625856Y29208848D01*
X35625852Y29208849D01*
X35543863Y29219643D01*
X35514561Y29223500D01*
X35514559Y29223500D01*
X35002440Y29223500D01*
X34891148Y29208849D01*
X34891144Y29208848D01*
X34752669Y29151490D01*
X34633758Y29060247D01*
X34633753Y29060242D01*
X34542512Y28941334D01*
X34542511Y28941331D01*
X34533336Y28919182D01*
X34493290Y28879133D01*
X34464970Y28873500D01*
X34054604Y28873500D01*
X34054588Y28873501D01*
X34050058Y28873501D01*
X33891943Y28873501D01*
X33891941Y28873501D01*
X33739218Y28832579D01*
X33602283Y28753520D01*
X33271945Y28423183D01*
X33219619Y28401509D01*
X33167293Y28423183D01*
X33147680Y28458166D01*
X33136723Y28503614D01*
X33130246Y28530482D01*
X33130244Y28530488D01*
X33130244Y28530489D01*
X33116902Y28565461D01*
X33116896Y28565474D01*
X33074038Y28645371D01*
X33074031Y28645382D01*
X32357928Y29647926D01*
X32343274Y29666569D01*
X32337755Y29673591D01*
X32328887Y29683865D01*
X32328879Y29683873D01*
X32290116Y29722359D01*
X32290113Y29722361D01*
X32189709Y29782481D01*
X32136991Y29803182D01*
X32136989Y29803183D01*
X32136973Y29803189D01*
X32116242Y29810596D01*
X32116240Y29810597D01*
X32116239Y29810597D01*
X32116237Y29810598D01*
X32116235Y29810598D01*
X32000471Y29827719D01*
X31213923Y29813153D01*
X31213837Y29813151D01*
X31211816Y29813108D01*
X31211692Y29813106D01*
X31211168Y29813093D01*
X31187898Y29811765D01*
X31187894Y29811765D01*
X31168801Y29806786D01*
X31154236Y29804506D01*
X30723641Y29780585D01*
X30723621Y29780583D01*
X30661340Y29771541D01*
X30661329Y29771539D01*
X30635932Y29765516D01*
X30635921Y29765513D01*
X30556289Y29736221D01*
X30556286Y29736220D01*
X30556285Y29736219D01*
X30556283Y29736218D01*
X30556282Y29736217D01*
X30462239Y29666568D01*
X30422894Y29625827D01*
X30408083Y29609508D01*
X30347858Y29509177D01*
X30347854Y29509167D01*
X30230958Y29212433D01*
X30220383Y29193949D01*
X30214600Y29186560D01*
X30210549Y29183451D01*
X30129296Y29077562D01*
X30128959Y29077130D01*
X30104582Y29063365D01*
X30080342Y29049370D01*
X30079974Y29049469D01*
X30079642Y29049281D01*
X30052696Y29056778D01*
X30025635Y29064029D01*
X30025250Y29064414D01*
X30025077Y29064462D01*
X30024914Y29064750D01*
X30011976Y29077688D01*
X29931094Y29183095D01*
X29810979Y29275263D01*
X29671104Y29333201D01*
X29558688Y29348000D01*
X29471000Y29348000D01*
X29471000Y27698000D01*
X29558688Y27698000D01*
X29671104Y27712800D01*
X29810979Y27770738D01*
X29931094Y27862906D01*
X30011977Y27968313D01*
X30061026Y27996631D01*
X30115734Y27981972D01*
X30129393Y27968313D01*
X30210549Y27862549D01*
X30330767Y27770302D01*
X30470764Y27712313D01*
X30583280Y27697500D01*
X30613377Y27697500D01*
X30665703Y27675826D01*
X30670650Y27670360D01*
X30762703Y27557851D01*
X30794752Y27524925D01*
X30805389Y27513997D01*
X30805398Y27513989D01*
X30824582Y27497409D01*
X30824585Y27497407D01*
X30874142Y27461534D01*
X30874144Y27461533D01*
X30874150Y27461529D01*
X31703344Y26964013D01*
X31730813Y26934914D01*
X31731747Y26933132D01*
X31750218Y26892681D01*
X31754222Y26884211D01*
X31766135Y26867525D01*
X31768496Y26863022D01*
X31768977Y26857690D01*
X31828377Y26768792D01*
X31835215Y26755998D01*
X31851872Y26715784D01*
X31856083Y26701905D01*
X31864578Y26659204D01*
X31866000Y26644765D01*
X31866000Y26601237D01*
X31864578Y26586798D01*
X31856083Y26544099D01*
X31851872Y26530220D01*
X31830525Y26478682D01*
X31790477Y26438633D01*
X31766953Y26433954D01*
X31766000Y26433000D01*
X31766000Y25083652D01*
X31746000Y25035368D01*
X31746000Y23863000D01*
X31757871Y23863000D01*
X31788589Y23866303D01*
X31842932Y23850347D01*
X31870076Y23800638D01*
X31870500Y23792727D01*
X31870500Y23704009D01*
X31897418Y23568678D01*
X31897421Y23568668D01*
X31950223Y23441192D01*
X31950224Y23441190D01*
X31950225Y23441189D01*
X32026886Y23326458D01*
X32098826Y23254518D01*
X32120500Y23202193D01*
X32120500Y23072500D01*
X32098826Y23020174D01*
X32046501Y22998500D01*
X31975997Y22998500D01*
X31879284Y22983182D01*
X31762718Y22923789D01*
X31670211Y22831282D01*
X31610817Y22714715D01*
X31595500Y22618005D01*
X31595500Y22072500D01*
X31573826Y22020174D01*
X31521500Y21998500D01*
X31134397Y21998500D01*
X31082071Y22020174D01*
X29515411Y23586835D01*
X29495947Y23621211D01*
X29464000Y23749000D01*
X29210000Y24003000D01*
X29062198Y24003000D01*
X29043046Y24005521D01*
X28938626Y24033500D01*
X18698744Y24033500D01*
X18581623Y24002118D01*
X18581622Y24002118D01*
X18581620Y24002117D01*
X18581618Y24002116D01*
X18509364Y23960399D01*
X18476615Y23941492D01*
X16157508Y21622385D01*
X16096884Y21517382D01*
X16096883Y21517380D01*
X16096882Y21517378D01*
X16096882Y21517377D01*
X16065500Y21400256D01*
X16065500Y21400254D01*
X16065500Y20397500D01*
X16043826Y20345174D01*
X15991500Y20323500D01*
X15978073Y20323500D01*
X15925747Y20345174D01*
X15913987Y20360500D01*
X15893480Y20396019D01*
X15893020Y20396816D01*
X15152339Y21137496D01*
X15152338Y21137498D01*
X15036316Y21253520D01*
X14940264Y21308975D01*
X14940263Y21308977D01*
X14899386Y21332577D01*
X14899381Y21332579D01*
X14746659Y21373501D01*
X14746657Y21373501D01*
X14588543Y21373501D01*
X14584013Y21373501D01*
X14583997Y21373500D01*
X13904604Y21373500D01*
X13904588Y21373501D01*
X13900058Y21373501D01*
X13741943Y21373501D01*
X13741941Y21373501D01*
X13589218Y21332579D01*
X13589213Y21332577D01*
X13452283Y21253520D01*
X13313938Y21115174D01*
X13261612Y21093500D01*
X8826152Y21093500D01*
X8773826Y21115174D01*
X8771000Y21118000D01*
X8373019Y21118000D01*
X8347159Y21122666D01*
X8308487Y21137090D01*
X8308484Y21137091D01*
X8308483Y21137091D01*
X8265466Y21141716D01*
X8248874Y21143500D01*
X7770000Y21143500D01*
X7717674Y21165174D01*
X7696000Y21217500D01*
X7696000Y21219000D01*
X7717674Y21271326D01*
X7770000Y21293000D01*
X7871000Y21293000D01*
X7871000Y21394000D01*
X7892674Y21446326D01*
X7945000Y21468000D01*
X8771000Y21468000D01*
X8771000Y21490829D01*
X8764597Y21550376D01*
X8764596Y21550381D01*
X8714354Y21685088D01*
X8714353Y21685089D01*
X8628188Y21800189D01*
X8508852Y21889525D01*
X8510694Y21891986D01*
X8481382Y21928371D01*
X8487445Y21984682D01*
X8490861Y21990322D01*
X8504259Y22010373D01*
X8568334Y22165064D01*
X8568336Y22165070D01*
X8582842Y22238000D01*
X7996375Y22238000D01*
X8030556Y22297204D01*
X8051000Y22373504D01*
X8051000Y22452496D01*
X8030556Y22528796D01*
X7996375Y22588000D01*
X8582843Y22588000D01*
X8582842Y22588001D01*
X8568336Y22660931D01*
X8568334Y22660937D01*
X8504259Y22815627D01*
X8411238Y22954844D01*
X8292843Y23073239D01*
X8153626Y23166260D01*
X7998936Y23230335D01*
X7998930Y23230337D01*
X7834716Y23263000D01*
X7376000Y23263000D01*
X7376000Y22713000D01*
X7026000Y22713000D01*
X7026000Y23263000D01*
X6567284Y23263000D01*
X6403069Y23230337D01*
X6403063Y23230335D01*
X6248373Y23166260D01*
X6186612Y23124993D01*
X6131063Y23113944D01*
X6083971Y23145410D01*
X6071500Y23186522D01*
X6071500Y23605746D01*
X6093173Y23658071D01*
X6265929Y23830828D01*
X6318255Y23852501D01*
X6502444Y23852501D01*
X6502444Y23852502D01*
X6560262Y23858716D01*
X6691068Y23907505D01*
X6787072Y23979373D01*
X6841949Y23993379D01*
X6875765Y23979372D01*
X6971174Y23907949D01*
X6971175Y23907948D01*
X7101841Y23859213D01*
X7101847Y23859211D01*
X7159613Y23853001D01*
X7516000Y23853001D01*
X7522384Y23853001D01*
X7580156Y23859212D01*
X7710824Y23907948D01*
X7710825Y23907949D01*
X7822472Y23991528D01*
X7906051Y24103175D01*
X7906052Y24103176D01*
X7954787Y24233842D01*
X7954788Y24233847D01*
X7961000Y24291615D01*
X7961000Y24306129D01*
X30941000Y24306129D01*
X30947273Y24247774D01*
X30947275Y24247768D01*
X30996513Y24115755D01*
X30996514Y24115754D01*
X31080955Y24002956D01*
X31193753Y23918515D01*
X31193754Y23918514D01*
X31325767Y23869276D01*
X31325773Y23869274D01*
X31384128Y23863000D01*
X31396000Y23863000D01*
X31396000Y24348000D01*
X30941000Y24348000D01*
X30941000Y24306129D01*
X7961000Y24306129D01*
X7961000Y24348000D01*
X7516000Y24348000D01*
X7516000Y23853001D01*
X7159613Y23853001D01*
X7165999Y23853002D01*
X7166000Y23853002D01*
X7166000Y24698000D01*
X7516000Y24698000D01*
X7960999Y24698000D01*
X7960999Y24739872D01*
X30941000Y24739872D01*
X30941000Y24698000D01*
X31396000Y24698000D01*
X31396000Y25212348D01*
X31416000Y25260633D01*
X31416000Y25598000D01*
X30961000Y25598000D01*
X30961000Y25556129D01*
X30967273Y25497774D01*
X30967275Y25497768D01*
X31016513Y25365755D01*
X31016514Y25365754D01*
X31100955Y25252956D01*
X31152022Y25214726D01*
X31180922Y25166016D01*
X31166915Y25111139D01*
X31152022Y25096246D01*
X31080955Y25043045D01*
X30996514Y24930247D01*
X30996513Y24930246D01*
X30947275Y24798233D01*
X30947273Y24798227D01*
X30941000Y24739872D01*
X7960999Y24739872D01*
X7960999Y24754386D01*
X7954788Y24812157D01*
X7906052Y24942825D01*
X7906051Y24942826D01*
X7822472Y25054473D01*
X7710825Y25138052D01*
X7710824Y25138053D01*
X7580158Y25186788D01*
X7580153Y25186789D01*
X7522386Y25193000D01*
X7516000Y25193000D01*
X7516000Y24698000D01*
X7166000Y24698000D01*
X7166000Y25193000D01*
X7165999Y25193001D01*
X7159619Y25193000D01*
X7159610Y25192999D01*
X7101843Y25186789D01*
X6971175Y25138053D01*
X6971170Y25138050D01*
X6875763Y25066629D01*
X6820885Y25052622D01*
X6787071Y25066629D01*
X6718404Y25118032D01*
X6691067Y25138496D01*
X6691068Y25138496D01*
X6560263Y25187284D01*
X6560260Y25187285D01*
X6502444Y25193500D01*
X6139556Y25193500D01*
X6139555Y25193499D01*
X6081737Y25187284D01*
X5950932Y25138496D01*
X5839169Y25054831D01*
X5755504Y24943068D01*
X5706716Y24812264D01*
X5706715Y24812261D01*
X5700500Y24754445D01*
X5700500Y24570256D01*
X5678826Y24517930D01*
X5260509Y24099613D01*
X5201199Y23996885D01*
X5201198Y23996882D01*
X5199668Y23991171D01*
X5199669Y23991170D01*
X5170500Y23882309D01*
X123132Y23882309D01*
X122632Y25989872D01*
X30961000Y25989872D01*
X30961000Y25948000D01*
X31416000Y25948000D01*
X31416000Y26433000D01*
X31404128Y26433000D01*
X31345773Y26426727D01*
X31345767Y26426725D01*
X31213754Y26377487D01*
X31213753Y26377486D01*
X31100955Y26293045D01*
X31016514Y26180247D01*
X31016513Y26180246D01*
X30967275Y26048233D01*
X30967273Y26048227D01*
X30961000Y25989872D01*
X122632Y25989872D01*
X122012Y28606767D01*
X7220500Y28606767D01*
X7220500Y28439234D01*
X7253182Y28274925D01*
X7253184Y28274918D01*
X7317296Y28120138D01*
X7399821Y27996631D01*
X7410374Y27980838D01*
X7528838Y27862374D01*
X7668137Y27769297D01*
X7822918Y27705184D01*
X7987233Y27672500D01*
X7987234Y27672500D01*
X8154766Y27672500D01*
X8154767Y27672500D01*
X8319082Y27705184D01*
X8473863Y27769297D01*
X8613162Y27862374D01*
X8731626Y27980838D01*
X8824703Y28120137D01*
X8872411Y28235312D01*
X28496000Y28235312D01*
X28510799Y28122896D01*
X28568737Y27983021D01*
X28660905Y27862906D01*
X28781020Y27770738D01*
X28920895Y27712800D01*
X29033312Y27698000D01*
X29121000Y27698000D01*
X29121000Y28348000D01*
X28496000Y28348000D01*
X28496000Y28235312D01*
X8872411Y28235312D01*
X8888816Y28274918D01*
X8921500Y28439233D01*
X8921500Y28606767D01*
X8888816Y28771082D01*
X8875655Y28802854D01*
X8872410Y28810689D01*
X28496000Y28810689D01*
X28496000Y28698000D01*
X29121000Y28698000D01*
X29121000Y29348000D01*
X29033312Y29348000D01*
X28920895Y29333201D01*
X28781020Y29275263D01*
X28660905Y29183095D01*
X28568737Y29062980D01*
X28510799Y28923105D01*
X28496000Y28810689D01*
X8872410Y28810689D01*
X8824703Y28925863D01*
X8731628Y29065159D01*
X8731626Y29065162D01*
X8613162Y29183626D01*
X8575415Y29208848D01*
X8473862Y29276704D01*
X8319082Y29340816D01*
X8319075Y29340818D01*
X8195288Y29365440D01*
X8154767Y29373500D01*
X7987233Y29373500D01*
X7954728Y29367035D01*
X7822924Y29340818D01*
X7822917Y29340816D01*
X7668137Y29276704D01*
X7528841Y29183629D01*
X7410371Y29065159D01*
X7317296Y28925863D01*
X7253184Y28771083D01*
X7253182Y28771076D01*
X7220500Y28606767D01*
X122012Y28606767D01*
X121500Y30769374D01*
X121855Y30776609D01*
X134227Y30902222D01*
X137054Y30916434D01*
X172632Y31033722D01*
X178178Y31047110D01*
X235954Y31155200D01*
X244006Y31167251D01*
X321756Y31261989D01*
X332013Y31272245D01*
X426749Y31349994D01*
X438800Y31358046D01*
X546890Y31415822D01*
X560278Y31421368D01*
X677566Y31456946D01*
X691780Y31459773D01*
X817386Y31472144D01*
X824639Y31472500D01*
X868595Y31472500D01*
X5819386Y31472500D01*
X59760054Y31465401D01*
G37*
%TD.AperFunction*%
%TD*%
%TA.AperFunction,Conductor*%
%TO.N,+3V3*%
G36*
X28176552Y14526326D02*
G01*
X28191069Y14505750D01*
X28618537Y13605817D01*
X28621410Y13549253D01*
X28592742Y13512495D01*
X27839642Y13010428D01*
X27798594Y12998000D01*
X26921000Y12998000D01*
X26472730Y12841106D01*
X26024458Y12684211D01*
X25967910Y12687383D01*
X25930166Y12729611D01*
X25926092Y12757491D01*
X25970490Y13712042D01*
X25974667Y13733337D01*
X26244484Y14493729D01*
X26248037Y14502074D01*
X26250553Y14507104D01*
X26293345Y14544206D01*
X26316735Y14548000D01*
X28124226Y14548000D01*
X28176552Y14526326D01*
G37*
%TD.AperFunction*%
%TD*%
%TA.AperFunction,Conductor*%
%TO.N,+3V3*%
G36*
X14671419Y11346492D02*
G01*
X15552362Y11328873D01*
X15845990Y11323000D01*
X15846000Y11323000D01*
X16579251Y11323000D01*
X16631577Y11301326D01*
X16642589Y11287267D01*
X17332928Y10144636D01*
X17343102Y10097887D01*
X17127247Y8227148D01*
X17099718Y8177651D01*
X17067436Y8162909D01*
X15418300Y7852202D01*
X15375176Y7857024D01*
X14688862Y8154427D01*
X14649468Y8195119D01*
X14644332Y8219682D01*
X14596047Y9571684D01*
X14596000Y9574325D01*
X14596000Y11272506D01*
X14617674Y11324832D01*
X14670000Y11346506D01*
X14671419Y11346492D01*
G37*
%TD.AperFunction*%
%TD*%
%TA.AperFunction,Conductor*%
%TO.N,+3V3*%
G36*
X32059772Y29451578D02*
G01*
X32068640Y29441304D01*
X32784750Y28438750D01*
X32798098Y28403763D01*
X32945978Y27048197D01*
X32946028Y27047722D01*
X33040060Y26130904D01*
X33036294Y26098916D01*
X33032206Y26087232D01*
X32997793Y26046706D01*
X32798384Y25937938D01*
X32742069Y25931909D01*
X32741187Y25932174D01*
X32173738Y26106774D01*
X32130100Y26142878D01*
X32121500Y26177502D01*
X32121500Y26253567D01*
X32133972Y26294680D01*
X32147465Y26314873D01*
X32196501Y26433256D01*
X32221500Y26558931D01*
X32221500Y26687069D01*
X32196501Y26812744D01*
X32147465Y26931127D01*
X32076276Y27037669D01*
X32073600Y27040345D01*
X32052114Y27087399D01*
X32046000Y27173000D01*
X32045999Y27173001D01*
X31057045Y27766373D01*
X31037845Y27782967D01*
X30398487Y28564405D01*
X30382127Y28618628D01*
X30386910Y28638388D01*
X30678615Y29378871D01*
X30717958Y29419609D01*
X30743353Y29425631D01*
X31100436Y29445469D01*
X31205459Y29451303D01*
X31219758Y29457696D01*
X31220419Y29457712D01*
X32007054Y29472279D01*
X32059772Y29451578D01*
G37*
%TD.AperFunction*%
%TD*%
M02*
